G04 #@! TF.GenerationSoftware,KiCad,Pcbnew,(5.1.9)-1*
G04 #@! TF.CreationDate,2021-06-04T19:47:10-04:00*
G04 #@! TF.ProjectId,version1,76657273-696f-46e3-912e-6b696361645f,rev?*
G04 #@! TF.SameCoordinates,Original*
G04 #@! TF.FileFunction,Copper,L2,Bot*
G04 #@! TF.FilePolarity,Positive*
%FSLAX46Y46*%
G04 Gerber Fmt 4.6, Leading zero omitted, Abs format (unit mm)*
G04 Created by KiCad (PCBNEW (5.1.9)-1) date 2021-06-04 19:47:10*
%MOMM*%
%LPD*%
G01*
G04 APERTURE LIST*
G04 #@! TA.AperFunction,ComponentPad*
%ADD10R,2.000000X2.000000*%
G04 #@! TD*
G04 #@! TA.AperFunction,ComponentPad*
%ADD11C,2.000000*%
G04 #@! TD*
G04 #@! TA.AperFunction,ComponentPad*
%ADD12R,2.000000X3.200000*%
G04 #@! TD*
G04 #@! TA.AperFunction,SMDPad,CuDef*
%ADD13R,2.550000X2.500000*%
G04 #@! TD*
G04 #@! TA.AperFunction,ComponentPad*
%ADD14C,2.250000*%
G04 #@! TD*
G04 #@! TA.AperFunction,SMDPad,CuDef*
%ADD15R,1.000000X1.000000*%
G04 #@! TD*
G04 #@! TA.AperFunction,SMDPad,CuDef*
%ADD16R,0.600000X2.450000*%
G04 #@! TD*
G04 #@! TA.AperFunction,SMDPad,CuDef*
%ADD17R,0.300000X2.450000*%
G04 #@! TD*
G04 #@! TA.AperFunction,ComponentPad*
%ADD18O,1.000000X2.100000*%
G04 #@! TD*
G04 #@! TA.AperFunction,ComponentPad*
%ADD19O,1.000000X1.600000*%
G04 #@! TD*
G04 #@! TA.AperFunction,ComponentPad*
%ADD20O,1.700000X1.700000*%
G04 #@! TD*
G04 #@! TA.AperFunction,ComponentPad*
%ADD21R,1.700000X1.700000*%
G04 #@! TD*
G04 #@! TA.AperFunction,SMDPad,CuDef*
%ADD22R,1.500000X0.550000*%
G04 #@! TD*
G04 #@! TA.AperFunction,SMDPad,CuDef*
%ADD23R,0.550000X1.500000*%
G04 #@! TD*
G04 #@! TA.AperFunction,SMDPad,CuDef*
%ADD24R,5.000000X5.000000*%
G04 #@! TD*
G04 #@! TA.AperFunction,SMDPad,CuDef*
%ADD25R,1.800000X2.100000*%
G04 #@! TD*
G04 #@! TA.AperFunction,SMDPad,CuDef*
%ADD26R,0.700000X1.000000*%
G04 #@! TD*
G04 #@! TA.AperFunction,SMDPad,CuDef*
%ADD27R,0.700000X0.600000*%
G04 #@! TD*
G04 #@! TA.AperFunction,ComponentPad*
%ADD28C,1.700000*%
G04 #@! TD*
G04 #@! TA.AperFunction,ComponentPad*
%ADD29C,1.800000*%
G04 #@! TD*
G04 #@! TA.AperFunction,ComponentPad*
%ADD30R,1.800000X1.800000*%
G04 #@! TD*
G04 #@! TA.AperFunction,ViaPad*
%ADD31C,0.800000*%
G04 #@! TD*
G04 #@! TA.AperFunction,Conductor*
%ADD32C,0.381000*%
G04 #@! TD*
G04 #@! TA.AperFunction,Conductor*
%ADD33C,0.254000*%
G04 #@! TD*
G04 #@! TA.AperFunction,Conductor*
%ADD34C,0.200000*%
G04 #@! TD*
G04 #@! TA.AperFunction,Conductor*
%ADD35C,2.000000*%
G04 #@! TD*
G04 APERTURE END LIST*
D10*
X381793750Y-95250000D03*
D11*
X384293750Y-95250000D03*
X386793750Y-95250000D03*
D12*
X378693750Y-87750000D03*
X389893750Y-87750000D03*
D11*
X381793750Y-80750000D03*
X386793750Y-80750000D03*
G04 #@! TA.AperFunction,SMDPad,CuDef*
G36*
G01*
X393354000Y-117492000D02*
X393354000Y-119092000D01*
G75*
G02*
X393154000Y-119292000I-200000J0D01*
G01*
X392754000Y-119292000D01*
G75*
G02*
X392554000Y-119092000I0J200000D01*
G01*
X392554000Y-117492000D01*
G75*
G02*
X392754000Y-117292000I200000J0D01*
G01*
X393154000Y-117292000D01*
G75*
G02*
X393354000Y-117492000I0J-200000D01*
G01*
G37*
G04 #@! TD.AperFunction*
G04 #@! TA.AperFunction,SMDPad,CuDef*
G36*
G01*
X389154000Y-117492000D02*
X389154000Y-119092000D01*
G75*
G02*
X388954000Y-119292000I-200000J0D01*
G01*
X388554000Y-119292000D01*
G75*
G02*
X388354000Y-119092000I0J200000D01*
G01*
X388354000Y-117492000D01*
G75*
G02*
X388554000Y-117292000I200000J0D01*
G01*
X388954000Y-117292000D01*
G75*
G02*
X389154000Y-117492000I0J-200000D01*
G01*
G37*
G04 #@! TD.AperFunction*
G04 #@! TA.AperFunction,SMDPad,CuDef*
G36*
G01*
X360987500Y-94616000D02*
X359737500Y-94616000D01*
G75*
G02*
X359487500Y-94366000I0J250000D01*
G01*
X359487500Y-93441000D01*
G75*
G02*
X359737500Y-93191000I250000J0D01*
G01*
X360987500Y-93191000D01*
G75*
G02*
X361237500Y-93441000I0J-250000D01*
G01*
X361237500Y-94366000D01*
G75*
G02*
X360987500Y-94616000I-250000J0D01*
G01*
G37*
G04 #@! TD.AperFunction*
G04 #@! TA.AperFunction,SMDPad,CuDef*
G36*
G01*
X360987500Y-97591000D02*
X359737500Y-97591000D01*
G75*
G02*
X359487500Y-97341000I0J250000D01*
G01*
X359487500Y-96416000D01*
G75*
G02*
X359737500Y-96166000I250000J0D01*
G01*
X360987500Y-96166000D01*
G75*
G02*
X361237500Y-96416000I0J-250000D01*
G01*
X361237500Y-97341000D01*
G75*
G02*
X360987500Y-97591000I-250000J0D01*
G01*
G37*
G04 #@! TD.AperFunction*
G04 #@! TA.AperFunction,SMDPad,CuDef*
G36*
G01*
X370856500Y-136723000D02*
X371331500Y-136723000D01*
G75*
G02*
X371569000Y-136960500I0J-237500D01*
G01*
X371569000Y-137560500D01*
G75*
G02*
X371331500Y-137798000I-237500J0D01*
G01*
X370856500Y-137798000D01*
G75*
G02*
X370619000Y-137560500I0J237500D01*
G01*
X370619000Y-136960500D01*
G75*
G02*
X370856500Y-136723000I237500J0D01*
G01*
G37*
G04 #@! TD.AperFunction*
G04 #@! TA.AperFunction,SMDPad,CuDef*
G36*
G01*
X370856500Y-134998000D02*
X371331500Y-134998000D01*
G75*
G02*
X371569000Y-135235500I0J-237500D01*
G01*
X371569000Y-135835500D01*
G75*
G02*
X371331500Y-136073000I-237500J0D01*
G01*
X370856500Y-136073000D01*
G75*
G02*
X370619000Y-135835500I0J237500D01*
G01*
X370619000Y-135235500D01*
G75*
G02*
X370856500Y-134998000I237500J0D01*
G01*
G37*
G04 #@! TD.AperFunction*
D13*
X357473250Y-132238750D03*
X344546250Y-134778750D03*
D14*
X347821250Y-134778750D03*
X354171250Y-132238750D03*
D13*
X100298250Y-132238750D03*
X87371250Y-134778750D03*
D14*
X90646250Y-134778750D03*
X96996250Y-132238750D03*
D13*
X352710750Y-113188750D03*
X339783750Y-115728750D03*
D14*
X343058750Y-115728750D03*
X349408750Y-113188750D03*
D13*
X216979500Y-189388750D03*
X204052500Y-191928750D03*
D14*
X207327500Y-191928750D03*
X213677500Y-189388750D03*
D13*
X350329500Y-151288750D03*
X337402500Y-153828750D03*
D14*
X340677500Y-153828750D03*
X347027500Y-151288750D03*
D13*
X107442000Y-170338750D03*
X94515000Y-172878750D03*
D14*
X97790000Y-172878750D03*
X104140000Y-170338750D03*
D13*
X102679500Y-151288750D03*
X89752500Y-153828750D03*
D14*
X93027500Y-153828750D03*
X99377500Y-151288750D03*
D13*
X336042000Y-170338750D03*
X323115000Y-172878750D03*
D14*
X326390000Y-172878750D03*
X332740000Y-170338750D03*
D13*
X97917000Y-189388750D03*
X84990000Y-191928750D03*
D14*
X88265000Y-191928750D03*
X94615000Y-189388750D03*
D13*
X121729500Y-189388750D03*
X108802500Y-191928750D03*
D14*
X112077500Y-191928750D03*
X118427500Y-189388750D03*
D13*
X145542000Y-189388750D03*
X132615000Y-191928750D03*
D14*
X135890000Y-191928750D03*
X142240000Y-189388750D03*
D13*
X124110750Y-84613750D03*
X111183750Y-87153750D03*
D14*
X114458750Y-87153750D03*
X120808750Y-84613750D03*
D13*
X143160750Y-84613750D03*
X130233750Y-87153750D03*
D14*
X133508750Y-87153750D03*
X139858750Y-84613750D03*
D13*
X162210750Y-84613750D03*
X149283750Y-87153750D03*
D14*
X152558750Y-87153750D03*
X158908750Y-84613750D03*
D13*
X181260750Y-84613750D03*
X168333750Y-87153750D03*
D14*
X171608750Y-87153750D03*
X177958750Y-84613750D03*
D13*
X209835750Y-84613750D03*
X196908750Y-87153750D03*
D14*
X200183750Y-87153750D03*
X206533750Y-84613750D03*
D13*
X228885750Y-84613750D03*
X215958750Y-87153750D03*
D14*
X219233750Y-87153750D03*
X225583750Y-84613750D03*
D13*
X247935750Y-84613750D03*
X235008750Y-87153750D03*
D14*
X238283750Y-87153750D03*
X244633750Y-84613750D03*
D13*
X266985750Y-84613750D03*
X254058750Y-87153750D03*
D14*
X257333750Y-87153750D03*
X263683750Y-84613750D03*
D13*
X295560750Y-84613750D03*
X282633750Y-87153750D03*
D14*
X285908750Y-87153750D03*
X292258750Y-84613750D03*
D13*
X314610750Y-84613750D03*
X301683750Y-87153750D03*
D14*
X304958750Y-87153750D03*
X311308750Y-84613750D03*
D13*
X333660750Y-84613750D03*
X320733750Y-87153750D03*
D14*
X324008750Y-87153750D03*
X330358750Y-84613750D03*
D13*
X352710750Y-84613750D03*
X339783750Y-87153750D03*
D14*
X343058750Y-87153750D03*
X349408750Y-84613750D03*
D13*
X95535750Y-113188750D03*
X82608750Y-115728750D03*
D14*
X85883750Y-115728750D03*
X92233750Y-113188750D03*
D13*
X114585750Y-113188750D03*
X101658750Y-115728750D03*
D14*
X104933750Y-115728750D03*
X111283750Y-113188750D03*
D13*
X133635750Y-113188750D03*
X120708750Y-115728750D03*
D14*
X123983750Y-115728750D03*
X130333750Y-113188750D03*
D13*
X152685750Y-113188750D03*
X139758750Y-115728750D03*
D14*
X143033750Y-115728750D03*
X149383750Y-113188750D03*
D13*
X171735750Y-113188750D03*
X158808750Y-115728750D03*
D14*
X162083750Y-115728750D03*
X168433750Y-113188750D03*
D13*
X190785750Y-113188750D03*
X177858750Y-115728750D03*
D14*
X181133750Y-115728750D03*
X187483750Y-113188750D03*
D13*
X209835750Y-113188750D03*
X196908750Y-115728750D03*
D14*
X200183750Y-115728750D03*
X206533750Y-113188750D03*
D13*
X228885750Y-113188750D03*
X215958750Y-115728750D03*
D14*
X219233750Y-115728750D03*
X225583750Y-113188750D03*
D13*
X247935750Y-113188750D03*
X235008750Y-115728750D03*
D14*
X238283750Y-115728750D03*
X244633750Y-113188750D03*
D13*
X266985750Y-113188750D03*
X254058750Y-115728750D03*
D14*
X257333750Y-115728750D03*
X263683750Y-113188750D03*
D13*
X286035750Y-113188750D03*
X273108750Y-115728750D03*
D14*
X276383750Y-115728750D03*
X282733750Y-113188750D03*
D13*
X305085750Y-113188750D03*
X292158750Y-115728750D03*
D14*
X295433750Y-115728750D03*
X301783750Y-113188750D03*
D13*
X324135750Y-113188750D03*
X311208750Y-115728750D03*
D14*
X314483750Y-115728750D03*
X320833750Y-113188750D03*
D13*
X124110750Y-132238750D03*
X111183750Y-134778750D03*
D14*
X114458750Y-134778750D03*
X120808750Y-132238750D03*
D13*
X143160750Y-132238750D03*
X130233750Y-134778750D03*
D14*
X133508750Y-134778750D03*
X139858750Y-132238750D03*
D13*
X181260750Y-132238750D03*
X168333750Y-134778750D03*
D14*
X171608750Y-134778750D03*
X177958750Y-132238750D03*
D13*
X200310750Y-132238750D03*
X187383750Y-134778750D03*
D14*
X190658750Y-134778750D03*
X197008750Y-132238750D03*
D13*
X219360750Y-132238750D03*
X206433750Y-134778750D03*
D14*
X209708750Y-134778750D03*
X216058750Y-132238750D03*
D13*
X238410750Y-132238750D03*
X225483750Y-134778750D03*
D14*
X228758750Y-134778750D03*
X235108750Y-132238750D03*
D13*
X257460750Y-132238750D03*
X244533750Y-134778750D03*
D14*
X247808750Y-134778750D03*
X254158750Y-132238750D03*
D13*
X276510750Y-132238750D03*
X263583750Y-134778750D03*
D14*
X266858750Y-134778750D03*
X273208750Y-132238750D03*
D13*
X314610750Y-132238750D03*
X301683750Y-134778750D03*
D14*
X304958750Y-134778750D03*
X311308750Y-132238750D03*
D13*
X333660750Y-132238750D03*
X320733750Y-134778750D03*
D14*
X324008750Y-134778750D03*
X330358750Y-132238750D03*
D13*
X128873250Y-151288750D03*
X115946250Y-153828750D03*
D14*
X119221250Y-153828750D03*
X125571250Y-151288750D03*
D13*
X147923250Y-151288750D03*
X134996250Y-153828750D03*
D14*
X138271250Y-153828750D03*
X144621250Y-151288750D03*
D13*
X166973250Y-151288750D03*
X154046250Y-153828750D03*
D14*
X157321250Y-153828750D03*
X163671250Y-151288750D03*
D13*
X186023250Y-151288750D03*
X173096250Y-153828750D03*
D14*
X176371250Y-153828750D03*
X182721250Y-151288750D03*
D13*
X243173250Y-151288750D03*
X230246250Y-153828750D03*
D14*
X233521250Y-153828750D03*
X239871250Y-151288750D03*
D13*
X262223250Y-151288750D03*
X249296250Y-153828750D03*
D14*
X252571250Y-153828750D03*
X258921250Y-151288750D03*
D13*
X281273250Y-151288750D03*
X268346250Y-153828750D03*
D14*
X271621250Y-153828750D03*
X277971250Y-151288750D03*
D13*
X300323250Y-151288750D03*
X287396250Y-153828750D03*
D14*
X290671250Y-153828750D03*
X297021250Y-151288750D03*
D13*
X319373250Y-151288750D03*
X306446250Y-153828750D03*
D14*
X309721250Y-153828750D03*
X316071250Y-151288750D03*
D13*
X390810750Y-151288750D03*
X377883750Y-153828750D03*
D14*
X381158750Y-153828750D03*
X387508750Y-151288750D03*
D13*
X157448250Y-170338750D03*
X144521250Y-172878750D03*
D14*
X147796250Y-172878750D03*
X154146250Y-170338750D03*
D13*
X176498250Y-170338750D03*
X163571250Y-172878750D03*
D14*
X166846250Y-172878750D03*
X173196250Y-170338750D03*
D13*
X195548250Y-170338750D03*
X182621250Y-172878750D03*
D14*
X185896250Y-172878750D03*
X192246250Y-170338750D03*
D13*
X214598250Y-170338750D03*
X201671250Y-172878750D03*
D14*
X204946250Y-172878750D03*
X211296250Y-170338750D03*
D13*
X233648250Y-170338750D03*
X220721250Y-172878750D03*
D14*
X223996250Y-172878750D03*
X230346250Y-170338750D03*
D13*
X252698250Y-170338750D03*
X239771250Y-172878750D03*
D14*
X243046250Y-172878750D03*
X249396250Y-170338750D03*
D13*
X271748250Y-170338750D03*
X258821250Y-172878750D03*
D14*
X262096250Y-172878750D03*
X268446250Y-170338750D03*
D13*
X290798250Y-170338750D03*
X277871250Y-172878750D03*
D14*
X281146250Y-172878750D03*
X287496250Y-170338750D03*
D13*
X309848250Y-170338750D03*
X296921250Y-172878750D03*
D14*
X300196250Y-172878750D03*
X306546250Y-170338750D03*
D13*
X390810750Y-170338750D03*
X377883750Y-172878750D03*
D14*
X381158750Y-172878750D03*
X387508750Y-170338750D03*
D13*
X305085750Y-189388750D03*
X292158750Y-191928750D03*
D14*
X295433750Y-191928750D03*
X301783750Y-189388750D03*
D13*
X324135750Y-189388750D03*
X311208750Y-191928750D03*
D14*
X314483750Y-191928750D03*
X320833750Y-189388750D03*
D13*
X366998250Y-194151250D03*
X354071250Y-196691250D03*
D14*
X357346250Y-196691250D03*
X363696250Y-194151250D03*
D13*
X224123250Y-151288750D03*
X211196250Y-153828750D03*
D14*
X214471250Y-153828750D03*
X220821250Y-151288750D03*
D13*
X138398250Y-170338750D03*
X125471250Y-172878750D03*
D14*
X128746250Y-172878750D03*
X135096250Y-170338750D03*
D13*
X286035750Y-189388750D03*
X273108750Y-191928750D03*
D14*
X276383750Y-191928750D03*
X282733750Y-189388750D03*
D13*
X347948250Y-194151250D03*
X335021250Y-196691250D03*
D14*
X338296250Y-196691250D03*
X344646250Y-194151250D03*
D13*
X386048250Y-194151250D03*
X373121250Y-196691250D03*
D14*
X376396250Y-196691250D03*
X382746250Y-194151250D03*
D13*
X205073250Y-151288750D03*
X192146250Y-153828750D03*
D14*
X195421250Y-153828750D03*
X201771250Y-151288750D03*
D13*
X162210750Y-132238750D03*
X149283750Y-134778750D03*
D14*
X152558750Y-134778750D03*
X158908750Y-132238750D03*
D13*
X295560750Y-132238750D03*
X282633750Y-134778750D03*
D14*
X285908750Y-134778750D03*
X292258750Y-132238750D03*
D13*
X366998250Y-175101250D03*
X354071250Y-177641250D03*
D14*
X357346250Y-177641250D03*
X363696250Y-175101250D03*
D13*
X95535750Y-84613750D03*
X82608750Y-87153750D03*
D14*
X85883750Y-87153750D03*
X92233750Y-84613750D03*
D15*
X388937500Y-197981250D03*
X388937500Y-200481250D03*
X369887500Y-197981250D03*
X369887500Y-200481250D03*
X350837500Y-197981250D03*
X350837500Y-200481250D03*
X327025000Y-193218750D03*
X327025000Y-195718750D03*
X307975000Y-193218750D03*
X307975000Y-195718750D03*
X288925000Y-193218750D03*
X288925000Y-195718750D03*
X218948000Y-194330000D03*
X218948000Y-196830000D03*
X148431250Y-193300000D03*
X148431250Y-195800000D03*
X124618750Y-193300000D03*
X124618750Y-195800000D03*
X100806250Y-193137500D03*
X100806250Y-195637500D03*
X393700000Y-174168750D03*
X393700000Y-176668750D03*
X369887500Y-178931250D03*
X369887500Y-181431250D03*
X338931250Y-174168750D03*
X338931250Y-176668750D03*
X312737500Y-174168750D03*
X312737500Y-176668750D03*
X293687500Y-174168750D03*
X293687500Y-176668750D03*
X274637500Y-174168750D03*
X274637500Y-176668750D03*
X255587500Y-174168750D03*
X255587500Y-176668750D03*
X236537500Y-174168750D03*
X236537500Y-176668750D03*
X217487500Y-174168750D03*
X217487500Y-176668750D03*
X198437500Y-174168750D03*
X198437500Y-176668750D03*
X179387500Y-174168750D03*
X179387500Y-176668750D03*
X160337500Y-174168750D03*
X160337500Y-176668750D03*
X141287500Y-174168750D03*
X141287500Y-176668750D03*
X110331250Y-174168750D03*
X110331250Y-176668750D03*
X393700000Y-155118750D03*
X393700000Y-157618750D03*
X353218750Y-155118750D03*
X353218750Y-157618750D03*
X322262500Y-155118750D03*
X322262500Y-157618750D03*
X303212500Y-155118750D03*
X303212500Y-157618750D03*
X284162500Y-155118750D03*
X284162500Y-157618750D03*
X265112500Y-155118750D03*
X265112500Y-157618750D03*
X246062500Y-155118750D03*
X246062500Y-157618750D03*
X227012500Y-155118750D03*
X227012500Y-157618750D03*
X207962500Y-155118750D03*
X207962500Y-157618750D03*
X188912500Y-155118750D03*
X188912500Y-157618750D03*
X169862500Y-155118750D03*
X169862500Y-157618750D03*
X150812500Y-155118750D03*
X150812500Y-157618750D03*
X131762500Y-155118750D03*
X131762500Y-157618750D03*
X105568750Y-155118750D03*
X105568750Y-157618750D03*
X360362500Y-136068750D03*
X360362500Y-138568750D03*
X336550000Y-136068750D03*
X336550000Y-138568750D03*
X317500000Y-136068750D03*
X317500000Y-138568750D03*
X298450000Y-136068750D03*
X298450000Y-138568750D03*
X279400000Y-136068750D03*
X279400000Y-138568750D03*
X260350000Y-136068750D03*
X260350000Y-138568750D03*
X241300000Y-136068750D03*
X241300000Y-138568750D03*
X222250000Y-136068750D03*
X222250000Y-138568750D03*
X203200000Y-136068750D03*
X203200000Y-138568750D03*
X184150000Y-136068750D03*
X184150000Y-138568750D03*
X165100000Y-136068750D03*
X165100000Y-138568750D03*
X146050000Y-136068750D03*
X146050000Y-138568750D03*
X127000000Y-136068750D03*
X127000000Y-138568750D03*
X103187500Y-136068750D03*
X103187500Y-138568750D03*
X355600000Y-117018750D03*
X355600000Y-119518750D03*
X327025000Y-117018750D03*
X327025000Y-119518750D03*
X307975000Y-117018750D03*
X307975000Y-119518750D03*
X288925000Y-117018750D03*
X288925000Y-119518750D03*
X269875000Y-117018750D03*
X269875000Y-119518750D03*
X250825000Y-117018750D03*
X250825000Y-119518750D03*
X231775000Y-117018750D03*
X231775000Y-119518750D03*
X212725000Y-117018750D03*
X212725000Y-119518750D03*
X193675000Y-117018750D03*
X193675000Y-119518750D03*
X174625000Y-117018750D03*
X174625000Y-119518750D03*
X155575000Y-117018750D03*
X155575000Y-119518750D03*
X136525000Y-117018750D03*
X136525000Y-119518750D03*
X117475000Y-117018750D03*
X117475000Y-119518750D03*
X98425000Y-117018750D03*
X98425000Y-119518750D03*
X376682000Y-82570000D03*
X376682000Y-85070000D03*
X355600000Y-88443750D03*
X355600000Y-90943750D03*
X336550000Y-88443750D03*
X336550000Y-90943750D03*
X317500000Y-88443750D03*
X317500000Y-90943750D03*
X298450000Y-88443750D03*
X298450000Y-90943750D03*
X269875000Y-88443750D03*
X269875000Y-90943750D03*
X250825000Y-88443750D03*
X250825000Y-90943750D03*
X231775000Y-88443750D03*
X231775000Y-90943750D03*
X212725000Y-88443750D03*
X212725000Y-90943750D03*
X184150000Y-88443750D03*
X184150000Y-90943750D03*
X165100000Y-88443750D03*
X165100000Y-90943750D03*
X146050000Y-88443750D03*
X146050000Y-90943750D03*
X127000000Y-88362500D03*
X127000000Y-90862500D03*
X98425000Y-88525000D03*
X98425000Y-91025000D03*
D16*
X369963700Y-85188750D03*
X363461300Y-85197950D03*
X369162500Y-85188750D03*
X364262500Y-85188750D03*
D17*
X364962500Y-85188750D03*
X368462500Y-85188750D03*
X365462500Y-85188750D03*
X367962500Y-85188750D03*
X365962500Y-85188750D03*
X367462500Y-85188750D03*
X366962500Y-85188750D03*
X366462500Y-85188750D03*
D18*
X362392500Y-83773750D03*
X371032500Y-83773750D03*
D19*
X362392500Y-79593750D03*
X371032500Y-79593750D03*
D20*
X380523750Y-99218750D03*
X383063750Y-99218750D03*
X385603750Y-99218750D03*
D21*
X388143750Y-99218750D03*
G04 #@! TA.AperFunction,SMDPad,CuDef*
G36*
G01*
X371110500Y-125547000D02*
X371585500Y-125547000D01*
G75*
G02*
X371823000Y-125784500I0J-237500D01*
G01*
X371823000Y-126384500D01*
G75*
G02*
X371585500Y-126622000I-237500J0D01*
G01*
X371110500Y-126622000D01*
G75*
G02*
X370873000Y-126384500I0J237500D01*
G01*
X370873000Y-125784500D01*
G75*
G02*
X371110500Y-125547000I237500J0D01*
G01*
G37*
G04 #@! TD.AperFunction*
G04 #@! TA.AperFunction,SMDPad,CuDef*
G36*
G01*
X371110500Y-123822000D02*
X371585500Y-123822000D01*
G75*
G02*
X371823000Y-124059500I0J-237500D01*
G01*
X371823000Y-124659500D01*
G75*
G02*
X371585500Y-124897000I-237500J0D01*
G01*
X371110500Y-124897000D01*
G75*
G02*
X370873000Y-124659500I0J237500D01*
G01*
X370873000Y-124059500D01*
G75*
G02*
X371110500Y-123822000I237500J0D01*
G01*
G37*
G04 #@! TD.AperFunction*
G04 #@! TA.AperFunction,SMDPad,CuDef*
G36*
G01*
X234458500Y-185237000D02*
X234933500Y-185237000D01*
G75*
G02*
X235171000Y-185474500I0J-237500D01*
G01*
X235171000Y-186074500D01*
G75*
G02*
X234933500Y-186312000I-237500J0D01*
G01*
X234458500Y-186312000D01*
G75*
G02*
X234221000Y-186074500I0J237500D01*
G01*
X234221000Y-185474500D01*
G75*
G02*
X234458500Y-185237000I237500J0D01*
G01*
G37*
G04 #@! TD.AperFunction*
G04 #@! TA.AperFunction,SMDPad,CuDef*
G36*
G01*
X234458500Y-183512000D02*
X234933500Y-183512000D01*
G75*
G02*
X235171000Y-183749500I0J-237500D01*
G01*
X235171000Y-184349500D01*
G75*
G02*
X234933500Y-184587000I-237500J0D01*
G01*
X234458500Y-184587000D01*
G75*
G02*
X234221000Y-184349500I0J237500D01*
G01*
X234221000Y-183749500D01*
G75*
G02*
X234458500Y-183512000I237500J0D01*
G01*
G37*
G04 #@! TD.AperFunction*
D22*
X374093750Y-127445250D03*
X374093750Y-128245250D03*
X374093750Y-129045250D03*
X374093750Y-129845250D03*
X374093750Y-130645250D03*
X374093750Y-131445250D03*
X374093750Y-132245250D03*
X374093750Y-133045250D03*
X374093750Y-133845250D03*
X374093750Y-134645250D03*
X374093750Y-135445250D03*
X374093750Y-136245250D03*
X374093750Y-137045250D03*
X374093750Y-137845250D03*
X374093750Y-138645250D03*
X374093750Y-139445250D03*
D23*
X375793750Y-141145250D03*
X376593750Y-141145250D03*
X377393750Y-141145250D03*
X378193750Y-141145250D03*
X378993750Y-141145250D03*
X379793750Y-141145250D03*
X380593750Y-141145250D03*
X381393750Y-141145250D03*
X382193750Y-141145250D03*
X382993750Y-141145250D03*
X383793750Y-141145250D03*
X384593750Y-141145250D03*
X385393750Y-141145250D03*
X386193750Y-141145250D03*
X386993750Y-141145250D03*
X387793750Y-141145250D03*
D22*
X389493750Y-139445250D03*
X389493750Y-138645250D03*
X389493750Y-137845250D03*
X389493750Y-137045250D03*
X389493750Y-136245250D03*
X389493750Y-135445250D03*
X389493750Y-134645250D03*
X389493750Y-133845250D03*
X389493750Y-133045250D03*
X389493750Y-132245250D03*
X389493750Y-131445250D03*
X389493750Y-130645250D03*
X389493750Y-129845250D03*
X389493750Y-129045250D03*
X389493750Y-128245250D03*
X389493750Y-127445250D03*
D23*
X387793750Y-125745250D03*
X386993750Y-125745250D03*
X386193750Y-125745250D03*
X385393750Y-125745250D03*
X384593750Y-125745250D03*
X383793750Y-125745250D03*
X382993750Y-125745250D03*
X382193750Y-125745250D03*
X381393750Y-125745250D03*
X380593750Y-125745250D03*
X379793750Y-125745250D03*
X378993750Y-125745250D03*
X378193750Y-125745250D03*
X377393750Y-125745250D03*
X376593750Y-125745250D03*
X375793750Y-125745250D03*
G04 #@! TA.AperFunction,SMDPad,CuDef*
G36*
G01*
X393136000Y-129777500D02*
X393136000Y-129302500D01*
G75*
G02*
X393373500Y-129065000I237500J0D01*
G01*
X393973500Y-129065000D01*
G75*
G02*
X394211000Y-129302500I0J-237500D01*
G01*
X394211000Y-129777500D01*
G75*
G02*
X393973500Y-130015000I-237500J0D01*
G01*
X393373500Y-130015000D01*
G75*
G02*
X393136000Y-129777500I0J237500D01*
G01*
G37*
G04 #@! TD.AperFunction*
G04 #@! TA.AperFunction,SMDPad,CuDef*
G36*
G01*
X391411000Y-129777500D02*
X391411000Y-129302500D01*
G75*
G02*
X391648500Y-129065000I237500J0D01*
G01*
X392248500Y-129065000D01*
G75*
G02*
X392486000Y-129302500I0J-237500D01*
G01*
X392486000Y-129777500D01*
G75*
G02*
X392248500Y-130015000I-237500J0D01*
G01*
X391648500Y-130015000D01*
G75*
G02*
X391411000Y-129777500I0J237500D01*
G01*
G37*
G04 #@! TD.AperFunction*
D24*
X231775000Y-194468750D03*
G04 #@! TA.AperFunction,SMDPad,CuDef*
G36*
G01*
X236600000Y-197368750D02*
X235275000Y-197368750D01*
G75*
G02*
X235200000Y-197293750I0J75000D01*
G01*
X235200000Y-197143750D01*
G75*
G02*
X235275000Y-197068750I75000J0D01*
G01*
X236600000Y-197068750D01*
G75*
G02*
X236675000Y-197143750I0J-75000D01*
G01*
X236675000Y-197293750D01*
G75*
G02*
X236600000Y-197368750I-75000J0D01*
G01*
G37*
G04 #@! TD.AperFunction*
G04 #@! TA.AperFunction,SMDPad,CuDef*
G36*
G01*
X236600000Y-196868750D02*
X235275000Y-196868750D01*
G75*
G02*
X235200000Y-196793750I0J75000D01*
G01*
X235200000Y-196643750D01*
G75*
G02*
X235275000Y-196568750I75000J0D01*
G01*
X236600000Y-196568750D01*
G75*
G02*
X236675000Y-196643750I0J-75000D01*
G01*
X236675000Y-196793750D01*
G75*
G02*
X236600000Y-196868750I-75000J0D01*
G01*
G37*
G04 #@! TD.AperFunction*
G04 #@! TA.AperFunction,SMDPad,CuDef*
G36*
G01*
X236600000Y-196368750D02*
X235275000Y-196368750D01*
G75*
G02*
X235200000Y-196293750I0J75000D01*
G01*
X235200000Y-196143750D01*
G75*
G02*
X235275000Y-196068750I75000J0D01*
G01*
X236600000Y-196068750D01*
G75*
G02*
X236675000Y-196143750I0J-75000D01*
G01*
X236675000Y-196293750D01*
G75*
G02*
X236600000Y-196368750I-75000J0D01*
G01*
G37*
G04 #@! TD.AperFunction*
G04 #@! TA.AperFunction,SMDPad,CuDef*
G36*
G01*
X236600000Y-195868750D02*
X235275000Y-195868750D01*
G75*
G02*
X235200000Y-195793750I0J75000D01*
G01*
X235200000Y-195643750D01*
G75*
G02*
X235275000Y-195568750I75000J0D01*
G01*
X236600000Y-195568750D01*
G75*
G02*
X236675000Y-195643750I0J-75000D01*
G01*
X236675000Y-195793750D01*
G75*
G02*
X236600000Y-195868750I-75000J0D01*
G01*
G37*
G04 #@! TD.AperFunction*
G04 #@! TA.AperFunction,SMDPad,CuDef*
G36*
G01*
X236600000Y-195368750D02*
X235275000Y-195368750D01*
G75*
G02*
X235200000Y-195293750I0J75000D01*
G01*
X235200000Y-195143750D01*
G75*
G02*
X235275000Y-195068750I75000J0D01*
G01*
X236600000Y-195068750D01*
G75*
G02*
X236675000Y-195143750I0J-75000D01*
G01*
X236675000Y-195293750D01*
G75*
G02*
X236600000Y-195368750I-75000J0D01*
G01*
G37*
G04 #@! TD.AperFunction*
G04 #@! TA.AperFunction,SMDPad,CuDef*
G36*
G01*
X236600000Y-194868750D02*
X235275000Y-194868750D01*
G75*
G02*
X235200000Y-194793750I0J75000D01*
G01*
X235200000Y-194643750D01*
G75*
G02*
X235275000Y-194568750I75000J0D01*
G01*
X236600000Y-194568750D01*
G75*
G02*
X236675000Y-194643750I0J-75000D01*
G01*
X236675000Y-194793750D01*
G75*
G02*
X236600000Y-194868750I-75000J0D01*
G01*
G37*
G04 #@! TD.AperFunction*
G04 #@! TA.AperFunction,SMDPad,CuDef*
G36*
G01*
X236600000Y-194368750D02*
X235275000Y-194368750D01*
G75*
G02*
X235200000Y-194293750I0J75000D01*
G01*
X235200000Y-194143750D01*
G75*
G02*
X235275000Y-194068750I75000J0D01*
G01*
X236600000Y-194068750D01*
G75*
G02*
X236675000Y-194143750I0J-75000D01*
G01*
X236675000Y-194293750D01*
G75*
G02*
X236600000Y-194368750I-75000J0D01*
G01*
G37*
G04 #@! TD.AperFunction*
G04 #@! TA.AperFunction,SMDPad,CuDef*
G36*
G01*
X236600000Y-193868750D02*
X235275000Y-193868750D01*
G75*
G02*
X235200000Y-193793750I0J75000D01*
G01*
X235200000Y-193643750D01*
G75*
G02*
X235275000Y-193568750I75000J0D01*
G01*
X236600000Y-193568750D01*
G75*
G02*
X236675000Y-193643750I0J-75000D01*
G01*
X236675000Y-193793750D01*
G75*
G02*
X236600000Y-193868750I-75000J0D01*
G01*
G37*
G04 #@! TD.AperFunction*
G04 #@! TA.AperFunction,SMDPad,CuDef*
G36*
G01*
X236600000Y-193368750D02*
X235275000Y-193368750D01*
G75*
G02*
X235200000Y-193293750I0J75000D01*
G01*
X235200000Y-193143750D01*
G75*
G02*
X235275000Y-193068750I75000J0D01*
G01*
X236600000Y-193068750D01*
G75*
G02*
X236675000Y-193143750I0J-75000D01*
G01*
X236675000Y-193293750D01*
G75*
G02*
X236600000Y-193368750I-75000J0D01*
G01*
G37*
G04 #@! TD.AperFunction*
G04 #@! TA.AperFunction,SMDPad,CuDef*
G36*
G01*
X236600000Y-192868750D02*
X235275000Y-192868750D01*
G75*
G02*
X235200000Y-192793750I0J75000D01*
G01*
X235200000Y-192643750D01*
G75*
G02*
X235275000Y-192568750I75000J0D01*
G01*
X236600000Y-192568750D01*
G75*
G02*
X236675000Y-192643750I0J-75000D01*
G01*
X236675000Y-192793750D01*
G75*
G02*
X236600000Y-192868750I-75000J0D01*
G01*
G37*
G04 #@! TD.AperFunction*
G04 #@! TA.AperFunction,SMDPad,CuDef*
G36*
G01*
X236600000Y-192368750D02*
X235275000Y-192368750D01*
G75*
G02*
X235200000Y-192293750I0J75000D01*
G01*
X235200000Y-192143750D01*
G75*
G02*
X235275000Y-192068750I75000J0D01*
G01*
X236600000Y-192068750D01*
G75*
G02*
X236675000Y-192143750I0J-75000D01*
G01*
X236675000Y-192293750D01*
G75*
G02*
X236600000Y-192368750I-75000J0D01*
G01*
G37*
G04 #@! TD.AperFunction*
G04 #@! TA.AperFunction,SMDPad,CuDef*
G36*
G01*
X236600000Y-191868750D02*
X235275000Y-191868750D01*
G75*
G02*
X235200000Y-191793750I0J75000D01*
G01*
X235200000Y-191643750D01*
G75*
G02*
X235275000Y-191568750I75000J0D01*
G01*
X236600000Y-191568750D01*
G75*
G02*
X236675000Y-191643750I0J-75000D01*
G01*
X236675000Y-191793750D01*
G75*
G02*
X236600000Y-191868750I-75000J0D01*
G01*
G37*
G04 #@! TD.AperFunction*
G04 #@! TA.AperFunction,SMDPad,CuDef*
G36*
G01*
X234600000Y-191043750D02*
X234450000Y-191043750D01*
G75*
G02*
X234375000Y-190968750I0J75000D01*
G01*
X234375000Y-189643750D01*
G75*
G02*
X234450000Y-189568750I75000J0D01*
G01*
X234600000Y-189568750D01*
G75*
G02*
X234675000Y-189643750I0J-75000D01*
G01*
X234675000Y-190968750D01*
G75*
G02*
X234600000Y-191043750I-75000J0D01*
G01*
G37*
G04 #@! TD.AperFunction*
G04 #@! TA.AperFunction,SMDPad,CuDef*
G36*
G01*
X234100000Y-191043750D02*
X233950000Y-191043750D01*
G75*
G02*
X233875000Y-190968750I0J75000D01*
G01*
X233875000Y-189643750D01*
G75*
G02*
X233950000Y-189568750I75000J0D01*
G01*
X234100000Y-189568750D01*
G75*
G02*
X234175000Y-189643750I0J-75000D01*
G01*
X234175000Y-190968750D01*
G75*
G02*
X234100000Y-191043750I-75000J0D01*
G01*
G37*
G04 #@! TD.AperFunction*
G04 #@! TA.AperFunction,SMDPad,CuDef*
G36*
G01*
X233600000Y-191043750D02*
X233450000Y-191043750D01*
G75*
G02*
X233375000Y-190968750I0J75000D01*
G01*
X233375000Y-189643750D01*
G75*
G02*
X233450000Y-189568750I75000J0D01*
G01*
X233600000Y-189568750D01*
G75*
G02*
X233675000Y-189643750I0J-75000D01*
G01*
X233675000Y-190968750D01*
G75*
G02*
X233600000Y-191043750I-75000J0D01*
G01*
G37*
G04 #@! TD.AperFunction*
G04 #@! TA.AperFunction,SMDPad,CuDef*
G36*
G01*
X233100000Y-191043750D02*
X232950000Y-191043750D01*
G75*
G02*
X232875000Y-190968750I0J75000D01*
G01*
X232875000Y-189643750D01*
G75*
G02*
X232950000Y-189568750I75000J0D01*
G01*
X233100000Y-189568750D01*
G75*
G02*
X233175000Y-189643750I0J-75000D01*
G01*
X233175000Y-190968750D01*
G75*
G02*
X233100000Y-191043750I-75000J0D01*
G01*
G37*
G04 #@! TD.AperFunction*
G04 #@! TA.AperFunction,SMDPad,CuDef*
G36*
G01*
X232600000Y-191043750D02*
X232450000Y-191043750D01*
G75*
G02*
X232375000Y-190968750I0J75000D01*
G01*
X232375000Y-189643750D01*
G75*
G02*
X232450000Y-189568750I75000J0D01*
G01*
X232600000Y-189568750D01*
G75*
G02*
X232675000Y-189643750I0J-75000D01*
G01*
X232675000Y-190968750D01*
G75*
G02*
X232600000Y-191043750I-75000J0D01*
G01*
G37*
G04 #@! TD.AperFunction*
G04 #@! TA.AperFunction,SMDPad,CuDef*
G36*
G01*
X232100000Y-191043750D02*
X231950000Y-191043750D01*
G75*
G02*
X231875000Y-190968750I0J75000D01*
G01*
X231875000Y-189643750D01*
G75*
G02*
X231950000Y-189568750I75000J0D01*
G01*
X232100000Y-189568750D01*
G75*
G02*
X232175000Y-189643750I0J-75000D01*
G01*
X232175000Y-190968750D01*
G75*
G02*
X232100000Y-191043750I-75000J0D01*
G01*
G37*
G04 #@! TD.AperFunction*
G04 #@! TA.AperFunction,SMDPad,CuDef*
G36*
G01*
X231600000Y-191043750D02*
X231450000Y-191043750D01*
G75*
G02*
X231375000Y-190968750I0J75000D01*
G01*
X231375000Y-189643750D01*
G75*
G02*
X231450000Y-189568750I75000J0D01*
G01*
X231600000Y-189568750D01*
G75*
G02*
X231675000Y-189643750I0J-75000D01*
G01*
X231675000Y-190968750D01*
G75*
G02*
X231600000Y-191043750I-75000J0D01*
G01*
G37*
G04 #@! TD.AperFunction*
G04 #@! TA.AperFunction,SMDPad,CuDef*
G36*
G01*
X231100000Y-191043750D02*
X230950000Y-191043750D01*
G75*
G02*
X230875000Y-190968750I0J75000D01*
G01*
X230875000Y-189643750D01*
G75*
G02*
X230950000Y-189568750I75000J0D01*
G01*
X231100000Y-189568750D01*
G75*
G02*
X231175000Y-189643750I0J-75000D01*
G01*
X231175000Y-190968750D01*
G75*
G02*
X231100000Y-191043750I-75000J0D01*
G01*
G37*
G04 #@! TD.AperFunction*
G04 #@! TA.AperFunction,SMDPad,CuDef*
G36*
G01*
X230600000Y-191043750D02*
X230450000Y-191043750D01*
G75*
G02*
X230375000Y-190968750I0J75000D01*
G01*
X230375000Y-189643750D01*
G75*
G02*
X230450000Y-189568750I75000J0D01*
G01*
X230600000Y-189568750D01*
G75*
G02*
X230675000Y-189643750I0J-75000D01*
G01*
X230675000Y-190968750D01*
G75*
G02*
X230600000Y-191043750I-75000J0D01*
G01*
G37*
G04 #@! TD.AperFunction*
G04 #@! TA.AperFunction,SMDPad,CuDef*
G36*
G01*
X230100000Y-191043750D02*
X229950000Y-191043750D01*
G75*
G02*
X229875000Y-190968750I0J75000D01*
G01*
X229875000Y-189643750D01*
G75*
G02*
X229950000Y-189568750I75000J0D01*
G01*
X230100000Y-189568750D01*
G75*
G02*
X230175000Y-189643750I0J-75000D01*
G01*
X230175000Y-190968750D01*
G75*
G02*
X230100000Y-191043750I-75000J0D01*
G01*
G37*
G04 #@! TD.AperFunction*
G04 #@! TA.AperFunction,SMDPad,CuDef*
G36*
G01*
X229600000Y-191043750D02*
X229450000Y-191043750D01*
G75*
G02*
X229375000Y-190968750I0J75000D01*
G01*
X229375000Y-189643750D01*
G75*
G02*
X229450000Y-189568750I75000J0D01*
G01*
X229600000Y-189568750D01*
G75*
G02*
X229675000Y-189643750I0J-75000D01*
G01*
X229675000Y-190968750D01*
G75*
G02*
X229600000Y-191043750I-75000J0D01*
G01*
G37*
G04 #@! TD.AperFunction*
G04 #@! TA.AperFunction,SMDPad,CuDef*
G36*
G01*
X229100000Y-191043750D02*
X228950000Y-191043750D01*
G75*
G02*
X228875000Y-190968750I0J75000D01*
G01*
X228875000Y-189643750D01*
G75*
G02*
X228950000Y-189568750I75000J0D01*
G01*
X229100000Y-189568750D01*
G75*
G02*
X229175000Y-189643750I0J-75000D01*
G01*
X229175000Y-190968750D01*
G75*
G02*
X229100000Y-191043750I-75000J0D01*
G01*
G37*
G04 #@! TD.AperFunction*
G04 #@! TA.AperFunction,SMDPad,CuDef*
G36*
G01*
X228275000Y-191868750D02*
X226950000Y-191868750D01*
G75*
G02*
X226875000Y-191793750I0J75000D01*
G01*
X226875000Y-191643750D01*
G75*
G02*
X226950000Y-191568750I75000J0D01*
G01*
X228275000Y-191568750D01*
G75*
G02*
X228350000Y-191643750I0J-75000D01*
G01*
X228350000Y-191793750D01*
G75*
G02*
X228275000Y-191868750I-75000J0D01*
G01*
G37*
G04 #@! TD.AperFunction*
G04 #@! TA.AperFunction,SMDPad,CuDef*
G36*
G01*
X228275000Y-192368750D02*
X226950000Y-192368750D01*
G75*
G02*
X226875000Y-192293750I0J75000D01*
G01*
X226875000Y-192143750D01*
G75*
G02*
X226950000Y-192068750I75000J0D01*
G01*
X228275000Y-192068750D01*
G75*
G02*
X228350000Y-192143750I0J-75000D01*
G01*
X228350000Y-192293750D01*
G75*
G02*
X228275000Y-192368750I-75000J0D01*
G01*
G37*
G04 #@! TD.AperFunction*
G04 #@! TA.AperFunction,SMDPad,CuDef*
G36*
G01*
X228275000Y-192868750D02*
X226950000Y-192868750D01*
G75*
G02*
X226875000Y-192793750I0J75000D01*
G01*
X226875000Y-192643750D01*
G75*
G02*
X226950000Y-192568750I75000J0D01*
G01*
X228275000Y-192568750D01*
G75*
G02*
X228350000Y-192643750I0J-75000D01*
G01*
X228350000Y-192793750D01*
G75*
G02*
X228275000Y-192868750I-75000J0D01*
G01*
G37*
G04 #@! TD.AperFunction*
G04 #@! TA.AperFunction,SMDPad,CuDef*
G36*
G01*
X228275000Y-193368750D02*
X226950000Y-193368750D01*
G75*
G02*
X226875000Y-193293750I0J75000D01*
G01*
X226875000Y-193143750D01*
G75*
G02*
X226950000Y-193068750I75000J0D01*
G01*
X228275000Y-193068750D01*
G75*
G02*
X228350000Y-193143750I0J-75000D01*
G01*
X228350000Y-193293750D01*
G75*
G02*
X228275000Y-193368750I-75000J0D01*
G01*
G37*
G04 #@! TD.AperFunction*
G04 #@! TA.AperFunction,SMDPad,CuDef*
G36*
G01*
X228275000Y-193868750D02*
X226950000Y-193868750D01*
G75*
G02*
X226875000Y-193793750I0J75000D01*
G01*
X226875000Y-193643750D01*
G75*
G02*
X226950000Y-193568750I75000J0D01*
G01*
X228275000Y-193568750D01*
G75*
G02*
X228350000Y-193643750I0J-75000D01*
G01*
X228350000Y-193793750D01*
G75*
G02*
X228275000Y-193868750I-75000J0D01*
G01*
G37*
G04 #@! TD.AperFunction*
G04 #@! TA.AperFunction,SMDPad,CuDef*
G36*
G01*
X228275000Y-194368750D02*
X226950000Y-194368750D01*
G75*
G02*
X226875000Y-194293750I0J75000D01*
G01*
X226875000Y-194143750D01*
G75*
G02*
X226950000Y-194068750I75000J0D01*
G01*
X228275000Y-194068750D01*
G75*
G02*
X228350000Y-194143750I0J-75000D01*
G01*
X228350000Y-194293750D01*
G75*
G02*
X228275000Y-194368750I-75000J0D01*
G01*
G37*
G04 #@! TD.AperFunction*
G04 #@! TA.AperFunction,SMDPad,CuDef*
G36*
G01*
X228275000Y-194868750D02*
X226950000Y-194868750D01*
G75*
G02*
X226875000Y-194793750I0J75000D01*
G01*
X226875000Y-194643750D01*
G75*
G02*
X226950000Y-194568750I75000J0D01*
G01*
X228275000Y-194568750D01*
G75*
G02*
X228350000Y-194643750I0J-75000D01*
G01*
X228350000Y-194793750D01*
G75*
G02*
X228275000Y-194868750I-75000J0D01*
G01*
G37*
G04 #@! TD.AperFunction*
G04 #@! TA.AperFunction,SMDPad,CuDef*
G36*
G01*
X228275000Y-195368750D02*
X226950000Y-195368750D01*
G75*
G02*
X226875000Y-195293750I0J75000D01*
G01*
X226875000Y-195143750D01*
G75*
G02*
X226950000Y-195068750I75000J0D01*
G01*
X228275000Y-195068750D01*
G75*
G02*
X228350000Y-195143750I0J-75000D01*
G01*
X228350000Y-195293750D01*
G75*
G02*
X228275000Y-195368750I-75000J0D01*
G01*
G37*
G04 #@! TD.AperFunction*
G04 #@! TA.AperFunction,SMDPad,CuDef*
G36*
G01*
X228275000Y-195868750D02*
X226950000Y-195868750D01*
G75*
G02*
X226875000Y-195793750I0J75000D01*
G01*
X226875000Y-195643750D01*
G75*
G02*
X226950000Y-195568750I75000J0D01*
G01*
X228275000Y-195568750D01*
G75*
G02*
X228350000Y-195643750I0J-75000D01*
G01*
X228350000Y-195793750D01*
G75*
G02*
X228275000Y-195868750I-75000J0D01*
G01*
G37*
G04 #@! TD.AperFunction*
G04 #@! TA.AperFunction,SMDPad,CuDef*
G36*
G01*
X228275000Y-196368750D02*
X226950000Y-196368750D01*
G75*
G02*
X226875000Y-196293750I0J75000D01*
G01*
X226875000Y-196143750D01*
G75*
G02*
X226950000Y-196068750I75000J0D01*
G01*
X228275000Y-196068750D01*
G75*
G02*
X228350000Y-196143750I0J-75000D01*
G01*
X228350000Y-196293750D01*
G75*
G02*
X228275000Y-196368750I-75000J0D01*
G01*
G37*
G04 #@! TD.AperFunction*
G04 #@! TA.AperFunction,SMDPad,CuDef*
G36*
G01*
X228275000Y-196868750D02*
X226950000Y-196868750D01*
G75*
G02*
X226875000Y-196793750I0J75000D01*
G01*
X226875000Y-196643750D01*
G75*
G02*
X226950000Y-196568750I75000J0D01*
G01*
X228275000Y-196568750D01*
G75*
G02*
X228350000Y-196643750I0J-75000D01*
G01*
X228350000Y-196793750D01*
G75*
G02*
X228275000Y-196868750I-75000J0D01*
G01*
G37*
G04 #@! TD.AperFunction*
G04 #@! TA.AperFunction,SMDPad,CuDef*
G36*
G01*
X228275000Y-197368750D02*
X226950000Y-197368750D01*
G75*
G02*
X226875000Y-197293750I0J75000D01*
G01*
X226875000Y-197143750D01*
G75*
G02*
X226950000Y-197068750I75000J0D01*
G01*
X228275000Y-197068750D01*
G75*
G02*
X228350000Y-197143750I0J-75000D01*
G01*
X228350000Y-197293750D01*
G75*
G02*
X228275000Y-197368750I-75000J0D01*
G01*
G37*
G04 #@! TD.AperFunction*
G04 #@! TA.AperFunction,SMDPad,CuDef*
G36*
G01*
X229100000Y-199368750D02*
X228950000Y-199368750D01*
G75*
G02*
X228875000Y-199293750I0J75000D01*
G01*
X228875000Y-197968750D01*
G75*
G02*
X228950000Y-197893750I75000J0D01*
G01*
X229100000Y-197893750D01*
G75*
G02*
X229175000Y-197968750I0J-75000D01*
G01*
X229175000Y-199293750D01*
G75*
G02*
X229100000Y-199368750I-75000J0D01*
G01*
G37*
G04 #@! TD.AperFunction*
G04 #@! TA.AperFunction,SMDPad,CuDef*
G36*
G01*
X229600000Y-199368750D02*
X229450000Y-199368750D01*
G75*
G02*
X229375000Y-199293750I0J75000D01*
G01*
X229375000Y-197968750D01*
G75*
G02*
X229450000Y-197893750I75000J0D01*
G01*
X229600000Y-197893750D01*
G75*
G02*
X229675000Y-197968750I0J-75000D01*
G01*
X229675000Y-199293750D01*
G75*
G02*
X229600000Y-199368750I-75000J0D01*
G01*
G37*
G04 #@! TD.AperFunction*
G04 #@! TA.AperFunction,SMDPad,CuDef*
G36*
G01*
X230100000Y-199368750D02*
X229950000Y-199368750D01*
G75*
G02*
X229875000Y-199293750I0J75000D01*
G01*
X229875000Y-197968750D01*
G75*
G02*
X229950000Y-197893750I75000J0D01*
G01*
X230100000Y-197893750D01*
G75*
G02*
X230175000Y-197968750I0J-75000D01*
G01*
X230175000Y-199293750D01*
G75*
G02*
X230100000Y-199368750I-75000J0D01*
G01*
G37*
G04 #@! TD.AperFunction*
G04 #@! TA.AperFunction,SMDPad,CuDef*
G36*
G01*
X230600000Y-199368750D02*
X230450000Y-199368750D01*
G75*
G02*
X230375000Y-199293750I0J75000D01*
G01*
X230375000Y-197968750D01*
G75*
G02*
X230450000Y-197893750I75000J0D01*
G01*
X230600000Y-197893750D01*
G75*
G02*
X230675000Y-197968750I0J-75000D01*
G01*
X230675000Y-199293750D01*
G75*
G02*
X230600000Y-199368750I-75000J0D01*
G01*
G37*
G04 #@! TD.AperFunction*
G04 #@! TA.AperFunction,SMDPad,CuDef*
G36*
G01*
X231100000Y-199368750D02*
X230950000Y-199368750D01*
G75*
G02*
X230875000Y-199293750I0J75000D01*
G01*
X230875000Y-197968750D01*
G75*
G02*
X230950000Y-197893750I75000J0D01*
G01*
X231100000Y-197893750D01*
G75*
G02*
X231175000Y-197968750I0J-75000D01*
G01*
X231175000Y-199293750D01*
G75*
G02*
X231100000Y-199368750I-75000J0D01*
G01*
G37*
G04 #@! TD.AperFunction*
G04 #@! TA.AperFunction,SMDPad,CuDef*
G36*
G01*
X231600000Y-199368750D02*
X231450000Y-199368750D01*
G75*
G02*
X231375000Y-199293750I0J75000D01*
G01*
X231375000Y-197968750D01*
G75*
G02*
X231450000Y-197893750I75000J0D01*
G01*
X231600000Y-197893750D01*
G75*
G02*
X231675000Y-197968750I0J-75000D01*
G01*
X231675000Y-199293750D01*
G75*
G02*
X231600000Y-199368750I-75000J0D01*
G01*
G37*
G04 #@! TD.AperFunction*
G04 #@! TA.AperFunction,SMDPad,CuDef*
G36*
G01*
X232100000Y-199368750D02*
X231950000Y-199368750D01*
G75*
G02*
X231875000Y-199293750I0J75000D01*
G01*
X231875000Y-197968750D01*
G75*
G02*
X231950000Y-197893750I75000J0D01*
G01*
X232100000Y-197893750D01*
G75*
G02*
X232175000Y-197968750I0J-75000D01*
G01*
X232175000Y-199293750D01*
G75*
G02*
X232100000Y-199368750I-75000J0D01*
G01*
G37*
G04 #@! TD.AperFunction*
G04 #@! TA.AperFunction,SMDPad,CuDef*
G36*
G01*
X232600000Y-199368750D02*
X232450000Y-199368750D01*
G75*
G02*
X232375000Y-199293750I0J75000D01*
G01*
X232375000Y-197968750D01*
G75*
G02*
X232450000Y-197893750I75000J0D01*
G01*
X232600000Y-197893750D01*
G75*
G02*
X232675000Y-197968750I0J-75000D01*
G01*
X232675000Y-199293750D01*
G75*
G02*
X232600000Y-199368750I-75000J0D01*
G01*
G37*
G04 #@! TD.AperFunction*
G04 #@! TA.AperFunction,SMDPad,CuDef*
G36*
G01*
X233100000Y-199368750D02*
X232950000Y-199368750D01*
G75*
G02*
X232875000Y-199293750I0J75000D01*
G01*
X232875000Y-197968750D01*
G75*
G02*
X232950000Y-197893750I75000J0D01*
G01*
X233100000Y-197893750D01*
G75*
G02*
X233175000Y-197968750I0J-75000D01*
G01*
X233175000Y-199293750D01*
G75*
G02*
X233100000Y-199368750I-75000J0D01*
G01*
G37*
G04 #@! TD.AperFunction*
G04 #@! TA.AperFunction,SMDPad,CuDef*
G36*
G01*
X233600000Y-199368750D02*
X233450000Y-199368750D01*
G75*
G02*
X233375000Y-199293750I0J75000D01*
G01*
X233375000Y-197968750D01*
G75*
G02*
X233450000Y-197893750I75000J0D01*
G01*
X233600000Y-197893750D01*
G75*
G02*
X233675000Y-197968750I0J-75000D01*
G01*
X233675000Y-199293750D01*
G75*
G02*
X233600000Y-199368750I-75000J0D01*
G01*
G37*
G04 #@! TD.AperFunction*
G04 #@! TA.AperFunction,SMDPad,CuDef*
G36*
G01*
X234100000Y-199368750D02*
X233950000Y-199368750D01*
G75*
G02*
X233875000Y-199293750I0J75000D01*
G01*
X233875000Y-197968750D01*
G75*
G02*
X233950000Y-197893750I75000J0D01*
G01*
X234100000Y-197893750D01*
G75*
G02*
X234175000Y-197968750I0J-75000D01*
G01*
X234175000Y-199293750D01*
G75*
G02*
X234100000Y-199368750I-75000J0D01*
G01*
G37*
G04 #@! TD.AperFunction*
G04 #@! TA.AperFunction,SMDPad,CuDef*
G36*
G01*
X234600000Y-199368750D02*
X234450000Y-199368750D01*
G75*
G02*
X234375000Y-199293750I0J75000D01*
G01*
X234375000Y-197968750D01*
G75*
G02*
X234450000Y-197893750I75000J0D01*
G01*
X234600000Y-197893750D01*
G75*
G02*
X234675000Y-197968750I0J-75000D01*
G01*
X234675000Y-199293750D01*
G75*
G02*
X234600000Y-199368750I-75000J0D01*
G01*
G37*
G04 #@! TD.AperFunction*
D25*
X396508000Y-137128250D03*
X396508000Y-134228250D03*
X394208000Y-134228250D03*
X394208000Y-137128250D03*
D26*
X367712500Y-89959750D03*
D27*
X365712500Y-89759750D03*
X367712500Y-91659750D03*
X365712500Y-91659750D03*
G04 #@! TA.AperFunction,SMDPad,CuDef*
G36*
G01*
X371685000Y-90948500D02*
X371685000Y-91423500D01*
G75*
G02*
X371447500Y-91661000I-237500J0D01*
G01*
X370947500Y-91661000D01*
G75*
G02*
X370710000Y-91423500I0J237500D01*
G01*
X370710000Y-90948500D01*
G75*
G02*
X370947500Y-90711000I237500J0D01*
G01*
X371447500Y-90711000D01*
G75*
G02*
X371685000Y-90948500I0J-237500D01*
G01*
G37*
G04 #@! TD.AperFunction*
G04 #@! TA.AperFunction,SMDPad,CuDef*
G36*
G01*
X373510000Y-90948500D02*
X373510000Y-91423500D01*
G75*
G02*
X373272500Y-91661000I-237500J0D01*
G01*
X372772500Y-91661000D01*
G75*
G02*
X372535000Y-91423500I0J237500D01*
G01*
X372535000Y-90948500D01*
G75*
G02*
X372772500Y-90711000I237500J0D01*
G01*
X373272500Y-90711000D01*
G75*
G02*
X373510000Y-90948500I0J-237500D01*
G01*
G37*
G04 #@! TD.AperFunction*
G04 #@! TA.AperFunction,SMDPad,CuDef*
G36*
G01*
X368537500Y-95047250D02*
X368062500Y-95047250D01*
G75*
G02*
X367825000Y-94809750I0J237500D01*
G01*
X367825000Y-94309750D01*
G75*
G02*
X368062500Y-94072250I237500J0D01*
G01*
X368537500Y-94072250D01*
G75*
G02*
X368775000Y-94309750I0J-237500D01*
G01*
X368775000Y-94809750D01*
G75*
G02*
X368537500Y-95047250I-237500J0D01*
G01*
G37*
G04 #@! TD.AperFunction*
G04 #@! TA.AperFunction,SMDPad,CuDef*
G36*
G01*
X368537500Y-96872250D02*
X368062500Y-96872250D01*
G75*
G02*
X367825000Y-96634750I0J237500D01*
G01*
X367825000Y-96134750D01*
G75*
G02*
X368062500Y-95897250I237500J0D01*
G01*
X368537500Y-95897250D01*
G75*
G02*
X368775000Y-96134750I0J-237500D01*
G01*
X368775000Y-96634750D01*
G75*
G02*
X368537500Y-96872250I-237500J0D01*
G01*
G37*
G04 #@! TD.AperFunction*
G04 #@! TA.AperFunction,SMDPad,CuDef*
G36*
G01*
X365362500Y-95047250D02*
X364887500Y-95047250D01*
G75*
G02*
X364650000Y-94809750I0J237500D01*
G01*
X364650000Y-94309750D01*
G75*
G02*
X364887500Y-94072250I237500J0D01*
G01*
X365362500Y-94072250D01*
G75*
G02*
X365600000Y-94309750I0J-237500D01*
G01*
X365600000Y-94809750D01*
G75*
G02*
X365362500Y-95047250I-237500J0D01*
G01*
G37*
G04 #@! TD.AperFunction*
G04 #@! TA.AperFunction,SMDPad,CuDef*
G36*
G01*
X365362500Y-96872250D02*
X364887500Y-96872250D01*
G75*
G02*
X364650000Y-96634750I0J237500D01*
G01*
X364650000Y-96134750D01*
G75*
G02*
X364887500Y-95897250I237500J0D01*
G01*
X365362500Y-95897250D01*
G75*
G02*
X365600000Y-96134750I0J-237500D01*
G01*
X365600000Y-96634750D01*
G75*
G02*
X365362500Y-96872250I-237500J0D01*
G01*
G37*
G04 #@! TD.AperFunction*
G04 #@! TA.AperFunction,SMDPad,CuDef*
G36*
G01*
X361867000Y-91423500D02*
X361867000Y-90948500D01*
G75*
G02*
X362104500Y-90711000I237500J0D01*
G01*
X362604500Y-90711000D01*
G75*
G02*
X362842000Y-90948500I0J-237500D01*
G01*
X362842000Y-91423500D01*
G75*
G02*
X362604500Y-91661000I-237500J0D01*
G01*
X362104500Y-91661000D01*
G75*
G02*
X361867000Y-91423500I0J237500D01*
G01*
G37*
G04 #@! TD.AperFunction*
G04 #@! TA.AperFunction,SMDPad,CuDef*
G36*
G01*
X360042000Y-91423500D02*
X360042000Y-90948500D01*
G75*
G02*
X360279500Y-90711000I237500J0D01*
G01*
X360779500Y-90711000D01*
G75*
G02*
X361017000Y-90948500I0J-237500D01*
G01*
X361017000Y-91423500D01*
G75*
G02*
X360779500Y-91661000I-237500J0D01*
G01*
X360279500Y-91661000D01*
G75*
G02*
X360042000Y-91423500I0J237500D01*
G01*
G37*
G04 #@! TD.AperFunction*
G04 #@! TA.AperFunction,SMDPad,CuDef*
G36*
G01*
X380980500Y-144255500D02*
X380980500Y-143780500D01*
G75*
G02*
X381218000Y-143543000I237500J0D01*
G01*
X381718000Y-143543000D01*
G75*
G02*
X381955500Y-143780500I0J-237500D01*
G01*
X381955500Y-144255500D01*
G75*
G02*
X381718000Y-144493000I-237500J0D01*
G01*
X381218000Y-144493000D01*
G75*
G02*
X380980500Y-144255500I0J237500D01*
G01*
G37*
G04 #@! TD.AperFunction*
G04 #@! TA.AperFunction,SMDPad,CuDef*
G36*
G01*
X379155500Y-144255500D02*
X379155500Y-143780500D01*
G75*
G02*
X379393000Y-143543000I237500J0D01*
G01*
X379893000Y-143543000D01*
G75*
G02*
X380130500Y-143780500I0J-237500D01*
G01*
X380130500Y-144255500D01*
G75*
G02*
X379893000Y-144493000I-237500J0D01*
G01*
X379393000Y-144493000D01*
G75*
G02*
X379155500Y-144255500I0J237500D01*
G01*
G37*
G04 #@! TD.AperFunction*
G04 #@! TA.AperFunction,SMDPad,CuDef*
G36*
G01*
X240050500Y-188451500D02*
X240050500Y-187976500D01*
G75*
G02*
X240288000Y-187739000I237500J0D01*
G01*
X240788000Y-187739000D01*
G75*
G02*
X241025500Y-187976500I0J-237500D01*
G01*
X241025500Y-188451500D01*
G75*
G02*
X240788000Y-188689000I-237500J0D01*
G01*
X240288000Y-188689000D01*
G75*
G02*
X240050500Y-188451500I0J237500D01*
G01*
G37*
G04 #@! TD.AperFunction*
G04 #@! TA.AperFunction,SMDPad,CuDef*
G36*
G01*
X238225500Y-188451500D02*
X238225500Y-187976500D01*
G75*
G02*
X238463000Y-187739000I237500J0D01*
G01*
X238963000Y-187739000D01*
G75*
G02*
X239200500Y-187976500I0J-237500D01*
G01*
X239200500Y-188451500D01*
G75*
G02*
X238963000Y-188689000I-237500J0D01*
G01*
X238463000Y-188689000D01*
G75*
G02*
X238225500Y-188451500I0J237500D01*
G01*
G37*
G04 #@! TD.AperFunction*
G04 #@! TA.AperFunction,SMDPad,CuDef*
G36*
G01*
X236998500Y-199965500D02*
X237473500Y-199965500D01*
G75*
G02*
X237711000Y-200203000I0J-237500D01*
G01*
X237711000Y-200703000D01*
G75*
G02*
X237473500Y-200940500I-237500J0D01*
G01*
X236998500Y-200940500D01*
G75*
G02*
X236761000Y-200703000I0J237500D01*
G01*
X236761000Y-200203000D01*
G75*
G02*
X236998500Y-199965500I237500J0D01*
G01*
G37*
G04 #@! TD.AperFunction*
G04 #@! TA.AperFunction,SMDPad,CuDef*
G36*
G01*
X236998500Y-198140500D02*
X237473500Y-198140500D01*
G75*
G02*
X237711000Y-198378000I0J-237500D01*
G01*
X237711000Y-198878000D01*
G75*
G02*
X237473500Y-199115500I-237500J0D01*
G01*
X236998500Y-199115500D01*
G75*
G02*
X236761000Y-198878000I0J237500D01*
G01*
X236761000Y-198378000D01*
G75*
G02*
X236998500Y-198140500I237500J0D01*
G01*
G37*
G04 #@! TD.AperFunction*
G04 #@! TA.AperFunction,SMDPad,CuDef*
G36*
G01*
X240265400Y-195317100D02*
X240265400Y-195792100D01*
G75*
G02*
X240027900Y-196029600I-237500J0D01*
G01*
X239527900Y-196029600D01*
G75*
G02*
X239290400Y-195792100I0J237500D01*
G01*
X239290400Y-195317100D01*
G75*
G02*
X239527900Y-195079600I237500J0D01*
G01*
X240027900Y-195079600D01*
G75*
G02*
X240265400Y-195317100I0J-237500D01*
G01*
G37*
G04 #@! TD.AperFunction*
G04 #@! TA.AperFunction,SMDPad,CuDef*
G36*
G01*
X242090400Y-195317100D02*
X242090400Y-195792100D01*
G75*
G02*
X241852900Y-196029600I-237500J0D01*
G01*
X241352900Y-196029600D01*
G75*
G02*
X241115400Y-195792100I0J237500D01*
G01*
X241115400Y-195317100D01*
G75*
G02*
X241352900Y-195079600I237500J0D01*
G01*
X241852900Y-195079600D01*
G75*
G02*
X242090400Y-195317100I0J-237500D01*
G01*
G37*
G04 #@! TD.AperFunction*
G04 #@! TA.AperFunction,SMDPad,CuDef*
G36*
G01*
X240263500Y-197628500D02*
X240263500Y-198103500D01*
G75*
G02*
X240026000Y-198341000I-237500J0D01*
G01*
X239526000Y-198341000D01*
G75*
G02*
X239288500Y-198103500I0J237500D01*
G01*
X239288500Y-197628500D01*
G75*
G02*
X239526000Y-197391000I237500J0D01*
G01*
X240026000Y-197391000D01*
G75*
G02*
X240263500Y-197628500I0J-237500D01*
G01*
G37*
G04 #@! TD.AperFunction*
G04 #@! TA.AperFunction,SMDPad,CuDef*
G36*
G01*
X242088500Y-197628500D02*
X242088500Y-198103500D01*
G75*
G02*
X241851000Y-198341000I-237500J0D01*
G01*
X241351000Y-198341000D01*
G75*
G02*
X241113500Y-198103500I0J237500D01*
G01*
X241113500Y-197628500D01*
G75*
G02*
X241351000Y-197391000I237500J0D01*
G01*
X241851000Y-197391000D01*
G75*
G02*
X242088500Y-197628500I0J-237500D01*
G01*
G37*
G04 #@! TD.AperFunction*
G04 #@! TA.AperFunction,SMDPad,CuDef*
G36*
G01*
X393937500Y-126067000D02*
X393462500Y-126067000D01*
G75*
G02*
X393225000Y-125829500I0J237500D01*
G01*
X393225000Y-125329500D01*
G75*
G02*
X393462500Y-125092000I237500J0D01*
G01*
X393937500Y-125092000D01*
G75*
G02*
X394175000Y-125329500I0J-237500D01*
G01*
X394175000Y-125829500D01*
G75*
G02*
X393937500Y-126067000I-237500J0D01*
G01*
G37*
G04 #@! TD.AperFunction*
G04 #@! TA.AperFunction,SMDPad,CuDef*
G36*
G01*
X393937500Y-127892000D02*
X393462500Y-127892000D01*
G75*
G02*
X393225000Y-127654500I0J237500D01*
G01*
X393225000Y-127154500D01*
G75*
G02*
X393462500Y-126917000I237500J0D01*
G01*
X393937500Y-126917000D01*
G75*
G02*
X394175000Y-127154500I0J-237500D01*
G01*
X394175000Y-127654500D01*
G75*
G02*
X393937500Y-127892000I-237500J0D01*
G01*
G37*
G04 #@! TD.AperFunction*
D21*
X391414000Y-106426000D03*
D28*
X388874000Y-106426000D03*
X391414000Y-108966000D03*
X388874000Y-108966000D03*
X391414000Y-111506000D03*
X388874000Y-111506000D03*
D29*
X381508000Y-204343000D03*
D30*
X378968000Y-204343000D03*
D29*
X362458000Y-204343000D03*
D30*
X359918000Y-204343000D03*
D29*
X343408000Y-204343000D03*
D30*
X340868000Y-204343000D03*
D29*
X319532000Y-199517000D03*
D30*
X316992000Y-199517000D03*
D29*
X300482000Y-199517000D03*
D30*
X297942000Y-199517000D03*
D29*
X281432000Y-199517000D03*
D30*
X278892000Y-199517000D03*
D29*
X212471000Y-199517000D03*
D30*
X209931000Y-199517000D03*
D29*
X140970000Y-199517000D03*
D30*
X138430000Y-199517000D03*
D29*
X117094000Y-199517000D03*
D30*
X114554000Y-199517000D03*
D29*
X93345000Y-199517000D03*
D30*
X90805000Y-199517000D03*
D29*
X386207000Y-180467000D03*
D30*
X383667000Y-180467000D03*
D29*
X362458000Y-185293000D03*
D30*
X359918000Y-185293000D03*
D29*
X331470000Y-180467000D03*
D30*
X328930000Y-180467000D03*
D29*
X305308000Y-180467000D03*
D30*
X302768000Y-180467000D03*
D29*
X286258000Y-180467000D03*
D30*
X283718000Y-180467000D03*
D29*
X267208000Y-180467000D03*
D30*
X264668000Y-180467000D03*
D29*
X248158000Y-180467000D03*
D30*
X245618000Y-180467000D03*
D29*
X229108000Y-180467000D03*
D30*
X226568000Y-180467000D03*
D29*
X210058000Y-180467000D03*
D30*
X207518000Y-180467000D03*
D29*
X191008000Y-180467000D03*
D30*
X188468000Y-180467000D03*
D29*
X171958000Y-180467000D03*
D30*
X169418000Y-180467000D03*
D29*
X152908000Y-180467000D03*
D30*
X150368000Y-180467000D03*
D29*
X133858000Y-180467000D03*
D30*
X131318000Y-180467000D03*
D29*
X102870000Y-180467000D03*
D30*
X100330000Y-180467000D03*
D29*
X386207000Y-161417000D03*
D30*
X383667000Y-161417000D03*
D29*
X345821000Y-161417000D03*
D30*
X343281000Y-161417000D03*
D29*
X314833000Y-161417000D03*
D30*
X312293000Y-161417000D03*
D29*
X295783000Y-161417000D03*
D30*
X293243000Y-161417000D03*
D29*
X276733000Y-161417000D03*
D30*
X274193000Y-161417000D03*
D29*
X257683000Y-161417000D03*
D30*
X255143000Y-161417000D03*
D29*
X238633000Y-161417000D03*
D30*
X236093000Y-161417000D03*
D29*
X219583000Y-161417000D03*
D30*
X217043000Y-161417000D03*
D29*
X200533000Y-161417000D03*
D30*
X197993000Y-161417000D03*
D29*
X181483000Y-161417000D03*
D30*
X178943000Y-161417000D03*
D29*
X162433000Y-161417000D03*
D30*
X159893000Y-161417000D03*
D29*
X143383000Y-161417000D03*
D30*
X140843000Y-161417000D03*
D29*
X124333000Y-161417000D03*
D30*
X121793000Y-161417000D03*
D29*
X98044000Y-161417000D03*
D30*
X95504000Y-161417000D03*
D29*
X352933000Y-142367000D03*
D30*
X350393000Y-142367000D03*
D29*
X329057000Y-142367000D03*
D30*
X326517000Y-142367000D03*
D29*
X310007000Y-142367000D03*
D30*
X307467000Y-142367000D03*
D29*
X290957000Y-142367000D03*
D30*
X288417000Y-142367000D03*
D29*
X271907000Y-142367000D03*
D30*
X269367000Y-142367000D03*
D29*
X252857000Y-142367000D03*
D30*
X250317000Y-142367000D03*
D29*
X233807000Y-142367000D03*
D30*
X231267000Y-142367000D03*
D29*
X214757000Y-142367000D03*
D30*
X212217000Y-142367000D03*
D29*
X195707000Y-142367000D03*
D30*
X193167000Y-142367000D03*
D29*
X176657000Y-142367000D03*
D30*
X174117000Y-142367000D03*
D29*
X157607000Y-142367000D03*
D30*
X155067000Y-142367000D03*
D29*
X138557000Y-142367000D03*
D30*
X136017000Y-142367000D03*
D29*
X119507000Y-142367000D03*
D30*
X116967000Y-142367000D03*
D29*
X95758000Y-142367000D03*
D30*
X93218000Y-142367000D03*
D29*
X348107000Y-123317000D03*
D30*
X345567000Y-123317000D03*
D29*
X319532000Y-123317000D03*
D30*
X316992000Y-123317000D03*
D29*
X300482000Y-123317000D03*
D30*
X297942000Y-123317000D03*
D29*
X281432000Y-123317000D03*
D30*
X278892000Y-123317000D03*
D29*
X262382000Y-123317000D03*
D30*
X259842000Y-123317000D03*
D29*
X243332000Y-123317000D03*
D30*
X240792000Y-123317000D03*
D29*
X224282000Y-123317000D03*
D30*
X221742000Y-123317000D03*
D29*
X205232000Y-123317000D03*
D30*
X202692000Y-123317000D03*
D29*
X186182000Y-123317000D03*
D30*
X183642000Y-123317000D03*
D29*
X167132000Y-123317000D03*
D30*
X164592000Y-123317000D03*
D29*
X148082000Y-123317000D03*
D30*
X145542000Y-123317000D03*
D29*
X129032000Y-123317000D03*
D30*
X126492000Y-123317000D03*
D29*
X109982000Y-123317000D03*
D30*
X107442000Y-123317000D03*
D29*
X90932000Y-123317000D03*
D30*
X88392000Y-123317000D03*
D29*
X348107000Y-94742000D03*
D30*
X345567000Y-94742000D03*
D29*
X329057000Y-94742000D03*
D30*
X326517000Y-94742000D03*
D29*
X310007000Y-94742000D03*
D30*
X307467000Y-94742000D03*
D29*
X290957000Y-94742000D03*
D30*
X288417000Y-94742000D03*
D29*
X262382000Y-94742000D03*
D30*
X259842000Y-94742000D03*
D29*
X243332000Y-94742000D03*
D30*
X240792000Y-94742000D03*
D29*
X224282000Y-94742000D03*
D30*
X221742000Y-94742000D03*
D29*
X205232000Y-94742000D03*
D30*
X202692000Y-94742000D03*
D29*
X176657000Y-94742000D03*
D30*
X174117000Y-94742000D03*
D29*
X157607000Y-94742000D03*
D30*
X155067000Y-94742000D03*
D29*
X138557000Y-94742000D03*
D30*
X136017000Y-94742000D03*
D29*
X119507000Y-94742000D03*
D30*
X116967000Y-94742000D03*
D29*
X90932000Y-94742000D03*
D30*
X88392000Y-94742000D03*
G04 #@! TA.AperFunction,SMDPad,CuDef*
G36*
G01*
X381237500Y-121441500D02*
X380762500Y-121441500D01*
G75*
G02*
X380525000Y-121204000I0J237500D01*
G01*
X380525000Y-120604000D01*
G75*
G02*
X380762500Y-120366500I237500J0D01*
G01*
X381237500Y-120366500D01*
G75*
G02*
X381475000Y-120604000I0J-237500D01*
G01*
X381475000Y-121204000D01*
G75*
G02*
X381237500Y-121441500I-237500J0D01*
G01*
G37*
G04 #@! TD.AperFunction*
G04 #@! TA.AperFunction,SMDPad,CuDef*
G36*
G01*
X381237500Y-123166500D02*
X380762500Y-123166500D01*
G75*
G02*
X380525000Y-122929000I0J237500D01*
G01*
X380525000Y-122329000D01*
G75*
G02*
X380762500Y-122091500I237500J0D01*
G01*
X381237500Y-122091500D01*
G75*
G02*
X381475000Y-122329000I0J-237500D01*
G01*
X381475000Y-122929000D01*
G75*
G02*
X381237500Y-123166500I-237500J0D01*
G01*
G37*
G04 #@! TD.AperFunction*
G04 #@! TA.AperFunction,SMDPad,CuDef*
G36*
G01*
X399050500Y-134024250D02*
X399525500Y-134024250D01*
G75*
G02*
X399763000Y-134261750I0J-237500D01*
G01*
X399763000Y-134861750D01*
G75*
G02*
X399525500Y-135099250I-237500J0D01*
G01*
X399050500Y-135099250D01*
G75*
G02*
X398813000Y-134861750I0J237500D01*
G01*
X398813000Y-134261750D01*
G75*
G02*
X399050500Y-134024250I237500J0D01*
G01*
G37*
G04 #@! TD.AperFunction*
G04 #@! TA.AperFunction,SMDPad,CuDef*
G36*
G01*
X399050500Y-132299250D02*
X399525500Y-132299250D01*
G75*
G02*
X399763000Y-132536750I0J-237500D01*
G01*
X399763000Y-133136750D01*
G75*
G02*
X399525500Y-133374250I-237500J0D01*
G01*
X399050500Y-133374250D01*
G75*
G02*
X398813000Y-133136750I0J237500D01*
G01*
X398813000Y-132536750D01*
G75*
G02*
X399050500Y-132299250I237500J0D01*
G01*
G37*
G04 #@! TD.AperFunction*
G04 #@! TA.AperFunction,SMDPad,CuDef*
G36*
G01*
X239705000Y-193310500D02*
X239705000Y-193785500D01*
G75*
G02*
X239467500Y-194023000I-237500J0D01*
G01*
X238867500Y-194023000D01*
G75*
G02*
X238630000Y-193785500I0J237500D01*
G01*
X238630000Y-193310500D01*
G75*
G02*
X238867500Y-193073000I237500J0D01*
G01*
X239467500Y-193073000D01*
G75*
G02*
X239705000Y-193310500I0J-237500D01*
G01*
G37*
G04 #@! TD.AperFunction*
G04 #@! TA.AperFunction,SMDPad,CuDef*
G36*
G01*
X241430000Y-193310500D02*
X241430000Y-193785500D01*
G75*
G02*
X241192500Y-194023000I-237500J0D01*
G01*
X240592500Y-194023000D01*
G75*
G02*
X240355000Y-193785500I0J237500D01*
G01*
X240355000Y-193310500D01*
G75*
G02*
X240592500Y-193073000I237500J0D01*
G01*
X241192500Y-193073000D01*
G75*
G02*
X241430000Y-193310500I0J-237500D01*
G01*
G37*
G04 #@! TD.AperFunction*
G04 #@! TA.AperFunction,SMDPad,CuDef*
G36*
G01*
X399525500Y-137274250D02*
X399050500Y-137274250D01*
G75*
G02*
X398813000Y-137036750I0J237500D01*
G01*
X398813000Y-136436750D01*
G75*
G02*
X399050500Y-136199250I237500J0D01*
G01*
X399525500Y-136199250D01*
G75*
G02*
X399763000Y-136436750I0J-237500D01*
G01*
X399763000Y-137036750D01*
G75*
G02*
X399525500Y-137274250I-237500J0D01*
G01*
G37*
G04 #@! TD.AperFunction*
G04 #@! TA.AperFunction,SMDPad,CuDef*
G36*
G01*
X399525500Y-138999250D02*
X399050500Y-138999250D01*
G75*
G02*
X398813000Y-138761750I0J237500D01*
G01*
X398813000Y-138161750D01*
G75*
G02*
X399050500Y-137924250I237500J0D01*
G01*
X399525500Y-137924250D01*
G75*
G02*
X399763000Y-138161750I0J-237500D01*
G01*
X399763000Y-138761750D01*
G75*
G02*
X399525500Y-138999250I-237500J0D01*
G01*
G37*
G04 #@! TD.AperFunction*
G04 #@! TA.AperFunction,SMDPad,CuDef*
G36*
G01*
X383523500Y-121441500D02*
X383048500Y-121441500D01*
G75*
G02*
X382811000Y-121204000I0J237500D01*
G01*
X382811000Y-120604000D01*
G75*
G02*
X383048500Y-120366500I237500J0D01*
G01*
X383523500Y-120366500D01*
G75*
G02*
X383761000Y-120604000I0J-237500D01*
G01*
X383761000Y-121204000D01*
G75*
G02*
X383523500Y-121441500I-237500J0D01*
G01*
G37*
G04 #@! TD.AperFunction*
G04 #@! TA.AperFunction,SMDPad,CuDef*
G36*
G01*
X383523500Y-123166500D02*
X383048500Y-123166500D01*
G75*
G02*
X382811000Y-122929000I0J237500D01*
G01*
X382811000Y-122329000D01*
G75*
G02*
X383048500Y-122091500I237500J0D01*
G01*
X383523500Y-122091500D01*
G75*
G02*
X383761000Y-122329000I0J-237500D01*
G01*
X383761000Y-122929000D01*
G75*
G02*
X383523500Y-123166500I-237500J0D01*
G01*
G37*
G04 #@! TD.AperFunction*
G04 #@! TA.AperFunction,SMDPad,CuDef*
G36*
G01*
X236236500Y-185237000D02*
X236711500Y-185237000D01*
G75*
G02*
X236949000Y-185474500I0J-237500D01*
G01*
X236949000Y-186074500D01*
G75*
G02*
X236711500Y-186312000I-237500J0D01*
G01*
X236236500Y-186312000D01*
G75*
G02*
X235999000Y-186074500I0J237500D01*
G01*
X235999000Y-185474500D01*
G75*
G02*
X236236500Y-185237000I237500J0D01*
G01*
G37*
G04 #@! TD.AperFunction*
G04 #@! TA.AperFunction,SMDPad,CuDef*
G36*
G01*
X236236500Y-183512000D02*
X236711500Y-183512000D01*
G75*
G02*
X236949000Y-183749500I0J-237500D01*
G01*
X236949000Y-184349500D01*
G75*
G02*
X236711500Y-184587000I-237500J0D01*
G01*
X236236500Y-184587000D01*
G75*
G02*
X235999000Y-184349500I0J237500D01*
G01*
X235999000Y-183749500D01*
G75*
G02*
X236236500Y-183512000I237500J0D01*
G01*
G37*
G04 #@! TD.AperFunction*
G04 #@! TA.AperFunction,SMDPad,CuDef*
G36*
G01*
X222941000Y-191024500D02*
X222941000Y-191499500D01*
G75*
G02*
X222703500Y-191737000I-237500J0D01*
G01*
X222103500Y-191737000D01*
G75*
G02*
X221866000Y-191499500I0J237500D01*
G01*
X221866000Y-191024500D01*
G75*
G02*
X222103500Y-190787000I237500J0D01*
G01*
X222703500Y-190787000D01*
G75*
G02*
X222941000Y-191024500I0J-237500D01*
G01*
G37*
G04 #@! TD.AperFunction*
G04 #@! TA.AperFunction,SMDPad,CuDef*
G36*
G01*
X224666000Y-191024500D02*
X224666000Y-191499500D01*
G75*
G02*
X224428500Y-191737000I-237500J0D01*
G01*
X223828500Y-191737000D01*
G75*
G02*
X223591000Y-191499500I0J237500D01*
G01*
X223591000Y-191024500D01*
G75*
G02*
X223828500Y-190787000I237500J0D01*
G01*
X224428500Y-190787000D01*
G75*
G02*
X224666000Y-191024500I0J-237500D01*
G01*
G37*
G04 #@! TD.AperFunction*
G04 #@! TA.AperFunction,SMDPad,CuDef*
G36*
G01*
X222941000Y-192802500D02*
X222941000Y-193277500D01*
G75*
G02*
X222703500Y-193515000I-237500J0D01*
G01*
X222103500Y-193515000D01*
G75*
G02*
X221866000Y-193277500I0J237500D01*
G01*
X221866000Y-192802500D01*
G75*
G02*
X222103500Y-192565000I237500J0D01*
G01*
X222703500Y-192565000D01*
G75*
G02*
X222941000Y-192802500I0J-237500D01*
G01*
G37*
G04 #@! TD.AperFunction*
G04 #@! TA.AperFunction,SMDPad,CuDef*
G36*
G01*
X224666000Y-192802500D02*
X224666000Y-193277500D01*
G75*
G02*
X224428500Y-193515000I-237500J0D01*
G01*
X223828500Y-193515000D01*
G75*
G02*
X223591000Y-193277500I0J237500D01*
G01*
X223591000Y-192802500D01*
G75*
G02*
X223828500Y-192565000I237500J0D01*
G01*
X224428500Y-192565000D01*
G75*
G02*
X224666000Y-192802500I0J-237500D01*
G01*
G37*
G04 #@! TD.AperFunction*
G04 #@! TA.AperFunction,SMDPad,CuDef*
G36*
G01*
X238489500Y-190429000D02*
X238014500Y-190429000D01*
G75*
G02*
X237777000Y-190191500I0J237500D01*
G01*
X237777000Y-189591500D01*
G75*
G02*
X238014500Y-189354000I237500J0D01*
G01*
X238489500Y-189354000D01*
G75*
G02*
X238727000Y-189591500I0J-237500D01*
G01*
X238727000Y-190191500D01*
G75*
G02*
X238489500Y-190429000I-237500J0D01*
G01*
G37*
G04 #@! TD.AperFunction*
G04 #@! TA.AperFunction,SMDPad,CuDef*
G36*
G01*
X238489500Y-192154000D02*
X238014500Y-192154000D01*
G75*
G02*
X237777000Y-191916500I0J237500D01*
G01*
X237777000Y-191316500D01*
G75*
G02*
X238014500Y-191079000I237500J0D01*
G01*
X238489500Y-191079000D01*
G75*
G02*
X238727000Y-191316500I0J-237500D01*
G01*
X238727000Y-191916500D01*
G75*
G02*
X238489500Y-192154000I-237500J0D01*
G01*
G37*
G04 #@! TD.AperFunction*
G04 #@! TA.AperFunction,SMDPad,CuDef*
G36*
G01*
X240775500Y-190429000D02*
X240300500Y-190429000D01*
G75*
G02*
X240063000Y-190191500I0J237500D01*
G01*
X240063000Y-189591500D01*
G75*
G02*
X240300500Y-189354000I237500J0D01*
G01*
X240775500Y-189354000D01*
G75*
G02*
X241013000Y-189591500I0J-237500D01*
G01*
X241013000Y-190191500D01*
G75*
G02*
X240775500Y-190429000I-237500J0D01*
G01*
G37*
G04 #@! TD.AperFunction*
G04 #@! TA.AperFunction,SMDPad,CuDef*
G36*
G01*
X240775500Y-192154000D02*
X240300500Y-192154000D01*
G75*
G02*
X240063000Y-191916500I0J237500D01*
G01*
X240063000Y-191316500D01*
G75*
G02*
X240300500Y-191079000I237500J0D01*
G01*
X240775500Y-191079000D01*
G75*
G02*
X241013000Y-191316500I0J-237500D01*
G01*
X241013000Y-191916500D01*
G75*
G02*
X240775500Y-192154000I-237500J0D01*
G01*
G37*
G04 #@! TD.AperFunction*
D31*
X229870000Y-196342000D03*
X233680000Y-196342000D03*
X232410000Y-196342000D03*
X231140000Y-196342000D03*
X229870000Y-195072000D03*
X231140000Y-195072000D03*
X232410000Y-195072000D03*
X233680000Y-195072000D03*
X233680000Y-192532000D03*
X232410000Y-192532000D03*
X231140000Y-192532000D03*
X229870000Y-192532000D03*
X229870000Y-193802000D03*
X231140000Y-193802000D03*
X232410000Y-193802000D03*
X233680000Y-193802000D03*
X235812395Y-200707046D03*
X382778000Y-145034000D03*
X380492000Y-101600000D03*
X393700000Y-108204000D03*
X372364000Y-79756000D03*
X395224000Y-129540000D03*
X393141200Y-97282000D03*
X376428000Y-129540000D03*
X378460000Y-129540000D03*
X376428000Y-131572000D03*
X378460000Y-131572000D03*
X377444000Y-135128000D03*
X381000000Y-135128000D03*
X377444000Y-138684000D03*
X381000000Y-138684000D03*
X381000000Y-127508000D03*
X383032000Y-127508000D03*
X381000000Y-130048000D03*
X383032000Y-130048000D03*
X387604000Y-127508000D03*
X387604000Y-130048000D03*
X227584000Y-198882000D03*
X238252000Y-185420000D03*
X223266000Y-189230000D03*
X371348000Y-127762000D03*
X369316000Y-135890000D03*
X383032000Y-119380000D03*
X381508000Y-119380000D03*
X394462000Y-118364000D03*
X245618000Y-193802000D03*
X243840000Y-188468000D03*
X240284000Y-185165996D03*
X224856537Y-189683611D03*
X238252000Y-197104000D03*
X242824000Y-199136000D03*
X364337599Y-87223601D03*
X369189500Y-87223600D03*
X364337600Y-90271600D03*
X361950000Y-101092000D03*
X377952000Y-98806000D03*
X373634000Y-122301000D03*
X391922000Y-127508000D03*
X373634000Y-117602000D03*
X382270000Y-122301000D03*
X388873985Y-114046015D03*
X383032000Y-117602000D03*
X369697006Y-122301000D03*
X369570000Y-133858000D03*
X388112000Y-122682000D03*
X375158024Y-98552000D03*
X358648000Y-98806000D03*
X355854000Y-114046000D03*
X150622000Y-195834000D03*
X212598000Y-204470000D03*
X224790000Y-197612000D03*
X216916000Y-200406000D03*
X229615994Y-184912000D03*
X219456000Y-201168012D03*
X376682000Y-156718000D03*
X221488000Y-202184000D03*
X214122000Y-203708000D03*
X220472000Y-204216000D03*
X234188000Y-200914000D03*
X232664000Y-204435010D03*
X395782798Y-125222000D03*
X390144000Y-114808000D03*
X381965200Y-133756400D03*
X239776000Y-200152000D03*
X243840000Y-202438000D03*
X386334000Y-134874000D03*
X337515200Y-115773200D03*
X341985600Y-134620000D03*
X375462800Y-153720800D03*
X375564400Y-172821600D03*
X370890800Y-196596000D03*
X375513600Y-143256000D03*
X396697200Y-144322800D03*
X390398000Y-144424400D03*
X356616000Y-144272000D03*
X369570000Y-144272000D03*
X80416400Y-87172800D03*
X87579200Y-153771600D03*
X92202000Y-172872400D03*
X82753200Y-191922400D03*
X80010000Y-115773200D03*
X82550000Y-134772400D03*
X106527600Y-191922400D03*
X113792000Y-153720800D03*
X99314000Y-115417600D03*
X108813600Y-87071200D03*
X122428000Y-172821600D03*
X107848400Y-134467600D03*
X127965200Y-86969600D03*
X118465600Y-115570000D03*
X132740400Y-153720800D03*
X130352800Y-191770000D03*
X127101600Y-134620000D03*
X141325600Y-172821600D03*
X151841200Y-153720800D03*
X137566400Y-115570000D03*
X147116800Y-87020400D03*
X160528000Y-172567600D03*
X146202400Y-134518400D03*
X166217600Y-87020400D03*
X156565600Y-115620800D03*
X170891200Y-153771600D03*
X164338000Y-134366000D03*
X177038008Y-172974000D03*
X201676000Y-191820800D03*
X189992000Y-153771600D03*
X175615600Y-115620800D03*
X194767200Y-87071200D03*
X198221600Y-172669200D03*
X183896000Y-134620000D03*
X213918800Y-87071200D03*
X194716400Y-115671600D03*
X215138000Y-172720000D03*
X205993994Y-153670000D03*
X200152000Y-134874000D03*
X232918000Y-87122000D03*
X213614000Y-115671600D03*
X227990400Y-153670000D03*
X221996000Y-134620000D03*
X233680000Y-172720000D03*
X251917200Y-87122000D03*
X232664000Y-115671600D03*
X246837200Y-153619200D03*
X269392400Y-191719200D03*
X255422400Y-172618400D03*
X240538000Y-134518400D03*
X280568400Y-87122000D03*
X251815600Y-115671600D03*
X265988800Y-153771600D03*
X288696400Y-191820800D03*
X274320000Y-172516800D03*
X259842000Y-134619998D03*
X299618400Y-87122000D03*
X270764000Y-115671600D03*
X280365200Y-134721600D03*
X308914800Y-191820800D03*
X293878000Y-172770800D03*
X284480000Y-153619200D03*
X318516000Y-87071200D03*
X304088800Y-153670000D03*
X320700400Y-172720000D03*
X331470000Y-196545200D03*
X289814002Y-115316000D03*
X298450000Y-134620000D03*
X337667600Y-87071200D03*
X308914800Y-115671600D03*
X334975200Y-153670000D03*
X351586800Y-177444400D03*
X351688400Y-196545200D03*
X318008000Y-134670800D03*
D32*
X362392500Y-79593750D02*
X362392500Y-83773750D01*
X362392500Y-79593750D02*
X371032500Y-79593750D01*
X371032500Y-79593750D02*
X371032500Y-83773750D01*
X399288000Y-134561750D02*
X399288000Y-136736750D01*
X396730250Y-136906000D02*
X396508000Y-137128250D01*
X399118750Y-136906000D02*
X396730250Y-136906000D01*
X399288000Y-136736750D02*
X399118750Y-136906000D01*
X373022500Y-91186000D02*
X373022500Y-92051500D01*
X373022500Y-92051500D02*
X372618000Y-92456000D01*
X370208750Y-92456000D02*
X367712500Y-89959750D01*
X372618000Y-92456000D02*
X370208750Y-92456000D01*
X375021652Y-136245250D02*
X374093750Y-136245250D01*
X379793750Y-131473152D02*
X375021652Y-136245250D01*
X374093750Y-128245250D02*
X379754750Y-128245250D01*
X379754750Y-128245250D02*
X379793750Y-128206250D01*
X379793750Y-128206250D02*
X379793750Y-131473152D01*
X379793750Y-125745250D02*
X379793750Y-128206250D01*
X389493750Y-131445250D02*
X390471750Y-131445250D01*
X400153510Y-132276618D02*
X399322142Y-131445250D01*
X400153510Y-133696240D02*
X400153510Y-132276618D01*
X399288000Y-134561750D02*
X400153510Y-133696240D01*
X395096750Y-131445250D02*
X390471750Y-131445250D01*
X229870000Y-192532000D02*
X229870000Y-192563750D01*
X233680000Y-192532000D02*
X233680000Y-192563750D01*
D33*
X235937500Y-195218750D02*
X232525000Y-195218750D01*
X233525000Y-192718750D02*
X231775000Y-194468750D01*
X233525000Y-190306250D02*
X233525000Y-192718750D01*
D32*
X236458722Y-189891500D02*
X238252000Y-189891500D01*
X238252000Y-189891500D02*
X238913500Y-189891500D01*
X238913500Y-189891500D02*
X240538000Y-189891500D01*
D33*
X231812361Y-194468750D02*
X231775000Y-194468750D01*
X236389611Y-189891500D02*
X231812361Y-194468750D01*
X236458722Y-189891500D02*
X236389611Y-189891500D01*
X235937500Y-197218750D02*
X234525000Y-197218750D01*
X232025000Y-194718750D02*
X231775000Y-194468750D01*
X235937500Y-194718750D02*
X232025000Y-194718750D01*
D32*
X229870000Y-192532000D02*
X233680000Y-192532000D01*
X229870000Y-193802000D02*
X233680000Y-193802000D01*
X233584750Y-194468750D02*
X233680000Y-194564000D01*
X231775000Y-194468750D02*
X233584750Y-194468750D01*
X233680000Y-194564000D02*
X233680000Y-196342000D01*
X233680000Y-192532000D02*
X233680000Y-194564000D01*
X229870000Y-192532000D02*
X229870000Y-196342000D01*
X229025000Y-197218750D02*
X231775000Y-194468750D01*
X229025000Y-197441000D02*
X229025000Y-197218750D01*
D33*
X229025000Y-198631250D02*
X229025000Y-197441000D01*
D32*
X240538000Y-188214000D02*
X240538000Y-189891500D01*
D33*
X234525000Y-197218750D02*
X231775000Y-194468750D01*
X232525000Y-198631250D02*
X232525000Y-195218750D01*
X232525000Y-195218750D02*
X231775000Y-194468750D01*
D32*
X235712000Y-199390000D02*
X235712000Y-198628000D01*
D33*
X236775000Y-200453000D02*
X235712000Y-199390000D01*
D32*
X235712000Y-199390000D02*
X235712000Y-200606651D01*
X235712000Y-200606651D02*
X235812395Y-200707046D01*
D33*
X237236000Y-200453000D02*
X236775000Y-200453000D01*
D32*
X373022500Y-99210500D02*
X379793750Y-105981750D01*
X373022500Y-92051500D02*
X373022500Y-99210500D01*
D33*
X231806750Y-194468750D02*
X231775000Y-194468750D01*
X235712000Y-198374000D02*
X231806750Y-194468750D01*
X235712000Y-198628000D02*
X235712000Y-198374000D01*
D32*
X381762000Y-144018000D02*
X382778000Y-145034000D01*
X381468000Y-144018000D02*
X381762000Y-144018000D01*
X391922000Y-106426000D02*
X393700000Y-108204000D01*
X391414000Y-106426000D02*
X391922000Y-106426000D01*
X372201750Y-79593750D02*
X372364000Y-79756000D01*
X371032500Y-79593750D02*
X372201750Y-79593750D01*
X362392500Y-84129150D02*
X363461300Y-85197950D01*
X362392500Y-83773750D02*
X362392500Y-84129150D01*
X363461300Y-85197950D02*
X363461300Y-86067900D01*
X360529500Y-88999700D02*
X360529500Y-91186000D01*
X363461300Y-86067900D02*
X360529500Y-88999700D01*
X371032500Y-84119950D02*
X369963700Y-85188750D01*
X371032500Y-83773750D02*
X371032500Y-84119950D01*
X373022500Y-89152100D02*
X373022500Y-91186000D01*
X369963700Y-86093300D02*
X373022500Y-89152100D01*
X369963700Y-85188750D02*
X369963700Y-86093300D01*
X399322142Y-131445250D02*
X395096750Y-131445250D01*
X393673500Y-129540000D02*
X395224000Y-129540000D01*
X379793750Y-125745250D02*
X379793750Y-105981750D01*
X389493750Y-131445250D02*
X384684792Y-131445250D01*
X384684792Y-131445250D02*
X384681441Y-131441899D01*
X384681441Y-131441899D02*
X379825003Y-131441899D01*
X379825003Y-131441899D02*
X379793750Y-131473152D01*
X234696000Y-185774500D02*
X236474000Y-185774500D01*
D33*
X229025000Y-198631250D02*
X228596750Y-198631250D01*
X228596750Y-198631250D02*
X228346000Y-198882000D01*
D32*
X228346000Y-198882000D02*
X227838000Y-198882000D01*
X227838000Y-198882000D02*
X227584000Y-198882000D01*
X222758000Y-191161500D02*
X222657500Y-191262000D01*
X237897500Y-185774500D02*
X238252000Y-185420000D01*
X236474000Y-185774500D02*
X237897500Y-185774500D01*
X222403500Y-193040000D02*
X222403500Y-191262000D01*
X222403500Y-191262000D02*
X222403500Y-190092500D01*
X222403500Y-190092500D02*
X223266000Y-189230000D01*
X371348000Y-126084500D02*
X371348000Y-127762000D01*
X370686500Y-137260500D02*
X369316000Y-135890000D01*
X371094000Y-137260500D02*
X370686500Y-137260500D01*
X383286000Y-119634000D02*
X383032000Y-119380000D01*
X383286000Y-120904000D02*
X383286000Y-119634000D01*
X381000000Y-119888000D02*
X381508000Y-119380000D01*
X381000000Y-120904000D02*
X381000000Y-119888000D01*
X394390000Y-118292000D02*
X394462000Y-118364000D01*
X392954000Y-118292000D02*
X394390000Y-118292000D01*
X396508000Y-137128250D02*
X396508000Y-136775348D01*
X396508000Y-136775348D02*
X394208000Y-134475348D01*
X394208000Y-134475348D02*
X394208000Y-134228250D01*
X240538000Y-191616500D02*
X238252000Y-191616500D01*
X238252000Y-191616500D02*
X237643500Y-191616500D01*
X237643500Y-191616500D02*
X237490000Y-191770000D01*
D33*
X235988750Y-191770000D02*
X235937500Y-191718750D01*
X237490000Y-191770000D02*
X235988750Y-191770000D01*
X237295250Y-192218750D02*
X235937500Y-192218750D01*
X237490000Y-192024000D02*
X237295250Y-192218750D01*
X237490000Y-191770000D02*
X237490000Y-192024000D01*
D32*
X240691500Y-191616500D02*
X240538000Y-191616500D01*
X243840000Y-188468000D02*
X240691500Y-191616500D01*
X243840000Y-190600500D02*
X240892500Y-193548000D01*
X243840000Y-188468000D02*
X243840000Y-190600500D01*
X245618000Y-193802000D02*
X242720500Y-193802000D01*
D33*
X225976750Y-193718750D02*
X227612500Y-193718750D01*
X225959240Y-193701240D02*
X225976750Y-193718750D01*
X225806000Y-193701240D02*
X225959240Y-193701240D01*
D32*
X365712500Y-89759750D02*
X365662250Y-89759750D01*
X236474000Y-184049500D02*
X234696000Y-184049500D01*
X224382500Y-190157648D02*
X224856537Y-189683611D01*
X240284000Y-184911998D02*
X240284000Y-185165996D01*
X239421502Y-184049500D02*
X240284000Y-184911998D01*
X236474000Y-184049500D02*
X239421502Y-184049500D01*
X225144760Y-193040000D02*
X224128500Y-193040000D01*
X225806000Y-193701240D02*
X225144760Y-193040000D01*
X224128500Y-193040000D02*
X224128500Y-191262000D01*
X224128500Y-190411648D02*
X224382500Y-190157648D01*
X224128500Y-191262000D02*
X224128500Y-190411648D01*
D33*
X231002010Y-190283260D02*
X231025000Y-190306250D01*
X231025000Y-188861000D02*
X231025000Y-190306250D01*
X231025000Y-188739510D02*
X231025000Y-188861000D01*
D32*
X231042510Y-188565490D02*
X231042510Y-188739510D01*
X231902000Y-187706000D02*
X231042510Y-188565490D01*
X231902000Y-186690000D02*
X231902000Y-187706000D01*
X234542500Y-184049500D02*
X231902000Y-186690000D01*
X234696000Y-184049500D02*
X234542500Y-184049500D01*
X241602900Y-194919600D02*
X242720500Y-193802000D01*
X241602900Y-195554600D02*
X241602900Y-194919600D01*
D33*
X237366750Y-196218750D02*
X235937500Y-196218750D01*
X238252000Y-197104000D02*
X237366750Y-196218750D01*
D32*
X245618000Y-194056000D02*
X245618000Y-193802000D01*
X241601000Y-197866000D02*
X241808000Y-197866000D01*
X241601000Y-197913000D02*
X242824000Y-199136000D01*
X241601000Y-197866000D02*
X241601000Y-197913000D01*
X364849450Y-89759750D02*
X364337600Y-90271600D01*
X365712500Y-89759750D02*
X364849450Y-89759750D01*
X369189500Y-85215750D02*
X369162500Y-85188750D01*
X364262500Y-85188750D02*
X364262500Y-87148502D01*
X364262500Y-87148502D02*
X364337599Y-87223601D01*
X369189500Y-87223600D02*
X369189500Y-85215750D01*
X377952000Y-97536000D02*
X377952000Y-98806000D01*
X382587500Y-97282000D02*
X378206000Y-97282000D01*
X378206000Y-97282000D02*
X377952000Y-97536000D01*
X383063750Y-97758250D02*
X382587500Y-97282000D01*
X383063750Y-99218750D02*
X383063750Y-97758250D01*
X361950000Y-95491000D02*
X361950000Y-101092000D01*
X360362500Y-93903500D02*
X361950000Y-95491000D01*
X361611250Y-93903500D02*
X360362500Y-93903500D01*
X364337600Y-91177150D02*
X361611250Y-93903500D01*
X364337600Y-90271600D02*
X364337600Y-91177150D01*
X390843250Y-130645250D02*
X389493750Y-130645250D01*
X391948500Y-129540000D02*
X390843250Y-130645250D01*
X391948500Y-127534500D02*
X391922000Y-127508000D01*
X391948500Y-129540000D02*
X391948500Y-127534500D01*
X393596500Y-127508000D02*
X393700000Y-127404500D01*
X391922000Y-127508000D02*
X393596500Y-127508000D01*
X371348000Y-117602000D02*
X373634000Y-117602000D01*
X382270000Y-122301000D02*
X382346200Y-122301000D01*
X360362500Y-102654100D02*
X371348000Y-113639600D01*
X371348000Y-113639600D02*
X371348000Y-117602000D01*
X386587985Y-114046015D02*
X383032000Y-117602000D01*
X388873985Y-114046015D02*
X386587985Y-114046015D01*
X373507000Y-122301000D02*
X373634000Y-122301000D01*
X371348000Y-120142000D02*
X373507000Y-122301000D01*
X371348000Y-117602000D02*
X371348000Y-120142000D01*
X382270000Y-122301000D02*
X382550500Y-122301000D01*
X381393750Y-124625050D02*
X381393750Y-125745250D01*
X371348000Y-124359500D02*
X371348000Y-123952000D01*
X369697006Y-122301006D02*
X369697006Y-122301000D01*
X371348000Y-123952000D02*
X369697006Y-122301006D01*
X372603750Y-137045250D02*
X374093750Y-137045250D01*
X371094000Y-135535500D02*
X372603750Y-137045250D01*
X369570000Y-134011500D02*
X371094000Y-135535500D01*
X369570000Y-133858000D02*
X369570000Y-134011500D01*
X374093750Y-126901500D02*
X374093750Y-127445250D01*
X371551750Y-124359500D02*
X374093750Y-126901500D01*
X371348000Y-124359500D02*
X371551750Y-124359500D01*
X382958000Y-122301000D02*
X383286000Y-122629000D01*
X382270000Y-122301000D02*
X382958000Y-122301000D01*
X383286000Y-122732800D02*
X381393750Y-124625050D01*
X383286000Y-122629000D02*
X383286000Y-122732800D01*
X377393750Y-124663750D02*
X377393750Y-125745250D01*
X371501500Y-124206000D02*
X376936000Y-124206000D01*
X376936000Y-124206000D02*
X377393750Y-124663750D01*
X371348000Y-124359500D02*
X371501500Y-124206000D01*
X360362500Y-96878500D02*
X360362500Y-102654100D01*
X382651000Y-122682000D02*
X388112000Y-122682000D01*
X382270000Y-122301000D02*
X382651000Y-122682000D01*
D33*
X380593750Y-124358250D02*
X380593750Y-125745250D01*
X381000000Y-123952000D02*
X380593750Y-124358250D01*
X381000000Y-123036500D02*
X381000000Y-123952000D01*
X95535750Y-85635750D02*
X98425000Y-88525000D01*
X95535750Y-84613750D02*
X95535750Y-85635750D01*
X92233750Y-84613750D02*
X95535750Y-84613750D01*
X355302850Y-90568750D02*
X355600000Y-90568750D01*
X144979099Y-92014651D02*
X146050000Y-90943750D01*
X128152151Y-92014651D02*
X144979099Y-92014651D01*
X127000000Y-90862500D02*
X128152151Y-92014651D01*
X164029099Y-92014651D02*
X165100000Y-90943750D01*
X147120901Y-92014651D02*
X164029099Y-92014651D01*
X146050000Y-90943750D02*
X147120901Y-92014651D01*
X183079099Y-92014651D02*
X184150000Y-90943750D01*
X166170901Y-92014651D02*
X183079099Y-92014651D01*
X165100000Y-90943750D02*
X166170901Y-92014651D01*
X211654099Y-92014651D02*
X212725000Y-90943750D01*
X185220901Y-92014651D02*
X211654099Y-92014651D01*
X184150000Y-90943750D02*
X185220901Y-92014651D01*
X230704099Y-92014651D02*
X231775000Y-90943750D01*
X213795901Y-92014651D02*
X230704099Y-92014651D01*
X212725000Y-90943750D02*
X213795901Y-92014651D01*
X249754099Y-92014651D02*
X250825000Y-90943750D01*
X232845901Y-92014651D02*
X249754099Y-92014651D01*
X231775000Y-90943750D02*
X232845901Y-92014651D01*
X268804099Y-92014651D02*
X269875000Y-90943750D01*
X251895901Y-92014651D02*
X268804099Y-92014651D01*
X250825000Y-90943750D02*
X251895901Y-92014651D01*
X297379099Y-92014651D02*
X298450000Y-90943750D01*
X270945901Y-92014651D02*
X297379099Y-92014651D01*
X269875000Y-90943750D02*
X270945901Y-92014651D01*
X316429099Y-92014651D02*
X317500000Y-90943750D01*
X299520901Y-92014651D02*
X316429099Y-92014651D01*
X298450000Y-90943750D02*
X299520901Y-92014651D01*
X335479099Y-92014651D02*
X336550000Y-90943750D01*
X318570901Y-92014651D02*
X335479099Y-92014651D01*
X317500000Y-90943750D02*
X318570901Y-92014651D01*
X354529099Y-92014651D02*
X355600000Y-90943750D01*
X337620901Y-92014651D02*
X354529099Y-92014651D01*
X336550000Y-90943750D02*
X337620901Y-92014651D01*
X125847849Y-92014651D02*
X127000000Y-90862500D01*
X99380651Y-92014651D02*
X125847849Y-92014651D01*
X98425000Y-91059000D02*
X99380651Y-92014651D01*
X98425000Y-91025000D02*
X98425000Y-91059000D01*
X355600000Y-90943750D02*
X355600000Y-95758000D01*
X355600000Y-95758000D02*
X358648000Y-98806000D01*
X376174000Y-97536024D02*
X375158024Y-98552000D01*
X376174000Y-85578000D02*
X376174000Y-97536024D01*
X376682000Y-85070000D02*
X376174000Y-85578000D01*
X362051119Y-120243119D02*
X355854000Y-114046000D01*
X362051119Y-133221855D02*
X362051119Y-120243119D01*
X373320264Y-144491000D02*
X362051119Y-133221855D01*
X376519432Y-144491000D02*
X373320264Y-144491000D01*
X378193750Y-142816682D02*
X376519432Y-144491000D01*
X378193750Y-141145250D02*
X378193750Y-142816682D01*
X124110750Y-85473250D02*
X127000000Y-88362500D01*
X124110750Y-84613750D02*
X124110750Y-85473250D01*
X120808750Y-84613750D02*
X124110750Y-84613750D01*
X143160750Y-85554500D02*
X146050000Y-88443750D01*
X143160750Y-84613750D02*
X143160750Y-85554500D01*
X139858750Y-84613750D02*
X143160750Y-84613750D01*
X162210750Y-85554500D02*
X165100000Y-88443750D01*
X162210750Y-84613750D02*
X162210750Y-85554500D01*
X158908750Y-84613750D02*
X162210750Y-84613750D01*
X181260750Y-85554500D02*
X184150000Y-88443750D01*
X181260750Y-84613750D02*
X181260750Y-85554500D01*
X177958750Y-84613750D02*
X181260750Y-84613750D01*
X209835750Y-85554500D02*
X212725000Y-88443750D01*
X209835750Y-84613750D02*
X209835750Y-85554500D01*
X206533750Y-84613750D02*
X209835750Y-84613750D01*
X228885750Y-85554500D02*
X231775000Y-88443750D01*
X228885750Y-84613750D02*
X228885750Y-85554500D01*
X225583750Y-84613750D02*
X228885750Y-84613750D01*
X247935750Y-85554500D02*
X250825000Y-88443750D01*
X247935750Y-84613750D02*
X247935750Y-85554500D01*
X244633750Y-84613750D02*
X247935750Y-84613750D01*
X266985750Y-85554500D02*
X269875000Y-88443750D01*
X266985750Y-84613750D02*
X266985750Y-85554500D01*
X263683750Y-84613750D02*
X266985750Y-84613750D01*
X295560750Y-85554500D02*
X298450000Y-88443750D01*
X295560750Y-84613750D02*
X295560750Y-85554500D01*
X292258750Y-84613750D02*
X295560750Y-84613750D01*
X314610750Y-85554500D02*
X317500000Y-88443750D01*
X314610750Y-84613750D02*
X314610750Y-85554500D01*
X311308750Y-84613750D02*
X314610750Y-84613750D01*
X333660750Y-85554500D02*
X336550000Y-88443750D01*
X333660750Y-84613750D02*
X333660750Y-85554500D01*
X330358750Y-84613750D02*
X333660750Y-84613750D01*
X352710750Y-85554500D02*
X355600000Y-88443750D01*
X352710750Y-84613750D02*
X352710750Y-85554500D01*
X349408750Y-84613750D02*
X352710750Y-84613750D01*
X378502000Y-80750000D02*
X376682000Y-82570000D01*
X381793750Y-80750000D02*
X378502000Y-80750000D01*
X95535750Y-114129500D02*
X98425000Y-117018750D01*
X95535750Y-113188750D02*
X95535750Y-114129500D01*
X92233750Y-113188750D02*
X95535750Y-113188750D01*
X328410250Y-120904000D02*
X327025000Y-119518750D01*
X354214750Y-120904000D02*
X328410250Y-120904000D01*
X355600000Y-119518750D02*
X354214750Y-120904000D01*
X309360250Y-120904000D02*
X307975000Y-119518750D01*
X325639750Y-120904000D02*
X309360250Y-120904000D01*
X327025000Y-119518750D02*
X325639750Y-120904000D01*
X290310250Y-120904000D02*
X288925000Y-119518750D01*
X306589750Y-120904000D02*
X290310250Y-120904000D01*
X307975000Y-119518750D02*
X306589750Y-120904000D01*
X271260250Y-120904000D02*
X269875000Y-119518750D01*
X287539750Y-120904000D02*
X271260250Y-120904000D01*
X288925000Y-119518750D02*
X287539750Y-120904000D01*
X252210250Y-120904000D02*
X250825000Y-119518750D01*
X268489750Y-120904000D02*
X252210250Y-120904000D01*
X269875000Y-119518750D02*
X268489750Y-120904000D01*
X233160250Y-120904000D02*
X231775000Y-119518750D01*
X249439750Y-120904000D02*
X233160250Y-120904000D01*
X250825000Y-119518750D02*
X249439750Y-120904000D01*
X214364250Y-121158000D02*
X212725000Y-119518750D01*
X230135750Y-121158000D02*
X214364250Y-121158000D01*
X231775000Y-119518750D02*
X230135750Y-121158000D01*
X195060250Y-120904000D02*
X193675000Y-119518750D01*
X211339750Y-120904000D02*
X195060250Y-120904000D01*
X212725000Y-119518750D02*
X211339750Y-120904000D01*
X176010250Y-120904000D02*
X174625000Y-119518750D01*
X192289750Y-120904000D02*
X176010250Y-120904000D01*
X193675000Y-119518750D02*
X192289750Y-120904000D01*
X156960250Y-120904000D02*
X155575000Y-119518750D01*
X173239750Y-120904000D02*
X156960250Y-120904000D01*
X174625000Y-119518750D02*
X173239750Y-120904000D01*
X137910250Y-120904000D02*
X136525000Y-119518750D01*
X154189750Y-120904000D02*
X137910250Y-120904000D01*
X155575000Y-119518750D02*
X154189750Y-120904000D01*
X119114250Y-121158000D02*
X117475000Y-119518750D01*
X134885750Y-121158000D02*
X119114250Y-121158000D01*
X136525000Y-119518750D02*
X134885750Y-121158000D01*
X99810250Y-120904000D02*
X98425000Y-119518750D01*
X116089750Y-120904000D02*
X99810250Y-120904000D01*
X117475000Y-119518750D02*
X116089750Y-120904000D01*
X378993750Y-142658749D02*
X378993750Y-141145250D01*
X373132207Y-144945010D02*
X376707489Y-144945010D01*
X361442000Y-123190000D02*
X361442000Y-133254803D01*
X357770750Y-119518750D02*
X361442000Y-123190000D01*
X376707489Y-144945010D02*
X378993750Y-142658749D01*
X361442000Y-133254803D02*
X373132207Y-144945010D01*
X355600000Y-119518750D02*
X357770750Y-119518750D01*
X114585750Y-114129500D02*
X117475000Y-117018750D01*
X114585750Y-113188750D02*
X114585750Y-114129500D01*
X111283750Y-113188750D02*
X114585750Y-113188750D01*
X133680200Y-113233200D02*
X133635750Y-113188750D01*
X133635750Y-114129500D02*
X136525000Y-117018750D01*
X133635750Y-113188750D02*
X133635750Y-114129500D01*
X130333750Y-113188750D02*
X133635750Y-113188750D01*
X152685750Y-114129500D02*
X155575000Y-117018750D01*
X152685750Y-113188750D02*
X152685750Y-114129500D01*
X149383750Y-113188750D02*
X152685750Y-113188750D01*
X171735750Y-114129500D02*
X174625000Y-117018750D01*
X171735750Y-113188750D02*
X171735750Y-114129500D01*
X168433750Y-113188750D02*
X171735750Y-113188750D01*
X190785750Y-114129500D02*
X193675000Y-117018750D01*
X190785750Y-113188750D02*
X190785750Y-114129500D01*
X187483750Y-113188750D02*
X190785750Y-113188750D01*
X209835750Y-114129500D02*
X212725000Y-117018750D01*
X209835750Y-113188750D02*
X209835750Y-114129500D01*
X209835750Y-113188750D02*
X206533750Y-113188750D01*
X228885750Y-114129500D02*
X231775000Y-117018750D01*
X228885750Y-113188750D02*
X228885750Y-114129500D01*
X225583750Y-113188750D02*
X228885750Y-113188750D01*
X247935750Y-114129500D02*
X250825000Y-117018750D01*
X247935750Y-113188750D02*
X247935750Y-114129500D01*
X244633750Y-113188750D02*
X247935750Y-113188750D01*
X266985750Y-114129500D02*
X269875000Y-117018750D01*
X266985750Y-113188750D02*
X266985750Y-114129500D01*
X263683750Y-113188750D02*
X266985750Y-113188750D01*
X286035750Y-114129500D02*
X288925000Y-117018750D01*
X286035750Y-113188750D02*
X286035750Y-114129500D01*
X282733750Y-113188750D02*
X286035750Y-113188750D01*
X305085750Y-114129500D02*
X307975000Y-117018750D01*
X305085750Y-113188750D02*
X305085750Y-114129500D01*
X301783750Y-113188750D02*
X305085750Y-113188750D01*
X324135750Y-114129500D02*
X327025000Y-117018750D01*
X324135750Y-113188750D02*
X324135750Y-114129500D01*
X320833750Y-113188750D02*
X324135750Y-113188750D01*
X352710750Y-114129500D02*
X355600000Y-117018750D01*
X352710750Y-113188750D02*
X352710750Y-114129500D01*
X349408750Y-113188750D02*
X352710750Y-113188750D01*
X100298250Y-133179500D02*
X103187500Y-136068750D01*
X100298250Y-132238750D02*
X100298250Y-133179500D01*
X96996250Y-132238750D02*
X100298250Y-132238750D01*
X279179050Y-138193750D02*
X279400000Y-138193750D01*
X222250000Y-138718750D02*
X222250000Y-138193750D01*
X125614750Y-139954000D02*
X127000000Y-138568750D01*
X104572750Y-139954000D02*
X125614750Y-139954000D01*
X103187500Y-138568750D02*
X104572750Y-139954000D01*
X144664750Y-139954000D02*
X146050000Y-138568750D01*
X128385250Y-139954000D02*
X144664750Y-139954000D01*
X127000000Y-138568750D02*
X128385250Y-139954000D01*
X163714750Y-139954000D02*
X165100000Y-138568750D01*
X147435250Y-139954000D02*
X163714750Y-139954000D01*
X146050000Y-138568750D02*
X147435250Y-139954000D01*
X182764750Y-139954000D02*
X184150000Y-138568750D01*
X166485250Y-139954000D02*
X182764750Y-139954000D01*
X165100000Y-138568750D02*
X166485250Y-139954000D01*
X201814750Y-139954000D02*
X203200000Y-138568750D01*
X185535250Y-139954000D02*
X201814750Y-139954000D01*
X184150000Y-138568750D02*
X185535250Y-139954000D01*
X220864750Y-139954000D02*
X222250000Y-138568750D01*
X204585250Y-139954000D02*
X220864750Y-139954000D01*
X203200000Y-138568750D02*
X204585250Y-139954000D01*
X239914750Y-139954000D02*
X241300000Y-138568750D01*
X223635250Y-139954000D02*
X239914750Y-139954000D01*
X222250000Y-138568750D02*
X223635250Y-139954000D01*
X258964750Y-139954000D02*
X260350000Y-138568750D01*
X242685250Y-139954000D02*
X258964750Y-139954000D01*
X241300000Y-138568750D02*
X242685250Y-139954000D01*
X278014750Y-139954000D02*
X279400000Y-138568750D01*
X261735250Y-139954000D02*
X278014750Y-139954000D01*
X260350000Y-138568750D02*
X261735250Y-139954000D01*
X297064750Y-139954000D02*
X298450000Y-138568750D01*
X280785250Y-139954000D02*
X297064750Y-139954000D01*
X279400000Y-138568750D02*
X280785250Y-139954000D01*
X316114750Y-139954000D02*
X317500000Y-138568750D01*
X299835250Y-139954000D02*
X316114750Y-139954000D01*
X298450000Y-138568750D02*
X299835250Y-139954000D01*
X335164750Y-139954000D02*
X336550000Y-138568750D01*
X318885250Y-139954000D02*
X335164750Y-139954000D01*
X317500000Y-138568750D02*
X318885250Y-139954000D01*
X358977250Y-139954000D02*
X360362500Y-138568750D01*
X337935250Y-139954000D02*
X358977250Y-139954000D01*
X336550000Y-138568750D02*
X337935250Y-139954000D01*
X360362500Y-138568750D02*
X366063942Y-138568750D01*
X366063942Y-138568750D02*
X372894213Y-145399021D01*
X372894213Y-145399021D02*
X379872979Y-145399021D01*
X379872979Y-145399021D02*
X380593750Y-144678250D01*
X380593750Y-144678250D02*
X380593750Y-141145250D01*
X124117100Y-132232400D02*
X124110750Y-132238750D01*
X124110750Y-133179500D02*
X127000000Y-136068750D01*
X124110750Y-132238750D02*
X124110750Y-133179500D01*
X120808750Y-132238750D02*
X124110750Y-132238750D01*
X143160750Y-133179500D02*
X146050000Y-136068750D01*
X143160750Y-132238750D02*
X143160750Y-133179500D01*
X139858750Y-132238750D02*
X143160750Y-132238750D01*
X164964788Y-136068750D02*
X165100000Y-136068750D01*
X162210750Y-133314712D02*
X164964788Y-136068750D01*
X162210750Y-132238750D02*
X162210750Y-133314712D01*
X158908750Y-132238750D02*
X162210750Y-132238750D01*
X181260750Y-133179500D02*
X184150000Y-136068750D01*
X181260750Y-132238750D02*
X181260750Y-133179500D01*
X177958750Y-132238750D02*
X181260750Y-132238750D01*
X200270788Y-136068750D02*
X203200000Y-136068750D01*
X199424999Y-135222961D02*
X200270788Y-136068750D01*
X199424999Y-133124501D02*
X199424999Y-135222961D01*
X200310750Y-132238750D02*
X199424999Y-133124501D01*
X197008750Y-132238750D02*
X200310750Y-132238750D01*
X219360750Y-133179500D02*
X222250000Y-136068750D01*
X219360750Y-132238750D02*
X219360750Y-133179500D01*
X216058750Y-132238750D02*
X219360750Y-132238750D01*
X240736750Y-136068750D02*
X241300000Y-136068750D01*
X238410750Y-133742750D02*
X240736750Y-136068750D01*
X238410750Y-132238750D02*
X238410750Y-133742750D01*
X235108750Y-132238750D02*
X238410750Y-132238750D01*
X257460750Y-132238750D02*
X257460750Y-133742750D01*
X257460750Y-133742750D02*
X259786750Y-136068750D01*
X259786750Y-136068750D02*
X260350000Y-136068750D01*
X254158750Y-132238750D02*
X257460750Y-132238750D01*
X276510750Y-133179500D02*
X279400000Y-136068750D01*
X276510750Y-132238750D02*
X276510750Y-133179500D01*
X273208750Y-132238750D02*
X276510750Y-132238750D01*
X297886750Y-136068750D02*
X298450000Y-136068750D01*
X295560750Y-133742750D02*
X297886750Y-136068750D01*
X295560750Y-132238750D02*
X295560750Y-133742750D01*
X292258750Y-132238750D02*
X295560750Y-132238750D01*
X314610750Y-133179500D02*
X317500000Y-136068750D01*
X314610750Y-132238750D02*
X314610750Y-133179500D01*
X311308750Y-132238750D02*
X314610750Y-132238750D01*
X333660750Y-133179500D02*
X336550000Y-136068750D01*
X333660750Y-132238750D02*
X333660750Y-133179500D01*
X330358750Y-132238750D02*
X333660750Y-132238750D01*
X357473250Y-133179500D02*
X360362500Y-136068750D01*
X357473250Y-132238750D02*
X357473250Y-133179500D01*
X354171250Y-132238750D02*
X357473250Y-132238750D01*
X102679500Y-152229500D02*
X105568750Y-155118750D01*
X102679500Y-151288750D02*
X102679500Y-152229500D01*
X99377500Y-151288750D02*
X102679500Y-151288750D01*
X393700000Y-157618750D02*
X393700000Y-157226000D01*
X394919200Y-156006800D02*
X394919200Y-155752800D01*
X393700000Y-157226000D02*
X394919200Y-156006800D01*
X394919200Y-155752800D02*
X394919200Y-156024550D01*
X394919200Y-151587200D02*
X394919200Y-155752800D01*
X383154523Y-143910023D02*
X387242023Y-143910023D01*
X381393750Y-142149250D02*
X383154523Y-143910023D01*
X387242023Y-143910023D02*
X394919200Y-151587200D01*
X381393750Y-141145250D02*
X381393750Y-142149250D01*
X392314750Y-159004000D02*
X393700000Y-157618750D01*
X354604000Y-159004000D02*
X392314750Y-159004000D01*
X353218750Y-157618750D02*
X354604000Y-159004000D01*
X323901750Y-159258000D02*
X322262500Y-157618750D01*
X351579500Y-159258000D02*
X323901750Y-159258000D01*
X353218750Y-157618750D02*
X351579500Y-159258000D01*
X304597750Y-159004000D02*
X303212500Y-157618750D01*
X320877250Y-159004000D02*
X304597750Y-159004000D01*
X322262500Y-157618750D02*
X320877250Y-159004000D01*
X285547750Y-159004000D02*
X284162500Y-157618750D01*
X301827250Y-159004000D02*
X285547750Y-159004000D01*
X303212500Y-157618750D02*
X301827250Y-159004000D01*
X266497750Y-159004000D02*
X265112500Y-157618750D01*
X282777250Y-159004000D02*
X266497750Y-159004000D01*
X284162500Y-157618750D02*
X282777250Y-159004000D01*
X247447750Y-159004000D02*
X246062500Y-157618750D01*
X263727250Y-159004000D02*
X247447750Y-159004000D01*
X265112500Y-157618750D02*
X263727250Y-159004000D01*
X228397750Y-159004000D02*
X227012500Y-157618750D01*
X244677250Y-159004000D02*
X228397750Y-159004000D01*
X246062500Y-157618750D02*
X244677250Y-159004000D01*
X209347750Y-159004000D02*
X207962500Y-157618750D01*
X225627250Y-159004000D02*
X209347750Y-159004000D01*
X227012500Y-157618750D02*
X225627250Y-159004000D01*
X190297750Y-159004000D02*
X188912500Y-157618750D01*
X206577250Y-159004000D02*
X190297750Y-159004000D01*
X207962500Y-157618750D02*
X206577250Y-159004000D01*
X171247750Y-159004000D02*
X169862500Y-157618750D01*
X187527250Y-159004000D02*
X171247750Y-159004000D01*
X188912500Y-157618750D02*
X187527250Y-159004000D01*
X152197750Y-159004000D02*
X150812500Y-157618750D01*
X168477250Y-159004000D02*
X152197750Y-159004000D01*
X169862500Y-157618750D02*
X168477250Y-159004000D01*
X133147750Y-159004000D02*
X131762500Y-157618750D01*
X149427250Y-159004000D02*
X133147750Y-159004000D01*
X150812500Y-157618750D02*
X149427250Y-159004000D01*
X106954000Y-159004000D02*
X105568750Y-157618750D01*
X130377250Y-159004000D02*
X106954000Y-159004000D01*
X131762500Y-157618750D02*
X130377250Y-159004000D01*
X128873250Y-152229500D02*
X131762500Y-155118750D01*
X128873250Y-151288750D02*
X128873250Y-152229500D01*
X125571250Y-151288750D02*
X128873250Y-151288750D01*
X147923250Y-152229500D02*
X150812500Y-155118750D01*
X147923250Y-151288750D02*
X147923250Y-152229500D01*
X144621250Y-151288750D02*
X147923250Y-151288750D01*
X166973250Y-152229500D02*
X169862500Y-155118750D01*
X166973250Y-151288750D02*
X166973250Y-152229500D01*
X163671250Y-151288750D02*
X166973250Y-151288750D01*
X186023250Y-152229500D02*
X188912500Y-155118750D01*
X186023250Y-151288750D02*
X186023250Y-152229500D01*
X182721250Y-151288750D02*
X186023250Y-151288750D01*
X205073250Y-151288750D02*
X204758998Y-151603002D01*
X206366782Y-155118750D02*
X207962500Y-155118750D01*
X205073250Y-153825218D02*
X206366782Y-155118750D01*
X205073250Y-151288750D02*
X205073250Y-153825218D01*
X201771250Y-151288750D02*
X205073250Y-151288750D01*
X224123250Y-152229500D02*
X227012500Y-155118750D01*
X224123250Y-151288750D02*
X224123250Y-152229500D01*
X220821250Y-151288750D02*
X224123250Y-151288750D01*
X243173250Y-152229500D02*
X246062500Y-155118750D01*
X243173250Y-151288750D02*
X243173250Y-152229500D01*
X239871250Y-151288750D02*
X243173250Y-151288750D01*
X262223250Y-152229500D02*
X265112500Y-155118750D01*
X262223250Y-151288750D02*
X262223250Y-152229500D01*
X258921250Y-151288750D02*
X262223250Y-151288750D01*
X281273250Y-152229500D02*
X284162500Y-155118750D01*
X281273250Y-151288750D02*
X281273250Y-152229500D01*
X277971250Y-151288750D02*
X281273250Y-151288750D01*
X300323250Y-152229500D02*
X303212500Y-155118750D01*
X300323250Y-151288750D02*
X300323250Y-152229500D01*
X297021250Y-151288750D02*
X300323250Y-151288750D01*
X319373250Y-152229500D02*
X322262500Y-155118750D01*
X319373250Y-151288750D02*
X319373250Y-152229500D01*
X316071250Y-151288750D02*
X319373250Y-151288750D01*
X350329500Y-152229500D02*
X353218750Y-155118750D01*
X350329500Y-151288750D02*
X350329500Y-152229500D01*
X347027500Y-151288750D02*
X350329500Y-151288750D01*
X390810750Y-152229500D02*
X393700000Y-155118750D01*
X390810750Y-151288750D02*
X390810750Y-152229500D01*
X387508750Y-151288750D02*
X390810750Y-151288750D01*
X107442000Y-171279500D02*
X110331250Y-174168750D01*
X107442000Y-170338750D02*
X107442000Y-171279500D01*
X104140000Y-170338750D02*
X107442000Y-170338750D01*
X217203050Y-176293750D02*
X217487500Y-176293750D01*
X383402744Y-143456012D02*
X387430081Y-143456013D01*
X382193750Y-141145250D02*
X382193750Y-142247018D01*
X395427199Y-151453131D02*
X395427199Y-174566551D01*
X387430081Y-143456013D02*
X395427199Y-151453131D01*
X382193750Y-142247018D02*
X383402744Y-143456012D01*
X393700000Y-176293750D02*
X395427199Y-174566551D01*
X393700000Y-176668750D02*
X393700000Y-176293750D01*
X391552750Y-178816000D02*
X393700000Y-176668750D01*
X372502750Y-178816000D02*
X391552750Y-178816000D01*
X369887500Y-181431250D02*
X372502750Y-178816000D01*
X139902250Y-178054000D02*
X141287500Y-176668750D01*
X111716500Y-178054000D02*
X139902250Y-178054000D01*
X110331250Y-176668750D02*
X111716500Y-178054000D01*
X158952250Y-178054000D02*
X160337500Y-176668750D01*
X142672750Y-178054000D02*
X158952250Y-178054000D01*
X141287500Y-176668750D02*
X142672750Y-178054000D01*
X178002250Y-178054000D02*
X179387500Y-176668750D01*
X161722750Y-178054000D02*
X178002250Y-178054000D01*
X160337500Y-176668750D02*
X161722750Y-178054000D01*
X180772750Y-178054000D02*
X197052250Y-178054000D01*
X197052250Y-178054000D02*
X198437500Y-176668750D01*
X179387500Y-176668750D02*
X180772750Y-178054000D01*
X216102250Y-178054000D02*
X217487500Y-176668750D01*
X199822750Y-178054000D02*
X216102250Y-178054000D01*
X198437500Y-176668750D02*
X199822750Y-178054000D01*
X235152250Y-178054000D02*
X236537500Y-176668750D01*
X218872750Y-178054000D02*
X235152250Y-178054000D01*
X217487500Y-176668750D02*
X218872750Y-178054000D01*
X254202250Y-178054000D02*
X255587500Y-176668750D01*
X237922750Y-178054000D02*
X254202250Y-178054000D01*
X236537500Y-176668750D02*
X237922750Y-178054000D01*
X273252250Y-178054000D02*
X274637500Y-176668750D01*
X256972750Y-178054000D02*
X273252250Y-178054000D01*
X255587500Y-176668750D02*
X256972750Y-178054000D01*
X292302250Y-178054000D02*
X293687500Y-176668750D01*
X276022750Y-178054000D02*
X292302250Y-178054000D01*
X274637500Y-176668750D02*
X276022750Y-178054000D01*
X311352250Y-178054000D02*
X312737500Y-176668750D01*
X295072750Y-178054000D02*
X311352250Y-178054000D01*
X293687500Y-176668750D02*
X295072750Y-178054000D01*
X337546000Y-178054000D02*
X338931250Y-176668750D01*
X314122750Y-178054000D02*
X337546000Y-178054000D01*
X312737500Y-176668750D02*
X314122750Y-178054000D01*
X368438750Y-182880000D02*
X369887500Y-181431250D01*
X338931250Y-176668750D02*
X345142500Y-182880000D01*
X345142500Y-182880000D02*
X368438750Y-182880000D01*
X138398250Y-171279500D02*
X141287500Y-174168750D01*
X138398250Y-170338750D02*
X138398250Y-171279500D01*
X135096250Y-170338750D02*
X138398250Y-170338750D01*
X157448250Y-171279500D02*
X160337500Y-174168750D01*
X157448250Y-170338750D02*
X157448250Y-171279500D01*
X154146250Y-170338750D02*
X157448250Y-170338750D01*
X176902786Y-174168750D02*
X179387500Y-174168750D01*
X176056998Y-173322962D02*
X176902786Y-174168750D01*
X176056998Y-170780002D02*
X176056998Y-173322962D01*
X176498250Y-170338750D02*
X176056998Y-170780002D01*
X173196250Y-170338750D02*
X176498250Y-170338750D01*
X195548250Y-171842750D02*
X197874250Y-174168750D01*
X197874250Y-174168750D02*
X198437500Y-174168750D01*
X195548250Y-170338750D02*
X195548250Y-171842750D01*
X192246250Y-170338750D02*
X195548250Y-170338750D01*
X214598250Y-170338750D02*
X214410998Y-170526002D01*
X215510788Y-174168750D02*
X217487500Y-174168750D01*
X214410999Y-173068961D02*
X215510788Y-174168750D01*
X214410999Y-170526001D02*
X214410999Y-173068961D01*
X214598250Y-170338750D02*
X214410999Y-170526001D01*
X211296250Y-170338750D02*
X214598250Y-170338750D01*
X233648250Y-170338750D02*
X233206998Y-170780002D01*
X232952999Y-171034001D02*
X232952999Y-173068961D01*
X233648250Y-170338750D02*
X232952999Y-171034001D01*
X232952999Y-173068961D02*
X234052788Y-174168750D01*
X234052788Y-174168750D02*
X236537500Y-174168750D01*
X230346250Y-170338750D02*
X233648250Y-170338750D01*
X252698250Y-171279500D02*
X255587500Y-174168750D01*
X252698250Y-170338750D02*
X252698250Y-171279500D01*
X249396250Y-170338750D02*
X252698250Y-170338750D01*
X271748250Y-171279500D02*
X274637500Y-174168750D01*
X271748250Y-170338750D02*
X271748250Y-171279500D01*
X268446250Y-170338750D02*
X271748250Y-170338750D01*
X290798250Y-171279500D02*
X293687500Y-174168750D01*
X290798250Y-170338750D02*
X290798250Y-171279500D01*
X287496250Y-170338750D02*
X290798250Y-170338750D01*
X309848250Y-171279500D02*
X312737500Y-174168750D01*
X309848250Y-170338750D02*
X309848250Y-171279500D01*
X306546250Y-170338750D02*
X309848250Y-170338750D01*
X336042000Y-171279500D02*
X338931250Y-174168750D01*
X336042000Y-170338750D02*
X336042000Y-171279500D01*
X332740000Y-170338750D02*
X336042000Y-170338750D01*
X366998250Y-176042000D02*
X369887500Y-178931250D01*
X366998250Y-175101250D02*
X366998250Y-176042000D01*
X363696250Y-175101250D02*
X366998250Y-175101250D01*
X390810750Y-171279500D02*
X393700000Y-174168750D01*
X390810750Y-170338750D02*
X390810750Y-171279500D01*
X387508750Y-170338750D02*
X390810750Y-170338750D01*
X97917000Y-190248250D02*
X100806250Y-193137500D01*
X97917000Y-189388750D02*
X97917000Y-190248250D01*
X94615000Y-189388750D02*
X97917000Y-189388750D01*
X382993750Y-142149250D02*
X382993750Y-141145250D01*
X383846501Y-143002001D02*
X382993750Y-142149250D01*
X395986000Y-151369866D02*
X387618135Y-143002001D01*
X395986000Y-193802000D02*
X395986000Y-151369866D01*
X387618135Y-143002001D02*
X383846501Y-143002001D01*
X389306750Y-200481250D02*
X395986000Y-193802000D01*
X388937500Y-200481250D02*
X389306750Y-200481250D01*
X148431250Y-195800000D02*
X150588000Y-195800000D01*
X150588000Y-195800000D02*
X150622000Y-195834000D01*
X212598000Y-203180000D02*
X212598000Y-204470000D01*
X218948000Y-196830000D02*
X212598000Y-203180000D01*
X371336250Y-201930000D02*
X369887500Y-200481250D01*
X387488750Y-201930000D02*
X371336250Y-201930000D01*
X388937500Y-200481250D02*
X387488750Y-201930000D01*
X352286250Y-201930000D02*
X350837500Y-200481250D01*
X368438750Y-201930000D02*
X352286250Y-201930000D01*
X369887500Y-200481250D02*
X368438750Y-201930000D01*
X333236250Y-201930000D02*
X327025000Y-195718750D01*
X349388750Y-201930000D02*
X333236250Y-201930000D01*
X350837500Y-200481250D02*
X349388750Y-201930000D01*
X309360250Y-197104000D02*
X307975000Y-195718750D01*
X325639750Y-197104000D02*
X309360250Y-197104000D01*
X327025000Y-195718750D02*
X325639750Y-197104000D01*
X290310250Y-197104000D02*
X288925000Y-195718750D01*
X306589750Y-197104000D02*
X290310250Y-197104000D01*
X307975000Y-195718750D02*
X306589750Y-197104000D01*
X125922750Y-197104000D02*
X124618750Y-195800000D01*
X147127250Y-197104000D02*
X125922750Y-197104000D01*
X148431250Y-195800000D02*
X147127250Y-197104000D01*
X102272750Y-197104000D02*
X100806250Y-195637500D01*
X123314750Y-197104000D02*
X102272750Y-197104000D01*
X124618750Y-195800000D02*
X123314750Y-197104000D01*
X213251999Y-205123999D02*
X212598000Y-204470000D01*
X231020066Y-203454000D02*
X229350067Y-205123999D01*
X250444000Y-203454000D02*
X231020066Y-203454000D01*
X256794000Y-197104000D02*
X250444000Y-203454000D01*
X287539750Y-197104000D02*
X256794000Y-197104000D01*
X229350067Y-205123999D02*
X213251999Y-205123999D01*
X288925000Y-195718750D02*
X287539750Y-197104000D01*
X121729500Y-190410750D02*
X124618750Y-193300000D01*
X121729500Y-189388750D02*
X121729500Y-190410750D01*
X118427500Y-189388750D02*
X121729500Y-189388750D01*
X145542000Y-190410750D02*
X148431250Y-193300000D01*
X145542000Y-189388750D02*
X145542000Y-190410750D01*
X142240000Y-189388750D02*
X145542000Y-189388750D01*
X216979500Y-192361500D02*
X218948000Y-194330000D01*
X216979500Y-189388750D02*
X216979500Y-192361500D01*
X213677500Y-189388750D02*
X216979500Y-189388750D01*
X286035750Y-190329500D02*
X288925000Y-193218750D01*
X286035750Y-189388750D02*
X286035750Y-190329500D01*
X282733750Y-189388750D02*
X286035750Y-189388750D01*
X305085750Y-190329500D02*
X307975000Y-193218750D01*
X305085750Y-189388750D02*
X305085750Y-190329500D01*
X301783750Y-189388750D02*
X305085750Y-189388750D01*
X324135750Y-190329500D02*
X327025000Y-193218750D01*
X324135750Y-189388750D02*
X324135750Y-190329500D01*
X320833750Y-189388750D02*
X324135750Y-189388750D01*
X347948250Y-195092000D02*
X350837500Y-197981250D01*
X347948250Y-194151250D02*
X347948250Y-195092000D01*
X347948250Y-194151250D02*
X344646250Y-194151250D01*
X366998250Y-195092000D02*
X369887500Y-197981250D01*
X366998250Y-194151250D02*
X366998250Y-195092000D01*
X363696250Y-194151250D02*
X366998250Y-194151250D01*
X386048250Y-195092000D02*
X388937500Y-197981250D01*
X386048250Y-194151250D02*
X386048250Y-195092000D01*
X382746250Y-194151250D02*
X386048250Y-194151250D01*
X226175250Y-195718750D02*
X227612500Y-195718750D01*
X224790000Y-197104000D02*
X226175250Y-195718750D01*
X224790000Y-197612000D02*
X224790000Y-197104000D01*
X230378000Y-200406000D02*
X216916000Y-200406000D01*
X231025000Y-199759000D02*
X230378000Y-200406000D01*
X231025000Y-198631250D02*
X231025000Y-199759000D01*
X115443000Y-96266000D02*
X116967000Y-94742000D01*
X89916000Y-96266000D02*
X115443000Y-96266000D01*
X88392000Y-94742000D02*
X89916000Y-96266000D01*
X134493000Y-96266000D02*
X136017000Y-94742000D01*
X118491000Y-96266000D02*
X134493000Y-96266000D01*
X116967000Y-94742000D02*
X118491000Y-96266000D01*
X153543000Y-96266000D02*
X155067000Y-94742000D01*
X137541000Y-96266000D02*
X153543000Y-96266000D01*
X136017000Y-94742000D02*
X137541000Y-96266000D01*
X172593000Y-96266000D02*
X174117000Y-94742000D01*
X157315038Y-96266000D02*
X172593000Y-96266000D01*
X155791038Y-94742000D02*
X157315038Y-96266000D01*
X155067000Y-94742000D02*
X155791038Y-94742000D01*
X201168000Y-96266000D02*
X202692000Y-94742000D01*
X175641000Y-96266000D02*
X201168000Y-96266000D01*
X174117000Y-94742000D02*
X175641000Y-96266000D01*
X220218000Y-96266000D02*
X221742000Y-94742000D01*
X204216000Y-96266000D02*
X220218000Y-96266000D01*
X202692000Y-94742000D02*
X204216000Y-96266000D01*
X239268000Y-96266000D02*
X240792000Y-94742000D01*
X223266000Y-96266000D02*
X239268000Y-96266000D01*
X221742000Y-94742000D02*
X223266000Y-96266000D01*
X258318000Y-96266000D02*
X259842000Y-94742000D01*
X242316000Y-96266000D02*
X258318000Y-96266000D01*
X240792000Y-94742000D02*
X242316000Y-96266000D01*
X286893000Y-96266000D02*
X288417000Y-94742000D01*
X261366000Y-96266000D02*
X286893000Y-96266000D01*
X259842000Y-94742000D02*
X261366000Y-96266000D01*
X305943000Y-96266000D02*
X307467000Y-94742000D01*
X289941000Y-96266000D02*
X305943000Y-96266000D01*
X288417000Y-94742000D02*
X289941000Y-96266000D01*
X308991000Y-96266000D02*
X307467000Y-94742000D01*
X324993000Y-96266000D02*
X308991000Y-96266000D01*
X326517000Y-94742000D02*
X324993000Y-96266000D01*
X344043000Y-96266000D02*
X345567000Y-94742000D01*
X328041000Y-96266000D02*
X344043000Y-96266000D01*
X326517000Y-94742000D02*
X328041000Y-96266000D01*
X140723068Y-180467000D02*
X133858000Y-180467000D01*
X149130467Y-188874399D02*
X140723068Y-180467000D01*
X215885864Y-184912000D02*
X207772000Y-184912000D01*
X220218000Y-189244136D02*
X215885864Y-184912000D01*
X221620614Y-195218750D02*
X220218000Y-193816136D01*
X227612500Y-195218750D02*
X221620614Y-195218750D01*
X220218000Y-193816136D02*
X220218000Y-189244136D01*
X207772000Y-184912000D02*
X203809600Y-188874399D01*
X203809600Y-188874399D02*
X149130467Y-188874399D01*
X156083000Y-183642000D02*
X152908000Y-180467000D01*
X220672011Y-193628079D02*
X220672010Y-189056078D01*
X215969132Y-184353200D02*
X175202132Y-184353200D01*
X227612500Y-194718750D02*
X221762682Y-194718750D01*
X221762682Y-194718750D02*
X220672011Y-193628079D01*
X174490932Y-183642000D02*
X156083000Y-183642000D01*
X175202132Y-184353200D02*
X174490932Y-183642000D01*
X220672010Y-189056078D02*
X215969132Y-184353200D01*
X221126020Y-188868020D02*
X221126020Y-193440020D01*
X221904750Y-194218750D02*
X227612500Y-194218750D01*
X175285400Y-183794400D02*
X216052400Y-183794400D01*
X216052400Y-183794400D02*
X221126020Y-188868020D01*
X221126020Y-193440020D02*
X221904750Y-194218750D01*
X171958000Y-180467000D02*
X175285400Y-183794400D01*
X193881390Y-183340390D02*
X191008000Y-180467000D01*
X220424390Y-183340390D02*
X193881390Y-183340390D01*
X225650076Y-188566076D02*
X220424390Y-183340390D01*
X225151978Y-190682078D02*
X225650076Y-190183980D01*
X225151978Y-192212057D02*
X225151978Y-190682078D01*
X227612500Y-193218750D02*
X226158671Y-193218750D01*
X225650076Y-190183980D02*
X225650076Y-188566076D01*
X226158671Y-193218750D02*
X225151978Y-192212057D01*
X218567000Y-180467000D02*
X211330792Y-180467000D01*
X227612500Y-192718750D02*
X226300739Y-192718750D01*
X225605989Y-192024000D02*
X225605989Y-190870135D01*
X211330792Y-180467000D02*
X210058000Y-180467000D01*
X225605989Y-190870135D02*
X226104087Y-190372037D01*
X226104087Y-190372037D02*
X226104087Y-188004087D01*
X226104087Y-188004087D02*
X218567000Y-180467000D01*
X226300739Y-192718750D02*
X225605989Y-192024000D01*
X226060000Y-191835943D02*
X226442807Y-192218750D01*
X226558098Y-190560094D02*
X226060000Y-191058192D01*
X229108000Y-180467000D02*
X226558096Y-183016904D01*
X226060000Y-191058192D02*
X226060000Y-191835943D01*
X226442807Y-192218750D02*
X227612500Y-192218750D01*
X226558096Y-183016904D02*
X226558098Y-190560094D01*
X227612500Y-185391500D02*
X227612500Y-191718750D01*
X238146200Y-181864000D02*
X237546170Y-181263970D01*
X246761000Y-181864000D02*
X238146200Y-181864000D01*
X231740030Y-181263970D02*
X227612500Y-185391500D01*
X237546170Y-181263970D02*
X231740030Y-181263970D01*
X248158000Y-180467000D02*
X246761000Y-181864000D01*
X229025000Y-185502994D02*
X229615994Y-184912000D01*
X229025000Y-190306250D02*
X229025000Y-185502994D01*
X247041090Y-182225978D02*
X246949058Y-182318010D01*
X233982715Y-181717979D02*
X229525000Y-186175694D01*
X237958146Y-182318010D02*
X237358114Y-181717980D01*
X246949058Y-182318010D02*
X237958146Y-182318010D01*
X237358114Y-181717980D02*
X233982715Y-181717979D01*
X286258000Y-180467000D02*
X284499022Y-182225978D01*
X229525000Y-186175694D02*
X229525000Y-190306250D01*
X284499022Y-182225978D02*
X247041090Y-182225978D01*
X247137115Y-182772021D02*
X247229147Y-182679989D01*
X247229147Y-182679989D02*
X303095011Y-182679989D01*
X303095011Y-182679989D02*
X305308000Y-180467000D01*
X230025000Y-186317762D02*
X234170773Y-182171989D01*
X237770089Y-182772021D02*
X247137115Y-182772021D01*
X237170058Y-182171990D02*
X237770089Y-182772021D01*
X234170773Y-182171989D02*
X237170058Y-182171990D01*
X230025000Y-190306250D02*
X230025000Y-186317762D01*
X330570001Y-181366999D02*
X331470000Y-180467000D01*
X328803000Y-183134000D02*
X330570001Y-181366999D01*
X247325172Y-183226032D02*
X247417204Y-183134000D01*
X230525000Y-186459830D02*
X234358830Y-182626000D01*
X237582032Y-183226032D02*
X247325172Y-183226032D01*
X230525000Y-190306250D02*
X230525000Y-186459830D01*
X234358830Y-182626000D02*
X236982000Y-182626000D01*
X236982000Y-182626000D02*
X237582032Y-183226032D01*
X247417204Y-183134000D02*
X328803000Y-183134000D01*
X360172000Y-187960000D02*
X362458000Y-185674000D01*
X330588068Y-187960000D02*
X360172000Y-187960000D01*
X362458000Y-185674000D02*
X362458000Y-185293000D01*
X327390858Y-184762790D02*
X330588068Y-187960000D01*
X274436743Y-184762789D02*
X327390858Y-184762790D01*
X246231583Y-189071278D02*
X270128254Y-189071278D01*
X270128254Y-189071278D02*
X274436743Y-184762789D01*
X243904294Y-186743989D02*
X246231583Y-189071278D01*
X231525000Y-189031966D02*
X233812977Y-186743989D01*
X233812977Y-186743989D02*
X243904294Y-186743989D01*
X231525000Y-190306250D02*
X231525000Y-189031966D01*
X332181200Y-124764800D02*
X333248000Y-123698000D01*
X345186000Y-123698000D02*
X345567000Y-123317000D01*
X318439800Y-124764800D02*
X332181200Y-124764800D01*
X333248000Y-123698000D02*
X345186000Y-123698000D01*
X316992000Y-123317000D02*
X318439800Y-124764800D01*
X231525000Y-199901068D02*
X230258056Y-201168012D01*
X231525000Y-198631250D02*
X231525000Y-199901068D01*
X230258056Y-201168012D02*
X219456000Y-201168012D01*
X105791000Y-124968000D02*
X107442000Y-123317000D01*
X90043000Y-124968000D02*
X105791000Y-124968000D01*
X88392000Y-123317000D02*
X90043000Y-124968000D01*
X124841000Y-124968000D02*
X126492000Y-123317000D01*
X109093000Y-124968000D02*
X124841000Y-124968000D01*
X107442000Y-123317000D02*
X109093000Y-124968000D01*
X143891000Y-124968000D02*
X145542000Y-123317000D01*
X128143000Y-124968000D02*
X143891000Y-124968000D01*
X126492000Y-123317000D02*
X128143000Y-124968000D01*
X162941000Y-124968000D02*
X164592000Y-123317000D01*
X147193000Y-124968000D02*
X162941000Y-124968000D01*
X145542000Y-123317000D02*
X147193000Y-124968000D01*
X181991000Y-124968000D02*
X183642000Y-123317000D01*
X166243000Y-124968000D02*
X181991000Y-124968000D01*
X164592000Y-123317000D02*
X166243000Y-124968000D01*
X201041000Y-124968000D02*
X202692000Y-123317000D01*
X185293000Y-124968000D02*
X201041000Y-124968000D01*
X183642000Y-123317000D02*
X185293000Y-124968000D01*
X220091000Y-124968000D02*
X221742000Y-123317000D01*
X204343000Y-124968000D02*
X220091000Y-124968000D01*
X202692000Y-123317000D02*
X204343000Y-124968000D01*
X239141000Y-124968000D02*
X240792000Y-123317000D01*
X223393000Y-124968000D02*
X239141000Y-124968000D01*
X221742000Y-123317000D02*
X223393000Y-124968000D01*
X258191000Y-124968000D02*
X259842000Y-123317000D01*
X242443000Y-124968000D02*
X258191000Y-124968000D01*
X240792000Y-123317000D02*
X242443000Y-124968000D01*
X277241000Y-124968000D02*
X278892000Y-123317000D01*
X261493000Y-124968000D02*
X277241000Y-124968000D01*
X259842000Y-123317000D02*
X261493000Y-124968000D01*
X296291000Y-124968000D02*
X297942000Y-123317000D01*
X280543000Y-124968000D02*
X296291000Y-124968000D01*
X278892000Y-123317000D02*
X280543000Y-124968000D01*
X315341000Y-124968000D02*
X316992000Y-123317000D01*
X299593000Y-124968000D02*
X315341000Y-124968000D01*
X297942000Y-123317000D02*
X299593000Y-124968000D01*
X352933000Y-142367000D02*
X366268000Y-155702000D01*
X375666000Y-155702000D02*
X376682000Y-156718000D01*
X366268000Y-155702000D02*
X375666000Y-155702000D01*
X327202800Y-185216800D02*
X330708000Y-188722000D01*
X270316312Y-189525288D02*
X274624800Y-185216800D01*
X245973248Y-189525289D02*
X270316312Y-189525288D01*
X377952000Y-188722000D02*
X386207000Y-180467000D01*
X274624800Y-185216800D02*
X327202800Y-185216800D01*
X243645959Y-187198000D02*
X245973248Y-189525289D01*
X234001034Y-187198000D02*
X243645959Y-187198000D01*
X232025000Y-189174034D02*
X234001034Y-187198000D01*
X330708000Y-188722000D02*
X377952000Y-188722000D01*
X232025000Y-190306250D02*
X232025000Y-189174034D01*
X208924164Y-142367000D02*
X212217000Y-142367000D01*
X207273164Y-140716000D02*
X208924164Y-142367000D01*
X193664000Y-140716000D02*
X207273164Y-140716000D01*
X193167000Y-141213000D02*
X193664000Y-140716000D01*
X193167000Y-142367000D02*
X193167000Y-141213000D01*
X232025000Y-198631250D02*
X232025000Y-200043136D01*
X229884136Y-202184000D02*
X221488000Y-202184000D01*
X232025000Y-200043136D02*
X229884136Y-202184000D01*
X348742000Y-144018000D02*
X350393000Y-142367000D01*
X328168000Y-144018000D02*
X348742000Y-144018000D01*
X326517000Y-142367000D02*
X328168000Y-144018000D01*
X324866000Y-144018000D02*
X326517000Y-142367000D01*
X309118000Y-144018000D02*
X324866000Y-144018000D01*
X307467000Y-142367000D02*
X309118000Y-144018000D01*
X305816000Y-144018000D02*
X307467000Y-142367000D01*
X290068000Y-144018000D02*
X305816000Y-144018000D01*
X288417000Y-142367000D02*
X290068000Y-144018000D01*
X286512000Y-144272000D02*
X288417000Y-142367000D01*
X271272000Y-144272000D02*
X286512000Y-144272000D01*
X269367000Y-142367000D02*
X271272000Y-144272000D01*
X267462000Y-144272000D02*
X269367000Y-142367000D01*
X252222000Y-144272000D02*
X267462000Y-144272000D01*
X250317000Y-142367000D02*
X252222000Y-144272000D01*
X248412000Y-144272000D02*
X250317000Y-142367000D01*
X233172000Y-144272000D02*
X248412000Y-144272000D01*
X231267000Y-142367000D02*
X233172000Y-144272000D01*
X229362000Y-144272000D02*
X231267000Y-142367000D01*
X214122000Y-144272000D02*
X229362000Y-144272000D01*
X212217000Y-142367000D02*
X214122000Y-144272000D01*
X191516000Y-144018000D02*
X193167000Y-142367000D01*
X175768000Y-144018000D02*
X191516000Y-144018000D01*
X174117000Y-142367000D02*
X175768000Y-144018000D01*
X172466000Y-144018000D02*
X174117000Y-142367000D01*
X156718000Y-144018000D02*
X172466000Y-144018000D01*
X155067000Y-142367000D02*
X156718000Y-144018000D01*
X153416000Y-144018000D02*
X155067000Y-142367000D01*
X137668000Y-144018000D02*
X153416000Y-144018000D01*
X136017000Y-142367000D02*
X137668000Y-144018000D01*
X134366000Y-144018000D02*
X136017000Y-142367000D01*
X118618000Y-144018000D02*
X134366000Y-144018000D01*
X116967000Y-142367000D02*
X118618000Y-144018000D01*
X115316000Y-144018000D02*
X116967000Y-142367000D01*
X94869000Y-144018000D02*
X115316000Y-144018000D01*
X93218000Y-142367000D02*
X94869000Y-144018000D01*
X120243600Y-162966400D02*
X121793000Y-161417000D01*
X97053400Y-162966400D02*
X120243600Y-162966400D01*
X95504000Y-161417000D02*
X97053400Y-162966400D01*
X233025000Y-198631250D02*
X233025000Y-199791000D01*
X233025000Y-199791000D02*
X229616000Y-203200000D01*
X229616000Y-203200000D02*
X226314000Y-203200000D01*
X226314000Y-203200000D02*
X226060000Y-203200000D01*
X214630000Y-203200000D02*
X214122000Y-203708000D01*
X226314000Y-203200000D02*
X214630000Y-203200000D01*
X139192000Y-163068000D02*
X140843000Y-161417000D01*
X123444000Y-163068000D02*
X139192000Y-163068000D01*
X121793000Y-161417000D02*
X123444000Y-163068000D01*
X158242000Y-163068000D02*
X159893000Y-161417000D01*
X142494000Y-163068000D02*
X158242000Y-163068000D01*
X140843000Y-161417000D02*
X142494000Y-163068000D01*
X177292000Y-163068000D02*
X178943000Y-161417000D01*
X161544000Y-163068000D02*
X177292000Y-163068000D01*
X159893000Y-161417000D02*
X161544000Y-163068000D01*
X196342000Y-163068000D02*
X197993000Y-161417000D01*
X180594000Y-163068000D02*
X196342000Y-163068000D01*
X178943000Y-161417000D02*
X180594000Y-163068000D01*
X215392000Y-163068000D02*
X217043000Y-161417000D01*
X199644000Y-163068000D02*
X215392000Y-163068000D01*
X197993000Y-161417000D02*
X199644000Y-163068000D01*
X234442000Y-163068000D02*
X236093000Y-161417000D01*
X218694000Y-163068000D02*
X234442000Y-163068000D01*
X217043000Y-161417000D02*
X218694000Y-163068000D01*
X253492000Y-163068000D02*
X255143000Y-161417000D01*
X237744000Y-163068000D02*
X253492000Y-163068000D01*
X236093000Y-161417000D02*
X237744000Y-163068000D01*
X272542000Y-163068000D02*
X274193000Y-161417000D01*
X256794000Y-163068000D02*
X272542000Y-163068000D01*
X255143000Y-161417000D02*
X256794000Y-163068000D01*
X291592000Y-163068000D02*
X293243000Y-161417000D01*
X275844000Y-163068000D02*
X291592000Y-163068000D01*
X274193000Y-161417000D02*
X275844000Y-163068000D01*
X310642000Y-163068000D02*
X312293000Y-161417000D01*
X294894000Y-163068000D02*
X310642000Y-163068000D01*
X293243000Y-161417000D02*
X294894000Y-163068000D01*
X322770500Y-161417000D02*
X343281000Y-161417000D01*
X321119500Y-163068000D02*
X322770500Y-161417000D01*
X313944000Y-163068000D02*
X321119500Y-163068000D01*
X312293000Y-161417000D02*
X313944000Y-163068000D01*
X353726750Y-161417000D02*
X383667000Y-161417000D01*
X352075750Y-163068000D02*
X353726750Y-161417000D01*
X344913019Y-163068000D02*
X352075750Y-163068000D01*
X343281000Y-161435981D02*
X344913019Y-163068000D01*
X343281000Y-161417000D02*
X343281000Y-161435981D01*
X131318000Y-180467000D02*
X132715000Y-179070000D01*
X148971000Y-179070000D02*
X150368000Y-180467000D01*
X132715000Y-179070000D02*
X148971000Y-179070000D01*
X150368000Y-180467000D02*
X151765000Y-179070000D01*
X168021000Y-179070000D02*
X169418000Y-180467000D01*
X151765000Y-179070000D02*
X168021000Y-179070000D01*
X187071000Y-179070000D02*
X188468000Y-180467000D01*
X170942000Y-179070000D02*
X187071000Y-179070000D01*
X169545000Y-180467000D02*
X170942000Y-179070000D01*
X169418000Y-180467000D02*
X169545000Y-180467000D01*
X206121000Y-179070000D02*
X207518000Y-180467000D01*
X189738000Y-179070000D02*
X206121000Y-179070000D01*
X188468000Y-180340000D02*
X189738000Y-179070000D01*
X188468000Y-180467000D02*
X188468000Y-180340000D01*
X225171000Y-179070000D02*
X226568000Y-180467000D01*
X209042000Y-179070000D02*
X225171000Y-179070000D01*
X207645000Y-180467000D02*
X209042000Y-179070000D01*
X207518000Y-180467000D02*
X207645000Y-180467000D01*
X244221000Y-179070000D02*
X245618000Y-180467000D01*
X228689038Y-179070000D02*
X244221000Y-179070000D01*
X227292038Y-180467000D02*
X228689038Y-179070000D01*
X226568000Y-180467000D02*
X227292038Y-180467000D01*
X263271000Y-179070000D02*
X264668000Y-180467000D01*
X247142000Y-179070000D02*
X263271000Y-179070000D01*
X245745000Y-180467000D02*
X247142000Y-179070000D01*
X245618000Y-180467000D02*
X245745000Y-180467000D01*
X282321000Y-179070000D02*
X283718000Y-180467000D01*
X266192000Y-179070000D02*
X282321000Y-179070000D01*
X264795000Y-180467000D02*
X266192000Y-179070000D01*
X264668000Y-180467000D02*
X264795000Y-180467000D01*
X301371000Y-179070000D02*
X302768000Y-180467000D01*
X284988000Y-179070000D02*
X301371000Y-179070000D01*
X283718000Y-180340000D02*
X284988000Y-179070000D01*
X283718000Y-180467000D02*
X283718000Y-180340000D01*
X327533000Y-179070000D02*
X328930000Y-180467000D01*
X304546000Y-179070000D02*
X327533000Y-179070000D01*
X303149000Y-180467000D02*
X304546000Y-179070000D01*
X302768000Y-180467000D02*
X303149000Y-180467000D01*
X358521000Y-183896000D02*
X359918000Y-185293000D01*
X345157717Y-183896000D02*
X358521000Y-183896000D01*
X340331717Y-179070000D02*
X345157717Y-183896000D01*
X330327000Y-179070000D02*
X340331717Y-179070000D01*
X328930000Y-180467000D02*
X330327000Y-179070000D01*
X112496600Y-180467000D02*
X131318000Y-180467000D01*
X111048800Y-181914800D02*
X112496600Y-180467000D01*
X101777800Y-181914800D02*
X111048800Y-181914800D01*
X100330000Y-180467000D02*
X101777800Y-181914800D01*
X229616000Y-204216000D02*
X220472000Y-204216000D01*
X233525000Y-198631250D02*
X233525000Y-200307000D01*
X233525000Y-200307000D02*
X229616000Y-204216000D01*
X359918000Y-185293000D02*
X361876990Y-183334010D01*
X361876990Y-183334010D02*
X381953990Y-183334010D01*
X381953990Y-183334010D02*
X383667000Y-181621000D01*
X383667000Y-181621000D02*
X383667000Y-180467000D01*
X296714999Y-200744001D02*
X297942000Y-199517000D01*
X280119001Y-200744001D02*
X296714999Y-200744001D01*
X278892000Y-199517000D02*
X280119001Y-200744001D01*
X299169001Y-200744001D02*
X315764999Y-200744001D01*
X315764999Y-200744001D02*
X316992000Y-199517000D01*
X297942000Y-199517000D02*
X299169001Y-200744001D01*
X321818000Y-204343000D02*
X340868000Y-204343000D01*
X316992000Y-199517000D02*
X321818000Y-204343000D01*
X358690999Y-205570001D02*
X359918000Y-204343000D01*
X342095001Y-205570001D02*
X358690999Y-205570001D01*
X340868000Y-204343000D02*
X342095001Y-205570001D01*
X377740999Y-205570001D02*
X378968000Y-204343000D01*
X361145001Y-205570001D02*
X377740999Y-205570001D01*
X359918000Y-204343000D02*
X361145001Y-205570001D01*
X212344000Y-205994000D02*
X231902000Y-205994000D01*
X234025000Y-200751000D02*
X234188000Y-200914000D01*
X234025000Y-198631250D02*
X234025000Y-200751000D01*
X232664000Y-205232000D02*
X232537000Y-205359000D01*
X231902000Y-205994000D02*
X232537000Y-205359000D01*
X209931000Y-203581000D02*
X212344000Y-205994000D01*
X209931000Y-199517000D02*
X209931000Y-203581000D01*
X98425000Y-199517000D02*
X114554000Y-199517000D01*
X96266000Y-197358000D02*
X98425000Y-199517000D01*
X92964000Y-197358000D02*
X96266000Y-197358000D01*
X90805000Y-199517000D02*
X92964000Y-197358000D01*
X205867000Y-199517000D02*
X209931000Y-199517000D01*
X150309193Y-198320011D02*
X204670011Y-198320011D01*
X140202500Y-201422000D02*
X147207204Y-201422000D01*
X147207204Y-201422000D02*
X150309193Y-198320011D01*
X138430000Y-199649500D02*
X140202500Y-201422000D01*
X204670011Y-198320011D02*
X205867000Y-199517000D01*
X138430000Y-199517000D02*
X138430000Y-199649500D01*
X136525000Y-201422000D02*
X138430000Y-199517000D01*
X116459000Y-201422000D02*
X136525000Y-201422000D01*
X114554000Y-199517000D02*
X116459000Y-201422000D01*
X277306200Y-199085200D02*
X277738000Y-199517000D01*
X256527300Y-199085200D02*
X277306200Y-199085200D01*
X250380500Y-205232000D02*
X256527300Y-199085200D01*
X277738000Y-199517000D02*
X278892000Y-199517000D01*
X232664000Y-205232000D02*
X250380500Y-205232000D01*
X232664000Y-205232000D02*
X232664000Y-204435010D01*
X395425298Y-125579500D02*
X395782798Y-125222000D01*
X393700000Y-125579500D02*
X395425298Y-125579500D01*
X392774538Y-125579500D02*
X393700000Y-125579500D01*
X390855200Y-129565140D02*
X390855200Y-127498838D01*
X390855200Y-127498838D02*
X392774538Y-125579500D01*
X390575090Y-129845250D02*
X390855200Y-129565140D01*
X389493750Y-129845250D02*
X390575090Y-129845250D01*
X388366000Y-116586000D02*
X390144000Y-114808000D01*
X388366000Y-117904000D02*
X388366000Y-116586000D01*
X388754000Y-118292000D02*
X388366000Y-117904000D01*
X388725796Y-123952000D02*
X390595827Y-122081969D01*
X395943963Y-122081969D02*
X396748000Y-121277932D01*
X396748000Y-121277932D02*
X396748000Y-112558038D01*
X390595827Y-122081969D02*
X395943963Y-122081969D01*
X385383000Y-123952000D02*
X388725796Y-123952000D01*
X384593750Y-124741250D02*
X385383000Y-123952000D01*
X384593750Y-125745250D02*
X384593750Y-124741250D01*
X393155962Y-108966000D02*
X396748000Y-112558038D01*
X391414000Y-108966000D02*
X393155962Y-108966000D01*
X388591728Y-123444000D02*
X385091000Y-123444000D01*
X390407770Y-121627958D02*
X388591728Y-123444000D01*
X383793750Y-124741250D02*
X383793750Y-125745250D01*
X395755906Y-121627958D02*
X390407770Y-121627958D01*
X396240000Y-121143864D02*
X395755906Y-121627958D01*
X396240000Y-113792000D02*
X396240000Y-121143864D01*
X385091000Y-123444000D02*
X383793750Y-124741250D01*
X392684000Y-110236000D02*
X396240000Y-113792000D01*
X390144000Y-110236000D02*
X392684000Y-110236000D01*
X388874000Y-108966000D02*
X390144000Y-110236000D01*
X389128000Y-124460000D02*
X385572000Y-124460000D01*
X395985999Y-122682000D02*
X390906000Y-122682000D01*
X397202010Y-109267610D02*
X397202010Y-121465989D01*
X392328400Y-104394000D02*
X397202010Y-109267610D01*
X387908800Y-104394000D02*
X392328400Y-104394000D01*
X397202010Y-121465989D02*
X395985999Y-122682000D01*
X387096000Y-105206800D02*
X387908800Y-104394000D01*
X385572000Y-124460000D02*
X385393750Y-124638250D01*
X387096000Y-109728000D02*
X387096000Y-105206800D01*
X385393750Y-124638250D02*
X385393750Y-125745250D01*
X390906000Y-122682000D02*
X389128000Y-124460000D01*
X388874000Y-111506000D02*
X387096000Y-109728000D01*
X389493750Y-133845250D02*
X382054050Y-133845250D01*
X382054050Y-133845250D02*
X381965200Y-133756400D01*
X239776000Y-197104000D02*
X239776000Y-197866000D01*
X236890750Y-194218750D02*
X239776000Y-197104000D01*
X235937500Y-194218750D02*
X236890750Y-194218750D01*
X239776000Y-197866000D02*
X239776000Y-200152000D01*
X239496600Y-195554600D02*
X239777900Y-195554600D01*
X237660750Y-193718750D02*
X239496600Y-195554600D01*
X235937500Y-193718750D02*
X237660750Y-193718750D01*
X386562750Y-134645250D02*
X386334000Y-134874000D01*
X389493750Y-134645250D02*
X386562750Y-134645250D01*
X243840000Y-197866000D02*
X243840000Y-202438000D01*
X242697000Y-196723000D02*
X243840000Y-197866000D01*
X240946300Y-196723000D02*
X242697000Y-196723000D01*
X239777900Y-195554600D02*
X240946300Y-196723000D01*
X237236000Y-196850000D02*
X237104750Y-196718750D01*
X237104750Y-196718750D02*
X235937500Y-196718750D01*
X237236000Y-198628000D02*
X237236000Y-196850000D01*
X234025000Y-189139000D02*
X234025000Y-190306250D01*
X234950000Y-188214000D02*
X234025000Y-189139000D01*
X238713000Y-188214000D02*
X234950000Y-188214000D01*
X379793750Y-143867250D02*
X379643000Y-144018000D01*
X379793750Y-141145250D02*
X379793750Y-143867250D01*
X365462500Y-87603000D02*
X362354500Y-90711000D01*
X365462500Y-85188750D02*
X365462500Y-87603000D01*
X362354500Y-90711000D02*
X362354500Y-91186000D01*
D34*
X378193750Y-124620249D02*
X378368750Y-124445249D01*
X378193750Y-125745250D02*
X378193750Y-124620249D01*
X378368750Y-124445249D02*
X378368750Y-115542950D01*
X366487500Y-97747250D02*
X365125000Y-96384750D01*
X366487500Y-103661700D02*
X366487500Y-97747250D01*
X378368750Y-115542950D02*
X366487500Y-103661700D01*
X378818750Y-124445249D02*
X378818750Y-115356550D01*
X378993750Y-124620249D02*
X378818750Y-124445249D01*
X378993750Y-125745250D02*
X378993750Y-124620249D01*
X366937500Y-97747250D02*
X368300000Y-96384750D01*
X366937500Y-103475300D02*
X366937500Y-97747250D01*
X378818750Y-115356550D02*
X366937500Y-103475300D01*
D33*
X368462500Y-85188750D02*
X368462500Y-88451000D01*
X368462500Y-88451000D02*
X371197500Y-91186000D01*
X389128000Y-125222000D02*
X388317000Y-125222000D01*
X391160000Y-123190000D02*
X389128000Y-125222000D01*
X396120079Y-123190000D02*
X391160000Y-123190000D01*
X397710010Y-121600069D02*
X396120079Y-123190000D01*
X388317000Y-125222000D02*
X387793750Y-125745250D01*
X397710010Y-104848010D02*
X397710010Y-121600069D01*
X389890000Y-97028000D02*
X397710010Y-104848010D01*
X383571750Y-97028000D02*
X389890000Y-97028000D01*
X381793750Y-95250000D02*
X383571750Y-97028000D01*
X389636000Y-127303000D02*
X389493750Y-127445250D01*
X389636000Y-125603000D02*
X389636000Y-127303000D01*
X391541000Y-123698000D02*
X389636000Y-125603000D01*
X396374066Y-123698000D02*
X391541000Y-123698000D01*
X398218009Y-121854057D02*
X396374066Y-123698000D01*
X398218009Y-99454047D02*
X398218009Y-121854057D01*
X394013962Y-95250000D02*
X398218009Y-99454047D01*
X386793750Y-95250000D02*
X394013962Y-95250000D01*
X337559650Y-115728750D02*
X337515200Y-115773200D01*
X339783750Y-115728750D02*
X337559650Y-115728750D01*
X342144350Y-134778750D02*
X341985600Y-134620000D01*
X344546250Y-134778750D02*
X342144350Y-134778750D01*
X375570750Y-153828750D02*
X375462800Y-153720800D01*
X377883750Y-153828750D02*
X375570750Y-153828750D01*
X375621550Y-172878750D02*
X375564400Y-172821600D01*
X377883750Y-172878750D02*
X375621550Y-172878750D01*
X370986050Y-196691250D02*
X370890800Y-196596000D01*
X373121250Y-196691250D02*
X370986050Y-196691250D01*
X376287000Y-143256000D02*
X375513600Y-143256000D01*
X377393750Y-142149250D02*
X376287000Y-143256000D01*
X377393750Y-141145250D02*
X377393750Y-142149250D01*
X390499600Y-144322800D02*
X390398000Y-144424400D01*
X396697200Y-144322800D02*
X390499600Y-144322800D01*
X356616000Y-144272000D02*
X369570000Y-144272000D01*
X381158750Y-153828750D02*
X377883750Y-153828750D01*
X381158750Y-172878750D02*
X377883750Y-172878750D01*
X376396250Y-196691250D02*
X373121250Y-196691250D01*
X343058750Y-115728750D02*
X339783750Y-115728750D01*
X347821250Y-134778750D02*
X344546250Y-134778750D01*
X80435450Y-87153750D02*
X80416400Y-87172800D01*
X82608750Y-87153750D02*
X80435450Y-87153750D01*
X87636350Y-153828750D02*
X87579200Y-153771600D01*
X89752500Y-153828750D02*
X87636350Y-153828750D01*
X92208350Y-172878750D02*
X92202000Y-172872400D01*
X94515000Y-172878750D02*
X92208350Y-172878750D01*
X82759550Y-191928750D02*
X82753200Y-191922400D01*
X84990000Y-191928750D02*
X82759550Y-191928750D01*
X82608750Y-115728750D02*
X80054450Y-115728750D01*
X80054450Y-115728750D02*
X80010000Y-115773200D01*
X87371250Y-134778750D02*
X82556350Y-134778750D01*
X82556350Y-134778750D02*
X82550000Y-134772400D01*
X85883750Y-87153750D02*
X82608750Y-87153750D01*
X85883750Y-115728750D02*
X82608750Y-115728750D01*
X90646250Y-134778750D02*
X87371250Y-134778750D01*
X88265000Y-191928750D02*
X84990000Y-191928750D01*
X93027500Y-153828750D02*
X89752500Y-153828750D01*
X97790000Y-172878750D02*
X94515000Y-172878750D01*
X371829726Y-129845250D02*
X368046002Y-126061526D01*
X368046002Y-126061526D02*
X368046002Y-111069472D01*
X99015550Y-96767650D02*
X80010000Y-115773200D01*
X374093750Y-129845250D02*
X371829726Y-129845250D01*
X368046002Y-111069472D02*
X353744180Y-96767650D01*
X353744180Y-96767650D02*
X99015550Y-96767650D01*
X115946250Y-153828750D02*
X116020850Y-153828750D01*
X106533950Y-191928750D02*
X106527600Y-191922400D01*
X108802500Y-191928750D02*
X106533950Y-191928750D01*
X113899950Y-153828750D02*
X113792000Y-153720800D01*
X115946250Y-153828750D02*
X113899950Y-153828750D01*
X99625150Y-115728750D02*
X99314000Y-115417600D01*
X101658750Y-115728750D02*
X99625150Y-115728750D01*
X108896150Y-87153750D02*
X108813600Y-87071200D01*
X111183750Y-87153750D02*
X108896150Y-87153750D01*
X125471250Y-172878750D02*
X122485150Y-172878750D01*
X122485150Y-172878750D02*
X122428000Y-172821600D01*
X111183750Y-134778750D02*
X108159550Y-134778750D01*
X108159550Y-134778750D02*
X107848400Y-134467600D01*
X114458750Y-87153750D02*
X111183750Y-87153750D01*
X104933750Y-115728750D02*
X101658750Y-115728750D01*
X114458750Y-134778750D02*
X111183750Y-134778750D01*
X119221250Y-153828750D02*
X115946250Y-153828750D01*
X128746250Y-172878750D02*
X125471250Y-172878750D01*
X112077500Y-191928750D02*
X108802500Y-191928750D01*
X374093750Y-130645250D02*
X371987658Y-130645250D01*
X367591991Y-111257530D02*
X353768862Y-97434400D01*
X367591991Y-126249583D02*
X367591991Y-111257530D01*
X371987658Y-130645250D02*
X367591991Y-126249583D01*
X353768862Y-97434400D02*
X117297200Y-97434400D01*
X117297200Y-97434400D02*
X99713999Y-115017601D01*
X99713999Y-115017601D02*
X99314000Y-115417600D01*
X134996250Y-153828750D02*
X135020050Y-153828750D01*
X132615000Y-191928750D02*
X133089650Y-191928750D01*
X128149350Y-87153750D02*
X127965200Y-86969600D01*
X130233750Y-87153750D02*
X128149350Y-87153750D01*
X118624350Y-115728750D02*
X118465600Y-115570000D01*
X120708750Y-115728750D02*
X118624350Y-115728750D01*
X132848350Y-153828750D02*
X132740400Y-153720800D01*
X134996250Y-153828750D02*
X132848350Y-153828750D01*
X130511550Y-191928750D02*
X130352800Y-191770000D01*
X132615000Y-191928750D02*
X130511550Y-191928750D01*
X130233750Y-134778750D02*
X127260350Y-134778750D01*
X127260350Y-134778750D02*
X127101600Y-134620000D01*
X141382750Y-172878750D02*
X141325600Y-172821600D01*
X144521250Y-172878750D02*
X141382750Y-172878750D01*
X133508750Y-87153750D02*
X130233750Y-87153750D01*
X123983750Y-115728750D02*
X120708750Y-115728750D01*
X133508750Y-134778750D02*
X130233750Y-134778750D01*
X138271250Y-153828750D02*
X134996250Y-153828750D01*
X147796250Y-172878750D02*
X144521250Y-172878750D01*
X135890000Y-191928750D02*
X132615000Y-191928750D01*
X118865599Y-115170001D02*
X118465600Y-115570000D01*
X374093750Y-131445250D02*
X372145590Y-131445250D01*
X372145590Y-131445250D02*
X367137969Y-126437629D01*
X135737600Y-98298000D02*
X118865599Y-115170001D01*
X367137968Y-111445575D02*
X353990393Y-98298000D01*
X353990393Y-98298000D02*
X135737600Y-98298000D01*
X367137969Y-126437629D02*
X367137968Y-111445575D01*
X149283750Y-134778750D02*
X149294850Y-134778750D01*
X149283750Y-87153750D02*
X149371050Y-87153750D01*
X151949150Y-153828750D02*
X151841200Y-153720800D01*
X154046250Y-153828750D02*
X151949150Y-153828750D01*
X137725150Y-115728750D02*
X137566400Y-115570000D01*
X139758750Y-115728750D02*
X137725150Y-115728750D01*
X147250150Y-87153750D02*
X147116800Y-87020400D01*
X149283750Y-87153750D02*
X147250150Y-87153750D01*
X163571250Y-172878750D02*
X160839150Y-172878750D01*
X160839150Y-172878750D02*
X160528000Y-172567600D01*
X146462750Y-134778750D02*
X146202400Y-134518400D01*
X149283750Y-134778750D02*
X146462750Y-134778750D01*
X152558750Y-87153750D02*
X149283750Y-87153750D01*
X143033750Y-115728750D02*
X139758750Y-115728750D01*
X152558750Y-134778750D02*
X149283750Y-134778750D01*
X157321250Y-153828750D02*
X154046250Y-153828750D01*
X166846250Y-172878750D02*
X163571250Y-172878750D01*
X374093750Y-132245250D02*
X372303522Y-132245250D01*
X372303522Y-132245250D02*
X366683958Y-126625686D01*
X354110325Y-99060000D02*
X154076400Y-99060000D01*
X137966399Y-115170001D02*
X137566400Y-115570000D01*
X366683958Y-111633633D02*
X354110325Y-99060000D01*
X366683958Y-126625686D02*
X366683958Y-111633633D01*
X154076400Y-99060000D02*
X137966399Y-115170001D01*
X168333750Y-134778750D02*
X168395650Y-134778750D01*
X166350950Y-87153750D02*
X166217600Y-87020400D01*
X168333750Y-87153750D02*
X166350950Y-87153750D01*
X156673550Y-115728750D02*
X156565600Y-115620800D01*
X158808750Y-115728750D02*
X156673550Y-115728750D01*
X170948350Y-153828750D02*
X170891200Y-153771600D01*
X173096250Y-153828750D02*
X170948350Y-153828750D01*
X168333750Y-134778750D02*
X164750750Y-134778750D01*
X164750750Y-134778750D02*
X164338000Y-134366000D01*
X182621250Y-172878750D02*
X177133258Y-172878750D01*
X177133258Y-172878750D02*
X177038008Y-172974000D01*
X171608750Y-87153750D02*
X168333750Y-87153750D01*
X162083750Y-115728750D02*
X158808750Y-115728750D01*
X171608750Y-134778750D02*
X168333750Y-134778750D01*
X176371250Y-153828750D02*
X173096250Y-153828750D01*
X185896250Y-172878750D02*
X182621250Y-172878750D01*
X366213088Y-126796884D02*
X366213088Y-111804831D01*
X374093750Y-133045250D02*
X372461454Y-133045250D01*
X366213088Y-111804831D02*
X354230257Y-99822000D01*
X172364400Y-99822000D02*
X156965599Y-115220801D01*
X156965599Y-115220801D02*
X156565600Y-115620800D01*
X354230257Y-99822000D02*
X172364400Y-99822000D01*
X372461454Y-133045250D02*
X366213088Y-126796884D01*
X187383750Y-134778750D02*
X187496450Y-134778750D01*
X201783950Y-191928750D02*
X201676000Y-191820800D01*
X204052500Y-191928750D02*
X201783950Y-191928750D01*
X190049150Y-153828750D02*
X189992000Y-153771600D01*
X192146250Y-153828750D02*
X190049150Y-153828750D01*
X175723550Y-115728750D02*
X175615600Y-115620800D01*
X177858750Y-115728750D02*
X175723550Y-115728750D01*
X194849750Y-87153750D02*
X194767200Y-87071200D01*
X196908750Y-87153750D02*
X194849750Y-87153750D01*
X201671250Y-172878750D02*
X198431150Y-172878750D01*
X198431150Y-172878750D02*
X198221600Y-172669200D01*
X187383750Y-134778750D02*
X184054750Y-134778750D01*
X184054750Y-134778750D02*
X183896000Y-134620000D01*
X200183750Y-87153750D02*
X196908750Y-87153750D01*
X181133750Y-115728750D02*
X177858750Y-115728750D01*
X190658750Y-134778750D02*
X187383750Y-134778750D01*
X195421250Y-153828750D02*
X192146250Y-153828750D01*
X204946250Y-172878750D02*
X201671250Y-172878750D01*
X207327500Y-191928750D02*
X204052500Y-191928750D01*
X176015599Y-115220801D02*
X175615600Y-115620800D01*
X374093750Y-133845250D02*
X372619386Y-133845250D01*
X190652400Y-100584000D02*
X176015599Y-115220801D01*
X365750647Y-126976511D02*
X365750647Y-111984458D01*
X354350189Y-100584000D02*
X190652400Y-100584000D01*
X365750647Y-111984458D02*
X354350189Y-100584000D01*
X372619386Y-133845250D02*
X365750647Y-126976511D01*
X206433750Y-134778750D02*
X206495650Y-134778750D01*
X214001350Y-87153750D02*
X213918800Y-87071200D01*
X215958750Y-87153750D02*
X214001350Y-87153750D01*
X194773550Y-115728750D02*
X194716400Y-115671600D01*
X196908750Y-115728750D02*
X194773550Y-115728750D01*
X220721250Y-172878750D02*
X215296750Y-172878750D01*
X215296750Y-172878750D02*
X215138000Y-172720000D01*
X211196250Y-153828750D02*
X206152744Y-153828750D01*
X206152744Y-153828750D02*
X205993994Y-153670000D01*
X206433750Y-134778750D02*
X200247250Y-134778750D01*
X200247250Y-134778750D02*
X200152000Y-134874000D01*
X219233750Y-87153750D02*
X215958750Y-87153750D01*
X200183750Y-115728750D02*
X196908750Y-115728750D01*
X209708750Y-134778750D02*
X206433750Y-134778750D01*
X214471250Y-153828750D02*
X211196250Y-153828750D01*
X223996250Y-172878750D02*
X220721250Y-172878750D01*
X365288206Y-112164085D02*
X354470121Y-101346000D01*
X372777318Y-134645250D02*
X365288206Y-127156138D01*
X374093750Y-134645250D02*
X372777318Y-134645250D01*
X354470121Y-101346000D02*
X209042000Y-101346000D01*
X195116399Y-115271601D02*
X194716400Y-115671600D01*
X209042000Y-101346000D02*
X195116399Y-115271601D01*
X365288206Y-127156138D02*
X365288206Y-112164085D01*
X230246250Y-153828750D02*
X230422450Y-153828750D01*
X232949750Y-87153750D02*
X232918000Y-87122000D01*
X235008750Y-87153750D02*
X232949750Y-87153750D01*
X213671150Y-115728750D02*
X213614000Y-115671600D01*
X215958750Y-115728750D02*
X213671150Y-115728750D01*
X228149150Y-153828750D02*
X227990400Y-153670000D01*
X230246250Y-153828750D02*
X228149150Y-153828750D01*
X222154750Y-134778750D02*
X221996000Y-134620000D01*
X225483750Y-134778750D02*
X222154750Y-134778750D01*
X239771250Y-172878750D02*
X233838750Y-172878750D01*
X233838750Y-172878750D02*
X233680000Y-172720000D01*
X238283750Y-87153750D02*
X235008750Y-87153750D01*
X219233750Y-115728750D02*
X215958750Y-115728750D01*
X228758750Y-134778750D02*
X225483750Y-134778750D01*
X233521250Y-153828750D02*
X230246250Y-153828750D01*
X243046250Y-172878750D02*
X239771250Y-172878750D01*
X354425041Y-101942988D02*
X227342612Y-101942988D01*
X364825765Y-112343712D02*
X354425041Y-101942988D01*
X374093750Y-135445250D02*
X372935250Y-135445250D01*
X214013999Y-115271601D02*
X213614000Y-115671600D01*
X372935250Y-135445250D02*
X364825765Y-127335765D01*
X364825765Y-127335765D02*
X364825765Y-112343712D01*
X227342612Y-101942988D02*
X214013999Y-115271601D01*
X258821250Y-172878750D02*
X259175250Y-172878750D01*
X273108750Y-191928750D02*
X273500850Y-191928750D01*
X251948950Y-87153750D02*
X251917200Y-87122000D01*
X254058750Y-87153750D02*
X251948950Y-87153750D01*
X232721150Y-115728750D02*
X232664000Y-115671600D01*
X235008750Y-115728750D02*
X232721150Y-115728750D01*
X247046750Y-153828750D02*
X246837200Y-153619200D01*
X249296250Y-153828750D02*
X247046750Y-153828750D01*
X269601950Y-191928750D02*
X269392400Y-191719200D01*
X273108750Y-191928750D02*
X269601950Y-191928750D01*
X258821250Y-172878750D02*
X255682750Y-172878750D01*
X255682750Y-172878750D02*
X255422400Y-172618400D01*
X240798350Y-134778750D02*
X240538000Y-134518400D01*
X244533750Y-134778750D02*
X240798350Y-134778750D01*
X257333750Y-87153750D02*
X254058750Y-87153750D01*
X238283750Y-115728750D02*
X235008750Y-115728750D01*
X247808750Y-134778750D02*
X244533750Y-134778750D01*
X252571250Y-153828750D02*
X249296250Y-153828750D01*
X262096250Y-172878750D02*
X258821250Y-172878750D01*
X276383750Y-191928750D02*
X273108750Y-191928750D01*
X364363324Y-112523339D02*
X354303585Y-102463600D01*
X233063999Y-115271601D02*
X232664000Y-115671600D01*
X354303585Y-102463600D02*
X245872000Y-102463600D01*
X245872000Y-102463600D02*
X233063999Y-115271601D01*
X364363324Y-132323722D02*
X364363324Y-112523339D01*
X374093750Y-137845250D02*
X373089749Y-137845250D01*
X372301991Y-138633008D02*
X370672610Y-138633008D01*
X373089749Y-137845250D02*
X372301991Y-138633008D01*
X370672610Y-138633008D02*
X364363324Y-132323722D01*
X263583750Y-134778750D02*
X263645650Y-134778750D01*
X280600150Y-87153750D02*
X280568400Y-87122000D01*
X282633750Y-87153750D02*
X280600150Y-87153750D01*
X251872750Y-115728750D02*
X251815600Y-115671600D01*
X254058750Y-115728750D02*
X251872750Y-115728750D01*
X266045950Y-153828750D02*
X265988800Y-153771600D01*
X268346250Y-153828750D02*
X266045950Y-153828750D01*
X292158750Y-191928750D02*
X288804350Y-191928750D01*
X288804350Y-191928750D02*
X288696400Y-191820800D01*
X274681950Y-172878750D02*
X274320000Y-172516800D01*
X277871250Y-172878750D02*
X274681950Y-172878750D01*
X263583750Y-134778750D02*
X260000752Y-134778750D01*
X260000752Y-134778750D02*
X259842000Y-134619998D01*
X285908750Y-87153750D02*
X282633750Y-87153750D01*
X257333750Y-115728750D02*
X254058750Y-115728750D01*
X266858750Y-134778750D02*
X263583750Y-134778750D01*
X271621250Y-153828750D02*
X268346250Y-153828750D01*
X281146250Y-172878750D02*
X277871250Y-172878750D01*
X295433750Y-191928750D02*
X292158750Y-191928750D01*
X363900883Y-112702966D02*
X354337727Y-103139810D01*
X354337727Y-103139810D02*
X264347390Y-103139810D01*
X370484552Y-139087018D02*
X363900883Y-132503349D01*
X264347390Y-103139810D02*
X252215599Y-115271601D01*
X374093750Y-138645250D02*
X373089750Y-138645250D01*
X373089750Y-138645250D02*
X372647980Y-139087019D01*
X372647980Y-139087019D02*
X370484552Y-139087018D01*
X363900883Y-132503349D02*
X363900883Y-112702966D01*
X252215599Y-115271601D02*
X251815600Y-115671600D01*
X287396250Y-153828750D02*
X287572450Y-153828750D01*
X301683750Y-87153750D02*
X302089119Y-87153750D01*
X299650150Y-87153750D02*
X299618400Y-87122000D01*
X301683750Y-87153750D02*
X299650150Y-87153750D01*
X270821150Y-115728750D02*
X270764000Y-115671600D01*
X273108750Y-115728750D02*
X270821150Y-115728750D01*
X280422350Y-134778750D02*
X280365200Y-134721600D01*
X282633750Y-134778750D02*
X280422350Y-134778750D01*
X309022750Y-191928750D02*
X308914800Y-191820800D01*
X311208750Y-191928750D02*
X309022750Y-191928750D01*
X293985950Y-172878750D02*
X293878000Y-172770800D01*
X296921250Y-172878750D02*
X293985950Y-172878750D01*
X284689550Y-153828750D02*
X284480000Y-153619200D01*
X287396250Y-153828750D02*
X284689550Y-153828750D01*
X304958750Y-87153750D02*
X301683750Y-87153750D01*
X276383750Y-115728750D02*
X273108750Y-115728750D01*
X285908750Y-134778750D02*
X282633750Y-134778750D01*
X290671250Y-153828750D02*
X287396250Y-153828750D01*
X300196250Y-172878750D02*
X296921250Y-172878750D01*
X314483750Y-191928750D02*
X311208750Y-191928750D01*
X370296494Y-139541028D02*
X363438442Y-132682976D01*
X373997970Y-139541030D02*
X370296494Y-139541028D01*
X271163999Y-115271601D02*
X270764000Y-115671600D01*
X354441849Y-103886000D02*
X282549600Y-103886000D01*
X363438442Y-132682976D02*
X363438442Y-112882593D01*
X363438442Y-112882593D02*
X354441849Y-103886000D01*
X374093750Y-139445250D02*
X373997970Y-139541030D01*
X282549600Y-103886000D02*
X271163999Y-115271601D01*
X306446250Y-153828750D02*
X306622450Y-153828750D01*
X335021250Y-196691250D02*
X335032350Y-196691250D01*
X318598550Y-87153750D02*
X318516000Y-87071200D01*
X320733750Y-87153750D02*
X318598550Y-87153750D01*
X304247550Y-153828750D02*
X304088800Y-153670000D01*
X306446250Y-153828750D02*
X304247550Y-153828750D01*
X320859150Y-172878750D02*
X320700400Y-172720000D01*
X323115000Y-172878750D02*
X320859150Y-172878750D01*
X335021250Y-196691250D02*
X331616050Y-196691250D01*
X331616050Y-196691250D02*
X331470000Y-196545200D01*
X292158750Y-115728750D02*
X290226752Y-115728750D01*
X290226752Y-115728750D02*
X289814002Y-115316000D01*
X298608750Y-134778750D02*
X298450000Y-134620000D01*
X301683750Y-134778750D02*
X298608750Y-134778750D01*
X324008750Y-87153750D02*
X320733750Y-87153750D01*
X295433750Y-115728750D02*
X292158750Y-115728750D01*
X304958750Y-134778750D02*
X301683750Y-134778750D01*
X309721250Y-153828750D02*
X306446250Y-153828750D01*
X338296250Y-196691250D02*
X335021250Y-196691250D01*
X326390000Y-172878750D02*
X323115000Y-172878750D01*
X375264750Y-141145250D02*
X375793750Y-141145250D01*
X362976001Y-118653401D02*
X362976001Y-132862603D01*
X348976881Y-104654281D02*
X362976001Y-118653401D01*
X300475721Y-104654281D02*
X348976881Y-104654281D01*
X289814002Y-115316000D02*
X300475721Y-104654281D01*
X362976001Y-132862603D02*
X371258650Y-141145250D01*
X371258650Y-141145250D02*
X375264750Y-141145250D01*
X339783750Y-87153750D02*
X340125050Y-87153750D01*
X337750150Y-87153750D02*
X337667600Y-87071200D01*
X339783750Y-87153750D02*
X337750150Y-87153750D01*
X308971950Y-115728750D02*
X308914800Y-115671600D01*
X311208750Y-115728750D02*
X308971950Y-115728750D01*
X335133950Y-153828750D02*
X334975200Y-153670000D01*
X337402500Y-153828750D02*
X335133950Y-153828750D01*
X351783650Y-177641250D02*
X351586800Y-177444400D01*
X354071250Y-177641250D02*
X351783650Y-177641250D01*
X351834450Y-196691250D02*
X351688400Y-196545200D01*
X354071250Y-196691250D02*
X351834450Y-196691250D01*
X318115950Y-134778750D02*
X318008000Y-134670800D01*
X320733750Y-134778750D02*
X318115950Y-134778750D01*
X343058750Y-87153750D02*
X339783750Y-87153750D01*
X314483750Y-115728750D02*
X311208750Y-115728750D01*
X324008750Y-134778750D02*
X320733750Y-134778750D01*
X357346250Y-177641250D02*
X354071250Y-177641250D01*
X357346250Y-196691250D02*
X354071250Y-196691250D01*
X340677500Y-153828750D02*
X337402500Y-153828750D01*
X362513560Y-133042228D02*
X362513560Y-118833028D01*
X309314799Y-115271601D02*
X308914800Y-115671600D01*
X362513560Y-118833028D02*
X349065132Y-105384600D01*
X319201800Y-105384600D02*
X309314799Y-115271601D01*
X376593750Y-141145250D02*
X376593750Y-142149250D01*
X371965332Y-142494000D02*
X362513560Y-133042228D01*
X376249000Y-142494000D02*
X371965332Y-142494000D01*
X376593750Y-142149250D02*
X376249000Y-142494000D01*
X349065132Y-105384600D02*
X319201800Y-105384600D01*
X394208000Y-138432250D02*
X394967750Y-139192000D01*
X394208000Y-137128250D02*
X394208000Y-138432250D01*
X398557750Y-139192000D02*
X399288000Y-138461750D01*
X394967750Y-139192000D02*
X398557750Y-139192000D01*
X391109250Y-133045250D02*
X389493750Y-133045250D01*
X392430000Y-134366000D02*
X391109250Y-133045250D01*
X392430000Y-135382000D02*
X392430000Y-134366000D01*
X394176250Y-137128250D02*
X392430000Y-135382000D01*
X394208000Y-137128250D02*
X394176250Y-137128250D01*
X237930750Y-192718750D02*
X235937500Y-192718750D01*
X238760000Y-193548000D02*
X237930750Y-192718750D01*
X239167500Y-193548000D02*
X238760000Y-193548000D01*
X397899500Y-132836750D02*
X396508000Y-134228250D01*
X399288000Y-132836750D02*
X397899500Y-132836750D01*
X395829000Y-132245250D02*
X389493750Y-132245250D01*
X396508000Y-132924250D02*
X395829000Y-132245250D01*
X396508000Y-134228250D02*
X396508000Y-132924250D01*
D34*
X365712500Y-92184751D02*
X365712500Y-91659750D01*
X366487500Y-92959751D02*
X365712500Y-92184751D01*
X366487500Y-93197250D02*
X366487500Y-92959751D01*
X365125000Y-94559750D02*
X366487500Y-93197250D01*
X365712500Y-91609750D02*
X366487500Y-90834750D01*
X365712500Y-91659750D02*
X365712500Y-91609750D01*
D33*
X365962500Y-85188750D02*
X365962500Y-87897567D01*
X366483490Y-88418557D02*
X366483490Y-90834750D01*
X365962500Y-87897567D02*
X366483490Y-88418557D01*
X366962500Y-83725148D02*
X366962500Y-85188750D01*
X366803352Y-83566000D02*
X366962500Y-83725148D01*
X366121648Y-83566000D02*
X366803352Y-83566000D01*
X365962500Y-83725148D02*
X366121648Y-83566000D01*
X365962500Y-85188750D02*
X365962500Y-83725148D01*
D34*
X367712500Y-92184751D02*
X367712500Y-91659750D01*
X366937500Y-92959751D02*
X367712500Y-92184751D01*
X366937500Y-93197250D02*
X366937500Y-92959751D01*
X368300000Y-94559750D02*
X366937500Y-93197250D01*
D33*
X366937500Y-90834750D02*
X366937500Y-88230500D01*
X367462500Y-87705500D02*
X367462500Y-85188750D01*
X366937500Y-88230500D02*
X367462500Y-87705500D01*
X366462500Y-87755500D02*
X366937500Y-88230500D01*
X366462500Y-85188750D02*
X366462500Y-87755500D01*
D34*
X366937500Y-90837125D02*
X366937500Y-90834750D01*
X367712500Y-91612125D02*
X366937500Y-90837125D01*
X367712500Y-91659750D02*
X367712500Y-91612125D01*
D33*
X231902000Y-194341750D02*
X231922000Y-194341750D01*
X231922000Y-194595750D01*
X231902000Y-194595750D01*
X231902000Y-194615750D01*
X231648000Y-194615750D01*
X231648000Y-194595750D01*
X231628000Y-194595750D01*
X231628000Y-194341750D01*
X231648000Y-194341750D01*
X231648000Y-194321750D01*
X231902000Y-194321750D01*
X231902000Y-194341750D01*
G04 #@! TA.AperFunction,Conductor*
D35*
G36*
X231902000Y-194341750D02*
G01*
X231922000Y-194341750D01*
X231922000Y-194595750D01*
X231902000Y-194595750D01*
X231902000Y-194615750D01*
X231648000Y-194615750D01*
X231648000Y-194595750D01*
X231628000Y-194595750D01*
X231628000Y-194341750D01*
X231648000Y-194341750D01*
X231648000Y-194321750D01*
X231902000Y-194321750D01*
X231902000Y-194341750D01*
G37*
G04 #@! TD.AperFunction*
D33*
X401701000Y-140335000D02*
X390779000Y-140335000D01*
X390779000Y-140065927D01*
X390833252Y-139964430D01*
X390869562Y-139844732D01*
X390881822Y-139720250D01*
X390881822Y-139170250D01*
X390869562Y-139045768D01*
X390869405Y-139045250D01*
X390869562Y-139044732D01*
X390881822Y-138920250D01*
X390881822Y-138370250D01*
X390869562Y-138245768D01*
X390869405Y-138245250D01*
X390869562Y-138244732D01*
X390881822Y-138120250D01*
X390881822Y-137570250D01*
X390869562Y-137445768D01*
X390869405Y-137445250D01*
X390869562Y-137444732D01*
X390881822Y-137320250D01*
X390881822Y-136770250D01*
X390869562Y-136645768D01*
X390869405Y-136645250D01*
X390869562Y-136644732D01*
X390881822Y-136520250D01*
X390881822Y-135970250D01*
X390869562Y-135845768D01*
X390869405Y-135845250D01*
X390869562Y-135844732D01*
X390881822Y-135720250D01*
X390881822Y-135170250D01*
X390869562Y-135045768D01*
X390869405Y-135045250D01*
X390869562Y-135044732D01*
X390881822Y-134920250D01*
X390881822Y-134370250D01*
X390869562Y-134245768D01*
X390869405Y-134245250D01*
X390869562Y-134244732D01*
X390881822Y-134120250D01*
X390881822Y-133895452D01*
X391668001Y-134681631D01*
X391668000Y-135344576D01*
X391664314Y-135382000D01*
X391668000Y-135419423D01*
X391668000Y-135419425D01*
X391679026Y-135531377D01*
X391722598Y-135675014D01*
X391722599Y-135675015D01*
X391793355Y-135807392D01*
X391824019Y-135844756D01*
X391888578Y-135923422D01*
X391917654Y-135947284D01*
X392669928Y-136699558D01*
X392669928Y-138178250D01*
X392682188Y-138302732D01*
X392718498Y-138422430D01*
X392777463Y-138532744D01*
X392856815Y-138629435D01*
X392953506Y-138708787D01*
X393063820Y-138767752D01*
X393183518Y-138804062D01*
X393308000Y-138816322D01*
X393549269Y-138816322D01*
X393571355Y-138857642D01*
X393627513Y-138926070D01*
X393666579Y-138973672D01*
X393695649Y-138997529D01*
X394402470Y-139704351D01*
X394426328Y-139733422D01*
X394455398Y-139757279D01*
X394542357Y-139828645D01*
X394613114Y-139866465D01*
X394674735Y-139899402D01*
X394818372Y-139942974D01*
X394930324Y-139954000D01*
X394930327Y-139954000D01*
X394967750Y-139957686D01*
X395005173Y-139954000D01*
X398520327Y-139954000D01*
X398557750Y-139957686D01*
X398595173Y-139954000D01*
X398595176Y-139954000D01*
X398707128Y-139942974D01*
X398850765Y-139899402D01*
X398983142Y-139828645D01*
X399099172Y-139733422D01*
X399123034Y-139704347D01*
X399190058Y-139637322D01*
X399525500Y-139637322D01*
X399696316Y-139620498D01*
X399860567Y-139570673D01*
X400011942Y-139489762D01*
X400144623Y-139380873D01*
X400253512Y-139248192D01*
X400334423Y-139096817D01*
X400384248Y-138932566D01*
X400401072Y-138761750D01*
X400401072Y-138161750D01*
X400384248Y-137990934D01*
X400334423Y-137826683D01*
X400254226Y-137676644D01*
X400293537Y-137628744D01*
X400352502Y-137518430D01*
X400388812Y-137398732D01*
X400401072Y-137274250D01*
X400398000Y-137022500D01*
X400239250Y-136863750D01*
X399415000Y-136863750D01*
X399415000Y-136883750D01*
X399161000Y-136883750D01*
X399161000Y-136863750D01*
X398336750Y-136863750D01*
X398178000Y-137022500D01*
X398174928Y-137274250D01*
X398187188Y-137398732D01*
X398223498Y-137518430D01*
X398282463Y-137628744D01*
X398321774Y-137676644D01*
X398241577Y-137826683D01*
X398191752Y-137990934D01*
X398174928Y-138161750D01*
X398174928Y-138430000D01*
X397993456Y-138430000D01*
X397997502Y-138422430D01*
X398033812Y-138302732D01*
X398046072Y-138178250D01*
X398043000Y-137414000D01*
X397884250Y-137255250D01*
X396635000Y-137255250D01*
X396635000Y-137275250D01*
X396381000Y-137275250D01*
X396381000Y-137255250D01*
X396361000Y-137255250D01*
X396361000Y-137001250D01*
X396381000Y-137001250D01*
X396381000Y-136981250D01*
X396635000Y-136981250D01*
X396635000Y-137001250D01*
X397884250Y-137001250D01*
X398043000Y-136842500D01*
X398046072Y-136078250D01*
X398033812Y-135953768D01*
X397997502Y-135834070D01*
X397938537Y-135723756D01*
X397901191Y-135678250D01*
X397938537Y-135632744D01*
X397997502Y-135522430D01*
X398033812Y-135402732D01*
X398046072Y-135278250D01*
X398046072Y-135099250D01*
X398174928Y-135099250D01*
X398187188Y-135223732D01*
X398223498Y-135343430D01*
X398282463Y-135453744D01*
X398361815Y-135550435D01*
X398458506Y-135629787D01*
X398494918Y-135649250D01*
X398458506Y-135668713D01*
X398361815Y-135748065D01*
X398282463Y-135844756D01*
X398223498Y-135955070D01*
X398187188Y-136074768D01*
X398174928Y-136199250D01*
X398178000Y-136451000D01*
X398336750Y-136609750D01*
X399161000Y-136609750D01*
X399161000Y-135723000D01*
X399087250Y-135649250D01*
X399161000Y-135575500D01*
X399161000Y-134688750D01*
X399415000Y-134688750D01*
X399415000Y-135575500D01*
X399488750Y-135649250D01*
X399415000Y-135723000D01*
X399415000Y-136609750D01*
X400239250Y-136609750D01*
X400398000Y-136451000D01*
X400401072Y-136199250D01*
X400388812Y-136074768D01*
X400352502Y-135955070D01*
X400293537Y-135844756D01*
X400214185Y-135748065D01*
X400117494Y-135668713D01*
X400081082Y-135649250D01*
X400117494Y-135629787D01*
X400214185Y-135550435D01*
X400293537Y-135453744D01*
X400352502Y-135343430D01*
X400388812Y-135223732D01*
X400401072Y-135099250D01*
X400398000Y-134847500D01*
X400239250Y-134688750D01*
X399415000Y-134688750D01*
X399161000Y-134688750D01*
X398336750Y-134688750D01*
X398178000Y-134847500D01*
X398174928Y-135099250D01*
X398046072Y-135099250D01*
X398046072Y-133767809D01*
X398215131Y-133598750D01*
X398309424Y-133598750D01*
X398321774Y-133621856D01*
X398282463Y-133669756D01*
X398223498Y-133780070D01*
X398187188Y-133899768D01*
X398174928Y-134024250D01*
X398178000Y-134276000D01*
X398336750Y-134434750D01*
X399161000Y-134434750D01*
X399161000Y-134414750D01*
X399415000Y-134414750D01*
X399415000Y-134434750D01*
X400239250Y-134434750D01*
X400398000Y-134276000D01*
X400401072Y-134024250D01*
X400388812Y-133899768D01*
X400352502Y-133780070D01*
X400293537Y-133669756D01*
X400254226Y-133621856D01*
X400334423Y-133471817D01*
X400384248Y-133307566D01*
X400401072Y-133136750D01*
X400401072Y-132536750D01*
X400384248Y-132365934D01*
X400334423Y-132201683D01*
X400253512Y-132050308D01*
X400144623Y-131917627D01*
X400011942Y-131808738D01*
X399860567Y-131727827D01*
X399696316Y-131678002D01*
X399525500Y-131661178D01*
X399050500Y-131661178D01*
X398879684Y-131678002D01*
X398715433Y-131727827D01*
X398564058Y-131808738D01*
X398431377Y-131917627D01*
X398322488Y-132050308D01*
X398309424Y-132074750D01*
X397936922Y-132074750D01*
X397899499Y-132071064D01*
X397862076Y-132074750D01*
X397862074Y-132074750D01*
X397750122Y-132085776D01*
X397606485Y-132129348D01*
X397474108Y-132200105D01*
X397358078Y-132295328D01*
X397334221Y-132324398D01*
X397149910Y-132508709D01*
X397144645Y-132498858D01*
X397049422Y-132382828D01*
X397020351Y-132358970D01*
X396394283Y-131732903D01*
X396370422Y-131703828D01*
X396254392Y-131608605D01*
X396122015Y-131537848D01*
X395978378Y-131494276D01*
X395866426Y-131483250D01*
X395866423Y-131483250D01*
X395829000Y-131479564D01*
X395791577Y-131483250D01*
X390878750Y-131483250D01*
X390878750Y-131471247D01*
X390883800Y-131470750D01*
X390883803Y-131470750D01*
X391005076Y-131458806D01*
X391160684Y-131411603D01*
X391304092Y-131334949D01*
X391429791Y-131231791D01*
X391455648Y-131200285D01*
X391464933Y-131191000D01*
X401701000Y-131191000D01*
X401701000Y-140335000D01*
G04 #@! TA.AperFunction,Conductor*
D35*
G36*
X401701000Y-140335000D02*
G01*
X390779000Y-140335000D01*
X390779000Y-140065927D01*
X390833252Y-139964430D01*
X390869562Y-139844732D01*
X390881822Y-139720250D01*
X390881822Y-139170250D01*
X390869562Y-139045768D01*
X390869405Y-139045250D01*
X390869562Y-139044732D01*
X390881822Y-138920250D01*
X390881822Y-138370250D01*
X390869562Y-138245768D01*
X390869405Y-138245250D01*
X390869562Y-138244732D01*
X390881822Y-138120250D01*
X390881822Y-137570250D01*
X390869562Y-137445768D01*
X390869405Y-137445250D01*
X390869562Y-137444732D01*
X390881822Y-137320250D01*
X390881822Y-136770250D01*
X390869562Y-136645768D01*
X390869405Y-136645250D01*
X390869562Y-136644732D01*
X390881822Y-136520250D01*
X390881822Y-135970250D01*
X390869562Y-135845768D01*
X390869405Y-135845250D01*
X390869562Y-135844732D01*
X390881822Y-135720250D01*
X390881822Y-135170250D01*
X390869562Y-135045768D01*
X390869405Y-135045250D01*
X390869562Y-135044732D01*
X390881822Y-134920250D01*
X390881822Y-134370250D01*
X390869562Y-134245768D01*
X390869405Y-134245250D01*
X390869562Y-134244732D01*
X390881822Y-134120250D01*
X390881822Y-133895452D01*
X391668001Y-134681631D01*
X391668000Y-135344576D01*
X391664314Y-135382000D01*
X391668000Y-135419423D01*
X391668000Y-135419425D01*
X391679026Y-135531377D01*
X391722598Y-135675014D01*
X391722599Y-135675015D01*
X391793355Y-135807392D01*
X391824019Y-135844756D01*
X391888578Y-135923422D01*
X391917654Y-135947284D01*
X392669928Y-136699558D01*
X392669928Y-138178250D01*
X392682188Y-138302732D01*
X392718498Y-138422430D01*
X392777463Y-138532744D01*
X392856815Y-138629435D01*
X392953506Y-138708787D01*
X393063820Y-138767752D01*
X393183518Y-138804062D01*
X393308000Y-138816322D01*
X393549269Y-138816322D01*
X393571355Y-138857642D01*
X393627513Y-138926070D01*
X393666579Y-138973672D01*
X393695649Y-138997529D01*
X394402470Y-139704351D01*
X394426328Y-139733422D01*
X394455398Y-139757279D01*
X394542357Y-139828645D01*
X394613114Y-139866465D01*
X394674735Y-139899402D01*
X394818372Y-139942974D01*
X394930324Y-139954000D01*
X394930327Y-139954000D01*
X394967750Y-139957686D01*
X395005173Y-139954000D01*
X398520327Y-139954000D01*
X398557750Y-139957686D01*
X398595173Y-139954000D01*
X398595176Y-139954000D01*
X398707128Y-139942974D01*
X398850765Y-139899402D01*
X398983142Y-139828645D01*
X399099172Y-139733422D01*
X399123034Y-139704347D01*
X399190058Y-139637322D01*
X399525500Y-139637322D01*
X399696316Y-139620498D01*
X399860567Y-139570673D01*
X400011942Y-139489762D01*
X400144623Y-139380873D01*
X400253512Y-139248192D01*
X400334423Y-139096817D01*
X400384248Y-138932566D01*
X400401072Y-138761750D01*
X400401072Y-138161750D01*
X400384248Y-137990934D01*
X400334423Y-137826683D01*
X400254226Y-137676644D01*
X400293537Y-137628744D01*
X400352502Y-137518430D01*
X400388812Y-137398732D01*
X400401072Y-137274250D01*
X400398000Y-137022500D01*
X400239250Y-136863750D01*
X399415000Y-136863750D01*
X399415000Y-136883750D01*
X399161000Y-136883750D01*
X399161000Y-136863750D01*
X398336750Y-136863750D01*
X398178000Y-137022500D01*
X398174928Y-137274250D01*
X398187188Y-137398732D01*
X398223498Y-137518430D01*
X398282463Y-137628744D01*
X398321774Y-137676644D01*
X398241577Y-137826683D01*
X398191752Y-137990934D01*
X398174928Y-138161750D01*
X398174928Y-138430000D01*
X397993456Y-138430000D01*
X397997502Y-138422430D01*
X398033812Y-138302732D01*
X398046072Y-138178250D01*
X398043000Y-137414000D01*
X397884250Y-137255250D01*
X396635000Y-137255250D01*
X396635000Y-137275250D01*
X396381000Y-137275250D01*
X396381000Y-137255250D01*
X396361000Y-137255250D01*
X396361000Y-137001250D01*
X396381000Y-137001250D01*
X396381000Y-136981250D01*
X396635000Y-136981250D01*
X396635000Y-137001250D01*
X397884250Y-137001250D01*
X398043000Y-136842500D01*
X398046072Y-136078250D01*
X398033812Y-135953768D01*
X397997502Y-135834070D01*
X397938537Y-135723756D01*
X397901191Y-135678250D01*
X397938537Y-135632744D01*
X397997502Y-135522430D01*
X398033812Y-135402732D01*
X398046072Y-135278250D01*
X398046072Y-135099250D01*
X398174928Y-135099250D01*
X398187188Y-135223732D01*
X398223498Y-135343430D01*
X398282463Y-135453744D01*
X398361815Y-135550435D01*
X398458506Y-135629787D01*
X398494918Y-135649250D01*
X398458506Y-135668713D01*
X398361815Y-135748065D01*
X398282463Y-135844756D01*
X398223498Y-135955070D01*
X398187188Y-136074768D01*
X398174928Y-136199250D01*
X398178000Y-136451000D01*
X398336750Y-136609750D01*
X399161000Y-136609750D01*
X399161000Y-135723000D01*
X399087250Y-135649250D01*
X399161000Y-135575500D01*
X399161000Y-134688750D01*
X399415000Y-134688750D01*
X399415000Y-135575500D01*
X399488750Y-135649250D01*
X399415000Y-135723000D01*
X399415000Y-136609750D01*
X400239250Y-136609750D01*
X400398000Y-136451000D01*
X400401072Y-136199250D01*
X400388812Y-136074768D01*
X400352502Y-135955070D01*
X400293537Y-135844756D01*
X400214185Y-135748065D01*
X400117494Y-135668713D01*
X400081082Y-135649250D01*
X400117494Y-135629787D01*
X400214185Y-135550435D01*
X400293537Y-135453744D01*
X400352502Y-135343430D01*
X400388812Y-135223732D01*
X400401072Y-135099250D01*
X400398000Y-134847500D01*
X400239250Y-134688750D01*
X399415000Y-134688750D01*
X399161000Y-134688750D01*
X398336750Y-134688750D01*
X398178000Y-134847500D01*
X398174928Y-135099250D01*
X398046072Y-135099250D01*
X398046072Y-133767809D01*
X398215131Y-133598750D01*
X398309424Y-133598750D01*
X398321774Y-133621856D01*
X398282463Y-133669756D01*
X398223498Y-133780070D01*
X398187188Y-133899768D01*
X398174928Y-134024250D01*
X398178000Y-134276000D01*
X398336750Y-134434750D01*
X399161000Y-134434750D01*
X399161000Y-134414750D01*
X399415000Y-134414750D01*
X399415000Y-134434750D01*
X400239250Y-134434750D01*
X400398000Y-134276000D01*
X400401072Y-134024250D01*
X400388812Y-133899768D01*
X400352502Y-133780070D01*
X400293537Y-133669756D01*
X400254226Y-133621856D01*
X400334423Y-133471817D01*
X400384248Y-133307566D01*
X400401072Y-133136750D01*
X400401072Y-132536750D01*
X400384248Y-132365934D01*
X400334423Y-132201683D01*
X400253512Y-132050308D01*
X400144623Y-131917627D01*
X400011942Y-131808738D01*
X399860567Y-131727827D01*
X399696316Y-131678002D01*
X399525500Y-131661178D01*
X399050500Y-131661178D01*
X398879684Y-131678002D01*
X398715433Y-131727827D01*
X398564058Y-131808738D01*
X398431377Y-131917627D01*
X398322488Y-132050308D01*
X398309424Y-132074750D01*
X397936922Y-132074750D01*
X397899499Y-132071064D01*
X397862076Y-132074750D01*
X397862074Y-132074750D01*
X397750122Y-132085776D01*
X397606485Y-132129348D01*
X397474108Y-132200105D01*
X397358078Y-132295328D01*
X397334221Y-132324398D01*
X397149910Y-132508709D01*
X397144645Y-132498858D01*
X397049422Y-132382828D01*
X397020351Y-132358970D01*
X396394283Y-131732903D01*
X396370422Y-131703828D01*
X396254392Y-131608605D01*
X396122015Y-131537848D01*
X395978378Y-131494276D01*
X395866426Y-131483250D01*
X395866423Y-131483250D01*
X395829000Y-131479564D01*
X395791577Y-131483250D01*
X390878750Y-131483250D01*
X390878750Y-131471247D01*
X390883800Y-131470750D01*
X390883803Y-131470750D01*
X391005076Y-131458806D01*
X391160684Y-131411603D01*
X391304092Y-131334949D01*
X391429791Y-131231791D01*
X391455648Y-131200285D01*
X391464933Y-131191000D01*
X401701000Y-131191000D01*
X401701000Y-140335000D01*
G37*
G04 #@! TD.AperFunction*
D33*
X394335000Y-134101250D02*
X394355000Y-134101250D01*
X394355000Y-134355250D01*
X394335000Y-134355250D01*
X394335000Y-134375250D01*
X394081000Y-134375250D01*
X394081000Y-134355250D01*
X394061000Y-134355250D01*
X394061000Y-134101250D01*
X394081000Y-134101250D01*
X394081000Y-134081250D01*
X394335000Y-134081250D01*
X394335000Y-134101250D01*
G04 #@! TA.AperFunction,Conductor*
D35*
G36*
X394335000Y-134101250D02*
G01*
X394355000Y-134101250D01*
X394355000Y-134355250D01*
X394335000Y-134355250D01*
X394335000Y-134375250D01*
X394081000Y-134375250D01*
X394081000Y-134355250D01*
X394061000Y-134355250D01*
X394061000Y-134101250D01*
X394081000Y-134101250D01*
X394081000Y-134081250D01*
X394335000Y-134081250D01*
X394335000Y-134101250D01*
G37*
G04 #@! TD.AperFunction*
D33*
X369944085Y-78947763D02*
X369897500Y-79166750D01*
X369897500Y-79466750D01*
X370905500Y-79466750D01*
X370905500Y-79446750D01*
X371159500Y-79446750D01*
X371159500Y-79466750D01*
X371179500Y-79466750D01*
X371179500Y-79720750D01*
X371159500Y-79720750D01*
X371159500Y-80861704D01*
X371334374Y-80987869D01*
X371348000Y-80982993D01*
X371348000Y-82134507D01*
X371334374Y-82129631D01*
X371159500Y-82255796D01*
X371159500Y-83646750D01*
X371179500Y-83646750D01*
X371179500Y-83693000D01*
X370885500Y-83693000D01*
X370885500Y-83646750D01*
X370905500Y-83646750D01*
X370905500Y-82255796D01*
X370730626Y-82129631D01*
X370507524Y-82209474D01*
X370319736Y-82331381D01*
X370175384Y-82471956D01*
X370057231Y-82393009D01*
X369882522Y-82320642D01*
X369697052Y-82283750D01*
X369507948Y-82283750D01*
X369322478Y-82320642D01*
X369147769Y-82393009D01*
X368990536Y-82498069D01*
X368856819Y-82631786D01*
X368751759Y-82789019D01*
X368679392Y-82963728D01*
X368642500Y-83149198D01*
X368642500Y-83328633D01*
X368612500Y-83325678D01*
X368312500Y-83325678D01*
X368212500Y-83335527D01*
X368112500Y-83325678D01*
X367812500Y-83325678D01*
X367712500Y-83335527D01*
X367613028Y-83325730D01*
X367599145Y-83299756D01*
X367503922Y-83183726D01*
X367474847Y-83159865D01*
X367368636Y-83053654D01*
X367344774Y-83024578D01*
X367228744Y-82929355D01*
X367096367Y-82858598D01*
X366952730Y-82815026D01*
X366840778Y-82804000D01*
X366840775Y-82804000D01*
X366803352Y-82800314D01*
X366765929Y-82804000D01*
X366159070Y-82804000D01*
X366121647Y-82800314D01*
X366084224Y-82804000D01*
X366084222Y-82804000D01*
X365972270Y-82815026D01*
X365828633Y-82858598D01*
X365696256Y-82929355D01*
X365580226Y-83024578D01*
X365556364Y-83053654D01*
X365450149Y-83159869D01*
X365421079Y-83183726D01*
X365397222Y-83212796D01*
X365397221Y-83212797D01*
X365325855Y-83299756D01*
X365311972Y-83325730D01*
X365212500Y-83335527D01*
X365112500Y-83325678D01*
X364812500Y-83325678D01*
X364782500Y-83328633D01*
X364782500Y-83149198D01*
X364745608Y-82963728D01*
X364673241Y-82789019D01*
X364568181Y-82631786D01*
X364434464Y-82498069D01*
X364277231Y-82393009D01*
X364102522Y-82320642D01*
X363917052Y-82283750D01*
X363727948Y-82283750D01*
X363542478Y-82320642D01*
X363367769Y-82393009D01*
X363249616Y-82471956D01*
X363105264Y-82331381D01*
X362917476Y-82209474D01*
X362694374Y-82129631D01*
X362519500Y-82255796D01*
X362519500Y-83646750D01*
X362539500Y-83646750D01*
X362539500Y-83693000D01*
X362245500Y-83693000D01*
X362245500Y-83646750D01*
X362265500Y-83646750D01*
X362265500Y-82255796D01*
X362090626Y-82129631D01*
X362077000Y-82134507D01*
X362077000Y-80982993D01*
X362090626Y-80987869D01*
X362265500Y-80861704D01*
X362265500Y-79720750D01*
X362519500Y-79720750D01*
X362519500Y-80861704D01*
X362694374Y-80987869D01*
X362917476Y-80908026D01*
X363105264Y-80786119D01*
X363265661Y-80629919D01*
X363392503Y-80445428D01*
X363480915Y-80239737D01*
X363527500Y-80020750D01*
X363527500Y-79720750D01*
X369897500Y-79720750D01*
X369897500Y-80020750D01*
X369944085Y-80239737D01*
X370032497Y-80445428D01*
X370159339Y-80629919D01*
X370319736Y-80786119D01*
X370507524Y-80908026D01*
X370730626Y-80987869D01*
X370905500Y-80861704D01*
X370905500Y-79720750D01*
X369897500Y-79720750D01*
X363527500Y-79720750D01*
X362519500Y-79720750D01*
X362265500Y-79720750D01*
X362245500Y-79720750D01*
X362245500Y-79466750D01*
X362265500Y-79466750D01*
X362265500Y-79446750D01*
X362519500Y-79446750D01*
X362519500Y-79466750D01*
X363527500Y-79466750D01*
X363527500Y-79166750D01*
X363480915Y-78947763D01*
X363456946Y-78892000D01*
X369968054Y-78892000D01*
X369944085Y-78947763D01*
G04 #@! TA.AperFunction,Conductor*
D35*
G36*
X369944085Y-78947763D02*
G01*
X369897500Y-79166750D01*
X369897500Y-79466750D01*
X370905500Y-79466750D01*
X370905500Y-79446750D01*
X371159500Y-79446750D01*
X371159500Y-79466750D01*
X371179500Y-79466750D01*
X371179500Y-79720750D01*
X371159500Y-79720750D01*
X371159500Y-80861704D01*
X371334374Y-80987869D01*
X371348000Y-80982993D01*
X371348000Y-82134507D01*
X371334374Y-82129631D01*
X371159500Y-82255796D01*
X371159500Y-83646750D01*
X371179500Y-83646750D01*
X371179500Y-83693000D01*
X370885500Y-83693000D01*
X370885500Y-83646750D01*
X370905500Y-83646750D01*
X370905500Y-82255796D01*
X370730626Y-82129631D01*
X370507524Y-82209474D01*
X370319736Y-82331381D01*
X370175384Y-82471956D01*
X370057231Y-82393009D01*
X369882522Y-82320642D01*
X369697052Y-82283750D01*
X369507948Y-82283750D01*
X369322478Y-82320642D01*
X369147769Y-82393009D01*
X368990536Y-82498069D01*
X368856819Y-82631786D01*
X368751759Y-82789019D01*
X368679392Y-82963728D01*
X368642500Y-83149198D01*
X368642500Y-83328633D01*
X368612500Y-83325678D01*
X368312500Y-83325678D01*
X368212500Y-83335527D01*
X368112500Y-83325678D01*
X367812500Y-83325678D01*
X367712500Y-83335527D01*
X367613028Y-83325730D01*
X367599145Y-83299756D01*
X367503922Y-83183726D01*
X367474847Y-83159865D01*
X367368636Y-83053654D01*
X367344774Y-83024578D01*
X367228744Y-82929355D01*
X367096367Y-82858598D01*
X366952730Y-82815026D01*
X366840778Y-82804000D01*
X366840775Y-82804000D01*
X366803352Y-82800314D01*
X366765929Y-82804000D01*
X366159070Y-82804000D01*
X366121647Y-82800314D01*
X366084224Y-82804000D01*
X366084222Y-82804000D01*
X365972270Y-82815026D01*
X365828633Y-82858598D01*
X365696256Y-82929355D01*
X365580226Y-83024578D01*
X365556364Y-83053654D01*
X365450149Y-83159869D01*
X365421079Y-83183726D01*
X365397222Y-83212796D01*
X365397221Y-83212797D01*
X365325855Y-83299756D01*
X365311972Y-83325730D01*
X365212500Y-83335527D01*
X365112500Y-83325678D01*
X364812500Y-83325678D01*
X364782500Y-83328633D01*
X364782500Y-83149198D01*
X364745608Y-82963728D01*
X364673241Y-82789019D01*
X364568181Y-82631786D01*
X364434464Y-82498069D01*
X364277231Y-82393009D01*
X364102522Y-82320642D01*
X363917052Y-82283750D01*
X363727948Y-82283750D01*
X363542478Y-82320642D01*
X363367769Y-82393009D01*
X363249616Y-82471956D01*
X363105264Y-82331381D01*
X362917476Y-82209474D01*
X362694374Y-82129631D01*
X362519500Y-82255796D01*
X362519500Y-83646750D01*
X362539500Y-83646750D01*
X362539500Y-83693000D01*
X362245500Y-83693000D01*
X362245500Y-83646750D01*
X362265500Y-83646750D01*
X362265500Y-82255796D01*
X362090626Y-82129631D01*
X362077000Y-82134507D01*
X362077000Y-80982993D01*
X362090626Y-80987869D01*
X362265500Y-80861704D01*
X362265500Y-79720750D01*
X362519500Y-79720750D01*
X362519500Y-80861704D01*
X362694374Y-80987869D01*
X362917476Y-80908026D01*
X363105264Y-80786119D01*
X363265661Y-80629919D01*
X363392503Y-80445428D01*
X363480915Y-80239737D01*
X363527500Y-80020750D01*
X363527500Y-79720750D01*
X369897500Y-79720750D01*
X369897500Y-80020750D01*
X369944085Y-80239737D01*
X370032497Y-80445428D01*
X370159339Y-80629919D01*
X370319736Y-80786119D01*
X370507524Y-80908026D01*
X370730626Y-80987869D01*
X370905500Y-80861704D01*
X370905500Y-79720750D01*
X369897500Y-79720750D01*
X363527500Y-79720750D01*
X362519500Y-79720750D01*
X362265500Y-79720750D01*
X362245500Y-79720750D01*
X362245500Y-79466750D01*
X362265500Y-79466750D01*
X362265500Y-79446750D01*
X362519500Y-79446750D01*
X362519500Y-79466750D01*
X363527500Y-79466750D01*
X363527500Y-79166750D01*
X363480915Y-78947763D01*
X363456946Y-78892000D01*
X369968054Y-78892000D01*
X369944085Y-78947763D01*
G37*
G04 #@! TD.AperFunction*
M02*
