M48
; DRILL file {KiCad (5.1.9)-1} date 06/04/21 19:47:16
; FORMAT={-:-/ absolute / metric / decimal}
; #@! TF.CreationDate,2021-06-04T19:47:16-04:00
; #@! TF.GenerationSoftware,Kicad,Pcbnew,(5.1.9)-1
; #@! TF.FileFunction,NonPlated,1,2,NPTH
FMAT,2
METRIC
T1C0.650
T2C1.750
T3C3.048
T4C3.500
T5C3.988
%
G90
G05
T1
X363.822Y-83.244
X369.602Y-83.244
T2
X84.614Y-89.694
X84.614Y-118.269
X86.995Y-194.469
X89.376Y-137.319
X91.757Y-156.369
X94.774Y-89.694
X94.774Y-118.269
X96.52Y-175.419
X97.155Y-194.469
X99.536Y-137.319
X101.917Y-156.369
X103.664Y-118.269
X106.68Y-175.419
X110.807Y-194.469
X113.189Y-89.694
X113.189Y-137.319
X113.824Y-118.269
X117.951Y-156.369
X120.968Y-194.469
X122.714Y-118.269
X123.349Y-89.694
X123.349Y-137.319
X127.476Y-175.419
X128.111Y-156.369
X132.239Y-89.694
X132.239Y-137.319
X132.874Y-118.269
X134.62Y-194.469
X137.001Y-156.369
X137.636Y-175.419
X141.764Y-118.269
X142.399Y-89.694
X142.399Y-137.319
X144.78Y-194.469
X146.526Y-175.419
X147.161Y-156.369
X151.289Y-89.694
X151.289Y-137.319
X151.924Y-118.269
X156.051Y-156.369
X156.686Y-175.419
X160.814Y-118.269
X161.449Y-89.694
X161.449Y-137.319
X165.576Y-175.419
X166.211Y-156.369
X170.339Y-89.694
X170.339Y-137.319
X170.974Y-118.269
X175.101Y-156.369
X175.736Y-175.419
X179.864Y-118.269
X180.499Y-89.694
X180.499Y-137.319
X184.626Y-175.419
X185.261Y-156.369
X189.389Y-137.319
X190.024Y-118.269
X194.151Y-156.369
X194.786Y-175.419
X198.914Y-89.694
X198.914Y-118.269
X199.549Y-137.319
X203.676Y-175.419
X204.311Y-156.369
X206.058Y-194.469
X208.439Y-137.319
X209.074Y-89.694
X209.074Y-118.269
X213.201Y-156.369
X213.836Y-175.419
X216.218Y-194.469
X217.964Y-89.694
X217.964Y-118.269
X218.599Y-137.319
X222.726Y-175.419
X223.361Y-156.369
X227.489Y-137.319
X228.124Y-89.694
X228.124Y-118.269
X232.251Y-156.369
X232.886Y-175.419
X237.014Y-89.694
X237.014Y-118.269
X237.649Y-137.319
X241.776Y-175.419
X242.411Y-156.369
X246.539Y-137.319
X247.174Y-89.694
X247.174Y-118.269
X251.301Y-156.369
X251.936Y-175.419
X256.064Y-89.694
X256.064Y-118.269
X256.699Y-137.319
X260.826Y-175.419
X261.461Y-156.369
X265.589Y-137.319
X266.224Y-89.694
X266.224Y-118.269
X270.351Y-156.369
X270.986Y-175.419
X275.114Y-118.269
X275.114Y-194.469
X275.749Y-137.319
X279.876Y-175.419
X280.511Y-156.369
X284.639Y-89.694
X284.639Y-137.319
X285.274Y-118.269
X285.274Y-194.469
X289.401Y-156.369
X290.036Y-175.419
X294.164Y-118.269
X294.164Y-194.469
X294.799Y-89.694
X294.799Y-137.319
X298.926Y-175.419
X299.561Y-156.369
X303.689Y-89.694
X303.689Y-137.319
X304.324Y-118.269
X304.324Y-194.469
X308.451Y-156.369
X309.086Y-175.419
X313.214Y-118.269
X313.214Y-194.469
X313.849Y-89.694
X313.849Y-137.319
X318.611Y-156.369
X322.739Y-89.694
X322.739Y-137.319
X323.374Y-118.269
X323.374Y-194.469
X325.12Y-175.419
X332.899Y-89.694
X332.899Y-137.319
X335.28Y-175.419
X337.026Y-199.231
X339.407Y-156.369
X341.789Y-89.694
X341.789Y-118.269
X346.551Y-137.319
X347.186Y-199.231
X349.567Y-156.369
X351.949Y-89.694
X351.949Y-118.269
X356.076Y-180.181
X356.076Y-199.231
X356.711Y-137.319
X366.236Y-180.181
X366.236Y-199.231
X375.126Y-199.231
X379.889Y-156.369
X379.889Y-175.419
X385.286Y-199.231
X390.049Y-156.369
X390.049Y-175.419
T3
X89.662Y-168.434
X113.538Y-168.434
X161.138Y-201.454
X261.137Y-201.454
X332.549Y-149.384
X334.931Y-111.284
X356.425Y-149.384
X358.807Y-111.284
T4
X103.886Y-83.82
X180.34Y-193.04
X189.535Y-83.82
X327.406Y-154.94
X397.764Y-83.82
T5
X89.662Y-183.674
X89.694Y-89.694
X89.694Y-118.269
X92.075Y-194.469
X94.456Y-137.319
X96.837Y-156.369
X101.6Y-175.419
X108.744Y-118.269
X113.538Y-183.674
X115.887Y-194.469
X118.269Y-89.694
X118.269Y-137.319
X123.031Y-156.369
X127.794Y-118.269
X132.556Y-175.419
X137.319Y-89.694
X137.319Y-137.319
X139.7Y-194.469
X142.081Y-156.369
X146.844Y-118.269
X151.606Y-175.419
X156.369Y-89.694
X156.369Y-137.319
X161.131Y-156.369
X161.138Y-186.214
X165.894Y-118.269
X170.656Y-175.419
X175.419Y-89.694
X175.419Y-137.319
X180.181Y-156.369
X184.944Y-118.269
X189.706Y-175.419
X194.469Y-137.319
X199.231Y-156.369
X203.994Y-89.694
X203.994Y-118.269
X208.756Y-175.419
X211.137Y-194.469
X213.519Y-137.319
X218.281Y-156.369
X223.044Y-89.694
X223.044Y-118.269
X227.806Y-175.419
X232.569Y-137.319
X237.331Y-156.369
X242.094Y-89.694
X242.094Y-118.269
X246.856Y-175.419
X251.619Y-137.319
X256.381Y-156.369
X261.137Y-186.214
X261.144Y-89.694
X261.144Y-118.269
X265.906Y-175.419
X270.669Y-137.319
X275.431Y-156.369
X280.194Y-118.269
X280.194Y-194.469
X284.956Y-175.419
X289.719Y-89.694
X289.719Y-137.319
X294.481Y-156.369
X299.244Y-118.269
X299.244Y-194.469
X304.006Y-175.419
X308.769Y-89.694
X308.769Y-137.319
X313.531Y-156.369
X318.294Y-118.269
X318.294Y-194.469
X327.819Y-89.694
X327.819Y-137.319
X330.2Y-175.419
X332.549Y-164.624
X334.931Y-126.524
X342.106Y-199.231
X344.488Y-156.369
X346.869Y-89.694
X346.869Y-118.269
X351.631Y-137.319
X356.425Y-164.624
X358.807Y-126.524
X361.156Y-180.181
X361.156Y-199.231
X380.206Y-199.231
X384.969Y-156.369
X384.969Y-175.419
T0
M30
