  0
SECTION
  2
HEADER
  9
$ANGBASE
  50
0.0
  9
$ANGDIR
  70
1
  9
$MEASUREMENT
  70
1
  0
ENDSEC
  0
SECTION
  2
TABLES
  0
TABLE
  2
LTYPE
  70
4
  0
LTYPE
  5
40F
  2
CONTINUOUS
  70
0
  3
Solid line
  72
65
  73
0
  40
0.0
  0
LTYPE
  5
410
  2
DASHDOT
 70
0
  3
Dash Dot ____ _ ____ _
 72
65
 73
4
 40
2.0
 49
1.25
 49
-0.25
 49
0.25
 49
-0.25
  0
LTYPE
  5
411
  2
DASHED
 70
0
  3
Dashed __ __ __ __ __
 72
65
 73
2
 40
0.75
 49
0.5
 49
-0.25
  0
LTYPE
  5
43B
  2
DOTTED
 70
0
  3
Dotted .  .  .  .
 72
65
 73
2
 40
0.2
 49
0.0
 49
-0.2
  0
ENDTAB
  0
TABLE
  2
STYLE
  70
4
  0
STYLE
  2
KICAD
  70
0
  40
0
  41
1
  42
1
  50
0
  71
0
  3
isocp.shx
  0
STYLE
  2
KICADB
  70
0
  40
0
  41
1
  42
1
  50
0
  71
0
  3
isocp.shx
  0
STYLE
  2
KICADI
  70
0
  40
0
  41
1
  42
1
  50
15
  71
0
  3
isocp.shx
  0
STYLE
  2
KICADBI
  70
0
  40
0
  41
1
  42
1
  50
15
  71
0
  3
isocp.shx
  0
ENDTAB
  0
TABLE
  2
LAYER
  70
1
  0
LAYER
  2
BLACK
  70
0
  62
7
  6
CONTINUOUS
  0
ENDTAB
  0
ENDSEC
  0
SECTION
  2
ENTITIES
0
LINE
8
BLACK
6
CONTINUOUS
10
372.11
20
-78.232
11
372.11
21
-77.47
0
LINE
8
BLACK
6
CONTINUOUS
10
360.68
20
-78.232
11
372.11
21
-78.232
0
LINE
8
BLACK
6
CONTINUOUS
10
360.68
20
-77.47
11
360.68
21
-78.232
0
LINE
8
BLACK
6
CONTINUOUS
10
360.68
20
-77.47
11
77.47
21
-77.47
0
LINE
8
BLACK
6
CONTINUOUS
10
405.13
20
-77.47
11
372.11
21
-77.47
0
LINE
8
BLACK
6
CONTINUOUS
10
77.47
20
-214.63
11
77.47
21
-77.47
0
LINE
8
BLACK
6
CONTINUOUS
10
405.13
20
-214.63
11
77.47
21
-214.63
0
LINE
8
BLACK
6
CONTINUOUS
10
405.13
20
-77.47
11
405.13
21
-214.63
0
LINE
8
BLACK
6
CONTINUOUS
10
363.498
20
-82.9188
11
364.147
21
-83.5687
0
LINE
8
BLACK
6
CONTINUOUS
10
364.147
20
-82.9188
11
363.498
21
-83.5687
0
LINE
8
BLACK
6
CONTINUOUS
10
369.277
20
-82.9188
11
369.928
21
-83.5687
0
LINE
8
BLACK
6
CONTINUOUS
10
369.928
20
-82.9188
11
369.277
21
-83.5687
0
CIRCLE
8
BLACK
10
84.6137
20
-89.6937
40
0.875
0
CIRCLE
8
BLACK
10
84.6137
20
-118.269
40
0.875
0
CIRCLE
8
BLACK
10
86.995
20
-194.469
40
0.875
0
CIRCLE
8
BLACK
10
89.3762
20
-137.319
40
0.875
0
CIRCLE
8
BLACK
10
91.7575
20
-156.369
40
0.875
0
CIRCLE
8
BLACK
10
94.7737
20
-89.6937
40
0.875
0
CIRCLE
8
BLACK
10
94.7737
20
-118.269
40
0.875
0
CIRCLE
8
BLACK
10
96.52
20
-175.419
40
0.875
0
CIRCLE
8
BLACK
10
97.155
20
-194.469
40
0.875
0
CIRCLE
8
BLACK
10
99.5362
20
-137.319
40
0.875
0
CIRCLE
8
BLACK
10
101.917
20
-156.369
40
0.875
0
CIRCLE
8
BLACK
10
103.664
20
-118.269
40
0.875
0
CIRCLE
8
BLACK
10
106.68
20
-175.419
40
0.875
0
CIRCLE
8
BLACK
10
110.807
20
-194.469
40
0.875
0
CIRCLE
8
BLACK
10
113.189
20
-89.6937
40
0.875
0
CIRCLE
8
BLACK
10
113.189
20
-137.319
40
0.875
0
CIRCLE
8
BLACK
10
113.824
20
-118.269
40
0.875
0
CIRCLE
8
BLACK
10
117.951
20
-156.369
40
0.875
0
CIRCLE
8
BLACK
10
120.968
20
-194.469
40
0.875
0
CIRCLE
8
BLACK
10
122.714
20
-118.269
40
0.875
0
CIRCLE
8
BLACK
10
123.349
20
-89.6937
40
0.875
0
CIRCLE
8
BLACK
10
123.349
20
-137.319
40
0.875
0
CIRCLE
8
BLACK
10
127.476
20
-175.419
40
0.875
0
CIRCLE
8
BLACK
10
128.111
20
-156.369
40
0.875
0
CIRCLE
8
BLACK
10
132.239
20
-89.6937
40
0.875
0
CIRCLE
8
BLACK
10
132.239
20
-137.319
40
0.875
0
CIRCLE
8
BLACK
10
132.874
20
-118.269
40
0.875
0
CIRCLE
8
BLACK
10
134.62
20
-194.469
40
0.875
0
CIRCLE
8
BLACK
10
137.001
20
-156.369
40
0.875
0
CIRCLE
8
BLACK
10
137.636
20
-175.419
40
0.875
0
CIRCLE
8
BLACK
10
141.764
20
-118.269
40
0.875
0
CIRCLE
8
BLACK
10
142.399
20
-89.6937
40
0.875
0
CIRCLE
8
BLACK
10
142.399
20
-137.319
40
0.875
0
CIRCLE
8
BLACK
10
144.78
20
-194.469
40
0.875
0
CIRCLE
8
BLACK
10
146.526
20
-175.419
40
0.875
0
CIRCLE
8
BLACK
10
147.161
20
-156.369
40
0.875
0
CIRCLE
8
BLACK
10
151.289
20
-89.6937
40
0.875
0
CIRCLE
8
BLACK
10
151.289
20
-137.319
40
0.875
0
CIRCLE
8
BLACK
10
151.924
20
-118.269
40
0.875
0
CIRCLE
8
BLACK
10
156.051
20
-156.369
40
0.875
0
CIRCLE
8
BLACK
10
156.686
20
-175.419
40
0.875
0
CIRCLE
8
BLACK
10
160.814
20
-118.269
40
0.875
0
CIRCLE
8
BLACK
10
161.449
20
-89.6937
40
0.875
0
CIRCLE
8
BLACK
10
161.449
20
-137.319
40
0.875
0
CIRCLE
8
BLACK
10
165.576
20
-175.419
40
0.875
0
CIRCLE
8
BLACK
10
166.211
20
-156.369
40
0.875
0
CIRCLE
8
BLACK
10
170.339
20
-89.6937
40
0.875
0
CIRCLE
8
BLACK
10
170.339
20
-137.319
40
0.875
0
CIRCLE
8
BLACK
10
170.974
20
-118.269
40
0.875
0
CIRCLE
8
BLACK
10
175.101
20
-156.369
40
0.875
0
CIRCLE
8
BLACK
10
175.736
20
-175.419
40
0.875
0
CIRCLE
8
BLACK
10
179.864
20
-118.269
40
0.875
0
CIRCLE
8
BLACK
10
180.499
20
-89.6937
40
0.875
0
CIRCLE
8
BLACK
10
180.499
20
-137.319
40
0.875
0
CIRCLE
8
BLACK
10
184.626
20
-175.419
40
0.875
0
CIRCLE
8
BLACK
10
185.261
20
-156.369
40
0.875
0
CIRCLE
8
BLACK
10
189.389
20
-137.319
40
0.875
0
CIRCLE
8
BLACK
10
190.024
20
-118.269
40
0.875
0
CIRCLE
8
BLACK
10
194.151
20
-156.369
40
0.875
0
CIRCLE
8
BLACK
10
194.786
20
-175.419
40
0.875
0
CIRCLE
8
BLACK
10
198.914
20
-89.6937
40
0.875
0
CIRCLE
8
BLACK
10
198.914
20
-118.269
40
0.875
0
CIRCLE
8
BLACK
10
199.549
20
-137.319
40
0.875
0
CIRCLE
8
BLACK
10
203.676
20
-175.419
40
0.875
0
CIRCLE
8
BLACK
10
204.311
20
-156.369
40
0.875
0
CIRCLE
8
BLACK
10
206.058
20
-194.469
40
0.875
0
CIRCLE
8
BLACK
10
208.439
20
-137.319
40
0.875
0
CIRCLE
8
BLACK
10
209.074
20
-89.6937
40
0.875
0
CIRCLE
8
BLACK
10
209.074
20
-118.269
40
0.875
0
CIRCLE
8
BLACK
10
213.201
20
-156.369
40
0.875
0
CIRCLE
8
BLACK
10
213.836
20
-175.419
40
0.875
0
CIRCLE
8
BLACK
10
216.218
20
-194.469
40
0.875
0
CIRCLE
8
BLACK
10
217.964
20
-89.6937
40
0.875
0
CIRCLE
8
BLACK
10
217.964
20
-118.269
40
0.875
0
CIRCLE
8
BLACK
10
218.599
20
-137.319
40
0.875
0
CIRCLE
8
BLACK
10
222.726
20
-175.419
40
0.875
0
CIRCLE
8
BLACK
10
223.361
20
-156.369
40
0.875
0
CIRCLE
8
BLACK
10
227.489
20
-137.319
40
0.875
0
CIRCLE
8
BLACK
10
228.124
20
-89.6937
40
0.875
0
CIRCLE
8
BLACK
10
228.124
20
-118.269
40
0.875
0
CIRCLE
8
BLACK
10
232.251
20
-156.369
40
0.875
0
CIRCLE
8
BLACK
10
232.886
20
-175.419
40
0.875
0
CIRCLE
8
BLACK
10
237.014
20
-89.6937
40
0.875
0
CIRCLE
8
BLACK
10
237.014
20
-118.269
40
0.875
0
CIRCLE
8
BLACK
10
237.649
20
-137.319
40
0.875
0
CIRCLE
8
BLACK
10
241.776
20
-175.419
40
0.875
0
CIRCLE
8
BLACK
10
242.411
20
-156.369
40
0.875
0
CIRCLE
8
BLACK
10
246.539
20
-137.319
40
0.875
0
CIRCLE
8
BLACK
10
247.174
20
-89.6937
40
0.875
0
CIRCLE
8
BLACK
10
247.174
20
-118.269
40
0.875
0
CIRCLE
8
BLACK
10
251.301
20
-156.369
40
0.875
0
CIRCLE
8
BLACK
10
251.936
20
-175.419
40
0.875
0
CIRCLE
8
BLACK
10
256.064
20
-89.6937
40
0.875
0
CIRCLE
8
BLACK
10
256.064
20
-118.269
40
0.875
0
CIRCLE
8
BLACK
10
256.699
20
-137.319
40
0.875
0
CIRCLE
8
BLACK
10
260.826
20
-175.419
40
0.875
0
CIRCLE
8
BLACK
10
261.461
20
-156.369
40
0.875
0
CIRCLE
8
BLACK
10
265.589
20
-137.319
40
0.875
0
CIRCLE
8
BLACK
10
266.224
20
-89.6937
40
0.875
0
CIRCLE
8
BLACK
10
266.224
20
-118.269
40
0.875
0
CIRCLE
8
BLACK
10
270.351
20
-156.369
40
0.875
0
CIRCLE
8
BLACK
10
270.986
20
-175.419
40
0.875
0
CIRCLE
8
BLACK
10
275.114
20
-118.269
40
0.875
0
CIRCLE
8
BLACK
10
275.114
20
-194.469
40
0.875
0
CIRCLE
8
BLACK
10
275.749
20
-137.319
40
0.875
0
CIRCLE
8
BLACK
10
279.876
20
-175.419
40
0.875
0
CIRCLE
8
BLACK
10
280.511
20
-156.369
40
0.875
0
CIRCLE
8
BLACK
10
284.639
20
-89.6937
40
0.875
0
CIRCLE
8
BLACK
10
284.639
20
-137.319
40
0.875
0
CIRCLE
8
BLACK
10
285.274
20
-118.269
40
0.875
0
CIRCLE
8
BLACK
10
285.274
20
-194.469
40
0.875
0
CIRCLE
8
BLACK
10
289.401
20
-156.369
40
0.875
0
CIRCLE
8
BLACK
10
290.036
20
-175.419
40
0.875
0
CIRCLE
8
BLACK
10
294.164
20
-118.269
40
0.875
0
CIRCLE
8
BLACK
10
294.164
20
-194.469
40
0.875
0
CIRCLE
8
BLACK
10
294.799
20
-89.6937
40
0.875
0
CIRCLE
8
BLACK
10
294.799
20
-137.319
40
0.875
0
CIRCLE
8
BLACK
10
298.926
20
-175.419
40
0.875
0
CIRCLE
8
BLACK
10
299.561
20
-156.369
40
0.875
0
CIRCLE
8
BLACK
10
303.689
20
-89.6937
40
0.875
0
CIRCLE
8
BLACK
10
303.689
20
-137.319
40
0.875
0
CIRCLE
8
BLACK
10
304.324
20
-118.269
40
0.875
0
CIRCLE
8
BLACK
10
304.324
20
-194.469
40
0.875
0
CIRCLE
8
BLACK
10
308.451
20
-156.369
40
0.875
0
CIRCLE
8
BLACK
10
309.086
20
-175.419
40
0.875
0
CIRCLE
8
BLACK
10
313.214
20
-118.269
40
0.875
0
CIRCLE
8
BLACK
10
313.214
20
-194.469
40
0.875
0
CIRCLE
8
BLACK
10
313.849
20
-89.6937
40
0.875
0
CIRCLE
8
BLACK
10
313.849
20
-137.319
40
0.875
0
CIRCLE
8
BLACK
10
318.611
20
-156.369
40
0.875
0
CIRCLE
8
BLACK
10
322.739
20
-89.6937
40
0.875
0
CIRCLE
8
BLACK
10
322.739
20
-137.319
40
0.875
0
CIRCLE
8
BLACK
10
323.374
20
-118.269
40
0.875
0
CIRCLE
8
BLACK
10
323.374
20
-194.469
40
0.875
0
CIRCLE
8
BLACK
10
325.12
20
-175.419
40
0.875
0
CIRCLE
8
BLACK
10
332.899
20
-89.6937
40
0.875
0
CIRCLE
8
BLACK
10
332.899
20
-137.319
40
0.875
0
CIRCLE
8
BLACK
10
335.28
20
-175.419
40
0.875
0
CIRCLE
8
BLACK
10
337.026
20
-199.231
40
0.875
0
CIRCLE
8
BLACK
10
339.407
20
-156.369
40
0.875
0
CIRCLE
8
BLACK
10
341.789
20
-89.6937
40
0.875
0
CIRCLE
8
BLACK
10
341.789
20
-118.269
40
0.875
0
CIRCLE
8
BLACK
10
346.551
20
-137.319
40
0.875
0
CIRCLE
8
BLACK
10
347.186
20
-199.231
40
0.875
0
CIRCLE
8
BLACK
10
349.567
20
-156.369
40
0.875
0
CIRCLE
8
BLACK
10
351.949
20
-89.6937
40
0.875
0
CIRCLE
8
BLACK
10
351.949
20
-118.269
40
0.875
0
CIRCLE
8
BLACK
10
356.076
20
-180.181
40
0.875
0
CIRCLE
8
BLACK
10
356.076
20
-199.231
40
0.875
0
CIRCLE
8
BLACK
10
356.711
20
-137.319
40
0.875
0
CIRCLE
8
BLACK
10
366.236
20
-180.181
40
0.875
0
CIRCLE
8
BLACK
10
366.236
20
-199.231
40
0.875
0
CIRCLE
8
BLACK
10
375.126
20
-199.231
40
0.875
0
CIRCLE
8
BLACK
10
379.889
20
-156.369
40
0.875
0
CIRCLE
8
BLACK
10
379.889
20
-175.419
40
0.875
0
CIRCLE
8
BLACK
10
385.286
20
-199.231
40
0.875
0
CIRCLE
8
BLACK
10
390.049
20
-156.369
40
0.875
0
CIRCLE
8
BLACK
10
390.049
20
-175.419
40
0.875
0
LINE
8
BLACK
6
CONTINUOUS
10
89.662
20
-166.91
11
89.662
21
-169.958
0
LINE
8
BLACK
6
CONTINUOUS
10
88.138
20
-168.434
11
91.186
21
-168.434
0
LINE
8
BLACK
6
CONTINUOUS
10
113.538
20
-166.91
11
113.538
21
-169.958
0
LINE
8
BLACK
6
CONTINUOUS
10
112.014
20
-168.434
11
115.062
21
-168.434
0
LINE
8
BLACK
6
CONTINUOUS
10
161.138
20
-199.93
11
161.138
21
-202.978
0
LINE
8
BLACK
6
CONTINUOUS
10
159.614
20
-201.454
11
162.662
21
-201.454
0
LINE
8
BLACK
6
CONTINUOUS
10
261.137
20
-199.93
11
261.137
21
-202.978
0
LINE
8
BLACK
6
CONTINUOUS
10
259.613
20
-201.454
11
262.661
21
-201.454
0
LINE
8
BLACK
6
CONTINUOUS
10
332.549
20
-147.86
11
332.549
21
-150.908
0
LINE
8
BLACK
6
CONTINUOUS
10
331.025
20
-149.384
11
334.073
21
-149.384
0
LINE
8
BLACK
6
CONTINUOUS
10
334.931
20
-109.76
11
334.931
21
-112.808
0
LINE
8
BLACK
6
CONTINUOUS
10
333.407
20
-111.284
11
336.455
21
-111.284
0
LINE
8
BLACK
6
CONTINUOUS
10
356.425
20
-147.86
11
356.425
21
-150.908
0
LINE
8
BLACK
6
CONTINUOUS
10
354.901
20
-149.384
11
357.95
21
-149.384
0
LINE
8
BLACK
6
CONTINUOUS
10
358.807
20
-109.76
11
358.807
21
-112.808
0
LINE
8
BLACK
6
CONTINUOUS
10
357.283
20
-111.284
11
360.331
21
-111.284
0
LINE
8
BLACK
6
CONTINUOUS
10
105.123
20
-85.0574
11
105.123
21
-82.5826
0
LINE
8
BLACK
6
CONTINUOUS
10
105.123
20
-82.5826
11
102.649
21
-82.5826
0
LINE
8
BLACK
6
CONTINUOUS
10
102.649
20
-82.5826
11
102.649
21
-85.0574
0
LINE
8
BLACK
6
CONTINUOUS
10
102.649
20
-85.0574
11
105.123
21
-85.0574
0
LINE
8
BLACK
6
CONTINUOUS
10
181.577
20
-194.277
11
181.577
21
-191.803
0
LINE
8
BLACK
6
CONTINUOUS
10
181.577
20
-191.803
11
179.103
21
-191.803
0
LINE
8
BLACK
6
CONTINUOUS
10
179.103
20
-191.803
11
179.103
21
-194.277
0
LINE
8
BLACK
6
CONTINUOUS
10
179.103
20
-194.277
11
181.577
21
-194.277
0
LINE
8
BLACK
6
CONTINUOUS
10
190.772
20
-85.0574
11
190.772
21
-82.5826
0
LINE
8
BLACK
6
CONTINUOUS
10
190.772
20
-82.5826
11
188.297
21
-82.5826
0
LINE
8
BLACK
6
CONTINUOUS
10
188.297
20
-82.5826
11
188.297
21
-85.0574
0
LINE
8
BLACK
6
CONTINUOUS
10
188.297
20
-85.0574
11
190.772
21
-85.0574
0
LINE
8
BLACK
6
CONTINUOUS
10
328.643
20
-156.177
11
328.643
21
-153.703
0
LINE
8
BLACK
6
CONTINUOUS
10
328.643
20
-153.703
11
326.169
21
-153.703
0
LINE
8
BLACK
6
CONTINUOUS
10
326.169
20
-153.703
11
326.169
21
-156.177
0
LINE
8
BLACK
6
CONTINUOUS
10
326.169
20
-156.177
11
328.643
21
-156.177
0
LINE
8
BLACK
6
CONTINUOUS
10
399.001
20
-85.0574
11
399.001
21
-82.5826
0
LINE
8
BLACK
6
CONTINUOUS
10
399.001
20
-82.5826
11
396.527
21
-82.5826
0
LINE
8
BLACK
6
CONTINUOUS
10
396.527
20
-82.5826
11
396.527
21
-85.0574
0
LINE
8
BLACK
6
CONTINUOUS
10
396.527
20
-85.0574
11
399.001
21
-85.0574
0
LINE
8
BLACK
6
CONTINUOUS
10
89.662
20
-185.668
11
91.6559
21
-183.674
0
LINE
8
BLACK
6
CONTINUOUS
10
91.6559
20
-183.674
11
89.662
21
-181.68
0
LINE
8
BLACK
6
CONTINUOUS
10
89.662
20
-181.68
11
87.6681
21
-183.674
0
LINE
8
BLACK
6
CONTINUOUS
10
87.6681
20
-183.674
11
89.662
21
-185.668
0
LINE
8
BLACK
6
CONTINUOUS
10
89.6937
20
-91.6876
11
91.6876
21
-89.6937
0
LINE
8
BLACK
6
CONTINUOUS
10
91.6876
20
-89.6937
11
89.6937
21
-87.6998
0
LINE
8
BLACK
6
CONTINUOUS
10
89.6937
20
-87.6998
11
87.6998
21
-89.6937
0
LINE
8
BLACK
6
CONTINUOUS
10
87.6998
20
-89.6937
11
89.6937
21
-91.6876
0
LINE
8
BLACK
6
CONTINUOUS
10
89.6937
20
-120.263
11
91.6876
21
-118.269
0
LINE
8
BLACK
6
CONTINUOUS
10
91.6876
20
-118.269
11
89.6937
21
-116.275
0
LINE
8
BLACK
6
CONTINUOUS
10
89.6937
20
-116.275
11
87.6998
21
-118.269
0
LINE
8
BLACK
6
CONTINUOUS
10
87.6998
20
-118.269
11
89.6937
21
-120.263
0
LINE
8
BLACK
6
CONTINUOUS
10
92.075
20
-196.463
11
94.0689
21
-194.469
0
LINE
8
BLACK
6
CONTINUOUS
10
94.0689
20
-194.469
11
92.075
21
-192.475
0
LINE
8
BLACK
6
CONTINUOUS
10
92.075
20
-192.475
11
90.0811
21
-194.469
0
LINE
8
BLACK
6
CONTINUOUS
10
90.0811
20
-194.469
11
92.075
21
-196.463
0
LINE
8
BLACK
6
CONTINUOUS
10
94.4562
20
-139.313
11
96.4501
21
-137.319
0
LINE
8
BLACK
6
CONTINUOUS
10
96.4501
20
-137.319
11
94.4562
21
-135.325
0
LINE
8
BLACK
6
CONTINUOUS
10
94.4562
20
-135.325
11
92.4624
21
-137.319
0
LINE
8
BLACK
6
CONTINUOUS
10
92.4624
20
-137.319
11
94.4562
21
-139.313
0
LINE
8
BLACK
6
CONTINUOUS
10
96.8375
20
-158.363
11
98.8314
21
-156.369
0
LINE
8
BLACK
6
CONTINUOUS
10
98.8314
20
-156.369
11
96.8375
21
-154.375
0
LINE
8
BLACK
6
CONTINUOUS
10
96.8375
20
-154.375
11
94.8436
21
-156.369
0
LINE
8
BLACK
6
CONTINUOUS
10
94.8436
20
-156.369
11
96.8375
21
-158.363
0
LINE
8
BLACK
6
CONTINUOUS
10
101.6
20
-177.413
11
103.594
21
-175.419
0
LINE
8
BLACK
6
CONTINUOUS
10
103.594
20
-175.419
11
101.6
21
-173.425
0
LINE
8
BLACK
6
CONTINUOUS
10
101.6
20
-173.425
11
99.6061
21
-175.419
0
LINE
8
BLACK
6
CONTINUOUS
10
99.6061
20
-175.419
11
101.6
21
-177.413
0
LINE
8
BLACK
6
CONTINUOUS
10
108.744
20
-120.263
11
110.738
21
-118.269
0
LINE
8
BLACK
6
CONTINUOUS
10
110.738
20
-118.269
11
108.744
21
-116.275
0
LINE
8
BLACK
6
CONTINUOUS
10
108.744
20
-116.275
11
106.75
21
-118.269
0
LINE
8
BLACK
6
CONTINUOUS
10
106.75
20
-118.269
11
108.744
21
-120.263
0
LINE
8
BLACK
6
CONTINUOUS
10
113.538
20
-185.668
11
115.532
21
-183.674
0
LINE
8
BLACK
6
CONTINUOUS
10
115.532
20
-183.674
11
113.538
21
-181.68
0
LINE
8
BLACK
6
CONTINUOUS
10
113.538
20
-181.68
11
111.544
21
-183.674
0
LINE
8
BLACK
6
CONTINUOUS
10
111.544
20
-183.674
11
113.538
21
-185.668
0
LINE
8
BLACK
6
CONTINUOUS
10
115.887
20
-196.463
11
117.881
21
-194.469
0
LINE
8
BLACK
6
CONTINUOUS
10
117.881
20
-194.469
11
115.887
21
-192.475
0
LINE
8
BLACK
6
CONTINUOUS
10
115.887
20
-192.475
11
113.894
21
-194.469
0
LINE
8
BLACK
6
CONTINUOUS
10
113.894
20
-194.469
11
115.887
21
-196.463
0
LINE
8
BLACK
6
CONTINUOUS
10
118.269
20
-91.6876
11
120.263
21
-89.6937
0
LINE
8
BLACK
6
CONTINUOUS
10
120.263
20
-89.6937
11
118.269
21
-87.6998
0
LINE
8
BLACK
6
CONTINUOUS
10
118.269
20
-87.6998
11
116.275
21
-89.6937
0
LINE
8
BLACK
6
CONTINUOUS
10
116.275
20
-89.6937
11
118.269
21
-91.6876
0
LINE
8
BLACK
6
CONTINUOUS
10
118.269
20
-139.313
11
120.263
21
-137.319
0
LINE
8
BLACK
6
CONTINUOUS
10
120.263
20
-137.319
11
118.269
21
-135.325
0
LINE
8
BLACK
6
CONTINUOUS
10
118.269
20
-135.325
11
116.275
21
-137.319
0
LINE
8
BLACK
6
CONTINUOUS
10
116.275
20
-137.319
11
118.269
21
-139.313
0
LINE
8
BLACK
6
CONTINUOUS
10
123.031
20
-158.363
11
125.025
21
-156.369
0
LINE
8
BLACK
6
CONTINUOUS
10
125.025
20
-156.369
11
123.031
21
-154.375
0
LINE
8
BLACK
6
CONTINUOUS
10
123.031
20
-154.375
11
121.037
21
-156.369
0
LINE
8
BLACK
6
CONTINUOUS
10
121.037
20
-156.369
11
123.031
21
-158.363
0
LINE
8
BLACK
6
CONTINUOUS
10
127.794
20
-120.263
11
129.788
21
-118.269
0
LINE
8
BLACK
6
CONTINUOUS
10
129.788
20
-118.269
11
127.794
21
-116.275
0
LINE
8
BLACK
6
CONTINUOUS
10
127.794
20
-116.275
11
125.8
21
-118.269
0
LINE
8
BLACK
6
CONTINUOUS
10
125.8
20
-118.269
11
127.794
21
-120.263
0
LINE
8
BLACK
6
CONTINUOUS
10
132.556
20
-177.413
11
134.55
21
-175.419
0
LINE
8
BLACK
6
CONTINUOUS
10
134.55
20
-175.419
11
132.556
21
-173.425
0
LINE
8
BLACK
6
CONTINUOUS
10
132.556
20
-173.425
11
130.562
21
-175.419
0
LINE
8
BLACK
6
CONTINUOUS
10
130.562
20
-175.419
11
132.556
21
-177.413
0
LINE
8
BLACK
6
CONTINUOUS
10
137.319
20
-91.6876
11
139.313
21
-89.6937
0
LINE
8
BLACK
6
CONTINUOUS
10
139.313
20
-89.6937
11
137.319
21
-87.6998
0
LINE
8
BLACK
6
CONTINUOUS
10
137.319
20
-87.6998
11
135.325
21
-89.6937
0
LINE
8
BLACK
6
CONTINUOUS
10
135.325
20
-89.6937
11
137.319
21
-91.6876
0
LINE
8
BLACK
6
CONTINUOUS
10
137.319
20
-139.313
11
139.313
21
-137.319
0
LINE
8
BLACK
6
CONTINUOUS
10
139.313
20
-137.319
11
137.319
21
-135.325
0
LINE
8
BLACK
6
CONTINUOUS
10
137.319
20
-135.325
11
135.325
21
-137.319
0
LINE
8
BLACK
6
CONTINUOUS
10
135.325
20
-137.319
11
137.319
21
-139.313
0
LINE
8
BLACK
6
CONTINUOUS
10
139.7
20
-196.463
11
141.694
21
-194.469
0
LINE
8
BLACK
6
CONTINUOUS
10
141.694
20
-194.469
11
139.7
21
-192.475
0
LINE
8
BLACK
6
CONTINUOUS
10
139.7
20
-192.475
11
137.706
21
-194.469
0
LINE
8
BLACK
6
CONTINUOUS
10
137.706
20
-194.469
11
139.7
21
-196.463
0
LINE
8
BLACK
6
CONTINUOUS
10
142.081
20
-158.363
11
144.075
21
-156.369
0
LINE
8
BLACK
6
CONTINUOUS
10
144.075
20
-156.369
11
142.081
21
-154.375
0
LINE
8
BLACK
6
CONTINUOUS
10
142.081
20
-154.375
11
140.087
21
-156.369
0
LINE
8
BLACK
6
CONTINUOUS
10
140.087
20
-156.369
11
142.081
21
-158.363
0
LINE
8
BLACK
6
CONTINUOUS
10
146.844
20
-120.263
11
148.838
21
-118.269
0
LINE
8
BLACK
6
CONTINUOUS
10
148.838
20
-118.269
11
146.844
21
-116.275
0
LINE
8
BLACK
6
CONTINUOUS
10
146.844
20
-116.275
11
144.85
21
-118.269
0
LINE
8
BLACK
6
CONTINUOUS
10
144.85
20
-118.269
11
146.844
21
-120.263
0
LINE
8
BLACK
6
CONTINUOUS
10
151.606
20
-177.413
11
153.6
21
-175.419
0
LINE
8
BLACK
6
CONTINUOUS
10
153.6
20
-175.419
11
151.606
21
-173.425
0
LINE
8
BLACK
6
CONTINUOUS
10
151.606
20
-173.425
11
149.612
21
-175.419
0
LINE
8
BLACK
6
CONTINUOUS
10
149.612
20
-175.419
11
151.606
21
-177.413
0
LINE
8
BLACK
6
CONTINUOUS
10
156.369
20
-91.6876
11
158.363
21
-89.6937
0
LINE
8
BLACK
6
CONTINUOUS
10
158.363
20
-89.6937
11
156.369
21
-87.6998
0
LINE
8
BLACK
6
CONTINUOUS
10
156.369
20
-87.6998
11
154.375
21
-89.6937
0
LINE
8
BLACK
6
CONTINUOUS
10
154.375
20
-89.6937
11
156.369
21
-91.6876
0
LINE
8
BLACK
6
CONTINUOUS
10
156.369
20
-139.313
11
158.363
21
-137.319
0
LINE
8
BLACK
6
CONTINUOUS
10
158.363
20
-137.319
11
156.369
21
-135.325
0
LINE
8
BLACK
6
CONTINUOUS
10
156.369
20
-135.325
11
154.375
21
-137.319
0
LINE
8
BLACK
6
CONTINUOUS
10
154.375
20
-137.319
11
156.369
21
-139.313
0
LINE
8
BLACK
6
CONTINUOUS
10
161.131
20
-158.363
11
163.125
21
-156.369
0
LINE
8
BLACK
6
CONTINUOUS
10
163.125
20
-156.369
11
161.131
21
-154.375
0
LINE
8
BLACK
6
CONTINUOUS
10
161.131
20
-154.375
11
159.137
21
-156.369
0
LINE
8
BLACK
6
CONTINUOUS
10
159.137
20
-156.369
11
161.131
21
-158.363
0
LINE
8
BLACK
6
CONTINUOUS
10
161.138
20
-188.208
11
163.131
21
-186.214
0
LINE
8
BLACK
6
CONTINUOUS
10
163.131
20
-186.214
11
161.138
21
-184.22
0
LINE
8
BLACK
6
CONTINUOUS
10
161.138
20
-184.22
11
159.144
21
-186.214
0
LINE
8
BLACK
6
CONTINUOUS
10
159.144
20
-186.214
11
161.138
21
-188.208
0
LINE
8
BLACK
6
CONTINUOUS
10
165.894
20
-120.263
11
167.888
21
-118.269
0
LINE
8
BLACK
6
CONTINUOUS
10
167.888
20
-118.269
11
165.894
21
-116.275
0
LINE
8
BLACK
6
CONTINUOUS
10
165.894
20
-116.275
11
163.9
21
-118.269
0
LINE
8
BLACK
6
CONTINUOUS
10
163.9
20
-118.269
11
165.894
21
-120.263
0
LINE
8
BLACK
6
CONTINUOUS
10
170.656
20
-177.413
11
172.65
21
-175.419
0
LINE
8
BLACK
6
CONTINUOUS
10
172.65
20
-175.419
11
170.656
21
-173.425
0
LINE
8
BLACK
6
CONTINUOUS
10
170.656
20
-173.425
11
168.662
21
-175.419
0
LINE
8
BLACK
6
CONTINUOUS
10
168.662
20
-175.419
11
170.656
21
-177.413
0
LINE
8
BLACK
6
CONTINUOUS
10
175.419
20
-91.6876
11
177.413
21
-89.6937
0
LINE
8
BLACK
6
CONTINUOUS
10
177.413
20
-89.6937
11
175.419
21
-87.6998
0
LINE
8
BLACK
6
CONTINUOUS
10
175.419
20
-87.6998
11
173.425
21
-89.6937
0
LINE
8
BLACK
6
CONTINUOUS
10
173.425
20
-89.6937
11
175.419
21
-91.6876
0
LINE
8
BLACK
6
CONTINUOUS
10
175.419
20
-139.313
11
177.413
21
-137.319
0
LINE
8
BLACK
6
CONTINUOUS
10
177.413
20
-137.319
11
175.419
21
-135.325
0
LINE
8
BLACK
6
CONTINUOUS
10
175.419
20
-135.325
11
173.425
21
-137.319
0
LINE
8
BLACK
6
CONTINUOUS
10
173.425
20
-137.319
11
175.419
21
-139.313
0
LINE
8
BLACK
6
CONTINUOUS
10
180.181
20
-158.363
11
182.175
21
-156.369
0
LINE
8
BLACK
6
CONTINUOUS
10
182.175
20
-156.369
11
180.181
21
-154.375
0
LINE
8
BLACK
6
CONTINUOUS
10
180.181
20
-154.375
11
178.187
21
-156.369
0
LINE
8
BLACK
6
CONTINUOUS
10
178.187
20
-156.369
11
180.181
21
-158.363
0
LINE
8
BLACK
6
CONTINUOUS
10
184.944
20
-120.263
11
186.938
21
-118.269
0
LINE
8
BLACK
6
CONTINUOUS
10
186.938
20
-118.269
11
184.944
21
-116.275
0
LINE
8
BLACK
6
CONTINUOUS
10
184.944
20
-116.275
11
182.95
21
-118.269
0
LINE
8
BLACK
6
CONTINUOUS
10
182.95
20
-118.269
11
184.944
21
-120.263
0
LINE
8
BLACK
6
CONTINUOUS
10
189.706
20
-177.413
11
191.7
21
-175.419
0
LINE
8
BLACK
6
CONTINUOUS
10
191.7
20
-175.419
11
189.706
21
-173.425
0
LINE
8
BLACK
6
CONTINUOUS
10
189.706
20
-173.425
11
187.712
21
-175.419
0
LINE
8
BLACK
6
CONTINUOUS
10
187.712
20
-175.419
11
189.706
21
-177.413
0
LINE
8
BLACK
6
CONTINUOUS
10
194.469
20
-139.313
11
196.463
21
-137.319
0
LINE
8
BLACK
6
CONTINUOUS
10
196.463
20
-137.319
11
194.469
21
-135.325
0
LINE
8
BLACK
6
CONTINUOUS
10
194.469
20
-135.325
11
192.475
21
-137.319
0
LINE
8
BLACK
6
CONTINUOUS
10
192.475
20
-137.319
11
194.469
21
-139.313
0
LINE
8
BLACK
6
CONTINUOUS
10
199.231
20
-158.363
11
201.225
21
-156.369
0
LINE
8
BLACK
6
CONTINUOUS
10
201.225
20
-156.369
11
199.231
21
-154.375
0
LINE
8
BLACK
6
CONTINUOUS
10
199.231
20
-154.375
11
197.237
21
-156.369
0
LINE
8
BLACK
6
CONTINUOUS
10
197.237
20
-156.369
11
199.231
21
-158.363
0
LINE
8
BLACK
6
CONTINUOUS
10
203.994
20
-91.6876
11
205.988
21
-89.6937
0
LINE
8
BLACK
6
CONTINUOUS
10
205.988
20
-89.6937
11
203.994
21
-87.6998
0
LINE
8
BLACK
6
CONTINUOUS
10
203.994
20
-87.6998
11
202
21
-89.6937
0
LINE
8
BLACK
6
CONTINUOUS
10
202
20
-89.6937
11
203.994
21
-91.6876
0
LINE
8
BLACK
6
CONTINUOUS
10
203.994
20
-120.263
11
205.988
21
-118.269
0
LINE
8
BLACK
6
CONTINUOUS
10
205.988
20
-118.269
11
203.994
21
-116.275
0
LINE
8
BLACK
6
CONTINUOUS
10
203.994
20
-116.275
11
202
21
-118.269
0
LINE
8
BLACK
6
CONTINUOUS
10
202
20
-118.269
11
203.994
21
-120.263
0
LINE
8
BLACK
6
CONTINUOUS
10
208.756
20
-177.413
11
210.75
21
-175.419
0
LINE
8
BLACK
6
CONTINUOUS
10
210.75
20
-175.419
11
208.756
21
-173.425
0
LINE
8
BLACK
6
CONTINUOUS
10
208.756
20
-173.425
11
206.762
21
-175.419
0
LINE
8
BLACK
6
CONTINUOUS
10
206.762
20
-175.419
11
208.756
21
-177.413
0
LINE
8
BLACK
6
CONTINUOUS
10
211.137
20
-196.463
11
213.131
21
-194.469
0
LINE
8
BLACK
6
CONTINUOUS
10
213.131
20
-194.469
11
211.137
21
-192.475
0
LINE
8
BLACK
6
CONTINUOUS
10
211.137
20
-192.475
11
209.144
21
-194.469
0
LINE
8
BLACK
6
CONTINUOUS
10
209.144
20
-194.469
11
211.137
21
-196.463
0
LINE
8
BLACK
6
CONTINUOUS
10
213.519
20
-139.313
11
215.513
21
-137.319
0
LINE
8
BLACK
6
CONTINUOUS
10
215.513
20
-137.319
11
213.519
21
-135.325
0
LINE
8
BLACK
6
CONTINUOUS
10
213.519
20
-135.325
11
211.525
21
-137.319
0
LINE
8
BLACK
6
CONTINUOUS
10
211.525
20
-137.319
11
213.519
21
-139.313
0
LINE
8
BLACK
6
CONTINUOUS
10
218.281
20
-158.363
11
220.275
21
-156.369
0
LINE
8
BLACK
6
CONTINUOUS
10
220.275
20
-156.369
11
218.281
21
-154.375
0
LINE
8
BLACK
6
CONTINUOUS
10
218.281
20
-154.375
11
216.287
21
-156.369
0
LINE
8
BLACK
6
CONTINUOUS
10
216.287
20
-156.369
11
218.281
21
-158.363
0
LINE
8
BLACK
6
CONTINUOUS
10
223.044
20
-91.6876
11
225.038
21
-89.6937
0
LINE
8
BLACK
6
CONTINUOUS
10
225.038
20
-89.6937
11
223.044
21
-87.6998
0
LINE
8
BLACK
6
CONTINUOUS
10
223.044
20
-87.6998
11
221.05
21
-89.6937
0
LINE
8
BLACK
6
CONTINUOUS
10
221.05
20
-89.6937
11
223.044
21
-91.6876
0
LINE
8
BLACK
6
CONTINUOUS
10
223.044
20
-120.263
11
225.038
21
-118.269
0
LINE
8
BLACK
6
CONTINUOUS
10
225.038
20
-118.269
11
223.044
21
-116.275
0
LINE
8
BLACK
6
CONTINUOUS
10
223.044
20
-116.275
11
221.05
21
-118.269
0
LINE
8
BLACK
6
CONTINUOUS
10
221.05
20
-118.269
11
223.044
21
-120.263
0
LINE
8
BLACK
6
CONTINUOUS
10
227.806
20
-177.413
11
229.8
21
-175.419
0
LINE
8
BLACK
6
CONTINUOUS
10
229.8
20
-175.419
11
227.806
21
-173.425
0
LINE
8
BLACK
6
CONTINUOUS
10
227.806
20
-173.425
11
225.812
21
-175.419
0
LINE
8
BLACK
6
CONTINUOUS
10
225.812
20
-175.419
11
227.806
21
-177.413
0
LINE
8
BLACK
6
CONTINUOUS
10
232.569
20
-139.313
11
234.563
21
-137.319
0
LINE
8
BLACK
6
CONTINUOUS
10
234.563
20
-137.319
11
232.569
21
-135.325
0
LINE
8
BLACK
6
CONTINUOUS
10
232.569
20
-135.325
11
230.575
21
-137.319
0
LINE
8
BLACK
6
CONTINUOUS
10
230.575
20
-137.319
11
232.569
21
-139.313
0
LINE
8
BLACK
6
CONTINUOUS
10
237.331
20
-158.363
11
239.325
21
-156.369
0
LINE
8
BLACK
6
CONTINUOUS
10
239.325
20
-156.369
11
237.331
21
-154.375
0
LINE
8
BLACK
6
CONTINUOUS
10
237.331
20
-154.375
11
235.337
21
-156.369
0
LINE
8
BLACK
6
CONTINUOUS
10
235.337
20
-156.369
11
237.331
21
-158.363
0
LINE
8
BLACK
6
CONTINUOUS
10
242.094
20
-91.6876
11
244.088
21
-89.6937
0
LINE
8
BLACK
6
CONTINUOUS
10
244.088
20
-89.6937
11
242.094
21
-87.6998
0
LINE
8
BLACK
6
CONTINUOUS
10
242.094
20
-87.6998
11
240.1
21
-89.6937
0
LINE
8
BLACK
6
CONTINUOUS
10
240.1
20
-89.6937
11
242.094
21
-91.6876
0
LINE
8
BLACK
6
CONTINUOUS
10
242.094
20
-120.263
11
244.088
21
-118.269
0
LINE
8
BLACK
6
CONTINUOUS
10
244.088
20
-118.269
11
242.094
21
-116.275
0
LINE
8
BLACK
6
CONTINUOUS
10
242.094
20
-116.275
11
240.1
21
-118.269
0
LINE
8
BLACK
6
CONTINUOUS
10
240.1
20
-118.269
11
242.094
21
-120.263
0
LINE
8
BLACK
6
CONTINUOUS
10
246.856
20
-177.413
11
248.85
21
-175.419
0
LINE
8
BLACK
6
CONTINUOUS
10
248.85
20
-175.419
11
246.856
21
-173.425
0
LINE
8
BLACK
6
CONTINUOUS
10
246.856
20
-173.425
11
244.862
21
-175.419
0
LINE
8
BLACK
6
CONTINUOUS
10
244.862
20
-175.419
11
246.856
21
-177.413
0
LINE
8
BLACK
6
CONTINUOUS
10
251.619
20
-139.313
11
253.613
21
-137.319
0
LINE
8
BLACK
6
CONTINUOUS
10
253.613
20
-137.319
11
251.619
21
-135.325
0
LINE
8
BLACK
6
CONTINUOUS
10
251.619
20
-135.325
11
249.625
21
-137.319
0
LINE
8
BLACK
6
CONTINUOUS
10
249.625
20
-137.319
11
251.619
21
-139.313
0
LINE
8
BLACK
6
CONTINUOUS
10
256.381
20
-158.363
11
258.375
21
-156.369
0
LINE
8
BLACK
6
CONTINUOUS
10
258.375
20
-156.369
11
256.381
21
-154.375
0
LINE
8
BLACK
6
CONTINUOUS
10
256.381
20
-154.375
11
254.387
21
-156.369
0
LINE
8
BLACK
6
CONTINUOUS
10
254.387
20
-156.369
11
256.381
21
-158.363
0
LINE
8
BLACK
6
CONTINUOUS
10
261.137
20
-188.208
11
263.131
21
-186.214
0
LINE
8
BLACK
6
CONTINUOUS
10
263.131
20
-186.214
11
261.137
21
-184.22
0
LINE
8
BLACK
6
CONTINUOUS
10
261.137
20
-184.22
11
259.143
21
-186.214
0
LINE
8
BLACK
6
CONTINUOUS
10
259.143
20
-186.214
11
261.137
21
-188.208
0
LINE
8
BLACK
6
CONTINUOUS
10
261.144
20
-91.6876
11
263.138
21
-89.6937
0
LINE
8
BLACK
6
CONTINUOUS
10
263.138
20
-89.6937
11
261.144
21
-87.6998
0
LINE
8
BLACK
6
CONTINUOUS
10
261.144
20
-87.6998
11
259.15
21
-89.6937
0
LINE
8
BLACK
6
CONTINUOUS
10
259.15
20
-89.6937
11
261.144
21
-91.6876
0
LINE
8
BLACK
6
CONTINUOUS
10
261.144
20
-120.263
11
263.138
21
-118.269
0
LINE
8
BLACK
6
CONTINUOUS
10
263.138
20
-118.269
11
261.144
21
-116.275
0
LINE
8
BLACK
6
CONTINUOUS
10
261.144
20
-116.275
11
259.15
21
-118.269
0
LINE
8
BLACK
6
CONTINUOUS
10
259.15
20
-118.269
11
261.144
21
-120.263
0
LINE
8
BLACK
6
CONTINUOUS
10
265.906
20
-177.413
11
267.9
21
-175.419
0
LINE
8
BLACK
6
CONTINUOUS
10
267.9
20
-175.419
11
265.906
21
-173.425
0
LINE
8
BLACK
6
CONTINUOUS
10
265.906
20
-173.425
11
263.912
21
-175.419
0
LINE
8
BLACK
6
CONTINUOUS
10
263.912
20
-175.419
11
265.906
21
-177.413
0
LINE
8
BLACK
6
CONTINUOUS
10
270.669
20
-139.313
11
272.663
21
-137.319
0
LINE
8
BLACK
6
CONTINUOUS
10
272.663
20
-137.319
11
270.669
21
-135.325
0
LINE
8
BLACK
6
CONTINUOUS
10
270.669
20
-135.325
11
268.675
21
-137.319
0
LINE
8
BLACK
6
CONTINUOUS
10
268.675
20
-137.319
11
270.669
21
-139.313
0
LINE
8
BLACK
6
CONTINUOUS
10
275.431
20
-158.363
11
277.425
21
-156.369
0
LINE
8
BLACK
6
CONTINUOUS
10
277.425
20
-156.369
11
275.431
21
-154.375
0
LINE
8
BLACK
6
CONTINUOUS
10
275.431
20
-154.375
11
273.437
21
-156.369
0
LINE
8
BLACK
6
CONTINUOUS
10
273.437
20
-156.369
11
275.431
21
-158.363
0
LINE
8
BLACK
6
CONTINUOUS
10
280.194
20
-120.263
11
282.188
21
-118.269
0
LINE
8
BLACK
6
CONTINUOUS
10
282.188
20
-118.269
11
280.194
21
-116.275
0
LINE
8
BLACK
6
CONTINUOUS
10
280.194
20
-116.275
11
278.2
21
-118.269
0
LINE
8
BLACK
6
CONTINUOUS
10
278.2
20
-118.269
11
280.194
21
-120.263
0
LINE
8
BLACK
6
CONTINUOUS
10
280.194
20
-196.463
11
282.188
21
-194.469
0
LINE
8
BLACK
6
CONTINUOUS
10
282.188
20
-194.469
11
280.194
21
-192.475
0
LINE
8
BLACK
6
CONTINUOUS
10
280.194
20
-192.475
11
278.2
21
-194.469
0
LINE
8
BLACK
6
CONTINUOUS
10
278.2
20
-194.469
11
280.194
21
-196.463
0
LINE
8
BLACK
6
CONTINUOUS
10
284.956
20
-177.413
11
286.95
21
-175.419
0
LINE
8
BLACK
6
CONTINUOUS
10
286.95
20
-175.419
11
284.956
21
-173.425
0
LINE
8
BLACK
6
CONTINUOUS
10
284.956
20
-173.425
11
282.962
21
-175.419
0
LINE
8
BLACK
6
CONTINUOUS
10
282.962
20
-175.419
11
284.956
21
-177.413
0
LINE
8
BLACK
6
CONTINUOUS
10
289.719
20
-91.6876
11
291.713
21
-89.6937
0
LINE
8
BLACK
6
CONTINUOUS
10
291.713
20
-89.6937
11
289.719
21
-87.6998
0
LINE
8
BLACK
6
CONTINUOUS
10
289.719
20
-87.6998
11
287.725
21
-89.6937
0
LINE
8
BLACK
6
CONTINUOUS
10
287.725
20
-89.6937
11
289.719
21
-91.6876
0
LINE
8
BLACK
6
CONTINUOUS
10
289.719
20
-139.313
11
291.713
21
-137.319
0
LINE
8
BLACK
6
CONTINUOUS
10
291.713
20
-137.319
11
289.719
21
-135.325
0
LINE
8
BLACK
6
CONTINUOUS
10
289.719
20
-135.325
11
287.725
21
-137.319
0
LINE
8
BLACK
6
CONTINUOUS
10
287.725
20
-137.319
11
289.719
21
-139.313
0
LINE
8
BLACK
6
CONTINUOUS
10
294.481
20
-158.363
11
296.475
21
-156.369
0
LINE
8
BLACK
6
CONTINUOUS
10
296.475
20
-156.369
11
294.481
21
-154.375
0
LINE
8
BLACK
6
CONTINUOUS
10
294.481
20
-154.375
11
292.487
21
-156.369
0
LINE
8
BLACK
6
CONTINUOUS
10
292.487
20
-156.369
11
294.481
21
-158.363
0
LINE
8
BLACK
6
CONTINUOUS
10
299.244
20
-120.263
11
301.238
21
-118.269
0
LINE
8
BLACK
6
CONTINUOUS
10
301.238
20
-118.269
11
299.244
21
-116.275
0
LINE
8
BLACK
6
CONTINUOUS
10
299.244
20
-116.275
11
297.25
21
-118.269
0
LINE
8
BLACK
6
CONTINUOUS
10
297.25
20
-118.269
11
299.244
21
-120.263
0
LINE
8
BLACK
6
CONTINUOUS
10
299.244
20
-196.463
11
301.238
21
-194.469
0
LINE
8
BLACK
6
CONTINUOUS
10
301.238
20
-194.469
11
299.244
21
-192.475
0
LINE
8
BLACK
6
CONTINUOUS
10
299.244
20
-192.475
11
297.25
21
-194.469
0
LINE
8
BLACK
6
CONTINUOUS
10
297.25
20
-194.469
11
299.244
21
-196.463
0
LINE
8
BLACK
6
CONTINUOUS
10
304.006
20
-177.413
11
306
21
-175.419
0
LINE
8
BLACK
6
CONTINUOUS
10
306
20
-175.419
11
304.006
21
-173.425
0
LINE
8
BLACK
6
CONTINUOUS
10
304.006
20
-173.425
11
302.012
21
-175.419
0
LINE
8
BLACK
6
CONTINUOUS
10
302.012
20
-175.419
11
304.006
21
-177.413
0
LINE
8
BLACK
6
CONTINUOUS
10
308.769
20
-91.6876
11
310.763
21
-89.6937
0
LINE
8
BLACK
6
CONTINUOUS
10
310.763
20
-89.6937
11
308.769
21
-87.6998
0
LINE
8
BLACK
6
CONTINUOUS
10
308.769
20
-87.6998
11
306.775
21
-89.6937
0
LINE
8
BLACK
6
CONTINUOUS
10
306.775
20
-89.6937
11
308.769
21
-91.6876
0
LINE
8
BLACK
6
CONTINUOUS
10
308.769
20
-139.313
11
310.763
21
-137.319
0
LINE
8
BLACK
6
CONTINUOUS
10
310.763
20
-137.319
11
308.769
21
-135.325
0
LINE
8
BLACK
6
CONTINUOUS
10
308.769
20
-135.325
11
306.775
21
-137.319
0
LINE
8
BLACK
6
CONTINUOUS
10
306.775
20
-137.319
11
308.769
21
-139.313
0
LINE
8
BLACK
6
CONTINUOUS
10
313.531
20
-158.363
11
315.525
21
-156.369
0
LINE
8
BLACK
6
CONTINUOUS
10
315.525
20
-156.369
11
313.531
21
-154.375
0
LINE
8
BLACK
6
CONTINUOUS
10
313.531
20
-154.375
11
311.537
21
-156.369
0
LINE
8
BLACK
6
CONTINUOUS
10
311.537
20
-156.369
11
313.531
21
-158.363
0
LINE
8
BLACK
6
CONTINUOUS
10
318.294
20
-120.263
11
320.288
21
-118.269
0
LINE
8
BLACK
6
CONTINUOUS
10
320.288
20
-118.269
11
318.294
21
-116.275
0
LINE
8
BLACK
6
CONTINUOUS
10
318.294
20
-116.275
11
316.3
21
-118.269
0
LINE
8
BLACK
6
CONTINUOUS
10
316.3
20
-118.269
11
318.294
21
-120.263
0
LINE
8
BLACK
6
CONTINUOUS
10
318.294
20
-196.463
11
320.288
21
-194.469
0
LINE
8
BLACK
6
CONTINUOUS
10
320.288
20
-194.469
11
318.294
21
-192.475
0
LINE
8
BLACK
6
CONTINUOUS
10
318.294
20
-192.475
11
316.3
21
-194.469
0
LINE
8
BLACK
6
CONTINUOUS
10
316.3
20
-194.469
11
318.294
21
-196.463
0
LINE
8
BLACK
6
CONTINUOUS
10
327.819
20
-91.6876
11
329.813
21
-89.6937
0
LINE
8
BLACK
6
CONTINUOUS
10
329.813
20
-89.6937
11
327.819
21
-87.6998
0
LINE
8
BLACK
6
CONTINUOUS
10
327.819
20
-87.6998
11
325.825
21
-89.6937
0
LINE
8
BLACK
6
CONTINUOUS
10
325.825
20
-89.6937
11
327.819
21
-91.6876
0
LINE
8
BLACK
6
CONTINUOUS
10
327.819
20
-139.313
11
329.813
21
-137.319
0
LINE
8
BLACK
6
CONTINUOUS
10
329.813
20
-137.319
11
327.819
21
-135.325
0
LINE
8
BLACK
6
CONTINUOUS
10
327.819
20
-135.325
11
325.825
21
-137.319
0
LINE
8
BLACK
6
CONTINUOUS
10
325.825
20
-137.319
11
327.819
21
-139.313
0
LINE
8
BLACK
6
CONTINUOUS
10
330.2
20
-177.413
11
332.194
21
-175.419
0
LINE
8
BLACK
6
CONTINUOUS
10
332.194
20
-175.419
11
330.2
21
-173.425
0
LINE
8
BLACK
6
CONTINUOUS
10
330.2
20
-173.425
11
328.206
21
-175.419
0
LINE
8
BLACK
6
CONTINUOUS
10
328.206
20
-175.419
11
330.2
21
-177.413
0
LINE
8
BLACK
6
CONTINUOUS
10
332.549
20
-166.618
11
334.543
21
-164.624
0
LINE
8
BLACK
6
CONTINUOUS
10
334.543
20
-164.624
11
332.549
21
-162.63
0
LINE
8
BLACK
6
CONTINUOUS
10
332.549
20
-162.63
11
330.556
21
-164.624
0
LINE
8
BLACK
6
CONTINUOUS
10
330.556
20
-164.624
11
332.549
21
-166.618
0
LINE
8
BLACK
6
CONTINUOUS
10
334.931
20
-128.518
11
336.925
21
-126.524
0
LINE
8
BLACK
6
CONTINUOUS
10
336.925
20
-126.524
11
334.931
21
-124.53
0
LINE
8
BLACK
6
CONTINUOUS
10
334.931
20
-124.53
11
332.937
21
-126.524
0
LINE
8
BLACK
6
CONTINUOUS
10
332.937
20
-126.524
11
334.931
21
-128.518
0
LINE
8
BLACK
6
CONTINUOUS
10
342.106
20
-201.225
11
344.1
21
-199.231
0
LINE
8
BLACK
6
CONTINUOUS
10
344.1
20
-199.231
11
342.106
21
-197.237
0
LINE
8
BLACK
6
CONTINUOUS
10
342.106
20
-197.237
11
340.112
21
-199.231
0
LINE
8
BLACK
6
CONTINUOUS
10
340.112
20
-199.231
11
342.106
21
-201.225
0
LINE
8
BLACK
6
CONTINUOUS
10
344.488
20
-158.363
11
346.481
21
-156.369
0
LINE
8
BLACK
6
CONTINUOUS
10
346.481
20
-156.369
11
344.488
21
-154.375
0
LINE
8
BLACK
6
CONTINUOUS
10
344.488
20
-154.375
11
342.494
21
-156.369
0
LINE
8
BLACK
6
CONTINUOUS
10
342.494
20
-156.369
11
344.488
21
-158.363
0
LINE
8
BLACK
6
CONTINUOUS
10
346.869
20
-91.6876
11
348.863
21
-89.6937
0
LINE
8
BLACK
6
CONTINUOUS
10
348.863
20
-89.6937
11
346.869
21
-87.6998
0
LINE
8
BLACK
6
CONTINUOUS
10
346.869
20
-87.6998
11
344.875
21
-89.6937
0
LINE
8
BLACK
6
CONTINUOUS
10
344.875
20
-89.6937
11
346.869
21
-91.6876
0
LINE
8
BLACK
6
CONTINUOUS
10
346.869
20
-120.263
11
348.863
21
-118.269
0
LINE
8
BLACK
6
CONTINUOUS
10
348.863
20
-118.269
11
346.869
21
-116.275
0
LINE
8
BLACK
6
CONTINUOUS
10
346.869
20
-116.275
11
344.875
21
-118.269
0
LINE
8
BLACK
6
CONTINUOUS
10
344.875
20
-118.269
11
346.869
21
-120.263
0
LINE
8
BLACK
6
CONTINUOUS
10
351.631
20
-139.313
11
353.625
21
-137.319
0
LINE
8
BLACK
6
CONTINUOUS
10
353.625
20
-137.319
11
351.631
21
-135.325
0
LINE
8
BLACK
6
CONTINUOUS
10
351.631
20
-135.325
11
349.637
21
-137.319
0
LINE
8
BLACK
6
CONTINUOUS
10
349.637
20
-137.319
11
351.631
21
-139.313
0
LINE
8
BLACK
6
CONTINUOUS
10
356.425
20
-166.618
11
358.419
21
-164.624
0
LINE
8
BLACK
6
CONTINUOUS
10
358.419
20
-164.624
11
356.425
21
-162.63
0
LINE
8
BLACK
6
CONTINUOUS
10
356.425
20
-162.63
11
354.432
21
-164.624
0
LINE
8
BLACK
6
CONTINUOUS
10
354.432
20
-164.624
11
356.425
21
-166.618
0
LINE
8
BLACK
6
CONTINUOUS
10
358.807
20
-128.518
11
360.801
21
-126.524
0
LINE
8
BLACK
6
CONTINUOUS
10
360.801
20
-126.524
11
358.807
21
-124.53
0
LINE
8
BLACK
6
CONTINUOUS
10
358.807
20
-124.53
11
356.813
21
-126.524
0
LINE
8
BLACK
6
CONTINUOUS
10
356.813
20
-126.524
11
358.807
21
-128.518
0
LINE
8
BLACK
6
CONTINUOUS
10
361.156
20
-182.175
11
363.15
21
-180.181
0
LINE
8
BLACK
6
CONTINUOUS
10
363.15
20
-180.181
11
361.156
21
-178.187
0
LINE
8
BLACK
6
CONTINUOUS
10
361.156
20
-178.187
11
359.162
21
-180.181
0
LINE
8
BLACK
6
CONTINUOUS
10
359.162
20
-180.181
11
361.156
21
-182.175
0
LINE
8
BLACK
6
CONTINUOUS
10
361.156
20
-201.225
11
363.15
21
-199.231
0
LINE
8
BLACK
6
CONTINUOUS
10
363.15
20
-199.231
11
361.156
21
-197.237
0
LINE
8
BLACK
6
CONTINUOUS
10
361.156
20
-197.237
11
359.162
21
-199.231
0
LINE
8
BLACK
6
CONTINUOUS
10
359.162
20
-199.231
11
361.156
21
-201.225
0
LINE
8
BLACK
6
CONTINUOUS
10
380.206
20
-201.225
11
382.2
21
-199.231
0
LINE
8
BLACK
6
CONTINUOUS
10
382.2
20
-199.231
11
380.206
21
-197.237
0
LINE
8
BLACK
6
CONTINUOUS
10
380.206
20
-197.237
11
378.212
21
-199.231
0
LINE
8
BLACK
6
CONTINUOUS
10
378.212
20
-199.231
11
380.206
21
-201.225
0
LINE
8
BLACK
6
CONTINUOUS
10
384.969
20
-158.363
11
386.963
21
-156.369
0
LINE
8
BLACK
6
CONTINUOUS
10
386.963
20
-156.369
11
384.969
21
-154.375
0
LINE
8
BLACK
6
CONTINUOUS
10
384.969
20
-154.375
11
382.975
21
-156.369
0
LINE
8
BLACK
6
CONTINUOUS
10
382.975
20
-156.369
11
384.969
21
-158.363
0
LINE
8
BLACK
6
CONTINUOUS
10
384.969
20
-177.413
11
386.963
21
-175.419
0
LINE
8
BLACK
6
CONTINUOUS
10
386.963
20
-175.419
11
384.969
21
-173.425
0
LINE
8
BLACK
6
CONTINUOUS
10
384.969
20
-173.425
11
382.975
21
-175.419
0
LINE
8
BLACK
6
CONTINUOUS
10
382.975
20
-175.419
11
384.969
21
-177.413
0
LINE
8
BLACK
6
CONTINUOUS
10
80.3093
20
-219.312
11
80.3093
21
-216.312
0
LINE
8
BLACK
6
CONTINUOUS
10
80.3093
20
-216.312
11
81.0236
21
-216.312
0
LINE
8
BLACK
6
CONTINUOUS
10
81.0236
20
-216.312
11
81.4521
21
-216.455
0
LINE
8
BLACK
6
CONTINUOUS
10
81.4521
20
-216.455
11
81.7379
21
-216.741
0
LINE
8
BLACK
6
CONTINUOUS
10
81.7379
20
-216.741
11
81.8807
21
-217.026
0
LINE
8
BLACK
6
CONTINUOUS
10
81.8807
20
-217.026
11
82.0236
21
-217.598
0
LINE
8
BLACK
6
CONTINUOUS
10
82.0236
20
-217.598
11
82.0236
21
-218.026
0
LINE
8
BLACK
6
CONTINUOUS
10
82.0236
20
-218.026
11
81.8807
21
-218.598
0
LINE
8
BLACK
6
CONTINUOUS
10
81.8807
20
-218.598
11
81.7379
21
-218.884
0
LINE
8
BLACK
6
CONTINUOUS
10
81.7379
20
-218.884
11
81.4521
21
-219.169
0
LINE
8
BLACK
6
CONTINUOUS
10
81.4521
20
-219.169
11
81.0236
21
-219.312
0
LINE
8
BLACK
6
CONTINUOUS
10
81.0236
20
-219.312
11
80.3093
21
-219.312
0
LINE
8
BLACK
6
CONTINUOUS
10
83.3093
20
-219.312
11
83.3093
21
-217.312
0
LINE
8
BLACK
6
CONTINUOUS
10
83.3093
20
-217.884
11
83.4521
21
-217.598
0
LINE
8
BLACK
6
CONTINUOUS
10
83.4521
20
-217.598
11
83.595
21
-217.455
0
LINE
8
BLACK
6
CONTINUOUS
10
83.595
20
-217.455
11
83.8807
21
-217.312
0
LINE
8
BLACK
6
CONTINUOUS
10
83.8807
20
-217.312
11
84.1664
21
-217.312
0
LINE
8
BLACK
6
CONTINUOUS
10
85.1664
20
-219.312
11
85.1664
21
-217.312
0
LINE
8
BLACK
6
CONTINUOUS
10
85.1664
20
-216.312
11
85.0236
21
-216.455
0
LINE
8
BLACK
6
CONTINUOUS
10
85.0236
20
-216.455
11
85.1664
21
-216.598
0
LINE
8
BLACK
6
CONTINUOUS
10
85.1664
20
-216.598
11
85.3093
21
-216.455
0
LINE
8
BLACK
6
CONTINUOUS
10
85.3093
20
-216.455
11
85.1664
21
-216.312
0
LINE
8
BLACK
6
CONTINUOUS
10
85.1664
20
-216.312
11
85.1664
21
-216.598
0
LINE
8
BLACK
6
CONTINUOUS
10
87.0236
20
-219.312
11
86.7379
21
-219.169
0
LINE
8
BLACK
6
CONTINUOUS
10
86.7379
20
-219.169
11
86.595
21
-218.884
0
LINE
8
BLACK
6
CONTINUOUS
10
86.595
20
-218.884
11
86.595
21
-216.312
0
LINE
8
BLACK
6
CONTINUOUS
10
88.595
20
-219.312
11
88.3093
21
-219.169
0
LINE
8
BLACK
6
CONTINUOUS
10
88.3093
20
-219.169
11
88.1664
21
-218.884
0
LINE
8
BLACK
6
CONTINUOUS
10
88.1664
20
-218.884
11
88.1664
21
-216.312
0
LINE
8
BLACK
6
CONTINUOUS
10
92.0236
20
-219.312
11
92.0236
21
-216.312
0
LINE
8
BLACK
6
CONTINUOUS
10
92.0236
20
-216.312
11
93.0236
21
-218.455
0
LINE
8
BLACK
6
CONTINUOUS
10
93.0236
20
-218.455
11
94.0236
21
-216.312
0
LINE
8
BLACK
6
CONTINUOUS
10
94.0236
20
-216.312
11
94.0236
21
-219.312
0
LINE
8
BLACK
6
CONTINUOUS
10
96.7379
20
-219.312
11
96.7379
21
-217.741
0
LINE
8
BLACK
6
CONTINUOUS
10
96.7379
20
-217.741
11
96.595
21
-217.455
0
LINE
8
BLACK
6
CONTINUOUS
10
96.595
20
-217.455
11
96.3093
21
-217.312
0
LINE
8
BLACK
6
CONTINUOUS
10
96.3093
20
-217.312
11
95.7379
21
-217.312
0
LINE
8
BLACK
6
CONTINUOUS
10
95.7379
20
-217.312
11
95.4521
21
-217.455
0
LINE
8
BLACK
6
CONTINUOUS
10
96.7379
20
-219.169
11
96.4521
21
-219.312
0
LINE
8
BLACK
6
CONTINUOUS
10
96.4521
20
-219.312
11
95.7379
21
-219.312
0
LINE
8
BLACK
6
CONTINUOUS
10
95.7379
20
-219.312
11
95.4521
21
-219.169
0
LINE
8
BLACK
6
CONTINUOUS
10
95.4521
20
-219.169
11
95.3093
21
-218.884
0
LINE
8
BLACK
6
CONTINUOUS
10
95.3093
20
-218.884
11
95.3093
21
-218.598
0
LINE
8
BLACK
6
CONTINUOUS
10
95.3093
20
-218.598
11
95.4521
21
-218.312
0
LINE
8
BLACK
6
CONTINUOUS
10
95.4521
20
-218.312
11
95.7379
21
-218.169
0
LINE
8
BLACK
6
CONTINUOUS
10
95.7379
20
-218.169
11
96.4521
21
-218.169
0
LINE
8
BLACK
6
CONTINUOUS
10
96.4521
20
-218.169
11
96.7379
21
-218.026
0
LINE
8
BLACK
6
CONTINUOUS
10
98.1664
20
-217.312
11
98.1664
21
-220.312
0
LINE
8
BLACK
6
CONTINUOUS
10
98.1664
20
-217.455
11
98.4521
21
-217.312
0
LINE
8
BLACK
6
CONTINUOUS
10
98.4521
20
-217.312
11
99.0236
21
-217.312
0
LINE
8
BLACK
6
CONTINUOUS
10
99.0236
20
-217.312
11
99.3093
21
-217.455
0
LINE
8
BLACK
6
CONTINUOUS
10
99.3093
20
-217.455
11
99.4521
21
-217.598
0
LINE
8
BLACK
6
CONTINUOUS
10
99.4521
20
-217.598
11
99.595
21
-217.884
0
LINE
8
BLACK
6
CONTINUOUS
10
99.595
20
-217.884
11
99.595
21
-218.741
0
LINE
8
BLACK
6
CONTINUOUS
10
99.595
20
-218.741
11
99.4521
21
-219.026
0
LINE
8
BLACK
6
CONTINUOUS
10
99.4521
20
-219.026
11
99.3093
21
-219.169
0
LINE
8
BLACK
6
CONTINUOUS
10
99.3093
20
-219.169
11
99.0236
21
-219.312
0
LINE
8
BLACK
6
CONTINUOUS
10
99.0236
20
-219.312
11
98.4521
21
-219.312
0
LINE
8
BLACK
6
CONTINUOUS
10
98.4521
20
-219.312
11
98.1664
21
-219.169
0
LINE
8
BLACK
6
CONTINUOUS
10
100.881
20
-219.026
11
101.024
21
-219.169
0
LINE
8
BLACK
6
CONTINUOUS
10
101.024
20
-219.169
11
100.881
21
-219.312
0
LINE
8
BLACK
6
CONTINUOUS
10
100.881
20
-219.312
11
100.738
21
-219.169
0
LINE
8
BLACK
6
CONTINUOUS
10
100.738
20
-219.169
11
100.881
21
-219.026
0
LINE
8
BLACK
6
CONTINUOUS
10
100.881
20
-219.026
11
100.881
21
-219.312
0
LINE
8
BLACK
6
CONTINUOUS
10
100.881
20
-217.455
11
101.024
21
-217.598
0
LINE
8
BLACK
6
CONTINUOUS
10
101.024
20
-217.598
11
100.881
21
-217.741
0
LINE
8
BLACK
6
CONTINUOUS
10
100.881
20
-217.741
11
100.738
21
-217.598
0
LINE
8
BLACK
6
CONTINUOUS
10
100.738
20
-217.598
11
100.881
21
-217.455
0
LINE
8
BLACK
6
CONTINUOUS
10
100.881
20
-217.455
11
100.881
21
-217.741
0
LINE
8
BLACK
6
CONTINUOUS
10
76.795
20
-223.93
11
77.445
21
-224.58
0
LINE
8
BLACK
6
CONTINUOUS
10
77.445
20
-223.93
11
76.795
21
-224.58
0
LINE
8
BLACK
6
CONTINUOUS
10
80.8807
20
-222.612
11
81.1664
21
-222.612
0
LINE
8
BLACK
6
CONTINUOUS
10
81.1664
20
-222.612
11
81.4521
21
-222.755
0
LINE
8
BLACK
6
CONTINUOUS
10
81.4521
20
-222.755
11
81.595
21
-222.898
0
LINE
8
BLACK
6
CONTINUOUS
10
81.595
20
-222.898
11
81.7379
21
-223.184
0
LINE
8
BLACK
6
CONTINUOUS
10
81.7379
20
-223.184
11
81.8807
21
-223.755
0
LINE
8
BLACK
6
CONTINUOUS
10
81.8807
20
-223.755
11
81.8807
21
-224.469
0
LINE
8
BLACK
6
CONTINUOUS
10
81.8807
20
-224.469
11
81.7379
21
-225.041
0
LINE
8
BLACK
6
CONTINUOUS
10
81.7379
20
-225.041
11
81.595
21
-225.326
0
LINE
8
BLACK
6
CONTINUOUS
10
81.595
20
-225.326
11
81.4521
21
-225.469
0
LINE
8
BLACK
6
CONTINUOUS
10
81.4521
20
-225.469
11
81.1664
21
-225.612
0
LINE
8
BLACK
6
CONTINUOUS
10
81.1664
20
-225.612
11
80.8807
21
-225.612
0
LINE
8
BLACK
6
CONTINUOUS
10
80.8807
20
-225.612
11
80.595
21
-225.469
0
LINE
8
BLACK
6
CONTINUOUS
10
80.595
20
-225.469
11
80.4521
21
-225.326
0
LINE
8
BLACK
6
CONTINUOUS
10
80.4521
20
-225.326
11
80.3093
21
-225.041
0
LINE
8
BLACK
6
CONTINUOUS
10
80.3093
20
-225.041
11
80.1664
21
-224.469
0
LINE
8
BLACK
6
CONTINUOUS
10
80.1664
20
-224.469
11
80.1664
21
-223.755
0
LINE
8
BLACK
6
CONTINUOUS
10
80.1664
20
-223.755
11
80.3093
21
-223.184
0
LINE
8
BLACK
6
CONTINUOUS
10
80.3093
20
-223.184
11
80.4521
21
-222.898
0
LINE
8
BLACK
6
CONTINUOUS
10
80.4521
20
-222.898
11
80.595
21
-222.755
0
LINE
8
BLACK
6
CONTINUOUS
10
80.595
20
-222.755
11
80.8807
21
-222.612
0
LINE
8
BLACK
6
CONTINUOUS
10
83.1664
20
-225.326
11
83.3093
21
-225.469
0
LINE
8
BLACK
6
CONTINUOUS
10
83.3093
20
-225.469
11
83.1664
21
-225.612
0
LINE
8
BLACK
6
CONTINUOUS
10
83.1664
20
-225.612
11
83.0236
21
-225.469
0
LINE
8
BLACK
6
CONTINUOUS
10
83.0236
20
-225.469
11
83.1664
21
-225.326
0
LINE
8
BLACK
6
CONTINUOUS
10
83.1664
20
-225.326
11
83.1664
21
-225.612
0
LINE
8
BLACK
6
CONTINUOUS
10
85.8807
20
-222.612
11
85.3093
21
-222.612
0
LINE
8
BLACK
6
CONTINUOUS
10
85.3093
20
-222.612
11
85.0236
21
-222.755
0
LINE
8
BLACK
6
CONTINUOUS
10
85.0236
20
-222.755
11
84.8807
21
-222.898
0
LINE
8
BLACK
6
CONTINUOUS
10
84.8807
20
-222.898
11
84.595
21
-223.326
0
LINE
8
BLACK
6
CONTINUOUS
10
84.595
20
-223.326
11
84.4521
21
-223.898
0
LINE
8
BLACK
6
CONTINUOUS
10
84.4521
20
-223.898
11
84.4521
21
-225.041
0
LINE
8
BLACK
6
CONTINUOUS
10
84.4521
20
-225.041
11
84.595
21
-225.326
0
LINE
8
BLACK
6
CONTINUOUS
10
84.595
20
-225.326
11
84.7379
21
-225.469
0
LINE
8
BLACK
6
CONTINUOUS
10
84.7379
20
-225.469
11
85.0236
21
-225.612
0
LINE
8
BLACK
6
CONTINUOUS
10
85.0236
20
-225.612
11
85.595
21
-225.612
0
LINE
8
BLACK
6
CONTINUOUS
10
85.595
20
-225.612
11
85.8807
21
-225.469
0
LINE
8
BLACK
6
CONTINUOUS
10
85.8807
20
-225.469
11
86.0236
21
-225.326
0
LINE
8
BLACK
6
CONTINUOUS
10
86.0236
20
-225.326
11
86.1664
21
-225.041
0
LINE
8
BLACK
6
CONTINUOUS
10
86.1664
20
-225.041
11
86.1664
21
-224.326
0
LINE
8
BLACK
6
CONTINUOUS
10
86.1664
20
-224.326
11
86.0236
21
-224.041
0
LINE
8
BLACK
6
CONTINUOUS
10
86.0236
20
-224.041
11
85.8807
21
-223.898
0
LINE
8
BLACK
6
CONTINUOUS
10
85.8807
20
-223.898
11
85.595
21
-223.755
0
LINE
8
BLACK
6
CONTINUOUS
10
85.595
20
-223.755
11
85.0236
21
-223.755
0
LINE
8
BLACK
6
CONTINUOUS
10
85.0236
20
-223.755
11
84.7379
21
-223.898
0
LINE
8
BLACK
6
CONTINUOUS
10
84.7379
20
-223.898
11
84.595
21
-224.041
0
LINE
8
BLACK
6
CONTINUOUS
10
84.595
20
-224.041
11
84.4521
21
-224.326
0
LINE
8
BLACK
6
CONTINUOUS
10
88.8807
20
-222.612
11
87.4521
21
-222.612
0
LINE
8
BLACK
6
CONTINUOUS
10
87.4521
20
-222.612
11
87.3093
21
-224.041
0
LINE
8
BLACK
6
CONTINUOUS
10
87.3093
20
-224.041
11
87.4521
21
-223.898
0
LINE
8
BLACK
6
CONTINUOUS
10
87.4521
20
-223.898
11
87.7379
21
-223.755
0
LINE
8
BLACK
6
CONTINUOUS
10
87.7379
20
-223.755
11
88.4521
21
-223.755
0
LINE
8
BLACK
6
CONTINUOUS
10
88.4521
20
-223.755
11
88.7379
21
-223.898
0
LINE
8
BLACK
6
CONTINUOUS
10
88.7379
20
-223.898
11
88.8807
21
-224.041
0
LINE
8
BLACK
6
CONTINUOUS
10
88.8807
20
-224.041
11
89.0236
21
-224.326
0
LINE
8
BLACK
6
CONTINUOUS
10
89.0236
20
-224.326
11
89.0236
21
-225.041
0
LINE
8
BLACK
6
CONTINUOUS
10
89.0236
20
-225.041
11
88.8807
21
-225.326
0
LINE
8
BLACK
6
CONTINUOUS
10
88.8807
20
-225.326
11
88.7379
21
-225.469
0
LINE
8
BLACK
6
CONTINUOUS
10
88.7379
20
-225.469
11
88.4521
21
-225.612
0
LINE
8
BLACK
6
CONTINUOUS
10
88.4521
20
-225.612
11
87.7379
21
-225.612
0
LINE
8
BLACK
6
CONTINUOUS
10
87.7379
20
-225.612
11
87.4521
21
-225.469
0
LINE
8
BLACK
6
CONTINUOUS
10
87.4521
20
-225.469
11
87.3093
21
-225.326
0
LINE
8
BLACK
6
CONTINUOUS
10
90.3093
20
-225.612
11
90.3093
21
-223.612
0
LINE
8
BLACK
6
CONTINUOUS
10
90.3093
20
-223.898
11
90.4521
21
-223.755
0
LINE
8
BLACK
6
CONTINUOUS
10
90.4521
20
-223.755
11
90.7379
21
-223.612
0
LINE
8
BLACK
6
CONTINUOUS
10
90.7379
20
-223.612
11
91.1664
21
-223.612
0
LINE
8
BLACK
6
CONTINUOUS
10
91.1664
20
-223.612
11
91.4521
21
-223.755
0
LINE
8
BLACK
6
CONTINUOUS
10
91.4521
20
-223.755
11
91.595
21
-224.041
0
LINE
8
BLACK
6
CONTINUOUS
10
91.595
20
-224.041
11
91.595
21
-225.612
0
LINE
8
BLACK
6
CONTINUOUS
10
91.595
20
-224.041
11
91.7379
21
-223.755
0
LINE
8
BLACK
6
CONTINUOUS
10
91.7379
20
-223.755
11
92.0236
21
-223.612
0
LINE
8
BLACK
6
CONTINUOUS
10
92.0236
20
-223.612
11
92.4521
21
-223.612
0
LINE
8
BLACK
6
CONTINUOUS
10
92.4521
20
-223.612
11
92.7379
21
-223.755
0
LINE
8
BLACK
6
CONTINUOUS
10
92.7379
20
-223.755
11
92.8807
21
-224.041
0
LINE
8
BLACK
6
CONTINUOUS
10
92.8807
20
-224.041
11
92.8807
21
-225.612
0
LINE
8
BLACK
6
CONTINUOUS
10
94.3093
20
-225.612
11
94.3093
21
-223.612
0
LINE
8
BLACK
6
CONTINUOUS
10
94.3093
20
-223.898
11
94.4521
21
-223.755
0
LINE
8
BLACK
6
CONTINUOUS
10
94.4521
20
-223.755
11
94.7379
21
-223.612
0
LINE
8
BLACK
6
CONTINUOUS
10
94.7379
20
-223.612
11
95.1664
21
-223.612
0
LINE
8
BLACK
6
CONTINUOUS
10
95.1664
20
-223.612
11
95.4521
21
-223.755
0
LINE
8
BLACK
6
CONTINUOUS
10
95.4521
20
-223.755
11
95.595
21
-224.041
0
LINE
8
BLACK
6
CONTINUOUS
10
95.595
20
-224.041
11
95.595
21
-225.612
0
LINE
8
BLACK
6
CONTINUOUS
10
95.595
20
-224.041
11
95.7379
21
-223.755
0
LINE
8
BLACK
6
CONTINUOUS
10
95.7379
20
-223.755
11
96.0236
21
-223.612
0
LINE
8
BLACK
6
CONTINUOUS
10
96.0236
20
-223.612
11
96.4521
21
-223.612
0
LINE
8
BLACK
6
CONTINUOUS
10
96.4521
20
-223.612
11
96.7379
21
-223.755
0
LINE
8
BLACK
6
CONTINUOUS
10
96.7379
20
-223.755
11
96.8807
21
-224.041
0
LINE
8
BLACK
6
CONTINUOUS
10
96.8807
20
-224.041
11
96.8807
21
-225.612
0
LINE
8
BLACK
6
CONTINUOUS
10
102.738
20
-222.469
11
100.166
21
-226.326
0
LINE
8
BLACK
6
CONTINUOUS
10
106.595
20
-222.612
11
106.881
21
-222.612
0
LINE
8
BLACK
6
CONTINUOUS
10
106.881
20
-222.612
11
107.166
21
-222.755
0
LINE
8
BLACK
6
CONTINUOUS
10
107.166
20
-222.755
11
107.309
21
-222.898
0
LINE
8
BLACK
6
CONTINUOUS
10
107.309
20
-222.898
11
107.452
21
-223.184
0
LINE
8
BLACK
6
CONTINUOUS
10
107.452
20
-223.184
11
107.595
21
-223.755
0
LINE
8
BLACK
6
CONTINUOUS
10
107.595
20
-223.755
11
107.595
21
-224.469
0
LINE
8
BLACK
6
CONTINUOUS
10
107.595
20
-224.469
11
107.452
21
-225.041
0
LINE
8
BLACK
6
CONTINUOUS
10
107.452
20
-225.041
11
107.309
21
-225.326
0
LINE
8
BLACK
6
CONTINUOUS
10
107.309
20
-225.326
11
107.166
21
-225.469
0
LINE
8
BLACK
6
CONTINUOUS
10
107.166
20
-225.469
11
106.881
21
-225.612
0
LINE
8
BLACK
6
CONTINUOUS
10
106.881
20
-225.612
11
106.595
21
-225.612
0
LINE
8
BLACK
6
CONTINUOUS
10
106.595
20
-225.612
11
106.309
21
-225.469
0
LINE
8
BLACK
6
CONTINUOUS
10
106.309
20
-225.469
11
106.166
21
-225.326
0
LINE
8
BLACK
6
CONTINUOUS
10
106.166
20
-225.326
11
106.024
21
-225.041
0
LINE
8
BLACK
6
CONTINUOUS
10
106.024
20
-225.041
11
105.881
21
-224.469
0
LINE
8
BLACK
6
CONTINUOUS
10
105.881
20
-224.469
11
105.881
21
-223.755
0
LINE
8
BLACK
6
CONTINUOUS
10
105.881
20
-223.755
11
106.024
21
-223.184
0
LINE
8
BLACK
6
CONTINUOUS
10
106.024
20
-223.184
11
106.166
21
-222.898
0
LINE
8
BLACK
6
CONTINUOUS
10
106.166
20
-222.898
11
106.309
21
-222.755
0
LINE
8
BLACK
6
CONTINUOUS
10
106.309
20
-222.755
11
106.595
21
-222.612
0
LINE
8
BLACK
6
CONTINUOUS
10
108.881
20
-225.326
11
109.024
21
-225.469
0
LINE
8
BLACK
6
CONTINUOUS
10
109.024
20
-225.469
11
108.881
21
-225.612
0
LINE
8
BLACK
6
CONTINUOUS
10
108.881
20
-225.612
11
108.738
21
-225.469
0
LINE
8
BLACK
6
CONTINUOUS
10
108.738
20
-225.469
11
108.881
21
-225.326
0
LINE
8
BLACK
6
CONTINUOUS
10
108.881
20
-225.326
11
108.881
21
-225.612
0
LINE
8
BLACK
6
CONTINUOUS
10
110.881
20
-222.612
11
111.166
21
-222.612
0
LINE
8
BLACK
6
CONTINUOUS
10
111.166
20
-222.612
11
111.452
21
-222.755
0
LINE
8
BLACK
6
CONTINUOUS
10
111.452
20
-222.755
11
111.595
21
-222.898
0
LINE
8
BLACK
6
CONTINUOUS
10
111.595
20
-222.898
11
111.738
21
-223.184
0
LINE
8
BLACK
6
CONTINUOUS
10
111.738
20
-223.184
11
111.881
21
-223.755
0
LINE
8
BLACK
6
CONTINUOUS
10
111.881
20
-223.755
11
111.881
21
-224.469
0
LINE
8
BLACK
6
CONTINUOUS
10
111.881
20
-224.469
11
111.738
21
-225.041
0
LINE
8
BLACK
6
CONTINUOUS
10
111.738
20
-225.041
11
111.595
21
-225.326
0
LINE
8
BLACK
6
CONTINUOUS
10
111.595
20
-225.326
11
111.452
21
-225.469
0
LINE
8
BLACK
6
CONTINUOUS
10
111.452
20
-225.469
11
111.166
21
-225.612
0
LINE
8
BLACK
6
CONTINUOUS
10
111.166
20
-225.612
11
110.881
21
-225.612
0
LINE
8
BLACK
6
CONTINUOUS
10
110.881
20
-225.612
11
110.595
21
-225.469
0
LINE
8
BLACK
6
CONTINUOUS
10
110.595
20
-225.469
11
110.452
21
-225.326
0
LINE
8
BLACK
6
CONTINUOUS
10
110.452
20
-225.326
11
110.309
21
-225.041
0
LINE
8
BLACK
6
CONTINUOUS
10
110.309
20
-225.041
11
110.166
21
-224.469
0
LINE
8
BLACK
6
CONTINUOUS
10
110.166
20
-224.469
11
110.166
21
-223.755
0
LINE
8
BLACK
6
CONTINUOUS
10
110.166
20
-223.755
11
110.309
21
-223.184
0
LINE
8
BLACK
6
CONTINUOUS
10
110.309
20
-223.184
11
110.452
21
-222.898
0
LINE
8
BLACK
6
CONTINUOUS
10
110.452
20
-222.898
11
110.595
21
-222.755
0
LINE
8
BLACK
6
CONTINUOUS
10
110.595
20
-222.755
11
110.881
21
-222.612
0
LINE
8
BLACK
6
CONTINUOUS
10
113.024
20
-222.898
11
113.166
21
-222.755
0
LINE
8
BLACK
6
CONTINUOUS
10
113.166
20
-222.755
11
113.452
21
-222.612
0
LINE
8
BLACK
6
CONTINUOUS
10
113.452
20
-222.612
11
114.166
21
-222.612
0
LINE
8
BLACK
6
CONTINUOUS
10
114.166
20
-222.612
11
114.452
21
-222.755
0
LINE
8
BLACK
6
CONTINUOUS
10
114.452
20
-222.755
11
114.595
21
-222.898
0
LINE
8
BLACK
6
CONTINUOUS
10
114.595
20
-222.898
11
114.738
21
-223.184
0
LINE
8
BLACK
6
CONTINUOUS
10
114.738
20
-223.184
11
114.738
21
-223.469
0
LINE
8
BLACK
6
CONTINUOUS
10
114.738
20
-223.469
11
114.595
21
-223.898
0
LINE
8
BLACK
6
CONTINUOUS
10
114.595
20
-223.898
11
112.881
21
-225.612
0
LINE
8
BLACK
6
CONTINUOUS
10
112.881
20
-225.612
11
114.738
21
-225.612
0
LINE
8
BLACK
6
CONTINUOUS
10
117.309
20
-222.612
11
116.738
21
-222.612
0
LINE
8
BLACK
6
CONTINUOUS
10
116.738
20
-222.612
11
116.452
21
-222.755
0
LINE
8
BLACK
6
CONTINUOUS
10
116.452
20
-222.755
11
116.309
21
-222.898
0
LINE
8
BLACK
6
CONTINUOUS
10
116.309
20
-222.898
11
116.024
21
-223.326
0
LINE
8
BLACK
6
CONTINUOUS
10
116.024
20
-223.326
11
115.881
21
-223.898
0
LINE
8
BLACK
6
CONTINUOUS
10
115.881
20
-223.898
11
115.881
21
-225.041
0
LINE
8
BLACK
6
CONTINUOUS
10
115.881
20
-225.041
11
116.024
21
-225.326
0
LINE
8
BLACK
6
CONTINUOUS
10
116.024
20
-225.326
11
116.166
21
-225.469
0
LINE
8
BLACK
6
CONTINUOUS
10
116.166
20
-225.469
11
116.452
21
-225.612
0
LINE
8
BLACK
6
CONTINUOUS
10
116.452
20
-225.612
11
117.024
21
-225.612
0
LINE
8
BLACK
6
CONTINUOUS
10
117.024
20
-225.612
11
117.309
21
-225.469
0
LINE
8
BLACK
6
CONTINUOUS
10
117.309
20
-225.469
11
117.452
21
-225.326
0
LINE
8
BLACK
6
CONTINUOUS
10
117.452
20
-225.326
11
117.595
21
-225.041
0
LINE
8
BLACK
6
CONTINUOUS
10
117.595
20
-225.041
11
117.595
21
-224.326
0
LINE
8
BLACK
6
CONTINUOUS
10
117.595
20
-224.326
11
117.452
21
-224.041
0
LINE
8
BLACK
6
CONTINUOUS
10
117.452
20
-224.041
11
117.309
21
-223.898
0
LINE
8
BLACK
6
CONTINUOUS
10
117.309
20
-223.898
11
117.024
21
-223.755
0
LINE
8
BLACK
6
CONTINUOUS
10
117.024
20
-223.755
11
116.452
21
-223.755
0
LINE
8
BLACK
6
CONTINUOUS
10
116.452
20
-223.755
11
116.166
21
-223.898
0
LINE
8
BLACK
6
CONTINUOUS
10
116.166
20
-223.898
11
116.024
21
-224.041
0
LINE
8
BLACK
6
CONTINUOUS
10
116.024
20
-224.041
11
115.881
21
-224.326
0
LINE
8
BLACK
6
CONTINUOUS
10
118.738
20
-222.612
11
118.738
21
-223.184
0
LINE
8
BLACK
6
CONTINUOUS
10
119.881
20
-222.612
11
119.881
21
-223.184
0
LINE
8
BLACK
6
CONTINUOUS
10
124.309
20
-226.755
11
124.166
21
-226.612
0
LINE
8
BLACK
6
CONTINUOUS
10
124.166
20
-226.612
11
123.881
21
-226.184
0
LINE
8
BLACK
6
CONTINUOUS
10
123.881
20
-226.184
11
123.738
21
-225.898
0
LINE
8
BLACK
6
CONTINUOUS
10
123.738
20
-225.898
11
123.595
21
-225.469
0
LINE
8
BLACK
6
CONTINUOUS
10
123.595
20
-225.469
11
123.452
21
-224.755
0
LINE
8
BLACK
6
CONTINUOUS
10
123.452
20
-224.755
11
123.452
21
-224.184
0
LINE
8
BLACK
6
CONTINUOUS
10
123.452
20
-224.184
11
123.595
21
-223.469
0
LINE
8
BLACK
6
CONTINUOUS
10
123.595
20
-223.469
11
123.738
21
-223.041
0
LINE
8
BLACK
6
CONTINUOUS
10
123.738
20
-223.041
11
123.881
21
-222.755
0
LINE
8
BLACK
6
CONTINUOUS
10
123.881
20
-222.755
11
124.166
21
-222.326
0
LINE
8
BLACK
6
CONTINUOUS
10
124.166
20
-222.326
11
124.309
21
-222.184
0
LINE
8
BLACK
6
CONTINUOUS
10
125.309
20
-222.898
11
125.452
21
-222.755
0
LINE
8
BLACK
6
CONTINUOUS
10
125.452
20
-222.755
11
125.738
21
-222.612
0
LINE
8
BLACK
6
CONTINUOUS
10
125.738
20
-222.612
11
126.452
21
-222.612
0
LINE
8
BLACK
6
CONTINUOUS
10
126.452
20
-222.612
11
126.738
21
-222.755
0
LINE
8
BLACK
6
CONTINUOUS
10
126.738
20
-222.755
11
126.881
21
-222.898
0
LINE
8
BLACK
6
CONTINUOUS
10
126.881
20
-222.898
11
127.024
21
-223.184
0
LINE
8
BLACK
6
CONTINUOUS
10
127.024
20
-223.184
11
127.024
21
-223.469
0
LINE
8
BLACK
6
CONTINUOUS
10
127.024
20
-223.469
11
126.881
21
-223.898
0
LINE
8
BLACK
6
CONTINUOUS
10
126.881
20
-223.898
11
125.166
21
-225.612
0
LINE
8
BLACK
6
CONTINUOUS
10
125.166
20
-225.612
11
127.024
21
-225.612
0
LINE
8
BLACK
6
CONTINUOUS
10
130.595
20
-225.612
11
130.595
21
-222.612
0
LINE
8
BLACK
6
CONTINUOUS
10
131.881
20
-225.612
11
131.881
21
-224.041
0
LINE
8
BLACK
6
CONTINUOUS
10
131.881
20
-224.041
11
131.738
21
-223.755
0
LINE
8
BLACK
6
CONTINUOUS
10
131.738
20
-223.755
11
131.452
21
-223.612
0
LINE
8
BLACK
6
CONTINUOUS
10
131.452
20
-223.612
11
131.024
21
-223.612
0
LINE
8
BLACK
6
CONTINUOUS
10
131.024
20
-223.612
11
130.738
21
-223.755
0
LINE
8
BLACK
6
CONTINUOUS
10
130.738
20
-223.755
11
130.595
21
-223.898
0
LINE
8
BLACK
6
CONTINUOUS
10
133.738
20
-225.612
11
133.452
21
-225.469
0
LINE
8
BLACK
6
CONTINUOUS
10
133.452
20
-225.469
11
133.309
21
-225.326
0
LINE
8
BLACK
6
CONTINUOUS
10
133.309
20
-225.326
11
133.166
21
-225.041
0
LINE
8
BLACK
6
CONTINUOUS
10
133.166
20
-225.041
11
133.166
21
-224.184
0
LINE
8
BLACK
6
CONTINUOUS
10
133.166
20
-224.184
11
133.309
21
-223.898
0
LINE
8
BLACK
6
CONTINUOUS
10
133.309
20
-223.898
11
133.452
21
-223.755
0
LINE
8
BLACK
6
CONTINUOUS
10
133.452
20
-223.755
11
133.738
21
-223.612
0
LINE
8
BLACK
6
CONTINUOUS
10
133.738
20
-223.612
11
134.166
21
-223.612
0
LINE
8
BLACK
6
CONTINUOUS
10
134.166
20
-223.612
11
134.452
21
-223.755
0
LINE
8
BLACK
6
CONTINUOUS
10
134.452
20
-223.755
11
134.595
21
-223.898
0
LINE
8
BLACK
6
CONTINUOUS
10
134.595
20
-223.898
11
134.738
21
-224.184
0
LINE
8
BLACK
6
CONTINUOUS
10
134.738
20
-224.184
11
134.738
21
-225.041
0
LINE
8
BLACK
6
CONTINUOUS
10
134.738
20
-225.041
11
134.595
21
-225.326
0
LINE
8
BLACK
6
CONTINUOUS
10
134.595
20
-225.326
11
134.452
21
-225.469
0
LINE
8
BLACK
6
CONTINUOUS
10
134.452
20
-225.469
11
134.166
21
-225.612
0
LINE
8
BLACK
6
CONTINUOUS
10
134.166
20
-225.612
11
133.738
21
-225.612
0
LINE
8
BLACK
6
CONTINUOUS
10
136.452
20
-225.612
11
136.166
21
-225.469
0
LINE
8
BLACK
6
CONTINUOUS
10
136.166
20
-225.469
11
136.024
21
-225.184
0
LINE
8
BLACK
6
CONTINUOUS
10
136.024
20
-225.184
11
136.024
21
-222.612
0
LINE
8
BLACK
6
CONTINUOUS
10
138.738
20
-225.469
11
138.452
21
-225.612
0
LINE
8
BLACK
6
CONTINUOUS
10
138.452
20
-225.612
11
137.881
21
-225.612
0
LINE
8
BLACK
6
CONTINUOUS
10
137.881
20
-225.612
11
137.595
21
-225.469
0
LINE
8
BLACK
6
CONTINUOUS
10
137.595
20
-225.469
11
137.452
21
-225.184
0
LINE
8
BLACK
6
CONTINUOUS
10
137.452
20
-225.184
11
137.452
21
-224.041
0
LINE
8
BLACK
6
CONTINUOUS
10
137.452
20
-224.041
11
137.595
21
-223.755
0
LINE
8
BLACK
6
CONTINUOUS
10
137.595
20
-223.755
11
137.881
21
-223.612
0
LINE
8
BLACK
6
CONTINUOUS
10
137.881
20
-223.612
11
138.452
21
-223.612
0
LINE
8
BLACK
6
CONTINUOUS
10
138.452
20
-223.612
11
138.738
21
-223.755
0
LINE
8
BLACK
6
CONTINUOUS
10
138.738
20
-223.755
11
138.881
21
-224.041
0
LINE
8
BLACK
6
CONTINUOUS
10
138.881
20
-224.041
11
138.881
21
-224.326
0
LINE
8
BLACK
6
CONTINUOUS
10
138.881
20
-224.326
11
137.452
21
-224.612
0
LINE
8
BLACK
6
CONTINUOUS
10
140.024
20
-225.469
11
140.309
21
-225.612
0
LINE
8
BLACK
6
CONTINUOUS
10
140.309
20
-225.612
11
140.881
21
-225.612
0
LINE
8
BLACK
6
CONTINUOUS
10
140.881
20
-225.612
11
141.166
21
-225.469
0
LINE
8
BLACK
6
CONTINUOUS
10
141.166
20
-225.469
11
141.309
21
-225.184
0
LINE
8
BLACK
6
CONTINUOUS
10
141.309
20
-225.184
11
141.309
21
-225.041
0
LINE
8
BLACK
6
CONTINUOUS
10
141.309
20
-225.041
11
141.166
21
-224.755
0
LINE
8
BLACK
6
CONTINUOUS
10
141.166
20
-224.755
11
140.881
21
-224.612
0
LINE
8
BLACK
6
CONTINUOUS
10
140.881
20
-224.612
11
140.452
21
-224.612
0
LINE
8
BLACK
6
CONTINUOUS
10
140.452
20
-224.612
11
140.166
21
-224.469
0
LINE
8
BLACK
6
CONTINUOUS
10
140.166
20
-224.469
11
140.024
21
-224.184
0
LINE
8
BLACK
6
CONTINUOUS
10
140.024
20
-224.184
11
140.024
21
-224.041
0
LINE
8
BLACK
6
CONTINUOUS
10
140.024
20
-224.041
11
140.166
21
-223.755
0
LINE
8
BLACK
6
CONTINUOUS
10
140.166
20
-223.755
11
140.452
21
-223.612
0
LINE
8
BLACK
6
CONTINUOUS
10
140.452
20
-223.612
11
140.881
21
-223.612
0
LINE
8
BLACK
6
CONTINUOUS
10
140.881
20
-223.612
11
141.166
21
-223.755
0
LINE
8
BLACK
6
CONTINUOUS
10
142.309
20
-226.755
11
142.452
21
-226.612
0
LINE
8
BLACK
6
CONTINUOUS
10
142.452
20
-226.612
11
142.738
21
-226.184
0
LINE
8
BLACK
6
CONTINUOUS
10
142.738
20
-226.184
11
142.881
21
-225.898
0
LINE
8
BLACK
6
CONTINUOUS
10
142.881
20
-225.898
11
143.024
21
-225.469
0
LINE
8
BLACK
6
CONTINUOUS
10
143.024
20
-225.469
11
143.166
21
-224.755
0
LINE
8
BLACK
6
CONTINUOUS
10
143.166
20
-224.755
11
143.166
21
-224.184
0
LINE
8
BLACK
6
CONTINUOUS
10
143.166
20
-224.184
11
143.024
21
-223.469
0
LINE
8
BLACK
6
CONTINUOUS
10
143.024
20
-223.469
11
142.881
21
-223.041
0
LINE
8
BLACK
6
CONTINUOUS
10
142.881
20
-223.041
11
142.738
21
-222.755
0
LINE
8
BLACK
6
CONTINUOUS
10
142.738
20
-222.755
11
142.452
21
-222.326
0
LINE
8
BLACK
6
CONTINUOUS
10
142.452
20
-222.326
11
142.309
21
-222.184
0
LINE
8
BLACK
6
CONTINUOUS
10
147.738
20
-226.755
11
147.595
21
-226.612
0
LINE
8
BLACK
6
CONTINUOUS
10
147.595
20
-226.612
11
147.309
21
-226.184
0
LINE
8
BLACK
6
CONTINUOUS
10
147.309
20
-226.184
11
147.166
21
-225.898
0
LINE
8
BLACK
6
CONTINUOUS
10
147.166
20
-225.898
11
147.024
21
-225.469
0
LINE
8
BLACK
6
CONTINUOUS
10
147.024
20
-225.469
11
146.881
21
-224.755
0
LINE
8
BLACK
6
CONTINUOUS
10
146.881
20
-224.755
11
146.881
21
-224.184
0
LINE
8
BLACK
6
CONTINUOUS
10
146.881
20
-224.184
11
147.024
21
-223.469
0
LINE
8
BLACK
6
CONTINUOUS
10
147.024
20
-223.469
11
147.166
21
-223.041
0
LINE
8
BLACK
6
CONTINUOUS
10
147.166
20
-223.041
11
147.309
21
-222.755
0
LINE
8
BLACK
6
CONTINUOUS
10
147.309
20
-222.755
11
147.595
21
-222.326
0
LINE
8
BLACK
6
CONTINUOUS
10
147.595
20
-222.326
11
147.738
21
-222.184
0
LINE
8
BLACK
6
CONTINUOUS
10
148.881
20
-223.612
11
148.881
21
-225.612
0
LINE
8
BLACK
6
CONTINUOUS
10
148.881
20
-223.898
11
149.024
21
-223.755
0
LINE
8
BLACK
6
CONTINUOUS
10
149.024
20
-223.755
11
149.309
21
-223.612
0
LINE
8
BLACK
6
CONTINUOUS
10
149.309
20
-223.612
11
149.738
21
-223.612
0
LINE
8
BLACK
6
CONTINUOUS
10
149.738
20
-223.612
11
150.024
21
-223.755
0
LINE
8
BLACK
6
CONTINUOUS
10
150.024
20
-223.755
11
150.166
21
-224.041
0
LINE
8
BLACK
6
CONTINUOUS
10
150.166
20
-224.041
11
150.166
21
-225.612
0
LINE
8
BLACK
6
CONTINUOUS
10
152.024
20
-225.612
11
151.738
21
-225.469
0
LINE
8
BLACK
6
CONTINUOUS
10
151.738
20
-225.469
11
151.595
21
-225.326
0
LINE
8
BLACK
6
CONTINUOUS
10
151.595
20
-225.326
11
151.452
21
-225.041
0
LINE
8
BLACK
6
CONTINUOUS
10
151.452
20
-225.041
11
151.452
21
-224.184
0
LINE
8
BLACK
6
CONTINUOUS
10
151.452
20
-224.184
11
151.595
21
-223.898
0
LINE
8
BLACK
6
CONTINUOUS
10
151.595
20
-223.898
11
151.738
21
-223.755
0
LINE
8
BLACK
6
CONTINUOUS
10
151.738
20
-223.755
11
152.024
21
-223.612
0
LINE
8
BLACK
6
CONTINUOUS
10
152.024
20
-223.612
11
152.452
21
-223.612
0
LINE
8
BLACK
6
CONTINUOUS
10
152.452
20
-223.612
11
152.738
21
-223.755
0
LINE
8
BLACK
6
CONTINUOUS
10
152.738
20
-223.755
11
152.881
21
-223.898
0
LINE
8
BLACK
6
CONTINUOUS
10
152.881
20
-223.898
11
153.024
21
-224.184
0
LINE
8
BLACK
6
CONTINUOUS
10
153.024
20
-224.184
11
153.024
21
-225.041
0
LINE
8
BLACK
6
CONTINUOUS
10
153.024
20
-225.041
11
152.881
21
-225.326
0
LINE
8
BLACK
6
CONTINUOUS
10
152.881
20
-225.326
11
152.738
21
-225.469
0
LINE
8
BLACK
6
CONTINUOUS
10
152.738
20
-225.469
11
152.452
21
-225.612
0
LINE
8
BLACK
6
CONTINUOUS
10
152.452
20
-225.612
11
152.024
21
-225.612
0
LINE
8
BLACK
6
CONTINUOUS
10
153.881
20
-223.612
11
155.024
21
-223.612
0
LINE
8
BLACK
6
CONTINUOUS
10
154.309
20
-222.612
11
154.309
21
-225.184
0
LINE
8
BLACK
6
CONTINUOUS
10
154.309
20
-225.184
11
154.452
21
-225.469
0
LINE
8
BLACK
6
CONTINUOUS
10
154.452
20
-225.469
11
154.738
21
-225.612
0
LINE
8
BLACK
6
CONTINUOUS
10
154.738
20
-225.612
11
155.024
21
-225.612
0
LINE
8
BLACK
6
CONTINUOUS
10
158.309
20
-223.612
11
158.309
21
-226.612
0
LINE
8
BLACK
6
CONTINUOUS
10
158.309
20
-223.755
11
158.595
21
-223.612
0
LINE
8
BLACK
6
CONTINUOUS
10
158.595
20
-223.612
11
159.166
21
-223.612
0
LINE
8
BLACK
6
CONTINUOUS
10
159.166
20
-223.612
11
159.452
21
-223.755
0
LINE
8
BLACK
6
CONTINUOUS
10
159.452
20
-223.755
11
159.595
21
-223.898
0
LINE
8
BLACK
6
CONTINUOUS
10
159.595
20
-223.898
11
159.738
21
-224.184
0
LINE
8
BLACK
6
CONTINUOUS
10
159.738
20
-224.184
11
159.738
21
-225.041
0
LINE
8
BLACK
6
CONTINUOUS
10
159.738
20
-225.041
11
159.595
21
-225.326
0
LINE
8
BLACK
6
CONTINUOUS
10
159.595
20
-225.326
11
159.452
21
-225.469
0
LINE
8
BLACK
6
CONTINUOUS
10
159.452
20
-225.469
11
159.166
21
-225.612
0
LINE
8
BLACK
6
CONTINUOUS
10
159.166
20
-225.612
11
158.595
21
-225.612
0
LINE
8
BLACK
6
CONTINUOUS
10
158.595
20
-225.612
11
158.309
21
-225.469
0
LINE
8
BLACK
6
CONTINUOUS
10
161.452
20
-225.612
11
161.166
21
-225.469
0
LINE
8
BLACK
6
CONTINUOUS
10
161.166
20
-225.469
11
161.024
21
-225.184
0
LINE
8
BLACK
6
CONTINUOUS
10
161.024
20
-225.184
11
161.024
21
-222.612
0
LINE
8
BLACK
6
CONTINUOUS
10
163.881
20
-225.612
11
163.881
21
-224.041
0
LINE
8
BLACK
6
CONTINUOUS
10
163.881
20
-224.041
11
163.738
21
-223.755
0
LINE
8
BLACK
6
CONTINUOUS
10
163.738
20
-223.755
11
163.452
21
-223.612
0
LINE
8
BLACK
6
CONTINUOUS
10
163.452
20
-223.612
11
162.881
21
-223.612
0
LINE
8
BLACK
6
CONTINUOUS
10
162.881
20
-223.612
11
162.595
21
-223.755
0
LINE
8
BLACK
6
CONTINUOUS
10
163.881
20
-225.469
11
163.595
21
-225.612
0
LINE
8
BLACK
6
CONTINUOUS
10
163.595
20
-225.612
11
162.881
21
-225.612
0
LINE
8
BLACK
6
CONTINUOUS
10
162.881
20
-225.612
11
162.595
21
-225.469
0
LINE
8
BLACK
6
CONTINUOUS
10
162.595
20
-225.469
11
162.452
21
-225.184
0
LINE
8
BLACK
6
CONTINUOUS
10
162.452
20
-225.184
11
162.452
21
-224.898
0
LINE
8
BLACK
6
CONTINUOUS
10
162.452
20
-224.898
11
162.595
21
-224.612
0
LINE
8
BLACK
6
CONTINUOUS
10
162.595
20
-224.612
11
162.881
21
-224.469
0
LINE
8
BLACK
6
CONTINUOUS
10
162.881
20
-224.469
11
163.595
21
-224.469
0
LINE
8
BLACK
6
CONTINUOUS
10
163.595
20
-224.469
11
163.881
21
-224.326
0
LINE
8
BLACK
6
CONTINUOUS
10
164.881
20
-223.612
11
166.024
21
-223.612
0
LINE
8
BLACK
6
CONTINUOUS
10
165.309
20
-222.612
11
165.309
21
-225.184
0
LINE
8
BLACK
6
CONTINUOUS
10
165.309
20
-225.184
11
165.452
21
-225.469
0
LINE
8
BLACK
6
CONTINUOUS
10
165.452
20
-225.469
11
165.738
21
-225.612
0
LINE
8
BLACK
6
CONTINUOUS
10
165.738
20
-225.612
11
166.024
21
-225.612
0
LINE
8
BLACK
6
CONTINUOUS
10
168.166
20
-225.469
11
167.881
21
-225.612
0
LINE
8
BLACK
6
CONTINUOUS
10
167.881
20
-225.612
11
167.309
21
-225.612
0
LINE
8
BLACK
6
CONTINUOUS
10
167.309
20
-225.612
11
167.024
21
-225.469
0
LINE
8
BLACK
6
CONTINUOUS
10
167.024
20
-225.469
11
166.881
21
-225.184
0
LINE
8
BLACK
6
CONTINUOUS
10
166.881
20
-225.184
11
166.881
21
-224.041
0
LINE
8
BLACK
6
CONTINUOUS
10
166.881
20
-224.041
11
167.024
21
-223.755
0
LINE
8
BLACK
6
CONTINUOUS
10
167.024
20
-223.755
11
167.309
21
-223.612
0
LINE
8
BLACK
6
CONTINUOUS
10
167.309
20
-223.612
11
167.881
21
-223.612
0
LINE
8
BLACK
6
CONTINUOUS
10
167.881
20
-223.612
11
168.166
21
-223.755
0
LINE
8
BLACK
6
CONTINUOUS
10
168.166
20
-223.755
11
168.309
21
-224.041
0
LINE
8
BLACK
6
CONTINUOUS
10
168.309
20
-224.041
11
168.309
21
-224.326
0
LINE
8
BLACK
6
CONTINUOUS
10
168.309
20
-224.326
11
166.881
21
-224.612
0
LINE
8
BLACK
6
CONTINUOUS
10
170.881
20
-225.612
11
170.881
21
-222.612
0
LINE
8
BLACK
6
CONTINUOUS
10
170.881
20
-225.469
11
170.595
21
-225.612
0
LINE
8
BLACK
6
CONTINUOUS
10
170.595
20
-225.612
11
170.024
21
-225.612
0
LINE
8
BLACK
6
CONTINUOUS
10
170.024
20
-225.612
11
169.738
21
-225.469
0
LINE
8
BLACK
6
CONTINUOUS
10
169.738
20
-225.469
11
169.595
21
-225.326
0
LINE
8
BLACK
6
CONTINUOUS
10
169.595
20
-225.326
11
169.452
21
-225.041
0
LINE
8
BLACK
6
CONTINUOUS
10
169.452
20
-225.041
11
169.452
21
-224.184
0
LINE
8
BLACK
6
CONTINUOUS
10
169.452
20
-224.184
11
169.595
21
-223.898
0
LINE
8
BLACK
6
CONTINUOUS
10
169.595
20
-223.898
11
169.738
21
-223.755
0
LINE
8
BLACK
6
CONTINUOUS
10
169.738
20
-223.755
11
170.024
21
-223.612
0
LINE
8
BLACK
6
CONTINUOUS
10
170.024
20
-223.612
11
170.595
21
-223.612
0
LINE
8
BLACK
6
CONTINUOUS
10
170.595
20
-223.612
11
170.881
21
-223.755
0
LINE
8
BLACK
6
CONTINUOUS
10
172.024
20
-226.755
11
172.166
21
-226.612
0
LINE
8
BLACK
6
CONTINUOUS
10
172.166
20
-226.612
11
172.452
21
-226.184
0
LINE
8
BLACK
6
CONTINUOUS
10
172.452
20
-226.184
11
172.595
21
-225.898
0
LINE
8
BLACK
6
CONTINUOUS
10
172.595
20
-225.898
11
172.738
21
-225.469
0
LINE
8
BLACK
6
CONTINUOUS
10
172.738
20
-225.469
11
172.881
21
-224.755
0
LINE
8
BLACK
6
CONTINUOUS
10
172.881
20
-224.755
11
172.881
21
-224.184
0
LINE
8
BLACK
6
CONTINUOUS
10
172.881
20
-224.184
11
172.738
21
-223.469
0
LINE
8
BLACK
6
CONTINUOUS
10
172.738
20
-223.469
11
172.595
21
-223.041
0
LINE
8
BLACK
6
CONTINUOUS
10
172.595
20
-223.041
11
172.452
21
-222.755
0
LINE
8
BLACK
6
CONTINUOUS
10
172.452
20
-222.755
11
172.166
21
-222.326
0
LINE
8
BLACK
6
CONTINUOUS
10
172.166
20
-222.326
11
172.024
21
-222.184
0
CIRCLE
8
BLACK
10
76.57
20
-228.215
40
0.875
0
LINE
8
BLACK
6
CONTINUOUS
10
81.8807
20
-229.572
11
80.1664
21
-229.572
0
LINE
8
BLACK
6
CONTINUOUS
10
81.0236
20
-229.572
11
81.0236
21
-226.572
0
LINE
8
BLACK
6
CONTINUOUS
10
81.0236
20
-226.572
11
80.7379
21
-227.001
0
LINE
8
BLACK
6
CONTINUOUS
10
80.7379
20
-227.001
11
80.4521
21
-227.286
0
LINE
8
BLACK
6
CONTINUOUS
10
80.4521
20
-227.286
11
80.1664
21
-227.429
0
LINE
8
BLACK
6
CONTINUOUS
10
83.1664
20
-229.286
11
83.3093
21
-229.429
0
LINE
8
BLACK
6
CONTINUOUS
10
83.3093
20
-229.429
11
83.1664
21
-229.572
0
LINE
8
BLACK
6
CONTINUOUS
10
83.1664
20
-229.572
11
83.0236
21
-229.429
0
LINE
8
BLACK
6
CONTINUOUS
10
83.0236
20
-229.429
11
83.1664
21
-229.286
0
LINE
8
BLACK
6
CONTINUOUS
10
83.1664
20
-229.286
11
83.1664
21
-229.572
0
LINE
8
BLACK
6
CONTINUOUS
10
84.3093
20
-226.572
11
86.3093
21
-226.572
0
LINE
8
BLACK
6
CONTINUOUS
10
86.3093
20
-226.572
11
85.0236
21
-229.572
0
LINE
8
BLACK
6
CONTINUOUS
10
88.8807
20
-226.572
11
87.4521
21
-226.572
0
LINE
8
BLACK
6
CONTINUOUS
10
87.4521
20
-226.572
11
87.3093
21
-228.001
0
LINE
8
BLACK
6
CONTINUOUS
10
87.3093
20
-228.001
11
87.4521
21
-227.858
0
LINE
8
BLACK
6
CONTINUOUS
10
87.4521
20
-227.858
11
87.7379
21
-227.715
0
LINE
8
BLACK
6
CONTINUOUS
10
87.7379
20
-227.715
11
88.4521
21
-227.715
0
LINE
8
BLACK
6
CONTINUOUS
10
88.4521
20
-227.715
11
88.7379
21
-227.858
0
LINE
8
BLACK
6
CONTINUOUS
10
88.7379
20
-227.858
11
88.8807
21
-228.001
0
LINE
8
BLACK
6
CONTINUOUS
10
88.8807
20
-228.001
11
89.0236
21
-228.286
0
LINE
8
BLACK
6
CONTINUOUS
10
89.0236
20
-228.286
11
89.0236
21
-229.001
0
LINE
8
BLACK
6
CONTINUOUS
10
89.0236
20
-229.001
11
88.8807
21
-229.286
0
LINE
8
BLACK
6
CONTINUOUS
10
88.8807
20
-229.286
11
88.7379
21
-229.429
0
LINE
8
BLACK
6
CONTINUOUS
10
88.7379
20
-229.429
11
88.4521
21
-229.572
0
LINE
8
BLACK
6
CONTINUOUS
10
88.4521
20
-229.572
11
87.7379
21
-229.572
0
LINE
8
BLACK
6
CONTINUOUS
10
87.7379
20
-229.572
11
87.4521
21
-229.429
0
LINE
8
BLACK
6
CONTINUOUS
10
87.4521
20
-229.429
11
87.3093
21
-229.286
0
LINE
8
BLACK
6
CONTINUOUS
10
90.3093
20
-229.572
11
90.3093
21
-227.572
0
LINE
8
BLACK
6
CONTINUOUS
10
90.3093
20
-227.858
11
90.4521
21
-227.715
0
LINE
8
BLACK
6
CONTINUOUS
10
90.4521
20
-227.715
11
90.7379
21
-227.572
0
LINE
8
BLACK
6
CONTINUOUS
10
90.7379
20
-227.572
11
91.1664
21
-227.572
0
LINE
8
BLACK
6
CONTINUOUS
10
91.1664
20
-227.572
11
91.4521
21
-227.715
0
LINE
8
BLACK
6
CONTINUOUS
10
91.4521
20
-227.715
11
91.595
21
-228.001
0
LINE
8
BLACK
6
CONTINUOUS
10
91.595
20
-228.001
11
91.595
21
-229.572
0
LINE
8
BLACK
6
CONTINUOUS
10
91.595
20
-228.001
11
91.7379
21
-227.715
0
LINE
8
BLACK
6
CONTINUOUS
10
91.7379
20
-227.715
11
92.0236
21
-227.572
0
LINE
8
BLACK
6
CONTINUOUS
10
92.0236
20
-227.572
11
92.4521
21
-227.572
0
LINE
8
BLACK
6
CONTINUOUS
10
92.4521
20
-227.572
11
92.7379
21
-227.715
0
LINE
8
BLACK
6
CONTINUOUS
10
92.7379
20
-227.715
11
92.8807
21
-228.001
0
LINE
8
BLACK
6
CONTINUOUS
10
92.8807
20
-228.001
11
92.8807
21
-229.572
0
LINE
8
BLACK
6
CONTINUOUS
10
94.3093
20
-229.572
11
94.3093
21
-227.572
0
LINE
8
BLACK
6
CONTINUOUS
10
94.3093
20
-227.858
11
94.4521
21
-227.715
0
LINE
8
BLACK
6
CONTINUOUS
10
94.4521
20
-227.715
11
94.7379
21
-227.572
0
LINE
8
BLACK
6
CONTINUOUS
10
94.7379
20
-227.572
11
95.1664
21
-227.572
0
LINE
8
BLACK
6
CONTINUOUS
10
95.1664
20
-227.572
11
95.4521
21
-227.715
0
LINE
8
BLACK
6
CONTINUOUS
10
95.4521
20
-227.715
11
95.595
21
-228.001
0
LINE
8
BLACK
6
CONTINUOUS
10
95.595
20
-228.001
11
95.595
21
-229.572
0
LINE
8
BLACK
6
CONTINUOUS
10
95.595
20
-228.001
11
95.7379
21
-227.715
0
LINE
8
BLACK
6
CONTINUOUS
10
95.7379
20
-227.715
11
96.0236
21
-227.572
0
LINE
8
BLACK
6
CONTINUOUS
10
96.0236
20
-227.572
11
96.4521
21
-227.572
0
LINE
8
BLACK
6
CONTINUOUS
10
96.4521
20
-227.572
11
96.7379
21
-227.715
0
LINE
8
BLACK
6
CONTINUOUS
10
96.7379
20
-227.715
11
96.8807
21
-228.001
0
LINE
8
BLACK
6
CONTINUOUS
10
96.8807
20
-228.001
11
96.8807
21
-229.572
0
LINE
8
BLACK
6
CONTINUOUS
10
102.738
20
-226.429
11
100.166
21
-230.286
0
LINE
8
BLACK
6
CONTINUOUS
10
106.595
20
-226.572
11
106.881
21
-226.572
0
LINE
8
BLACK
6
CONTINUOUS
10
106.881
20
-226.572
11
107.166
21
-226.715
0
LINE
8
BLACK
6
CONTINUOUS
10
107.166
20
-226.715
11
107.309
21
-226.858
0
LINE
8
BLACK
6
CONTINUOUS
10
107.309
20
-226.858
11
107.452
21
-227.144
0
LINE
8
BLACK
6
CONTINUOUS
10
107.452
20
-227.144
11
107.595
21
-227.715
0
LINE
8
BLACK
6
CONTINUOUS
10
107.595
20
-227.715
11
107.595
21
-228.429
0
LINE
8
BLACK
6
CONTINUOUS
10
107.595
20
-228.429
11
107.452
21
-229.001
0
LINE
8
BLACK
6
CONTINUOUS
10
107.452
20
-229.001
11
107.309
21
-229.286
0
LINE
8
BLACK
6
CONTINUOUS
10
107.309
20
-229.286
11
107.166
21
-229.429
0
LINE
8
BLACK
6
CONTINUOUS
10
107.166
20
-229.429
11
106.881
21
-229.572
0
LINE
8
BLACK
6
CONTINUOUS
10
106.881
20
-229.572
11
106.595
21
-229.572
0
LINE
8
BLACK
6
CONTINUOUS
10
106.595
20
-229.572
11
106.309
21
-229.429
0
LINE
8
BLACK
6
CONTINUOUS
10
106.309
20
-229.429
11
106.166
21
-229.286
0
LINE
8
BLACK
6
CONTINUOUS
10
106.166
20
-229.286
11
106.024
21
-229.001
0
LINE
8
BLACK
6
CONTINUOUS
10
106.024
20
-229.001
11
105.881
21
-228.429
0
LINE
8
BLACK
6
CONTINUOUS
10
105.881
20
-228.429
11
105.881
21
-227.715
0
LINE
8
BLACK
6
CONTINUOUS
10
105.881
20
-227.715
11
106.024
21
-227.144
0
LINE
8
BLACK
6
CONTINUOUS
10
106.024
20
-227.144
11
106.166
21
-226.858
0
LINE
8
BLACK
6
CONTINUOUS
10
106.166
20
-226.858
11
106.309
21
-226.715
0
LINE
8
BLACK
6
CONTINUOUS
10
106.309
20
-226.715
11
106.595
21
-226.572
0
LINE
8
BLACK
6
CONTINUOUS
10
108.881
20
-229.286
11
109.024
21
-229.429
0
LINE
8
BLACK
6
CONTINUOUS
10
109.024
20
-229.429
11
108.881
21
-229.572
0
LINE
8
BLACK
6
CONTINUOUS
10
108.881
20
-229.572
11
108.738
21
-229.429
0
LINE
8
BLACK
6
CONTINUOUS
10
108.738
20
-229.429
11
108.881
21
-229.286
0
LINE
8
BLACK
6
CONTINUOUS
10
108.881
20
-229.286
11
108.881
21
-229.572
0
LINE
8
BLACK
6
CONTINUOUS
10
110.881
20
-226.572
11
111.166
21
-226.572
0
LINE
8
BLACK
6
CONTINUOUS
10
111.166
20
-226.572
11
111.452
21
-226.715
0
LINE
8
BLACK
6
CONTINUOUS
10
111.452
20
-226.715
11
111.595
21
-226.858
0
LINE
8
BLACK
6
CONTINUOUS
10
111.595
20
-226.858
11
111.738
21
-227.144
0
LINE
8
BLACK
6
CONTINUOUS
10
111.738
20
-227.144
11
111.881
21
-227.715
0
LINE
8
BLACK
6
CONTINUOUS
10
111.881
20
-227.715
11
111.881
21
-228.429
0
LINE
8
BLACK
6
CONTINUOUS
10
111.881
20
-228.429
11
111.738
21
-229.001
0
LINE
8
BLACK
6
CONTINUOUS
10
111.738
20
-229.001
11
111.595
21
-229.286
0
LINE
8
BLACK
6
CONTINUOUS
10
111.595
20
-229.286
11
111.452
21
-229.429
0
LINE
8
BLACK
6
CONTINUOUS
10
111.452
20
-229.429
11
111.166
21
-229.572
0
LINE
8
BLACK
6
CONTINUOUS
10
111.166
20
-229.572
11
110.881
21
-229.572
0
LINE
8
BLACK
6
CONTINUOUS
10
110.881
20
-229.572
11
110.595
21
-229.429
0
LINE
8
BLACK
6
CONTINUOUS
10
110.595
20
-229.429
11
110.452
21
-229.286
0
LINE
8
BLACK
6
CONTINUOUS
10
110.452
20
-229.286
11
110.309
21
-229.001
0
LINE
8
BLACK
6
CONTINUOUS
10
110.309
20
-229.001
11
110.166
21
-228.429
0
LINE
8
BLACK
6
CONTINUOUS
10
110.166
20
-228.429
11
110.166
21
-227.715
0
LINE
8
BLACK
6
CONTINUOUS
10
110.166
20
-227.715
11
110.309
21
-227.144
0
LINE
8
BLACK
6
CONTINUOUS
10
110.309
20
-227.144
11
110.452
21
-226.858
0
LINE
8
BLACK
6
CONTINUOUS
10
110.452
20
-226.858
11
110.595
21
-226.715
0
LINE
8
BLACK
6
CONTINUOUS
10
110.595
20
-226.715
11
110.881
21
-226.572
0
LINE
8
BLACK
6
CONTINUOUS
10
114.452
20
-226.572
11
113.881
21
-226.572
0
LINE
8
BLACK
6
CONTINUOUS
10
113.881
20
-226.572
11
113.595
21
-226.715
0
LINE
8
BLACK
6
CONTINUOUS
10
113.595
20
-226.715
11
113.452
21
-226.858
0
LINE
8
BLACK
6
CONTINUOUS
10
113.452
20
-226.858
11
113.166
21
-227.286
0
LINE
8
BLACK
6
CONTINUOUS
10
113.166
20
-227.286
11
113.024
21
-227.858
0
LINE
8
BLACK
6
CONTINUOUS
10
113.024
20
-227.858
11
113.024
21
-229.001
0
LINE
8
BLACK
6
CONTINUOUS
10
113.024
20
-229.001
11
113.166
21
-229.286
0
LINE
8
BLACK
6
CONTINUOUS
10
113.166
20
-229.286
11
113.309
21
-229.429
0
LINE
8
BLACK
6
CONTINUOUS
10
113.309
20
-229.429
11
113.595
21
-229.572
0
LINE
8
BLACK
6
CONTINUOUS
10
113.595
20
-229.572
11
114.166
21
-229.572
0
LINE
8
BLACK
6
CONTINUOUS
10
114.166
20
-229.572
11
114.452
21
-229.429
0
LINE
8
BLACK
6
CONTINUOUS
10
114.452
20
-229.429
11
114.595
21
-229.286
0
LINE
8
BLACK
6
CONTINUOUS
10
114.595
20
-229.286
11
114.738
21
-229.001
0
LINE
8
BLACK
6
CONTINUOUS
10
114.738
20
-229.001
11
114.738
21
-228.286
0
LINE
8
BLACK
6
CONTINUOUS
10
114.738
20
-228.286
11
114.595
21
-228.001
0
LINE
8
BLACK
6
CONTINUOUS
10
114.595
20
-228.001
11
114.452
21
-227.858
0
LINE
8
BLACK
6
CONTINUOUS
10
114.452
20
-227.858
11
114.166
21
-227.715
0
LINE
8
BLACK
6
CONTINUOUS
10
114.166
20
-227.715
11
113.595
21
-227.715
0
LINE
8
BLACK
6
CONTINUOUS
10
113.595
20
-227.715
11
113.309
21
-227.858
0
LINE
8
BLACK
6
CONTINUOUS
10
113.309
20
-227.858
11
113.166
21
-228.001
0
LINE
8
BLACK
6
CONTINUOUS
10
113.166
20
-228.001
11
113.024
21
-228.286
0
LINE
8
BLACK
6
CONTINUOUS
10
116.166
20
-229.572
11
116.738
21
-229.572
0
LINE
8
BLACK
6
CONTINUOUS
10
116.738
20
-229.572
11
117.024
21
-229.429
0
LINE
8
BLACK
6
CONTINUOUS
10
117.024
20
-229.429
11
117.166
21
-229.286
0
LINE
8
BLACK
6
CONTINUOUS
10
117.166
20
-229.286
11
117.452
21
-228.858
0
LINE
8
BLACK
6
CONTINUOUS
10
117.452
20
-228.858
11
117.595
21
-228.286
0
LINE
8
BLACK
6
CONTINUOUS
10
117.595
20
-228.286
11
117.595
21
-227.144
0
LINE
8
BLACK
6
CONTINUOUS
10
117.595
20
-227.144
11
117.452
21
-226.858
0
LINE
8
BLACK
6
CONTINUOUS
10
117.452
20
-226.858
11
117.309
21
-226.715
0
LINE
8
BLACK
6
CONTINUOUS
10
117.309
20
-226.715
11
117.024
21
-226.572
0
LINE
8
BLACK
6
CONTINUOUS
10
117.024
20
-226.572
11
116.452
21
-226.572
0
LINE
8
BLACK
6
CONTINUOUS
10
116.452
20
-226.572
11
116.166
21
-226.715
0
LINE
8
BLACK
6
CONTINUOUS
10
116.166
20
-226.715
11
116.024
21
-226.858
0
LINE
8
BLACK
6
CONTINUOUS
10
116.024
20
-226.858
11
115.881
21
-227.144
0
LINE
8
BLACK
6
CONTINUOUS
10
115.881
20
-227.144
11
115.881
21
-227.858
0
LINE
8
BLACK
6
CONTINUOUS
10
115.881
20
-227.858
11
116.024
21
-228.144
0
LINE
8
BLACK
6
CONTINUOUS
10
116.024
20
-228.144
11
116.166
21
-228.286
0
LINE
8
BLACK
6
CONTINUOUS
10
116.166
20
-228.286
11
116.452
21
-228.429
0
LINE
8
BLACK
6
CONTINUOUS
10
116.452
20
-228.429
11
117.024
21
-228.429
0
LINE
8
BLACK
6
CONTINUOUS
10
117.024
20
-228.429
11
117.309
21
-228.286
0
LINE
8
BLACK
6
CONTINUOUS
10
117.309
20
-228.286
11
117.452
21
-228.144
0
LINE
8
BLACK
6
CONTINUOUS
10
117.452
20
-228.144
11
117.595
21
-227.858
0
LINE
8
BLACK
6
CONTINUOUS
10
118.738
20
-226.572
11
118.738
21
-227.144
0
LINE
8
BLACK
6
CONTINUOUS
10
119.881
20
-226.572
11
119.881
21
-227.144
0
LINE
8
BLACK
6
CONTINUOUS
10
124.309
20
-230.715
11
124.166
21
-230.572
0
LINE
8
BLACK
6
CONTINUOUS
10
124.166
20
-230.572
11
123.881
21
-230.144
0
LINE
8
BLACK
6
CONTINUOUS
10
123.881
20
-230.144
11
123.738
21
-229.858
0
LINE
8
BLACK
6
CONTINUOUS
10
123.738
20
-229.858
11
123.595
21
-229.429
0
LINE
8
BLACK
6
CONTINUOUS
10
123.595
20
-229.429
11
123.452
21
-228.715
0
LINE
8
BLACK
6
CONTINUOUS
10
123.452
20
-228.715
11
123.452
21
-228.144
0
LINE
8
BLACK
6
CONTINUOUS
10
123.452
20
-228.144
11
123.595
21
-227.429
0
LINE
8
BLACK
6
CONTINUOUS
10
123.595
20
-227.429
11
123.738
21
-227.001
0
LINE
8
BLACK
6
CONTINUOUS
10
123.738
20
-227.001
11
123.881
21
-226.715
0
LINE
8
BLACK
6
CONTINUOUS
10
123.881
20
-226.715
11
124.166
21
-226.286
0
LINE
8
BLACK
6
CONTINUOUS
10
124.166
20
-226.286
11
124.309
21
-226.144
0
LINE
8
BLACK
6
CONTINUOUS
10
127.024
20
-229.572
11
125.309
21
-229.572
0
LINE
8
BLACK
6
CONTINUOUS
10
126.166
20
-229.572
11
126.166
21
-226.572
0
LINE
8
BLACK
6
CONTINUOUS
10
126.166
20
-226.572
11
125.881
21
-227.001
0
LINE
8
BLACK
6
CONTINUOUS
10
125.881
20
-227.001
11
125.595
21
-227.286
0
LINE
8
BLACK
6
CONTINUOUS
10
125.595
20
-227.286
11
125.309
21
-227.429
0
LINE
8
BLACK
6
CONTINUOUS
10
129.738
20
-226.572
11
128.309
21
-226.572
0
LINE
8
BLACK
6
CONTINUOUS
10
128.309
20
-226.572
11
128.166
21
-228.001
0
LINE
8
BLACK
6
CONTINUOUS
10
128.166
20
-228.001
11
128.309
21
-227.858
0
LINE
8
BLACK
6
CONTINUOUS
10
128.309
20
-227.858
11
128.595
21
-227.715
0
LINE
8
BLACK
6
CONTINUOUS
10
128.595
20
-227.715
11
129.309
21
-227.715
0
LINE
8
BLACK
6
CONTINUOUS
10
129.309
20
-227.715
11
129.595
21
-227.858
0
LINE
8
BLACK
6
CONTINUOUS
10
129.595
20
-227.858
11
129.738
21
-228.001
0
LINE
8
BLACK
6
CONTINUOUS
10
129.738
20
-228.001
11
129.881
21
-228.286
0
LINE
8
BLACK
6
CONTINUOUS
10
129.881
20
-228.286
11
129.881
21
-229.001
0
LINE
8
BLACK
6
CONTINUOUS
10
129.881
20
-229.001
11
129.738
21
-229.286
0
LINE
8
BLACK
6
CONTINUOUS
10
129.738
20
-229.286
11
129.595
21
-229.429
0
LINE
8
BLACK
6
CONTINUOUS
10
129.595
20
-229.429
11
129.309
21
-229.572
0
LINE
8
BLACK
6
CONTINUOUS
10
129.309
20
-229.572
11
128.595
21
-229.572
0
LINE
8
BLACK
6
CONTINUOUS
10
128.595
20
-229.572
11
128.309
21
-229.429
0
LINE
8
BLACK
6
CONTINUOUS
10
128.309
20
-229.429
11
128.166
21
-229.286
0
LINE
8
BLACK
6
CONTINUOUS
10
131.595
20
-227.858
11
131.309
21
-227.715
0
LINE
8
BLACK
6
CONTINUOUS
10
131.309
20
-227.715
11
131.166
21
-227.572
0
LINE
8
BLACK
6
CONTINUOUS
10
131.166
20
-227.572
11
131.024
21
-227.286
0
LINE
8
BLACK
6
CONTINUOUS
10
131.024
20
-227.286
11
131.024
21
-227.144
0
LINE
8
BLACK
6
CONTINUOUS
10
131.024
20
-227.144
11
131.166
21
-226.858
0
LINE
8
BLACK
6
CONTINUOUS
10
131.166
20
-226.858
11
131.309
21
-226.715
0
LINE
8
BLACK
6
CONTINUOUS
10
131.309
20
-226.715
11
131.595
21
-226.572
0
LINE
8
BLACK
6
CONTINUOUS
10
131.595
20
-226.572
11
132.166
21
-226.572
0
LINE
8
BLACK
6
CONTINUOUS
10
132.166
20
-226.572
11
132.452
21
-226.715
0
LINE
8
BLACK
6
CONTINUOUS
10
132.452
20
-226.715
11
132.595
21
-226.858
0
LINE
8
BLACK
6
CONTINUOUS
10
132.595
20
-226.858
11
132.738
21
-227.144
0
LINE
8
BLACK
6
CONTINUOUS
10
132.738
20
-227.144
11
132.738
21
-227.286
0
LINE
8
BLACK
6
CONTINUOUS
10
132.738
20
-227.286
11
132.595
21
-227.572
0
LINE
8
BLACK
6
CONTINUOUS
10
132.595
20
-227.572
11
132.452
21
-227.715
0
LINE
8
BLACK
6
CONTINUOUS
10
132.452
20
-227.715
11
132.166
21
-227.858
0
LINE
8
BLACK
6
CONTINUOUS
10
132.166
20
-227.858
11
131.595
21
-227.858
0
LINE
8
BLACK
6
CONTINUOUS
10
131.595
20
-227.858
11
131.309
21
-228.001
0
LINE
8
BLACK
6
CONTINUOUS
10
131.309
20
-228.001
11
131.166
21
-228.144
0
LINE
8
BLACK
6
CONTINUOUS
10
131.166
20
-228.144
11
131.024
21
-228.429
0
LINE
8
BLACK
6
CONTINUOUS
10
131.024
20
-228.429
11
131.024
21
-229.001
0
LINE
8
BLACK
6
CONTINUOUS
10
131.024
20
-229.001
11
131.166
21
-229.286
0
LINE
8
BLACK
6
CONTINUOUS
10
131.166
20
-229.286
11
131.309
21
-229.429
0
LINE
8
BLACK
6
CONTINUOUS
10
131.309
20
-229.429
11
131.595
21
-229.572
0
LINE
8
BLACK
6
CONTINUOUS
10
131.595
20
-229.572
11
132.166
21
-229.572
0
LINE
8
BLACK
6
CONTINUOUS
10
132.166
20
-229.572
11
132.452
21
-229.429
0
LINE
8
BLACK
6
CONTINUOUS
10
132.452
20
-229.429
11
132.595
21
-229.286
0
LINE
8
BLACK
6
CONTINUOUS
10
132.595
20
-229.286
11
132.738
21
-229.001
0
LINE
8
BLACK
6
CONTINUOUS
10
132.738
20
-229.001
11
132.738
21
-228.429
0
LINE
8
BLACK
6
CONTINUOUS
10
132.738
20
-228.429
11
132.595
21
-228.144
0
LINE
8
BLACK
6
CONTINUOUS
10
132.595
20
-228.144
11
132.452
21
-228.001
0
LINE
8
BLACK
6
CONTINUOUS
10
132.452
20
-228.001
11
132.166
21
-227.858
0
LINE
8
BLACK
6
CONTINUOUS
10
136.309
20
-229.572
11
136.309
21
-226.572
0
LINE
8
BLACK
6
CONTINUOUS
10
137.595
20
-229.572
11
137.595
21
-228.001
0
LINE
8
BLACK
6
CONTINUOUS
10
137.595
20
-228.001
11
137.452
21
-227.715
0
LINE
8
BLACK
6
CONTINUOUS
10
137.452
20
-227.715
11
137.166
21
-227.572
0
LINE
8
BLACK
6
CONTINUOUS
10
137.166
20
-227.572
11
136.738
21
-227.572
0
LINE
8
BLACK
6
CONTINUOUS
10
136.738
20
-227.572
11
136.452
21
-227.715
0
LINE
8
BLACK
6
CONTINUOUS
10
136.452
20
-227.715
11
136.309
21
-227.858
0
LINE
8
BLACK
6
CONTINUOUS
10
139.452
20
-229.572
11
139.166
21
-229.429
0
LINE
8
BLACK
6
CONTINUOUS
10
139.166
20
-229.429
11
139.024
21
-229.286
0
LINE
8
BLACK
6
CONTINUOUS
10
139.024
20
-229.286
11
138.881
21
-229.001
0
LINE
8
BLACK
6
CONTINUOUS
10
138.881
20
-229.001
11
138.881
21
-228.144
0
LINE
8
BLACK
6
CONTINUOUS
10
138.881
20
-228.144
11
139.024
21
-227.858
0
LINE
8
BLACK
6
CONTINUOUS
10
139.024
20
-227.858
11
139.166
21
-227.715
0
LINE
8
BLACK
6
CONTINUOUS
10
139.166
20
-227.715
11
139.452
21
-227.572
0
LINE
8
BLACK
6
CONTINUOUS
10
139.452
20
-227.572
11
139.881
21
-227.572
0
LINE
8
BLACK
6
CONTINUOUS
10
139.881
20
-227.572
11
140.166
21
-227.715
0
LINE
8
BLACK
6
CONTINUOUS
10
140.166
20
-227.715
11
140.309
21
-227.858
0
LINE
8
BLACK
6
CONTINUOUS
10
140.309
20
-227.858
11
140.452
21
-228.144
0
LINE
8
BLACK
6
CONTINUOUS
10
140.452
20
-228.144
11
140.452
21
-229.001
0
LINE
8
BLACK
6
CONTINUOUS
10
140.452
20
-229.001
11
140.309
21
-229.286
0
LINE
8
BLACK
6
CONTINUOUS
10
140.309
20
-229.286
11
140.166
21
-229.429
0
LINE
8
BLACK
6
CONTINUOUS
10
140.166
20
-229.429
11
139.881
21
-229.572
0
LINE
8
BLACK
6
CONTINUOUS
10
139.881
20
-229.572
11
139.452
21
-229.572
0
LINE
8
BLACK
6
CONTINUOUS
10
142.166
20
-229.572
11
141.881
21
-229.429
0
LINE
8
BLACK
6
CONTINUOUS
10
141.881
20
-229.429
11
141.738
21
-229.144
0
LINE
8
BLACK
6
CONTINUOUS
10
141.738
20
-229.144
11
141.738
21
-226.572
0
LINE
8
BLACK
6
CONTINUOUS
10
144.452
20
-229.429
11
144.166
21
-229.572
0
LINE
8
BLACK
6
CONTINUOUS
10
144.166
20
-229.572
11
143.595
21
-229.572
0
LINE
8
BLACK
6
CONTINUOUS
10
143.595
20
-229.572
11
143.309
21
-229.429
0
LINE
8
BLACK
6
CONTINUOUS
10
143.309
20
-229.429
11
143.166
21
-229.144
0
LINE
8
BLACK
6
CONTINUOUS
10
143.166
20
-229.144
11
143.166
21
-228.001
0
LINE
8
BLACK
6
CONTINUOUS
10
143.166
20
-228.001
11
143.309
21
-227.715
0
LINE
8
BLACK
6
CONTINUOUS
10
143.309
20
-227.715
11
143.595
21
-227.572
0
LINE
8
BLACK
6
CONTINUOUS
10
143.595
20
-227.572
11
144.166
21
-227.572
0
LINE
8
BLACK
6
CONTINUOUS
10
144.166
20
-227.572
11
144.452
21
-227.715
0
LINE
8
BLACK
6
CONTINUOUS
10
144.452
20
-227.715
11
144.595
21
-228.001
0
LINE
8
BLACK
6
CONTINUOUS
10
144.595
20
-228.001
11
144.595
21
-228.286
0
LINE
8
BLACK
6
CONTINUOUS
10
144.595
20
-228.286
11
143.166
21
-228.572
0
LINE
8
BLACK
6
CONTINUOUS
10
145.738
20
-229.429
11
146.024
21
-229.572
0
LINE
8
BLACK
6
CONTINUOUS
10
146.024
20
-229.572
11
146.595
21
-229.572
0
LINE
8
BLACK
6
CONTINUOUS
10
146.595
20
-229.572
11
146.881
21
-229.429
0
LINE
8
BLACK
6
CONTINUOUS
10
146.881
20
-229.429
11
147.024
21
-229.144
0
LINE
8
BLACK
6
CONTINUOUS
10
147.024
20
-229.144
11
147.024
21
-229.001
0
LINE
8
BLACK
6
CONTINUOUS
10
147.024
20
-229.001
11
146.881
21
-228.715
0
LINE
8
BLACK
6
CONTINUOUS
10
146.881
20
-228.715
11
146.595
21
-228.572
0
LINE
8
BLACK
6
CONTINUOUS
10
146.595
20
-228.572
11
146.166
21
-228.572
0
LINE
8
BLACK
6
CONTINUOUS
10
146.166
20
-228.572
11
145.881
21
-228.429
0
LINE
8
BLACK
6
CONTINUOUS
10
145.881
20
-228.429
11
145.738
21
-228.144
0
LINE
8
BLACK
6
CONTINUOUS
10
145.738
20
-228.144
11
145.738
21
-228.001
0
LINE
8
BLACK
6
CONTINUOUS
10
145.738
20
-228.001
11
145.881
21
-227.715
0
LINE
8
BLACK
6
CONTINUOUS
10
145.881
20
-227.715
11
146.166
21
-227.572
0
LINE
8
BLACK
6
CONTINUOUS
10
146.166
20
-227.572
11
146.595
21
-227.572
0
LINE
8
BLACK
6
CONTINUOUS
10
146.595
20
-227.572
11
146.881
21
-227.715
0
LINE
8
BLACK
6
CONTINUOUS
10
148.024
20
-230.715
11
148.166
21
-230.572
0
LINE
8
BLACK
6
CONTINUOUS
10
148.166
20
-230.572
11
148.452
21
-230.144
0
LINE
8
BLACK
6
CONTINUOUS
10
148.452
20
-230.144
11
148.595
21
-229.858
0
LINE
8
BLACK
6
CONTINUOUS
10
148.595
20
-229.858
11
148.738
21
-229.429
0
LINE
8
BLACK
6
CONTINUOUS
10
148.738
20
-229.429
11
148.881
21
-228.715
0
LINE
8
BLACK
6
CONTINUOUS
10
148.881
20
-228.715
11
148.881
21
-228.144
0
LINE
8
BLACK
6
CONTINUOUS
10
148.881
20
-228.144
11
148.738
21
-227.429
0
LINE
8
BLACK
6
CONTINUOUS
10
148.738
20
-227.429
11
148.595
21
-227.001
0
LINE
8
BLACK
6
CONTINUOUS
10
148.595
20
-227.001
11
148.452
21
-226.715
0
LINE
8
BLACK
6
CONTINUOUS
10
148.452
20
-226.715
11
148.166
21
-226.286
0
LINE
8
BLACK
6
CONTINUOUS
10
148.166
20
-226.286
11
148.024
21
-226.144
0
LINE
8
BLACK
6
CONTINUOUS
10
153.452
20
-230.715
11
153.309
21
-230.572
0
LINE
8
BLACK
6
CONTINUOUS
10
153.309
20
-230.572
11
153.024
21
-230.144
0
LINE
8
BLACK
6
CONTINUOUS
10
153.024
20
-230.144
11
152.881
21
-229.858
0
LINE
8
BLACK
6
CONTINUOUS
10
152.881
20
-229.858
11
152.738
21
-229.429
0
LINE
8
BLACK
6
CONTINUOUS
10
152.738
20
-229.429
11
152.595
21
-228.715
0
LINE
8
BLACK
6
CONTINUOUS
10
152.595
20
-228.715
11
152.595
21
-228.144
0
LINE
8
BLACK
6
CONTINUOUS
10
152.595
20
-228.144
11
152.738
21
-227.429
0
LINE
8
BLACK
6
CONTINUOUS
10
152.738
20
-227.429
11
152.881
21
-227.001
0
LINE
8
BLACK
6
CONTINUOUS
10
152.881
20
-227.001
11
153.024
21
-226.715
0
LINE
8
BLACK
6
CONTINUOUS
10
153.024
20
-226.715
11
153.309
21
-226.286
0
LINE
8
BLACK
6
CONTINUOUS
10
153.309
20
-226.286
11
153.452
21
-226.144
0
LINE
8
BLACK
6
CONTINUOUS
10
154.595
20
-227.572
11
154.595
21
-229.572
0
LINE
8
BLACK
6
CONTINUOUS
10
154.595
20
-227.858
11
154.738
21
-227.715
0
LINE
8
BLACK
6
CONTINUOUS
10
154.738
20
-227.715
11
155.024
21
-227.572
0
LINE
8
BLACK
6
CONTINUOUS
10
155.024
20
-227.572
11
155.452
21
-227.572
0
LINE
8
BLACK
6
CONTINUOUS
10
155.452
20
-227.572
11
155.738
21
-227.715
0
LINE
8
BLACK
6
CONTINUOUS
10
155.738
20
-227.715
11
155.881
21
-228.001
0
LINE
8
BLACK
6
CONTINUOUS
10
155.881
20
-228.001
11
155.881
21
-229.572
0
LINE
8
BLACK
6
CONTINUOUS
10
157.738
20
-229.572
11
157.452
21
-229.429
0
LINE
8
BLACK
6
CONTINUOUS
10
157.452
20
-229.429
11
157.309
21
-229.286
0
LINE
8
BLACK
6
CONTINUOUS
10
157.309
20
-229.286
11
157.166
21
-229.001
0
LINE
8
BLACK
6
CONTINUOUS
10
157.166
20
-229.001
11
157.166
21
-228.144
0
LINE
8
BLACK
6
CONTINUOUS
10
157.166
20
-228.144
11
157.309
21
-227.858
0
LINE
8
BLACK
6
CONTINUOUS
10
157.309
20
-227.858
11
157.452
21
-227.715
0
LINE
8
BLACK
6
CONTINUOUS
10
157.452
20
-227.715
11
157.738
21
-227.572
0
LINE
8
BLACK
6
CONTINUOUS
10
157.738
20
-227.572
11
158.166
21
-227.572
0
LINE
8
BLACK
6
CONTINUOUS
10
158.166
20
-227.572
11
158.452
21
-227.715
0
LINE
8
BLACK
6
CONTINUOUS
10
158.452
20
-227.715
11
158.595
21
-227.858
0
LINE
8
BLACK
6
CONTINUOUS
10
158.595
20
-227.858
11
158.738
21
-228.144
0
LINE
8
BLACK
6
CONTINUOUS
10
158.738
20
-228.144
11
158.738
21
-229.001
0
LINE
8
BLACK
6
CONTINUOUS
10
158.738
20
-229.001
11
158.595
21
-229.286
0
LINE
8
BLACK
6
CONTINUOUS
10
158.595
20
-229.286
11
158.452
21
-229.429
0
LINE
8
BLACK
6
CONTINUOUS
10
158.452
20
-229.429
11
158.166
21
-229.572
0
LINE
8
BLACK
6
CONTINUOUS
10
158.166
20
-229.572
11
157.738
21
-229.572
0
LINE
8
BLACK
6
CONTINUOUS
10
159.595
20
-227.572
11
160.738
21
-227.572
0
LINE
8
BLACK
6
CONTINUOUS
10
160.024
20
-226.572
11
160.024
21
-229.144
0
LINE
8
BLACK
6
CONTINUOUS
10
160.024
20
-229.144
11
160.166
21
-229.429
0
LINE
8
BLACK
6
CONTINUOUS
10
160.166
20
-229.429
11
160.452
21
-229.572
0
LINE
8
BLACK
6
CONTINUOUS
10
160.452
20
-229.572
11
160.738
21
-229.572
0
LINE
8
BLACK
6
CONTINUOUS
10
164.024
20
-227.572
11
164.024
21
-230.572
0
LINE
8
BLACK
6
CONTINUOUS
10
164.024
20
-227.715
11
164.309
21
-227.572
0
LINE
8
BLACK
6
CONTINUOUS
10
164.309
20
-227.572
11
164.881
21
-227.572
0
LINE
8
BLACK
6
CONTINUOUS
10
164.881
20
-227.572
11
165.166
21
-227.715
0
LINE
8
BLACK
6
CONTINUOUS
10
165.166
20
-227.715
11
165.309
21
-227.858
0
LINE
8
BLACK
6
CONTINUOUS
10
165.309
20
-227.858
11
165.452
21
-228.144
0
LINE
8
BLACK
6
CONTINUOUS
10
165.452
20
-228.144
11
165.452
21
-229.001
0
LINE
8
BLACK
6
CONTINUOUS
10
165.452
20
-229.001
11
165.309
21
-229.286
0
LINE
8
BLACK
6
CONTINUOUS
10
165.309
20
-229.286
11
165.166
21
-229.429
0
LINE
8
BLACK
6
CONTINUOUS
10
165.166
20
-229.429
11
164.881
21
-229.572
0
LINE
8
BLACK
6
CONTINUOUS
10
164.881
20
-229.572
11
164.309
21
-229.572
0
LINE
8
BLACK
6
CONTINUOUS
10
164.309
20
-229.572
11
164.024
21
-229.429
0
LINE
8
BLACK
6
CONTINUOUS
10
167.166
20
-229.572
11
166.881
21
-229.429
0
LINE
8
BLACK
6
CONTINUOUS
10
166.881
20
-229.429
11
166.738
21
-229.144
0
LINE
8
BLACK
6
CONTINUOUS
10
166.738
20
-229.144
11
166.738
21
-226.572
0
LINE
8
BLACK
6
CONTINUOUS
10
169.595
20
-229.572
11
169.595
21
-228.001
0
LINE
8
BLACK
6
CONTINUOUS
10
169.595
20
-228.001
11
169.452
21
-227.715
0
LINE
8
BLACK
6
CONTINUOUS
10
169.452
20
-227.715
11
169.166
21
-227.572
0
LINE
8
BLACK
6
CONTINUOUS
10
169.166
20
-227.572
11
168.595
21
-227.572
0
LINE
8
BLACK
6
CONTINUOUS
10
168.595
20
-227.572
11
168.309
21
-227.715
0
LINE
8
BLACK
6
CONTINUOUS
10
169.595
20
-229.429
11
169.309
21
-229.572
0
LINE
8
BLACK
6
CONTINUOUS
10
169.309
20
-229.572
11
168.595
21
-229.572
0
LINE
8
BLACK
6
CONTINUOUS
10
168.595
20
-229.572
11
168.309
21
-229.429
0
LINE
8
BLACK
6
CONTINUOUS
10
168.309
20
-229.429
11
168.166
21
-229.144
0
LINE
8
BLACK
6
CONTINUOUS
10
168.166
20
-229.144
11
168.166
21
-228.858
0
LINE
8
BLACK
6
CONTINUOUS
10
168.166
20
-228.858
11
168.309
21
-228.572
0
LINE
8
BLACK
6
CONTINUOUS
10
168.309
20
-228.572
11
168.595
21
-228.429
0
LINE
8
BLACK
6
CONTINUOUS
10
168.595
20
-228.429
11
169.309
21
-228.429
0
LINE
8
BLACK
6
CONTINUOUS
10
169.309
20
-228.429
11
169.595
21
-228.286
0
LINE
8
BLACK
6
CONTINUOUS
10
170.595
20
-227.572
11
171.738
21
-227.572
0
LINE
8
BLACK
6
CONTINUOUS
10
171.024
20
-226.572
11
171.024
21
-229.144
0
LINE
8
BLACK
6
CONTINUOUS
10
171.024
20
-229.144
11
171.166
21
-229.429
0
LINE
8
BLACK
6
CONTINUOUS
10
171.166
20
-229.429
11
171.452
21
-229.572
0
LINE
8
BLACK
6
CONTINUOUS
10
171.452
20
-229.572
11
171.738
21
-229.572
0
LINE
8
BLACK
6
CONTINUOUS
10
173.881
20
-229.429
11
173.595
21
-229.572
0
LINE
8
BLACK
6
CONTINUOUS
10
173.595
20
-229.572
11
173.024
21
-229.572
0
LINE
8
BLACK
6
CONTINUOUS
10
173.024
20
-229.572
11
172.738
21
-229.429
0
LINE
8
BLACK
6
CONTINUOUS
10
172.738
20
-229.429
11
172.595
21
-229.144
0
LINE
8
BLACK
6
CONTINUOUS
10
172.595
20
-229.144
11
172.595
21
-228.001
0
LINE
8
BLACK
6
CONTINUOUS
10
172.595
20
-228.001
11
172.738
21
-227.715
0
LINE
8
BLACK
6
CONTINUOUS
10
172.738
20
-227.715
11
173.024
21
-227.572
0
LINE
8
BLACK
6
CONTINUOUS
10
173.024
20
-227.572
11
173.595
21
-227.572
0
LINE
8
BLACK
6
CONTINUOUS
10
173.595
20
-227.572
11
173.881
21
-227.715
0
LINE
8
BLACK
6
CONTINUOUS
10
173.881
20
-227.715
11
174.024
21
-228.001
0
LINE
8
BLACK
6
CONTINUOUS
10
174.024
20
-228.001
11
174.024
21
-228.286
0
LINE
8
BLACK
6
CONTINUOUS
10
174.024
20
-228.286
11
172.595
21
-228.572
0
LINE
8
BLACK
6
CONTINUOUS
10
176.595
20
-229.572
11
176.595
21
-226.572
0
LINE
8
BLACK
6
CONTINUOUS
10
176.595
20
-229.429
11
176.309
21
-229.572
0
LINE
8
BLACK
6
CONTINUOUS
10
176.309
20
-229.572
11
175.738
21
-229.572
0
LINE
8
BLACK
6
CONTINUOUS
10
175.738
20
-229.572
11
175.452
21
-229.429
0
LINE
8
BLACK
6
CONTINUOUS
10
175.452
20
-229.429
11
175.309
21
-229.286
0
LINE
8
BLACK
6
CONTINUOUS
10
175.309
20
-229.286
11
175.166
21
-229.001
0
LINE
8
BLACK
6
CONTINUOUS
10
175.166
20
-229.001
11
175.166
21
-228.144
0
LINE
8
BLACK
6
CONTINUOUS
10
175.166
20
-228.144
11
175.309
21
-227.858
0
LINE
8
BLACK
6
CONTINUOUS
10
175.309
20
-227.858
11
175.452
21
-227.715
0
LINE
8
BLACK
6
CONTINUOUS
10
175.452
20
-227.715
11
175.738
21
-227.572
0
LINE
8
BLACK
6
CONTINUOUS
10
175.738
20
-227.572
11
176.309
21
-227.572
0
LINE
8
BLACK
6
CONTINUOUS
10
176.309
20
-227.572
11
176.595
21
-227.715
0
LINE
8
BLACK
6
CONTINUOUS
10
177.738
20
-230.715
11
177.881
21
-230.572
0
LINE
8
BLACK
6
CONTINUOUS
10
177.881
20
-230.572
11
178.166
21
-230.144
0
LINE
8
BLACK
6
CONTINUOUS
10
178.166
20
-230.144
11
178.309
21
-229.858
0
LINE
8
BLACK
6
CONTINUOUS
10
178.309
20
-229.858
11
178.452
21
-229.429
0
LINE
8
BLACK
6
CONTINUOUS
10
178.452
20
-229.429
11
178.595
21
-228.715
0
LINE
8
BLACK
6
CONTINUOUS
10
178.595
20
-228.715
11
178.595
21
-228.144
0
LINE
8
BLACK
6
CONTINUOUS
10
178.595
20
-228.144
11
178.452
21
-227.429
0
LINE
8
BLACK
6
CONTINUOUS
10
178.452
20
-227.429
11
178.309
21
-227.001
0
LINE
8
BLACK
6
CONTINUOUS
10
178.309
20
-227.001
11
178.166
21
-226.715
0
LINE
8
BLACK
6
CONTINUOUS
10
178.166
20
-226.715
11
177.881
21
-226.286
0
LINE
8
BLACK
6
CONTINUOUS
10
177.881
20
-226.286
11
177.738
21
-226.144
0
LINE
8
BLACK
6
CONTINUOUS
10
75.921
20
-230.651
11
75.921
21
-233.699
0
LINE
8
BLACK
6
CONTINUOUS
10
74.397
20
-232.175
11
77.445
21
-232.175
0
LINE
8
BLACK
6
CONTINUOUS
10
80.0236
20
-230.532
11
81.8807
21
-230.532
0
LINE
8
BLACK
6
CONTINUOUS
10
81.8807
20
-230.532
11
80.8807
21
-231.675
0
LINE
8
BLACK
6
CONTINUOUS
10
80.8807
20
-231.675
11
81.3093
21
-231.675
0
LINE
8
BLACK
6
CONTINUOUS
10
81.3093
20
-231.675
11
81.595
21
-231.818
0
LINE
8
BLACK
6
CONTINUOUS
10
81.595
20
-231.818
11
81.7379
21
-231.961
0
LINE
8
BLACK
6
CONTINUOUS
10
81.7379
20
-231.961
11
81.8807
21
-232.246
0
LINE
8
BLACK
6
CONTINUOUS
10
81.8807
20
-232.246
11
81.8807
21
-232.961
0
LINE
8
BLACK
6
CONTINUOUS
10
81.8807
20
-232.961
11
81.7379
21
-233.246
0
LINE
8
BLACK
6
CONTINUOUS
10
81.7379
20
-233.246
11
81.595
21
-233.389
0
LINE
8
BLACK
6
CONTINUOUS
10
81.595
20
-233.389
11
81.3093
21
-233.532
0
LINE
8
BLACK
6
CONTINUOUS
10
81.3093
20
-233.532
11
80.4521
21
-233.532
0
LINE
8
BLACK
6
CONTINUOUS
10
80.4521
20
-233.532
11
80.1664
21
-233.389
0
LINE
8
BLACK
6
CONTINUOUS
10
80.1664
20
-233.389
11
80.0236
21
-233.246
0
LINE
8
BLACK
6
CONTINUOUS
10
83.1664
20
-233.246
11
83.3093
21
-233.389
0
LINE
8
BLACK
6
CONTINUOUS
10
83.3093
20
-233.389
11
83.1664
21
-233.532
0
LINE
8
BLACK
6
CONTINUOUS
10
83.1664
20
-233.532
11
83.0236
21
-233.389
0
LINE
8
BLACK
6
CONTINUOUS
10
83.0236
20
-233.389
11
83.1664
21
-233.246
0
LINE
8
BLACK
6
CONTINUOUS
10
83.1664
20
-233.246
11
83.1664
21
-233.532
0
LINE
8
BLACK
6
CONTINUOUS
10
85.1664
20
-230.532
11
85.4521
21
-230.532
0
LINE
8
BLACK
6
CONTINUOUS
10
85.4521
20
-230.532
11
85.7379
21
-230.675
0
LINE
8
BLACK
6
CONTINUOUS
10
85.7379
20
-230.675
11
85.8807
21
-230.818
0
LINE
8
BLACK
6
CONTINUOUS
10
85.8807
20
-230.818
11
86.0236
21
-231.104
0
LINE
8
BLACK
6
CONTINUOUS
10
86.0236
20
-231.104
11
86.1664
21
-231.675
0
LINE
8
BLACK
6
CONTINUOUS
10
86.1664
20
-231.675
11
86.1664
21
-232.389
0
LINE
8
BLACK
6
CONTINUOUS
10
86.1664
20
-232.389
11
86.0236
21
-232.961
0
LINE
8
BLACK
6
CONTINUOUS
10
86.0236
20
-232.961
11
85.8807
21
-233.246
0
LINE
8
BLACK
6
CONTINUOUS
10
85.8807
20
-233.246
11
85.7379
21
-233.389
0
LINE
8
BLACK
6
CONTINUOUS
10
85.7379
20
-233.389
11
85.4521
21
-233.532
0
LINE
8
BLACK
6
CONTINUOUS
10
85.4521
20
-233.532
11
85.1664
21
-233.532
0
LINE
8
BLACK
6
CONTINUOUS
10
85.1664
20
-233.532
11
84.8807
21
-233.389
0
LINE
8
BLACK
6
CONTINUOUS
10
84.8807
20
-233.389
11
84.7379
21
-233.246
0
LINE
8
BLACK
6
CONTINUOUS
10
84.7379
20
-233.246
11
84.595
21
-232.961
0
LINE
8
BLACK
6
CONTINUOUS
10
84.595
20
-232.961
11
84.4521
21
-232.389
0
LINE
8
BLACK
6
CONTINUOUS
10
84.4521
20
-232.389
11
84.4521
21
-231.675
0
LINE
8
BLACK
6
CONTINUOUS
10
84.4521
20
-231.675
11
84.595
21
-231.104
0
LINE
8
BLACK
6
CONTINUOUS
10
84.595
20
-231.104
11
84.7379
21
-230.818
0
LINE
8
BLACK
6
CONTINUOUS
10
84.7379
20
-230.818
11
84.8807
21
-230.675
0
LINE
8
BLACK
6
CONTINUOUS
10
84.8807
20
-230.675
11
85.1664
21
-230.532
0
LINE
8
BLACK
6
CONTINUOUS
10
88.8807
20
-230.532
11
87.4521
21
-230.532
0
LINE
8
BLACK
6
CONTINUOUS
10
87.4521
20
-230.532
11
87.3093
21
-231.961
0
LINE
8
BLACK
6
CONTINUOUS
10
87.3093
20
-231.961
11
87.4521
21
-231.818
0
LINE
8
BLACK
6
CONTINUOUS
10
87.4521
20
-231.818
11
87.7379
21
-231.675
0
LINE
8
BLACK
6
CONTINUOUS
10
87.7379
20
-231.675
11
88.4521
21
-231.675
0
LINE
8
BLACK
6
CONTINUOUS
10
88.4521
20
-231.675
11
88.7379
21
-231.818
0
LINE
8
BLACK
6
CONTINUOUS
10
88.7379
20
-231.818
11
88.8807
21
-231.961
0
LINE
8
BLACK
6
CONTINUOUS
10
88.8807
20
-231.961
11
89.0236
21
-232.246
0
LINE
8
BLACK
6
CONTINUOUS
10
89.0236
20
-232.246
11
89.0236
21
-232.961
0
LINE
8
BLACK
6
CONTINUOUS
10
89.0236
20
-232.961
11
88.8807
21
-233.246
0
LINE
8
BLACK
6
CONTINUOUS
10
88.8807
20
-233.246
11
88.7379
21
-233.389
0
LINE
8
BLACK
6
CONTINUOUS
10
88.7379
20
-233.389
11
88.4521
21
-233.532
0
LINE
8
BLACK
6
CONTINUOUS
10
88.4521
20
-233.532
11
87.7379
21
-233.532
0
LINE
8
BLACK
6
CONTINUOUS
10
87.7379
20
-233.532
11
87.4521
21
-233.389
0
LINE
8
BLACK
6
CONTINUOUS
10
87.4521
20
-233.389
11
87.3093
21
-233.246
0
LINE
8
BLACK
6
CONTINUOUS
10
90.3093
20
-233.532
11
90.3093
21
-231.532
0
LINE
8
BLACK
6
CONTINUOUS
10
90.3093
20
-231.818
11
90.4521
21
-231.675
0
LINE
8
BLACK
6
CONTINUOUS
10
90.4521
20
-231.675
11
90.7379
21
-231.532
0
LINE
8
BLACK
6
CONTINUOUS
10
90.7379
20
-231.532
11
91.1664
21
-231.532
0
LINE
8
BLACK
6
CONTINUOUS
10
91.1664
20
-231.532
11
91.4521
21
-231.675
0
LINE
8
BLACK
6
CONTINUOUS
10
91.4521
20
-231.675
11
91.595
21
-231.961
0
LINE
8
BLACK
6
CONTINUOUS
10
91.595
20
-231.961
11
91.595
21
-233.532
0
LINE
8
BLACK
6
CONTINUOUS
10
91.595
20
-231.961
11
91.7379
21
-231.675
0
LINE
8
BLACK
6
CONTINUOUS
10
91.7379
20
-231.675
11
92.0236
21
-231.532
0
LINE
8
BLACK
6
CONTINUOUS
10
92.0236
20
-231.532
11
92.4521
21
-231.532
0
LINE
8
BLACK
6
CONTINUOUS
10
92.4521
20
-231.532
11
92.7379
21
-231.675
0
LINE
8
BLACK
6
CONTINUOUS
10
92.7379
20
-231.675
11
92.8807
21
-231.961
0
LINE
8
BLACK
6
CONTINUOUS
10
92.8807
20
-231.961
11
92.8807
21
-233.532
0
LINE
8
BLACK
6
CONTINUOUS
10
94.3093
20
-233.532
11
94.3093
21
-231.532
0
LINE
8
BLACK
6
CONTINUOUS
10
94.3093
20
-231.818
11
94.4521
21
-231.675
0
LINE
8
BLACK
6
CONTINUOUS
10
94.4521
20
-231.675
11
94.7379
21
-231.532
0
LINE
8
BLACK
6
CONTINUOUS
10
94.7379
20
-231.532
11
95.1664
21
-231.532
0
LINE
8
BLACK
6
CONTINUOUS
10
95.1664
20
-231.532
11
95.4521
21
-231.675
0
LINE
8
BLACK
6
CONTINUOUS
10
95.4521
20
-231.675
11
95.595
21
-231.961
0
LINE
8
BLACK
6
CONTINUOUS
10
95.595
20
-231.961
11
95.595
21
-233.532
0
LINE
8
BLACK
6
CONTINUOUS
10
95.595
20
-231.961
11
95.7379
21
-231.675
0
LINE
8
BLACK
6
CONTINUOUS
10
95.7379
20
-231.675
11
96.0236
21
-231.532
0
LINE
8
BLACK
6
CONTINUOUS
10
96.0236
20
-231.532
11
96.4521
21
-231.532
0
LINE
8
BLACK
6
CONTINUOUS
10
96.4521
20
-231.532
11
96.7379
21
-231.675
0
LINE
8
BLACK
6
CONTINUOUS
10
96.7379
20
-231.675
11
96.8807
21
-231.961
0
LINE
8
BLACK
6
CONTINUOUS
10
96.8807
20
-231.961
11
96.8807
21
-233.532
0
LINE
8
BLACK
6
CONTINUOUS
10
102.738
20
-230.389
11
100.166
21
-234.246
0
LINE
8
BLACK
6
CONTINUOUS
10
106.595
20
-230.532
11
106.881
21
-230.532
0
LINE
8
BLACK
6
CONTINUOUS
10
106.881
20
-230.532
11
107.166
21
-230.675
0
LINE
8
BLACK
6
CONTINUOUS
10
107.166
20
-230.675
11
107.309
21
-230.818
0
LINE
8
BLACK
6
CONTINUOUS
10
107.309
20
-230.818
11
107.452
21
-231.104
0
LINE
8
BLACK
6
CONTINUOUS
10
107.452
20
-231.104
11
107.595
21
-231.675
0
LINE
8
BLACK
6
CONTINUOUS
10
107.595
20
-231.675
11
107.595
21
-232.389
0
LINE
8
BLACK
6
CONTINUOUS
10
107.595
20
-232.389
11
107.452
21
-232.961
0
LINE
8
BLACK
6
CONTINUOUS
10
107.452
20
-232.961
11
107.309
21
-233.246
0
LINE
8
BLACK
6
CONTINUOUS
10
107.309
20
-233.246
11
107.166
21
-233.389
0
LINE
8
BLACK
6
CONTINUOUS
10
107.166
20
-233.389
11
106.881
21
-233.532
0
LINE
8
BLACK
6
CONTINUOUS
10
106.881
20
-233.532
11
106.595
21
-233.532
0
LINE
8
BLACK
6
CONTINUOUS
10
106.595
20
-233.532
11
106.309
21
-233.389
0
LINE
8
BLACK
6
CONTINUOUS
10
106.309
20
-233.389
11
106.166
21
-233.246
0
LINE
8
BLACK
6
CONTINUOUS
10
106.166
20
-233.246
11
106.024
21
-232.961
0
LINE
8
BLACK
6
CONTINUOUS
10
106.024
20
-232.961
11
105.881
21
-232.389
0
LINE
8
BLACK
6
CONTINUOUS
10
105.881
20
-232.389
11
105.881
21
-231.675
0
LINE
8
BLACK
6
CONTINUOUS
10
105.881
20
-231.675
11
106.024
21
-231.104
0
LINE
8
BLACK
6
CONTINUOUS
10
106.024
20
-231.104
11
106.166
21
-230.818
0
LINE
8
BLACK
6
CONTINUOUS
10
106.166
20
-230.818
11
106.309
21
-230.675
0
LINE
8
BLACK
6
CONTINUOUS
10
106.309
20
-230.675
11
106.595
21
-230.532
0
LINE
8
BLACK
6
CONTINUOUS
10
108.881
20
-233.246
11
109.024
21
-233.389
0
LINE
8
BLACK
6
CONTINUOUS
10
109.024
20
-233.389
11
108.881
21
-233.532
0
LINE
8
BLACK
6
CONTINUOUS
10
108.881
20
-233.532
11
108.738
21
-233.389
0
LINE
8
BLACK
6
CONTINUOUS
10
108.738
20
-233.389
11
108.881
21
-233.246
0
LINE
8
BLACK
6
CONTINUOUS
10
108.881
20
-233.246
11
108.881
21
-233.532
0
LINE
8
BLACK
6
CONTINUOUS
10
111.881
20
-233.532
11
110.166
21
-233.532
0
LINE
8
BLACK
6
CONTINUOUS
10
111.024
20
-233.532
11
111.024
21
-230.532
0
LINE
8
BLACK
6
CONTINUOUS
10
111.024
20
-230.532
11
110.738
21
-230.961
0
LINE
8
BLACK
6
CONTINUOUS
10
110.738
20
-230.961
11
110.452
21
-231.246
0
LINE
8
BLACK
6
CONTINUOUS
10
110.452
20
-231.246
11
110.166
21
-231.389
0
LINE
8
BLACK
6
CONTINUOUS
10
113.024
20
-230.818
11
113.166
21
-230.675
0
LINE
8
BLACK
6
CONTINUOUS
10
113.166
20
-230.675
11
113.452
21
-230.532
0
LINE
8
BLACK
6
CONTINUOUS
10
113.452
20
-230.532
11
114.166
21
-230.532
0
LINE
8
BLACK
6
CONTINUOUS
10
114.166
20
-230.532
11
114.452
21
-230.675
0
LINE
8
BLACK
6
CONTINUOUS
10
114.452
20
-230.675
11
114.595
21
-230.818
0
LINE
8
BLACK
6
CONTINUOUS
10
114.595
20
-230.818
11
114.738
21
-231.104
0
LINE
8
BLACK
6
CONTINUOUS
10
114.738
20
-231.104
11
114.738
21
-231.389
0
LINE
8
BLACK
6
CONTINUOUS
10
114.738
20
-231.389
11
114.595
21
-231.818
0
LINE
8
BLACK
6
CONTINUOUS
10
114.595
20
-231.818
11
112.881
21
-233.532
0
LINE
8
BLACK
6
CONTINUOUS
10
112.881
20
-233.532
11
114.738
21
-233.532
0
LINE
8
BLACK
6
CONTINUOUS
10
116.595
20
-230.532
11
116.881
21
-230.532
0
LINE
8
BLACK
6
CONTINUOUS
10
116.881
20
-230.532
11
117.166
21
-230.675
0
LINE
8
BLACK
6
CONTINUOUS
10
117.166
20
-230.675
11
117.309
21
-230.818
0
LINE
8
BLACK
6
CONTINUOUS
10
117.309
20
-230.818
11
117.452
21
-231.104
0
LINE
8
BLACK
6
CONTINUOUS
10
117.452
20
-231.104
11
117.595
21
-231.675
0
LINE
8
BLACK
6
CONTINUOUS
10
117.595
20
-231.675
11
117.595
21
-232.389
0
LINE
8
BLACK
6
CONTINUOUS
10
117.595
20
-232.389
11
117.452
21
-232.961
0
LINE
8
BLACK
6
CONTINUOUS
10
117.452
20
-232.961
11
117.309
21
-233.246
0
LINE
8
BLACK
6
CONTINUOUS
10
117.309
20
-233.246
11
117.166
21
-233.389
0
LINE
8
BLACK
6
CONTINUOUS
10
117.166
20
-233.389
11
116.881
21
-233.532
0
LINE
8
BLACK
6
CONTINUOUS
10
116.881
20
-233.532
11
116.595
21
-233.532
0
LINE
8
BLACK
6
CONTINUOUS
10
116.595
20
-233.532
11
116.309
21
-233.389
0
LINE
8
BLACK
6
CONTINUOUS
10
116.309
20
-233.389
11
116.166
21
-233.246
0
LINE
8
BLACK
6
CONTINUOUS
10
116.166
20
-233.246
11
116.024
21
-232.961
0
LINE
8
BLACK
6
CONTINUOUS
10
116.024
20
-232.961
11
115.881
21
-232.389
0
LINE
8
BLACK
6
CONTINUOUS
10
115.881
20
-232.389
11
115.881
21
-231.675
0
LINE
8
BLACK
6
CONTINUOUS
10
115.881
20
-231.675
11
116.024
21
-231.104
0
LINE
8
BLACK
6
CONTINUOUS
10
116.024
20
-231.104
11
116.166
21
-230.818
0
LINE
8
BLACK
6
CONTINUOUS
10
116.166
20
-230.818
11
116.309
21
-230.675
0
LINE
8
BLACK
6
CONTINUOUS
10
116.309
20
-230.675
11
116.595
21
-230.532
0
LINE
8
BLACK
6
CONTINUOUS
10
118.738
20
-230.532
11
118.738
21
-231.104
0
LINE
8
BLACK
6
CONTINUOUS
10
119.881
20
-230.532
11
119.881
21
-231.104
0
LINE
8
BLACK
6
CONTINUOUS
10
124.309
20
-234.675
11
124.166
21
-234.532
0
LINE
8
BLACK
6
CONTINUOUS
10
124.166
20
-234.532
11
123.881
21
-234.104
0
LINE
8
BLACK
6
CONTINUOUS
10
123.881
20
-234.104
11
123.738
21
-233.818
0
LINE
8
BLACK
6
CONTINUOUS
10
123.738
20
-233.818
11
123.595
21
-233.389
0
LINE
8
BLACK
6
CONTINUOUS
10
123.595
20
-233.389
11
123.452
21
-232.675
0
LINE
8
BLACK
6
CONTINUOUS
10
123.452
20
-232.675
11
123.452
21
-232.104
0
LINE
8
BLACK
6
CONTINUOUS
10
123.452
20
-232.104
11
123.595
21
-231.389
0
LINE
8
BLACK
6
CONTINUOUS
10
123.595
20
-231.389
11
123.738
21
-230.961
0
LINE
8
BLACK
6
CONTINUOUS
10
123.738
20
-230.961
11
123.881
21
-230.675
0
LINE
8
BLACK
6
CONTINUOUS
10
123.881
20
-230.675
11
124.166
21
-230.246
0
LINE
8
BLACK
6
CONTINUOUS
10
124.166
20
-230.246
11
124.309
21
-230.104
0
LINE
8
BLACK
6
CONTINUOUS
10
125.881
20
-231.818
11
125.595
21
-231.675
0
LINE
8
BLACK
6
CONTINUOUS
10
125.595
20
-231.675
11
125.452
21
-231.532
0
LINE
8
BLACK
6
CONTINUOUS
10
125.452
20
-231.532
11
125.309
21
-231.246
0
LINE
8
BLACK
6
CONTINUOUS
10
125.309
20
-231.246
11
125.309
21
-231.104
0
LINE
8
BLACK
6
CONTINUOUS
10
125.309
20
-231.104
11
125.452
21
-230.818
0
LINE
8
BLACK
6
CONTINUOUS
10
125.452
20
-230.818
11
125.595
21
-230.675
0
LINE
8
BLACK
6
CONTINUOUS
10
125.595
20
-230.675
11
125.881
21
-230.532
0
LINE
8
BLACK
6
CONTINUOUS
10
125.881
20
-230.532
11
126.452
21
-230.532
0
LINE
8
BLACK
6
CONTINUOUS
10
126.452
20
-230.532
11
126.738
21
-230.675
0
LINE
8
BLACK
6
CONTINUOUS
10
126.738
20
-230.675
11
126.881
21
-230.818
0
LINE
8
BLACK
6
CONTINUOUS
10
126.881
20
-230.818
11
127.024
21
-231.104
0
LINE
8
BLACK
6
CONTINUOUS
10
127.024
20
-231.104
11
127.024
21
-231.246
0
LINE
8
BLACK
6
CONTINUOUS
10
127.024
20
-231.246
11
126.881
21
-231.532
0
LINE
8
BLACK
6
CONTINUOUS
10
126.881
20
-231.532
11
126.738
21
-231.675
0
LINE
8
BLACK
6
CONTINUOUS
10
126.738
20
-231.675
11
126.452
21
-231.818
0
LINE
8
BLACK
6
CONTINUOUS
10
126.452
20
-231.818
11
125.881
21
-231.818
0
LINE
8
BLACK
6
CONTINUOUS
10
125.881
20
-231.818
11
125.595
21
-231.961
0
LINE
8
BLACK
6
CONTINUOUS
10
125.595
20
-231.961
11
125.452
21
-232.104
0
LINE
8
BLACK
6
CONTINUOUS
10
125.452
20
-232.104
11
125.309
21
-232.389
0
LINE
8
BLACK
6
CONTINUOUS
10
125.309
20
-232.389
11
125.309
21
-232.961
0
LINE
8
BLACK
6
CONTINUOUS
10
125.309
20
-232.961
11
125.452
21
-233.246
0
LINE
8
BLACK
6
CONTINUOUS
10
125.452
20
-233.246
11
125.595
21
-233.389
0
LINE
8
BLACK
6
CONTINUOUS
10
125.595
20
-233.389
11
125.881
21
-233.532
0
LINE
8
BLACK
6
CONTINUOUS
10
125.881
20
-233.532
11
126.452
21
-233.532
0
LINE
8
BLACK
6
CONTINUOUS
10
126.452
20
-233.532
11
126.738
21
-233.389
0
LINE
8
BLACK
6
CONTINUOUS
10
126.738
20
-233.389
11
126.881
21
-233.246
0
LINE
8
BLACK
6
CONTINUOUS
10
126.881
20
-233.246
11
127.024
21
-232.961
0
LINE
8
BLACK
6
CONTINUOUS
10
127.024
20
-232.961
11
127.024
21
-232.389
0
LINE
8
BLACK
6
CONTINUOUS
10
127.024
20
-232.389
11
126.881
21
-232.104
0
LINE
8
BLACK
6
CONTINUOUS
10
126.881
20
-232.104
11
126.738
21
-231.961
0
LINE
8
BLACK
6
CONTINUOUS
10
126.738
20
-231.961
11
126.452
21
-231.818
0
LINE
8
BLACK
6
CONTINUOUS
10
130.595
20
-233.532
11
130.595
21
-230.532
0
LINE
8
BLACK
6
CONTINUOUS
10
131.881
20
-233.532
11
131.881
21
-231.961
0
LINE
8
BLACK
6
CONTINUOUS
10
131.881
20
-231.961
11
131.738
21
-231.675
0
LINE
8
BLACK
6
CONTINUOUS
10
131.738
20
-231.675
11
131.452
21
-231.532
0
LINE
8
BLACK
6
CONTINUOUS
10
131.452
20
-231.532
11
131.024
21
-231.532
0
LINE
8
BLACK
6
CONTINUOUS
10
131.024
20
-231.532
11
130.738
21
-231.675
0
LINE
8
BLACK
6
CONTINUOUS
10
130.738
20
-231.675
11
130.595
21
-231.818
0
LINE
8
BLACK
6
CONTINUOUS
10
133.738
20
-233.532
11
133.452
21
-233.389
0
LINE
8
BLACK
6
CONTINUOUS
10
133.452
20
-233.389
11
133.309
21
-233.246
0
LINE
8
BLACK
6
CONTINUOUS
10
133.309
20
-233.246
11
133.166
21
-232.961
0
LINE
8
BLACK
6
CONTINUOUS
10
133.166
20
-232.961
11
133.166
21
-232.104
0
LINE
8
BLACK
6
CONTINUOUS
10
133.166
20
-232.104
11
133.309
21
-231.818
0
LINE
8
BLACK
6
CONTINUOUS
10
133.309
20
-231.818
11
133.452
21
-231.675
0
LINE
8
BLACK
6
CONTINUOUS
10
133.452
20
-231.675
11
133.738
21
-231.532
0
LINE
8
BLACK
6
CONTINUOUS
10
133.738
20
-231.532
11
134.166
21
-231.532
0
LINE
8
BLACK
6
CONTINUOUS
10
134.166
20
-231.532
11
134.452
21
-231.675
0
LINE
8
BLACK
6
CONTINUOUS
10
134.452
20
-231.675
11
134.595
21
-231.818
0
LINE
8
BLACK
6
CONTINUOUS
10
134.595
20
-231.818
11
134.738
21
-232.104
0
LINE
8
BLACK
6
CONTINUOUS
10
134.738
20
-232.104
11
134.738
21
-232.961
0
LINE
8
BLACK
6
CONTINUOUS
10
134.738
20
-232.961
11
134.595
21
-233.246
0
LINE
8
BLACK
6
CONTINUOUS
10
134.595
20
-233.246
11
134.452
21
-233.389
0
LINE
8
BLACK
6
CONTINUOUS
10
134.452
20
-233.389
11
134.166
21
-233.532
0
LINE
8
BLACK
6
CONTINUOUS
10
134.166
20
-233.532
11
133.738
21
-233.532
0
LINE
8
BLACK
6
CONTINUOUS
10
136.452
20
-233.532
11
136.166
21
-233.389
0
LINE
8
BLACK
6
CONTINUOUS
10
136.166
20
-233.389
11
136.024
21
-233.104
0
LINE
8
BLACK
6
CONTINUOUS
10
136.024
20
-233.104
11
136.024
21
-230.532
0
LINE
8
BLACK
6
CONTINUOUS
10
138.738
20
-233.389
11
138.452
21
-233.532
0
LINE
8
BLACK
6
CONTINUOUS
10
138.452
20
-233.532
11
137.881
21
-233.532
0
LINE
8
BLACK
6
CONTINUOUS
10
137.881
20
-233.532
11
137.595
21
-233.389
0
LINE
8
BLACK
6
CONTINUOUS
10
137.595
20
-233.389
11
137.452
21
-233.104
0
LINE
8
BLACK
6
CONTINUOUS
10
137.452
20
-233.104
11
137.452
21
-231.961
0
LINE
8
BLACK
6
CONTINUOUS
10
137.452
20
-231.961
11
137.595
21
-231.675
0
LINE
8
BLACK
6
CONTINUOUS
10
137.595
20
-231.675
11
137.881
21
-231.532
0
LINE
8
BLACK
6
CONTINUOUS
10
137.881
20
-231.532
11
138.452
21
-231.532
0
LINE
8
BLACK
6
CONTINUOUS
10
138.452
20
-231.532
11
138.738
21
-231.675
0
LINE
8
BLACK
6
CONTINUOUS
10
138.738
20
-231.675
11
138.881
21
-231.961
0
LINE
8
BLACK
6
CONTINUOUS
10
138.881
20
-231.961
11
138.881
21
-232.246
0
LINE
8
BLACK
6
CONTINUOUS
10
138.881
20
-232.246
11
137.452
21
-232.532
0
LINE
8
BLACK
6
CONTINUOUS
10
140.024
20
-233.389
11
140.309
21
-233.532
0
LINE
8
BLACK
6
CONTINUOUS
10
140.309
20
-233.532
11
140.881
21
-233.532
0
LINE
8
BLACK
6
CONTINUOUS
10
140.881
20
-233.532
11
141.166
21
-233.389
0
LINE
8
BLACK
6
CONTINUOUS
10
141.166
20
-233.389
11
141.309
21
-233.104
0
LINE
8
BLACK
6
CONTINUOUS
10
141.309
20
-233.104
11
141.309
21
-232.961
0
LINE
8
BLACK
6
CONTINUOUS
10
141.309
20
-232.961
11
141.166
21
-232.675
0
LINE
8
BLACK
6
CONTINUOUS
10
141.166
20
-232.675
11
140.881
21
-232.532
0
LINE
8
BLACK
6
CONTINUOUS
10
140.881
20
-232.532
11
140.452
21
-232.532
0
LINE
8
BLACK
6
CONTINUOUS
10
140.452
20
-232.532
11
140.166
21
-232.389
0
LINE
8
BLACK
6
CONTINUOUS
10
140.166
20
-232.389
11
140.024
21
-232.104
0
LINE
8
BLACK
6
CONTINUOUS
10
140.024
20
-232.104
11
140.024
21
-231.961
0
LINE
8
BLACK
6
CONTINUOUS
10
140.024
20
-231.961
11
140.166
21
-231.675
0
LINE
8
BLACK
6
CONTINUOUS
10
140.166
20
-231.675
11
140.452
21
-231.532
0
LINE
8
BLACK
6
CONTINUOUS
10
140.452
20
-231.532
11
140.881
21
-231.532
0
LINE
8
BLACK
6
CONTINUOUS
10
140.881
20
-231.532
11
141.166
21
-231.675
0
LINE
8
BLACK
6
CONTINUOUS
10
142.309
20
-234.675
11
142.452
21
-234.532
0
LINE
8
BLACK
6
CONTINUOUS
10
142.452
20
-234.532
11
142.738
21
-234.104
0
LINE
8
BLACK
6
CONTINUOUS
10
142.738
20
-234.104
11
142.881
21
-233.818
0
LINE
8
BLACK
6
CONTINUOUS
10
142.881
20
-233.818
11
143.024
21
-233.389
0
LINE
8
BLACK
6
CONTINUOUS
10
143.024
20
-233.389
11
143.166
21
-232.675
0
LINE
8
BLACK
6
CONTINUOUS
10
143.166
20
-232.675
11
143.166
21
-232.104
0
LINE
8
BLACK
6
CONTINUOUS
10
143.166
20
-232.104
11
143.024
21
-231.389
0
LINE
8
BLACK
6
CONTINUOUS
10
143.024
20
-231.389
11
142.881
21
-230.961
0
LINE
8
BLACK
6
CONTINUOUS
10
142.881
20
-230.961
11
142.738
21
-230.675
0
LINE
8
BLACK
6
CONTINUOUS
10
142.738
20
-230.675
11
142.452
21
-230.246
0
LINE
8
BLACK
6
CONTINUOUS
10
142.452
20
-230.246
11
142.309
21
-230.104
0
LINE
8
BLACK
6
CONTINUOUS
10
147.738
20
-234.675
11
147.595
21
-234.532
0
LINE
8
BLACK
6
CONTINUOUS
10
147.595
20
-234.532
11
147.309
21
-234.104
0
LINE
8
BLACK
6
CONTINUOUS
10
147.309
20
-234.104
11
147.166
21
-233.818
0
LINE
8
BLACK
6
CONTINUOUS
10
147.166
20
-233.818
11
147.024
21
-233.389
0
LINE
8
BLACK
6
CONTINUOUS
10
147.024
20
-233.389
11
146.881
21
-232.675
0
LINE
8
BLACK
6
CONTINUOUS
10
146.881
20
-232.675
11
146.881
21
-232.104
0
LINE
8
BLACK
6
CONTINUOUS
10
146.881
20
-232.104
11
147.024
21
-231.389
0
LINE
8
BLACK
6
CONTINUOUS
10
147.024
20
-231.389
11
147.166
21
-230.961
0
LINE
8
BLACK
6
CONTINUOUS
10
147.166
20
-230.961
11
147.309
21
-230.675
0
LINE
8
BLACK
6
CONTINUOUS
10
147.309
20
-230.675
11
147.595
21
-230.246
0
LINE
8
BLACK
6
CONTINUOUS
10
147.595
20
-230.246
11
147.738
21
-230.104
0
LINE
8
BLACK
6
CONTINUOUS
10
148.881
20
-231.532
11
148.881
21
-233.532
0
LINE
8
BLACK
6
CONTINUOUS
10
148.881
20
-231.818
11
149.024
21
-231.675
0
LINE
8
BLACK
6
CONTINUOUS
10
149.024
20
-231.675
11
149.309
21
-231.532
0
LINE
8
BLACK
6
CONTINUOUS
10
149.309
20
-231.532
11
149.738
21
-231.532
0
LINE
8
BLACK
6
CONTINUOUS
10
149.738
20
-231.532
11
150.024
21
-231.675
0
LINE
8
BLACK
6
CONTINUOUS
10
150.024
20
-231.675
11
150.166
21
-231.961
0
LINE
8
BLACK
6
CONTINUOUS
10
150.166
20
-231.961
11
150.166
21
-233.532
0
LINE
8
BLACK
6
CONTINUOUS
10
152.024
20
-233.532
11
151.738
21
-233.389
0
LINE
8
BLACK
6
CONTINUOUS
10
151.738
20
-233.389
11
151.595
21
-233.246
0
LINE
8
BLACK
6
CONTINUOUS
10
151.595
20
-233.246
11
151.452
21
-232.961
0
LINE
8
BLACK
6
CONTINUOUS
10
151.452
20
-232.961
11
151.452
21
-232.104
0
LINE
8
BLACK
6
CONTINUOUS
10
151.452
20
-232.104
11
151.595
21
-231.818
0
LINE
8
BLACK
6
CONTINUOUS
10
151.595
20
-231.818
11
151.738
21
-231.675
0
LINE
8
BLACK
6
CONTINUOUS
10
151.738
20
-231.675
11
152.024
21
-231.532
0
LINE
8
BLACK
6
CONTINUOUS
10
152.024
20
-231.532
11
152.452
21
-231.532
0
LINE
8
BLACK
6
CONTINUOUS
10
152.452
20
-231.532
11
152.738
21
-231.675
0
LINE
8
BLACK
6
CONTINUOUS
10
152.738
20
-231.675
11
152.881
21
-231.818
0
LINE
8
BLACK
6
CONTINUOUS
10
152.881
20
-231.818
11
153.024
21
-232.104
0
LINE
8
BLACK
6
CONTINUOUS
10
153.024
20
-232.104
11
153.024
21
-232.961
0
LINE
8
BLACK
6
CONTINUOUS
10
153.024
20
-232.961
11
152.881
21
-233.246
0
LINE
8
BLACK
6
CONTINUOUS
10
152.881
20
-233.246
11
152.738
21
-233.389
0
LINE
8
BLACK
6
CONTINUOUS
10
152.738
20
-233.389
11
152.452
21
-233.532
0
LINE
8
BLACK
6
CONTINUOUS
10
152.452
20
-233.532
11
152.024
21
-233.532
0
LINE
8
BLACK
6
CONTINUOUS
10
153.881
20
-231.532
11
155.024
21
-231.532
0
LINE
8
BLACK
6
CONTINUOUS
10
154.309
20
-230.532
11
154.309
21
-233.104
0
LINE
8
BLACK
6
CONTINUOUS
10
154.309
20
-233.104
11
154.452
21
-233.389
0
LINE
8
BLACK
6
CONTINUOUS
10
154.452
20
-233.389
11
154.738
21
-233.532
0
LINE
8
BLACK
6
CONTINUOUS
10
154.738
20
-233.532
11
155.024
21
-233.532
0
LINE
8
BLACK
6
CONTINUOUS
10
158.309
20
-231.532
11
158.309
21
-234.532
0
LINE
8
BLACK
6
CONTINUOUS
10
158.309
20
-231.675
11
158.595
21
-231.532
0
LINE
8
BLACK
6
CONTINUOUS
10
158.595
20
-231.532
11
159.166
21
-231.532
0
LINE
8
BLACK
6
CONTINUOUS
10
159.166
20
-231.532
11
159.452
21
-231.675
0
LINE
8
BLACK
6
CONTINUOUS
10
159.452
20
-231.675
11
159.595
21
-231.818
0
LINE
8
BLACK
6
CONTINUOUS
10
159.595
20
-231.818
11
159.738
21
-232.104
0
LINE
8
BLACK
6
CONTINUOUS
10
159.738
20
-232.104
11
159.738
21
-232.961
0
LINE
8
BLACK
6
CONTINUOUS
10
159.738
20
-232.961
11
159.595
21
-233.246
0
LINE
8
BLACK
6
CONTINUOUS
10
159.595
20
-233.246
11
159.452
21
-233.389
0
LINE
8
BLACK
6
CONTINUOUS
10
159.452
20
-233.389
11
159.166
21
-233.532
0
LINE
8
BLACK
6
CONTINUOUS
10
159.166
20
-233.532
11
158.595
21
-233.532
0
LINE
8
BLACK
6
CONTINUOUS
10
158.595
20
-233.532
11
158.309
21
-233.389
0
LINE
8
BLACK
6
CONTINUOUS
10
161.452
20
-233.532
11
161.166
21
-233.389
0
LINE
8
BLACK
6
CONTINUOUS
10
161.166
20
-233.389
11
161.024
21
-233.104
0
LINE
8
BLACK
6
CONTINUOUS
10
161.024
20
-233.104
11
161.024
21
-230.532
0
LINE
8
BLACK
6
CONTINUOUS
10
163.881
20
-233.532
11
163.881
21
-231.961
0
LINE
8
BLACK
6
CONTINUOUS
10
163.881
20
-231.961
11
163.738
21
-231.675
0
LINE
8
BLACK
6
CONTINUOUS
10
163.738
20
-231.675
11
163.452
21
-231.532
0
LINE
8
BLACK
6
CONTINUOUS
10
163.452
20
-231.532
11
162.881
21
-231.532
0
LINE
8
BLACK
6
CONTINUOUS
10
162.881
20
-231.532
11
162.595
21
-231.675
0
LINE
8
BLACK
6
CONTINUOUS
10
163.881
20
-233.389
11
163.595
21
-233.532
0
LINE
8
BLACK
6
CONTINUOUS
10
163.595
20
-233.532
11
162.881
21
-233.532
0
LINE
8
BLACK
6
CONTINUOUS
10
162.881
20
-233.532
11
162.595
21
-233.389
0
LINE
8
BLACK
6
CONTINUOUS
10
162.595
20
-233.389
11
162.452
21
-233.104
0
LINE
8
BLACK
6
CONTINUOUS
10
162.452
20
-233.104
11
162.452
21
-232.818
0
LINE
8
BLACK
6
CONTINUOUS
10
162.452
20
-232.818
11
162.595
21
-232.532
0
LINE
8
BLACK
6
CONTINUOUS
10
162.595
20
-232.532
11
162.881
21
-232.389
0
LINE
8
BLACK
6
CONTINUOUS
10
162.881
20
-232.389
11
163.595
21
-232.389
0
LINE
8
BLACK
6
CONTINUOUS
10
163.595
20
-232.389
11
163.881
21
-232.246
0
LINE
8
BLACK
6
CONTINUOUS
10
164.881
20
-231.532
11
166.024
21
-231.532
0
LINE
8
BLACK
6
CONTINUOUS
10
165.309
20
-230.532
11
165.309
21
-233.104
0
LINE
8
BLACK
6
CONTINUOUS
10
165.309
20
-233.104
11
165.452
21
-233.389
0
LINE
8
BLACK
6
CONTINUOUS
10
165.452
20
-233.389
11
165.738
21
-233.532
0
LINE
8
BLACK
6
CONTINUOUS
10
165.738
20
-233.532
11
166.024
21
-233.532
0
LINE
8
BLACK
6
CONTINUOUS
10
168.166
20
-233.389
11
167.881
21
-233.532
0
LINE
8
BLACK
6
CONTINUOUS
10
167.881
20
-233.532
11
167.309
21
-233.532
0
LINE
8
BLACK
6
CONTINUOUS
10
167.309
20
-233.532
11
167.024
21
-233.389
0
LINE
8
BLACK
6
CONTINUOUS
10
167.024
20
-233.389
11
166.881
21
-233.104
0
LINE
8
BLACK
6
CONTINUOUS
10
166.881
20
-233.104
11
166.881
21
-231.961
0
LINE
8
BLACK
6
CONTINUOUS
10
166.881
20
-231.961
11
167.024
21
-231.675
0
LINE
8
BLACK
6
CONTINUOUS
10
167.024
20
-231.675
11
167.309
21
-231.532
0
LINE
8
BLACK
6
CONTINUOUS
10
167.309
20
-231.532
11
167.881
21
-231.532
0
LINE
8
BLACK
6
CONTINUOUS
10
167.881
20
-231.532
11
168.166
21
-231.675
0
LINE
8
BLACK
6
CONTINUOUS
10
168.166
20
-231.675
11
168.309
21
-231.961
0
LINE
8
BLACK
6
CONTINUOUS
10
168.309
20
-231.961
11
168.309
21
-232.246
0
LINE
8
BLACK
6
CONTINUOUS
10
168.309
20
-232.246
11
166.881
21
-232.532
0
LINE
8
BLACK
6
CONTINUOUS
10
170.881
20
-233.532
11
170.881
21
-230.532
0
LINE
8
BLACK
6
CONTINUOUS
10
170.881
20
-233.389
11
170.595
21
-233.532
0
LINE
8
BLACK
6
CONTINUOUS
10
170.595
20
-233.532
11
170.024
21
-233.532
0
LINE
8
BLACK
6
CONTINUOUS
10
170.024
20
-233.532
11
169.738
21
-233.389
0
LINE
8
BLACK
6
CONTINUOUS
10
169.738
20
-233.389
11
169.595
21
-233.246
0
LINE
8
BLACK
6
CONTINUOUS
10
169.595
20
-233.246
11
169.452
21
-232.961
0
LINE
8
BLACK
6
CONTINUOUS
10
169.452
20
-232.961
11
169.452
21
-232.104
0
LINE
8
BLACK
6
CONTINUOUS
10
169.452
20
-232.104
11
169.595
21
-231.818
0
LINE
8
BLACK
6
CONTINUOUS
10
169.595
20
-231.818
11
169.738
21
-231.675
0
LINE
8
BLACK
6
CONTINUOUS
10
169.738
20
-231.675
11
170.024
21
-231.532
0
LINE
8
BLACK
6
CONTINUOUS
10
170.024
20
-231.532
11
170.595
21
-231.532
0
LINE
8
BLACK
6
CONTINUOUS
10
170.595
20
-231.532
11
170.881
21
-231.675
0
LINE
8
BLACK
6
CONTINUOUS
10
172.024
20
-234.675
11
172.166
21
-234.532
0
LINE
8
BLACK
6
CONTINUOUS
10
172.166
20
-234.532
11
172.452
21
-234.104
0
LINE
8
BLACK
6
CONTINUOUS
10
172.452
20
-234.104
11
172.595
21
-233.818
0
LINE
8
BLACK
6
CONTINUOUS
10
172.595
20
-233.818
11
172.738
21
-233.389
0
LINE
8
BLACK
6
CONTINUOUS
10
172.738
20
-233.389
11
172.881
21
-232.675
0
LINE
8
BLACK
6
CONTINUOUS
10
172.881
20
-232.675
11
172.881
21
-232.104
0
LINE
8
BLACK
6
CONTINUOUS
10
172.881
20
-232.104
11
172.738
21
-231.389
0
LINE
8
BLACK
6
CONTINUOUS
10
172.738
20
-231.389
11
172.595
21
-230.961
0
LINE
8
BLACK
6
CONTINUOUS
10
172.595
20
-230.961
11
172.452
21
-230.675
0
LINE
8
BLACK
6
CONTINUOUS
10
172.452
20
-230.675
11
172.166
21
-230.246
0
LINE
8
BLACK
6
CONTINUOUS
10
172.166
20
-230.246
11
172.024
21
-230.104
0
LINE
8
BLACK
6
CONTINUOUS
10
76.9324
20
-237.76
11
76.9324
21
-235.286
0
LINE
8
BLACK
6
CONTINUOUS
10
76.9324
20
-235.286
11
74.4575
21
-235.286
0
LINE
8
BLACK
6
CONTINUOUS
10
74.4575
20
-235.286
11
74.4575
21
-237.76
0
LINE
8
BLACK
6
CONTINUOUS
10
74.4575
20
-237.76
11
76.9324
21
-237.76
0
LINE
8
BLACK
6
CONTINUOUS
10
80.0236
20
-234.88
11
81.8807
21
-234.88
0
LINE
8
BLACK
6
CONTINUOUS
10
81.8807
20
-234.88
11
80.8807
21
-236.023
0
LINE
8
BLACK
6
CONTINUOUS
10
80.8807
20
-236.023
11
81.3093
21
-236.023
0
LINE
8
BLACK
6
CONTINUOUS
10
81.3093
20
-236.023
11
81.595
21
-236.166
0
LINE
8
BLACK
6
CONTINUOUS
10
81.595
20
-236.166
11
81.7379
21
-236.309
0
LINE
8
BLACK
6
CONTINUOUS
10
81.7379
20
-236.309
11
81.8807
21
-236.594
0
LINE
8
BLACK
6
CONTINUOUS
10
81.8807
20
-236.594
11
81.8807
21
-237.309
0
LINE
8
BLACK
6
CONTINUOUS
10
81.8807
20
-237.309
11
81.7379
21
-237.594
0
LINE
8
BLACK
6
CONTINUOUS
10
81.7379
20
-237.594
11
81.595
21
-237.737
0
LINE
8
BLACK
6
CONTINUOUS
10
81.595
20
-237.737
11
81.3093
21
-237.88
0
LINE
8
BLACK
6
CONTINUOUS
10
81.3093
20
-237.88
11
80.4521
21
-237.88
0
LINE
8
BLACK
6
CONTINUOUS
10
80.4521
20
-237.88
11
80.1664
21
-237.737
0
LINE
8
BLACK
6
CONTINUOUS
10
80.1664
20
-237.737
11
80.0236
21
-237.594
0
LINE
8
BLACK
6
CONTINUOUS
10
83.1664
20
-237.594
11
83.3093
21
-237.737
0
LINE
8
BLACK
6
CONTINUOUS
10
83.3093
20
-237.737
11
83.1664
21
-237.88
0
LINE
8
BLACK
6
CONTINUOUS
10
83.1664
20
-237.88
11
83.0236
21
-237.737
0
LINE
8
BLACK
6
CONTINUOUS
10
83.0236
20
-237.737
11
83.1664
21
-237.594
0
LINE
8
BLACK
6
CONTINUOUS
10
83.1664
20
-237.594
11
83.1664
21
-237.88
0
LINE
8
BLACK
6
CONTINUOUS
10
86.0236
20
-234.88
11
84.595
21
-234.88
0
LINE
8
BLACK
6
CONTINUOUS
10
84.595
20
-234.88
11
84.4521
21
-236.309
0
LINE
8
BLACK
6
CONTINUOUS
10
84.4521
20
-236.309
11
84.595
21
-236.166
0
LINE
8
BLACK
6
CONTINUOUS
10
84.595
20
-236.166
11
84.8807
21
-236.023
0
LINE
8
BLACK
6
CONTINUOUS
10
84.8807
20
-236.023
11
85.595
21
-236.023
0
LINE
8
BLACK
6
CONTINUOUS
10
85.595
20
-236.023
11
85.8807
21
-236.166
0
LINE
8
BLACK
6
CONTINUOUS
10
85.8807
20
-236.166
11
86.0236
21
-236.309
0
LINE
8
BLACK
6
CONTINUOUS
10
86.0236
20
-236.309
11
86.1664
21
-236.594
0
LINE
8
BLACK
6
CONTINUOUS
10
86.1664
20
-236.594
11
86.1664
21
-237.309
0
LINE
8
BLACK
6
CONTINUOUS
10
86.1664
20
-237.309
11
86.0236
21
-237.594
0
LINE
8
BLACK
6
CONTINUOUS
10
86.0236
20
-237.594
11
85.8807
21
-237.737
0
LINE
8
BLACK
6
CONTINUOUS
10
85.8807
20
-237.737
11
85.595
21
-237.88
0
LINE
8
BLACK
6
CONTINUOUS
10
85.595
20
-237.88
11
84.8807
21
-237.88
0
LINE
8
BLACK
6
CONTINUOUS
10
84.8807
20
-237.88
11
84.595
21
-237.737
0
LINE
8
BLACK
6
CONTINUOUS
10
84.595
20
-237.737
11
84.4521
21
-237.594
0
LINE
8
BLACK
6
CONTINUOUS
10
88.0236
20
-234.88
11
88.3093
21
-234.88
0
LINE
8
BLACK
6
CONTINUOUS
10
88.3093
20
-234.88
11
88.595
21
-235.023
0
LINE
8
BLACK
6
CONTINUOUS
10
88.595
20
-235.023
11
88.7379
21
-235.166
0
LINE
8
BLACK
6
CONTINUOUS
10
88.7379
20
-235.166
11
88.8807
21
-235.452
0
LINE
8
BLACK
6
CONTINUOUS
10
88.8807
20
-235.452
11
89.0236
21
-236.023
0
LINE
8
BLACK
6
CONTINUOUS
10
89.0236
20
-236.023
11
89.0236
21
-236.737
0
LINE
8
BLACK
6
CONTINUOUS
10
89.0236
20
-236.737
11
88.8807
21
-237.309
0
LINE
8
BLACK
6
CONTINUOUS
10
88.8807
20
-237.309
11
88.7379
21
-237.594
0
LINE
8
BLACK
6
CONTINUOUS
10
88.7379
20
-237.594
11
88.595
21
-237.737
0
LINE
8
BLACK
6
CONTINUOUS
10
88.595
20
-237.737
11
88.3093
21
-237.88
0
LINE
8
BLACK
6
CONTINUOUS
10
88.3093
20
-237.88
11
88.0236
21
-237.88
0
LINE
8
BLACK
6
CONTINUOUS
10
88.0236
20
-237.88
11
87.7379
21
-237.737
0
LINE
8
BLACK
6
CONTINUOUS
10
87.7379
20
-237.737
11
87.595
21
-237.594
0
LINE
8
BLACK
6
CONTINUOUS
10
87.595
20
-237.594
11
87.4521
21
-237.309
0
LINE
8
BLACK
6
CONTINUOUS
10
87.4521
20
-237.309
11
87.3093
21
-236.737
0
LINE
8
BLACK
6
CONTINUOUS
10
87.3093
20
-236.737
11
87.3093
21
-236.023
0
LINE
8
BLACK
6
CONTINUOUS
10
87.3093
20
-236.023
11
87.4521
21
-235.452
0
LINE
8
BLACK
6
CONTINUOUS
10
87.4521
20
-235.452
11
87.595
21
-235.166
0
LINE
8
BLACK
6
CONTINUOUS
10
87.595
20
-235.166
11
87.7379
21
-235.023
0
LINE
8
BLACK
6
CONTINUOUS
10
87.7379
20
-235.023
11
88.0236
21
-234.88
0
LINE
8
BLACK
6
CONTINUOUS
10
90.3093
20
-237.88
11
90.3093
21
-235.88
0
LINE
8
BLACK
6
CONTINUOUS
10
90.3093
20
-236.166
11
90.4521
21
-236.023
0
LINE
8
BLACK
6
CONTINUOUS
10
90.4521
20
-236.023
11
90.7379
21
-235.88
0
LINE
8
BLACK
6
CONTINUOUS
10
90.7379
20
-235.88
11
91.1664
21
-235.88
0
LINE
8
BLACK
6
CONTINUOUS
10
91.1664
20
-235.88
11
91.4521
21
-236.023
0
LINE
8
BLACK
6
CONTINUOUS
10
91.4521
20
-236.023
11
91.595
21
-236.309
0
LINE
8
BLACK
6
CONTINUOUS
10
91.595
20
-236.309
11
91.595
21
-237.88
0
LINE
8
BLACK
6
CONTINUOUS
10
91.595
20
-236.309
11
91.7379
21
-236.023
0
LINE
8
BLACK
6
CONTINUOUS
10
91.7379
20
-236.023
11
92.0236
21
-235.88
0
LINE
8
BLACK
6
CONTINUOUS
10
92.0236
20
-235.88
11
92.4521
21
-235.88
0
LINE
8
BLACK
6
CONTINUOUS
10
92.4521
20
-235.88
11
92.7379
21
-236.023
0
LINE
8
BLACK
6
CONTINUOUS
10
92.7379
20
-236.023
11
92.8807
21
-236.309
0
LINE
8
BLACK
6
CONTINUOUS
10
92.8807
20
-236.309
11
92.8807
21
-237.88
0
LINE
8
BLACK
6
CONTINUOUS
10
94.3093
20
-237.88
11
94.3093
21
-235.88
0
LINE
8
BLACK
6
CONTINUOUS
10
94.3093
20
-236.166
11
94.4521
21
-236.023
0
LINE
8
BLACK
6
CONTINUOUS
10
94.4521
20
-236.023
11
94.7379
21
-235.88
0
LINE
8
BLACK
6
CONTINUOUS
10
94.7379
20
-235.88
11
95.1664
21
-235.88
0
LINE
8
BLACK
6
CONTINUOUS
10
95.1664
20
-235.88
11
95.4521
21
-236.023
0
LINE
8
BLACK
6
CONTINUOUS
10
95.4521
20
-236.023
11
95.595
21
-236.309
0
LINE
8
BLACK
6
CONTINUOUS
10
95.595
20
-236.309
11
95.595
21
-237.88
0
LINE
8
BLACK
6
CONTINUOUS
10
95.595
20
-236.309
11
95.7379
21
-236.023
0
LINE
8
BLACK
6
CONTINUOUS
10
95.7379
20
-236.023
11
96.0236
21
-235.88
0
LINE
8
BLACK
6
CONTINUOUS
10
96.0236
20
-235.88
11
96.4521
21
-235.88
0
LINE
8
BLACK
6
CONTINUOUS
10
96.4521
20
-235.88
11
96.7379
21
-236.023
0
LINE
8
BLACK
6
CONTINUOUS
10
96.7379
20
-236.023
11
96.8807
21
-236.309
0
LINE
8
BLACK
6
CONTINUOUS
10
96.8807
20
-236.309
11
96.8807
21
-237.88
0
LINE
8
BLACK
6
CONTINUOUS
10
102.738
20
-234.737
11
100.166
21
-238.594
0
LINE
8
BLACK
6
CONTINUOUS
10
106.595
20
-234.88
11
106.881
21
-234.88
0
LINE
8
BLACK
6
CONTINUOUS
10
106.881
20
-234.88
11
107.166
21
-235.023
0
LINE
8
BLACK
6
CONTINUOUS
10
107.166
20
-235.023
11
107.309
21
-235.166
0
LINE
8
BLACK
6
CONTINUOUS
10
107.309
20
-235.166
11
107.452
21
-235.452
0
LINE
8
BLACK
6
CONTINUOUS
10
107.452
20
-235.452
11
107.595
21
-236.023
0
LINE
8
BLACK
6
CONTINUOUS
10
107.595
20
-236.023
11
107.595
21
-236.737
0
LINE
8
BLACK
6
CONTINUOUS
10
107.595
20
-236.737
11
107.452
21
-237.309
0
LINE
8
BLACK
6
CONTINUOUS
10
107.452
20
-237.309
11
107.309
21
-237.594
0
LINE
8
BLACK
6
CONTINUOUS
10
107.309
20
-237.594
11
107.166
21
-237.737
0
LINE
8
BLACK
6
CONTINUOUS
10
107.166
20
-237.737
11
106.881
21
-237.88
0
LINE
8
BLACK
6
CONTINUOUS
10
106.881
20
-237.88
11
106.595
21
-237.88
0
LINE
8
BLACK
6
CONTINUOUS
10
106.595
20
-237.88
11
106.309
21
-237.737
0
LINE
8
BLACK
6
CONTINUOUS
10
106.309
20
-237.737
11
106.166
21
-237.594
0
LINE
8
BLACK
6
CONTINUOUS
10
106.166
20
-237.594
11
106.024
21
-237.309
0
LINE
8
BLACK
6
CONTINUOUS
10
106.024
20
-237.309
11
105.881
21
-236.737
0
LINE
8
BLACK
6
CONTINUOUS
10
105.881
20
-236.737
11
105.881
21
-236.023
0
LINE
8
BLACK
6
CONTINUOUS
10
105.881
20
-236.023
11
106.024
21
-235.452
0
LINE
8
BLACK
6
CONTINUOUS
10
106.024
20
-235.452
11
106.166
21
-235.166
0
LINE
8
BLACK
6
CONTINUOUS
10
106.166
20
-235.166
11
106.309
21
-235.023
0
LINE
8
BLACK
6
CONTINUOUS
10
106.309
20
-235.023
11
106.595
21
-234.88
0
LINE
8
BLACK
6
CONTINUOUS
10
108.881
20
-237.594
11
109.024
21
-237.737
0
LINE
8
BLACK
6
CONTINUOUS
10
109.024
20
-237.737
11
108.881
21
-237.88
0
LINE
8
BLACK
6
CONTINUOUS
10
108.881
20
-237.88
11
108.738
21
-237.737
0
LINE
8
BLACK
6
CONTINUOUS
10
108.738
20
-237.737
11
108.881
21
-237.594
0
LINE
8
BLACK
6
CONTINUOUS
10
108.881
20
-237.594
11
108.881
21
-237.88
0
LINE
8
BLACK
6
CONTINUOUS
10
111.881
20
-237.88
11
110.166
21
-237.88
0
LINE
8
BLACK
6
CONTINUOUS
10
111.024
20
-237.88
11
111.024
21
-234.88
0
LINE
8
BLACK
6
CONTINUOUS
10
111.024
20
-234.88
11
110.738
21
-235.309
0
LINE
8
BLACK
6
CONTINUOUS
10
110.738
20
-235.309
11
110.452
21
-235.594
0
LINE
8
BLACK
6
CONTINUOUS
10
110.452
20
-235.594
11
110.166
21
-235.737
0
LINE
8
BLACK
6
CONTINUOUS
10
112.881
20
-234.88
11
114.738
21
-234.88
0
LINE
8
BLACK
6
CONTINUOUS
10
114.738
20
-234.88
11
113.738
21
-236.023
0
LINE
8
BLACK
6
CONTINUOUS
10
113.738
20
-236.023
11
114.166
21
-236.023
0
LINE
8
BLACK
6
CONTINUOUS
10
114.166
20
-236.023
11
114.452
21
-236.166
0
LINE
8
BLACK
6
CONTINUOUS
10
114.452
20
-236.166
11
114.595
21
-236.309
0
LINE
8
BLACK
6
CONTINUOUS
10
114.595
20
-236.309
11
114.738
21
-236.594
0
LINE
8
BLACK
6
CONTINUOUS
10
114.738
20
-236.594
11
114.738
21
-237.309
0
LINE
8
BLACK
6
CONTINUOUS
10
114.738
20
-237.309
11
114.595
21
-237.594
0
LINE
8
BLACK
6
CONTINUOUS
10
114.595
20
-237.594
11
114.452
21
-237.737
0
LINE
8
BLACK
6
CONTINUOUS
10
114.452
20
-237.737
11
114.166
21
-237.88
0
LINE
8
BLACK
6
CONTINUOUS
10
114.166
20
-237.88
11
113.309
21
-237.88
0
LINE
8
BLACK
6
CONTINUOUS
10
113.309
20
-237.88
11
113.024
21
-237.737
0
LINE
8
BLACK
6
CONTINUOUS
10
113.024
20
-237.737
11
112.881
21
-237.594
0
LINE
8
BLACK
6
CONTINUOUS
10
116.452
20
-236.166
11
116.166
21
-236.023
0
LINE
8
BLACK
6
CONTINUOUS
10
116.166
20
-236.023
11
116.024
21
-235.88
0
LINE
8
BLACK
6
CONTINUOUS
10
116.024
20
-235.88
11
115.881
21
-235.594
0
LINE
8
BLACK
6
CONTINUOUS
10
115.881
20
-235.594
11
115.881
21
-235.452
0
LINE
8
BLACK
6
CONTINUOUS
10
115.881
20
-235.452
11
116.024
21
-235.166
0
LINE
8
BLACK
6
CONTINUOUS
10
116.024
20
-235.166
11
116.166
21
-235.023
0
LINE
8
BLACK
6
CONTINUOUS
10
116.166
20
-235.023
11
116.452
21
-234.88
0
LINE
8
BLACK
6
CONTINUOUS
10
116.452
20
-234.88
11
117.024
21
-234.88
0
LINE
8
BLACK
6
CONTINUOUS
10
117.024
20
-234.88
11
117.309
21
-235.023
0
LINE
8
BLACK
6
CONTINUOUS
10
117.309
20
-235.023
11
117.452
21
-235.166
0
LINE
8
BLACK
6
CONTINUOUS
10
117.452
20
-235.166
11
117.595
21
-235.452
0
LINE
8
BLACK
6
CONTINUOUS
10
117.595
20
-235.452
11
117.595
21
-235.594
0
LINE
8
BLACK
6
CONTINUOUS
10
117.595
20
-235.594
11
117.452
21
-235.88
0
LINE
8
BLACK
6
CONTINUOUS
10
117.452
20
-235.88
11
117.309
21
-236.023
0
LINE
8
BLACK
6
CONTINUOUS
10
117.309
20
-236.023
11
117.024
21
-236.166
0
LINE
8
BLACK
6
CONTINUOUS
10
117.024
20
-236.166
11
116.452
21
-236.166
0
LINE
8
BLACK
6
CONTINUOUS
10
116.452
20
-236.166
11
116.166
21
-236.309
0
LINE
8
BLACK
6
CONTINUOUS
10
116.166
20
-236.309
11
116.024
21
-236.452
0
LINE
8
BLACK
6
CONTINUOUS
10
116.024
20
-236.452
11
115.881
21
-236.737
0
LINE
8
BLACK
6
CONTINUOUS
10
115.881
20
-236.737
11
115.881
21
-237.309
0
LINE
8
BLACK
6
CONTINUOUS
10
115.881
20
-237.309
11
116.024
21
-237.594
0
LINE
8
BLACK
6
CONTINUOUS
10
116.024
20
-237.594
11
116.166
21
-237.737
0
LINE
8
BLACK
6
CONTINUOUS
10
116.166
20
-237.737
11
116.452
21
-237.88
0
LINE
8
BLACK
6
CONTINUOUS
10
116.452
20
-237.88
11
117.024
21
-237.88
0
LINE
8
BLACK
6
CONTINUOUS
10
117.024
20
-237.88
11
117.309
21
-237.737
0
LINE
8
BLACK
6
CONTINUOUS
10
117.309
20
-237.737
11
117.452
21
-237.594
0
LINE
8
BLACK
6
CONTINUOUS
10
117.452
20
-237.594
11
117.595
21
-237.309
0
LINE
8
BLACK
6
CONTINUOUS
10
117.595
20
-237.309
11
117.595
21
-236.737
0
LINE
8
BLACK
6
CONTINUOUS
10
117.595
20
-236.737
11
117.452
21
-236.452
0
LINE
8
BLACK
6
CONTINUOUS
10
117.452
20
-236.452
11
117.309
21
-236.309
0
LINE
8
BLACK
6
CONTINUOUS
10
117.309
20
-236.309
11
117.024
21
-236.166
0
LINE
8
BLACK
6
CONTINUOUS
10
118.738
20
-234.88
11
118.738
21
-235.452
0
LINE
8
BLACK
6
CONTINUOUS
10
119.881
20
-234.88
11
119.881
21
-235.452
0
LINE
8
BLACK
6
CONTINUOUS
10
124.309
20
-239.023
11
124.166
21
-238.88
0
LINE
8
BLACK
6
CONTINUOUS
10
124.166
20
-238.88
11
123.881
21
-238.452
0
LINE
8
BLACK
6
CONTINUOUS
10
123.881
20
-238.452
11
123.738
21
-238.166
0
LINE
8
BLACK
6
CONTINUOUS
10
123.738
20
-238.166
11
123.595
21
-237.737
0
LINE
8
BLACK
6
CONTINUOUS
10
123.595
20
-237.737
11
123.452
21
-237.023
0
LINE
8
BLACK
6
CONTINUOUS
10
123.452
20
-237.023
11
123.452
21
-236.452
0
LINE
8
BLACK
6
CONTINUOUS
10
123.452
20
-236.452
11
123.595
21
-235.737
0
LINE
8
BLACK
6
CONTINUOUS
10
123.595
20
-235.737
11
123.738
21
-235.309
0
LINE
8
BLACK
6
CONTINUOUS
10
123.738
20
-235.309
11
123.881
21
-235.023
0
LINE
8
BLACK
6
CONTINUOUS
10
123.881
20
-235.023
11
124.166
21
-234.594
0
LINE
8
BLACK
6
CONTINUOUS
10
124.166
20
-234.594
11
124.309
21
-234.452
0
LINE
8
BLACK
6
CONTINUOUS
10
126.881
20
-234.88
11
125.452
21
-234.88
0
LINE
8
BLACK
6
CONTINUOUS
10
125.452
20
-234.88
11
125.309
21
-236.309
0
LINE
8
BLACK
6
CONTINUOUS
10
125.309
20
-236.309
11
125.452
21
-236.166
0
LINE
8
BLACK
6
CONTINUOUS
10
125.452
20
-236.166
11
125.738
21
-236.023
0
LINE
8
BLACK
6
CONTINUOUS
10
125.738
20
-236.023
11
126.452
21
-236.023
0
LINE
8
BLACK
6
CONTINUOUS
10
126.452
20
-236.023
11
126.738
21
-236.166
0
LINE
8
BLACK
6
CONTINUOUS
10
126.738
20
-236.166
11
126.881
21
-236.309
0
LINE
8
BLACK
6
CONTINUOUS
10
126.881
20
-236.309
11
127.024
21
-236.594
0
LINE
8
BLACK
6
CONTINUOUS
10
127.024
20
-236.594
11
127.024
21
-237.309
0
LINE
8
BLACK
6
CONTINUOUS
10
127.024
20
-237.309
11
126.881
21
-237.594
0
LINE
8
BLACK
6
CONTINUOUS
10
126.881
20
-237.594
11
126.738
21
-237.737
0
LINE
8
BLACK
6
CONTINUOUS
10
126.738
20
-237.737
11
126.452
21
-237.88
0
LINE
8
BLACK
6
CONTINUOUS
10
126.452
20
-237.88
11
125.738
21
-237.88
0
LINE
8
BLACK
6
CONTINUOUS
10
125.738
20
-237.88
11
125.452
21
-237.737
0
LINE
8
BLACK
6
CONTINUOUS
10
125.452
20
-237.737
11
125.309
21
-237.594
0
LINE
8
BLACK
6
CONTINUOUS
10
130.595
20
-237.88
11
130.595
21
-234.88
0
LINE
8
BLACK
6
CONTINUOUS
10
131.881
20
-237.88
11
131.881
21
-236.309
0
LINE
8
BLACK
6
CONTINUOUS
10
131.881
20
-236.309
11
131.738
21
-236.023
0
LINE
8
BLACK
6
CONTINUOUS
10
131.738
20
-236.023
11
131.452
21
-235.88
0
LINE
8
BLACK
6
CONTINUOUS
10
131.452
20
-235.88
11
131.024
21
-235.88
0
LINE
8
BLACK
6
CONTINUOUS
10
131.024
20
-235.88
11
130.738
21
-236.023
0
LINE
8
BLACK
6
CONTINUOUS
10
130.738
20
-236.023
11
130.595
21
-236.166
0
LINE
8
BLACK
6
CONTINUOUS
10
133.738
20
-237.88
11
133.452
21
-237.737
0
LINE
8
BLACK
6
CONTINUOUS
10
133.452
20
-237.737
11
133.309
21
-237.594
0
LINE
8
BLACK
6
CONTINUOUS
10
133.309
20
-237.594
11
133.166
21
-237.309
0
LINE
8
BLACK
6
CONTINUOUS
10
133.166
20
-237.309
11
133.166
21
-236.452
0
LINE
8
BLACK
6
CONTINUOUS
10
133.166
20
-236.452
11
133.309
21
-236.166
0
LINE
8
BLACK
6
CONTINUOUS
10
133.309
20
-236.166
11
133.452
21
-236.023
0
LINE
8
BLACK
6
CONTINUOUS
10
133.452
20
-236.023
11
133.738
21
-235.88
0
LINE
8
BLACK
6
CONTINUOUS
10
133.738
20
-235.88
11
134.166
21
-235.88
0
LINE
8
BLACK
6
CONTINUOUS
10
134.166
20
-235.88
11
134.452
21
-236.023
0
LINE
8
BLACK
6
CONTINUOUS
10
134.452
20
-236.023
11
134.595
21
-236.166
0
LINE
8
BLACK
6
CONTINUOUS
10
134.595
20
-236.166
11
134.738
21
-236.452
0
LINE
8
BLACK
6
CONTINUOUS
10
134.738
20
-236.452
11
134.738
21
-237.309
0
LINE
8
BLACK
6
CONTINUOUS
10
134.738
20
-237.309
11
134.595
21
-237.594
0
LINE
8
BLACK
6
CONTINUOUS
10
134.595
20
-237.594
11
134.452
21
-237.737
0
LINE
8
BLACK
6
CONTINUOUS
10
134.452
20
-237.737
11
134.166
21
-237.88
0
LINE
8
BLACK
6
CONTINUOUS
10
134.166
20
-237.88
11
133.738
21
-237.88
0
LINE
8
BLACK
6
CONTINUOUS
10
136.452
20
-237.88
11
136.166
21
-237.737
0
LINE
8
BLACK
6
CONTINUOUS
10
136.166
20
-237.737
11
136.024
21
-237.452
0
LINE
8
BLACK
6
CONTINUOUS
10
136.024
20
-237.452
11
136.024
21
-234.88
0
LINE
8
BLACK
6
CONTINUOUS
10
138.738
20
-237.737
11
138.452
21
-237.88
0
LINE
8
BLACK
6
CONTINUOUS
10
138.452
20
-237.88
11
137.881
21
-237.88
0
LINE
8
BLACK
6
CONTINUOUS
10
137.881
20
-237.88
11
137.595
21
-237.737
0
LINE
8
BLACK
6
CONTINUOUS
10
137.595
20
-237.737
11
137.452
21
-237.452
0
LINE
8
BLACK
6
CONTINUOUS
10
137.452
20
-237.452
11
137.452
21
-236.309
0
LINE
8
BLACK
6
CONTINUOUS
10
137.452
20
-236.309
11
137.595
21
-236.023
0
LINE
8
BLACK
6
CONTINUOUS
10
137.595
20
-236.023
11
137.881
21
-235.88
0
LINE
8
BLACK
6
CONTINUOUS
10
137.881
20
-235.88
11
138.452
21
-235.88
0
LINE
8
BLACK
6
CONTINUOUS
10
138.452
20
-235.88
11
138.738
21
-236.023
0
LINE
8
BLACK
6
CONTINUOUS
10
138.738
20
-236.023
11
138.881
21
-236.309
0
LINE
8
BLACK
6
CONTINUOUS
10
138.881
20
-236.309
11
138.881
21
-236.594
0
LINE
8
BLACK
6
CONTINUOUS
10
138.881
20
-236.594
11
137.452
21
-236.88
0
LINE
8
BLACK
6
CONTINUOUS
10
140.024
20
-237.737
11
140.309
21
-237.88
0
LINE
8
BLACK
6
CONTINUOUS
10
140.309
20
-237.88
11
140.881
21
-237.88
0
LINE
8
BLACK
6
CONTINUOUS
10
140.881
20
-237.88
11
141.166
21
-237.737
0
LINE
8
BLACK
6
CONTINUOUS
10
141.166
20
-237.737
11
141.309
21
-237.452
0
LINE
8
BLACK
6
CONTINUOUS
10
141.309
20
-237.452
11
141.309
21
-237.309
0
LINE
8
BLACK
6
CONTINUOUS
10
141.309
20
-237.309
11
141.166
21
-237.023
0
LINE
8
BLACK
6
CONTINUOUS
10
141.166
20
-237.023
11
140.881
21
-236.88
0
LINE
8
BLACK
6
CONTINUOUS
10
140.881
20
-236.88
11
140.452
21
-236.88
0
LINE
8
BLACK
6
CONTINUOUS
10
140.452
20
-236.88
11
140.166
21
-236.737
0
LINE
8
BLACK
6
CONTINUOUS
10
140.166
20
-236.737
11
140.024
21
-236.452
0
LINE
8
BLACK
6
CONTINUOUS
10
140.024
20
-236.452
11
140.024
21
-236.309
0
LINE
8
BLACK
6
CONTINUOUS
10
140.024
20
-236.309
11
140.166
21
-236.023
0
LINE
8
BLACK
6
CONTINUOUS
10
140.166
20
-236.023
11
140.452
21
-235.88
0
LINE
8
BLACK
6
CONTINUOUS
10
140.452
20
-235.88
11
140.881
21
-235.88
0
LINE
8
BLACK
6
CONTINUOUS
10
140.881
20
-235.88
11
141.166
21
-236.023
0
LINE
8
BLACK
6
CONTINUOUS
10
142.309
20
-239.023
11
142.452
21
-238.88
0
LINE
8
BLACK
6
CONTINUOUS
10
142.452
20
-238.88
11
142.738
21
-238.452
0
LINE
8
BLACK
6
CONTINUOUS
10
142.738
20
-238.452
11
142.881
21
-238.166
0
LINE
8
BLACK
6
CONTINUOUS
10
142.881
20
-238.166
11
143.024
21
-237.737
0
LINE
8
BLACK
6
CONTINUOUS
10
143.024
20
-237.737
11
143.166
21
-237.023
0
LINE
8
BLACK
6
CONTINUOUS
10
143.166
20
-237.023
11
143.166
21
-236.452
0
LINE
8
BLACK
6
CONTINUOUS
10
143.166
20
-236.452
11
143.024
21
-235.737
0
LINE
8
BLACK
6
CONTINUOUS
10
143.024
20
-235.737
11
142.881
21
-235.309
0
LINE
8
BLACK
6
CONTINUOUS
10
142.881
20
-235.309
11
142.738
21
-235.023
0
LINE
8
BLACK
6
CONTINUOUS
10
142.738
20
-235.023
11
142.452
21
-234.594
0
LINE
8
BLACK
6
CONTINUOUS
10
142.452
20
-234.594
11
142.309
21
-234.452
0
LINE
8
BLACK
6
CONTINUOUS
10
147.738
20
-239.023
11
147.595
21
-238.88
0
LINE
8
BLACK
6
CONTINUOUS
10
147.595
20
-238.88
11
147.309
21
-238.452
0
LINE
8
BLACK
6
CONTINUOUS
10
147.309
20
-238.452
11
147.166
21
-238.166
0
LINE
8
BLACK
6
CONTINUOUS
10
147.166
20
-238.166
11
147.024
21
-237.737
0
LINE
8
BLACK
6
CONTINUOUS
10
147.024
20
-237.737
11
146.881
21
-237.023
0
LINE
8
BLACK
6
CONTINUOUS
10
146.881
20
-237.023
11
146.881
21
-236.452
0
LINE
8
BLACK
6
CONTINUOUS
10
146.881
20
-236.452
11
147.024
21
-235.737
0
LINE
8
BLACK
6
CONTINUOUS
10
147.024
20
-235.737
11
147.166
21
-235.309
0
LINE
8
BLACK
6
CONTINUOUS
10
147.166
20
-235.309
11
147.309
21
-235.023
0
LINE
8
BLACK
6
CONTINUOUS
10
147.309
20
-235.023
11
147.595
21
-234.594
0
LINE
8
BLACK
6
CONTINUOUS
10
147.595
20
-234.594
11
147.738
21
-234.452
0
LINE
8
BLACK
6
CONTINUOUS
10
148.881
20
-235.88
11
148.881
21
-237.88
0
LINE
8
BLACK
6
CONTINUOUS
10
148.881
20
-236.166
11
149.024
21
-236.023
0
LINE
8
BLACK
6
CONTINUOUS
10
149.024
20
-236.023
11
149.309
21
-235.88
0
LINE
8
BLACK
6
CONTINUOUS
10
149.309
20
-235.88
11
149.738
21
-235.88
0
LINE
8
BLACK
6
CONTINUOUS
10
149.738
20
-235.88
11
150.024
21
-236.023
0
LINE
8
BLACK
6
CONTINUOUS
10
150.024
20
-236.023
11
150.166
21
-236.309
0
LINE
8
BLACK
6
CONTINUOUS
10
150.166
20
-236.309
11
150.166
21
-237.88
0
LINE
8
BLACK
6
CONTINUOUS
10
152.024
20
-237.88
11
151.738
21
-237.737
0
LINE
8
BLACK
6
CONTINUOUS
10
151.738
20
-237.737
11
151.595
21
-237.594
0
LINE
8
BLACK
6
CONTINUOUS
10
151.595
20
-237.594
11
151.452
21
-237.309
0
LINE
8
BLACK
6
CONTINUOUS
10
151.452
20
-237.309
11
151.452
21
-236.452
0
LINE
8
BLACK
6
CONTINUOUS
10
151.452
20
-236.452
11
151.595
21
-236.166
0
LINE
8
BLACK
6
CONTINUOUS
10
151.595
20
-236.166
11
151.738
21
-236.023
0
LINE
8
BLACK
6
CONTINUOUS
10
151.738
20
-236.023
11
152.024
21
-235.88
0
LINE
8
BLACK
6
CONTINUOUS
10
152.024
20
-235.88
11
152.452
21
-235.88
0
LINE
8
BLACK
6
CONTINUOUS
10
152.452
20
-235.88
11
152.738
21
-236.023
0
LINE
8
BLACK
6
CONTINUOUS
10
152.738
20
-236.023
11
152.881
21
-236.166
0
LINE
8
BLACK
6
CONTINUOUS
10
152.881
20
-236.166
11
153.024
21
-236.452
0
LINE
8
BLACK
6
CONTINUOUS
10
153.024
20
-236.452
11
153.024
21
-237.309
0
LINE
8
BLACK
6
CONTINUOUS
10
153.024
20
-237.309
11
152.881
21
-237.594
0
LINE
8
BLACK
6
CONTINUOUS
10
152.881
20
-237.594
11
152.738
21
-237.737
0
LINE
8
BLACK
6
CONTINUOUS
10
152.738
20
-237.737
11
152.452
21
-237.88
0
LINE
8
BLACK
6
CONTINUOUS
10
152.452
20
-237.88
11
152.024
21
-237.88
0
LINE
8
BLACK
6
CONTINUOUS
10
153.881
20
-235.88
11
155.024
21
-235.88
0
LINE
8
BLACK
6
CONTINUOUS
10
154.309
20
-234.88
11
154.309
21
-237.452
0
LINE
8
BLACK
6
CONTINUOUS
10
154.309
20
-237.452
11
154.452
21
-237.737
0
LINE
8
BLACK
6
CONTINUOUS
10
154.452
20
-237.737
11
154.738
21
-237.88
0
LINE
8
BLACK
6
CONTINUOUS
10
154.738
20
-237.88
11
155.024
21
-237.88
0
LINE
8
BLACK
6
CONTINUOUS
10
158.309
20
-235.88
11
158.309
21
-238.88
0
LINE
8
BLACK
6
CONTINUOUS
10
158.309
20
-236.023
11
158.595
21
-235.88
0
LINE
8
BLACK
6
CONTINUOUS
10
158.595
20
-235.88
11
159.166
21
-235.88
0
LINE
8
BLACK
6
CONTINUOUS
10
159.166
20
-235.88
11
159.452
21
-236.023
0
LINE
8
BLACK
6
CONTINUOUS
10
159.452
20
-236.023
11
159.595
21
-236.166
0
LINE
8
BLACK
6
CONTINUOUS
10
159.595
20
-236.166
11
159.738
21
-236.452
0
LINE
8
BLACK
6
CONTINUOUS
10
159.738
20
-236.452
11
159.738
21
-237.309
0
LINE
8
BLACK
6
CONTINUOUS
10
159.738
20
-237.309
11
159.595
21
-237.594
0
LINE
8
BLACK
6
CONTINUOUS
10
159.595
20
-237.594
11
159.452
21
-237.737
0
LINE
8
BLACK
6
CONTINUOUS
10
159.452
20
-237.737
11
159.166
21
-237.88
0
LINE
8
BLACK
6
CONTINUOUS
10
159.166
20
-237.88
11
158.595
21
-237.88
0
LINE
8
BLACK
6
CONTINUOUS
10
158.595
20
-237.88
11
158.309
21
-237.737
0
LINE
8
BLACK
6
CONTINUOUS
10
161.452
20
-237.88
11
161.166
21
-237.737
0
LINE
8
BLACK
6
CONTINUOUS
10
161.166
20
-237.737
11
161.024
21
-237.452
0
LINE
8
BLACK
6
CONTINUOUS
10
161.024
20
-237.452
11
161.024
21
-234.88
0
LINE
8
BLACK
6
CONTINUOUS
10
163.881
20
-237.88
11
163.881
21
-236.309
0
LINE
8
BLACK
6
CONTINUOUS
10
163.881
20
-236.309
11
163.738
21
-236.023
0
LINE
8
BLACK
6
CONTINUOUS
10
163.738
20
-236.023
11
163.452
21
-235.88
0
LINE
8
BLACK
6
CONTINUOUS
10
163.452
20
-235.88
11
162.881
21
-235.88
0
LINE
8
BLACK
6
CONTINUOUS
10
162.881
20
-235.88
11
162.595
21
-236.023
0
LINE
8
BLACK
6
CONTINUOUS
10
163.881
20
-237.737
11
163.595
21
-237.88
0
LINE
8
BLACK
6
CONTINUOUS
10
163.595
20
-237.88
11
162.881
21
-237.88
0
LINE
8
BLACK
6
CONTINUOUS
10
162.881
20
-237.88
11
162.595
21
-237.737
0
LINE
8
BLACK
6
CONTINUOUS
10
162.595
20
-237.737
11
162.452
21
-237.452
0
LINE
8
BLACK
6
CONTINUOUS
10
162.452
20
-237.452
11
162.452
21
-237.166
0
LINE
8
BLACK
6
CONTINUOUS
10
162.452
20
-237.166
11
162.595
21
-236.88
0
LINE
8
BLACK
6
CONTINUOUS
10
162.595
20
-236.88
11
162.881
21
-236.737
0
LINE
8
BLACK
6
CONTINUOUS
10
162.881
20
-236.737
11
163.595
21
-236.737
0
LINE
8
BLACK
6
CONTINUOUS
10
163.595
20
-236.737
11
163.881
21
-236.594
0
LINE
8
BLACK
6
CONTINUOUS
10
164.881
20
-235.88
11
166.024
21
-235.88
0
LINE
8
BLACK
6
CONTINUOUS
10
165.309
20
-234.88
11
165.309
21
-237.452
0
LINE
8
BLACK
6
CONTINUOUS
10
165.309
20
-237.452
11
165.452
21
-237.737
0
LINE
8
BLACK
6
CONTINUOUS
10
165.452
20
-237.737
11
165.738
21
-237.88
0
LINE
8
BLACK
6
CONTINUOUS
10
165.738
20
-237.88
11
166.024
21
-237.88
0
LINE
8
BLACK
6
CONTINUOUS
10
168.166
20
-237.737
11
167.881
21
-237.88
0
LINE
8
BLACK
6
CONTINUOUS
10
167.881
20
-237.88
11
167.309
21
-237.88
0
LINE
8
BLACK
6
CONTINUOUS
10
167.309
20
-237.88
11
167.024
21
-237.737
0
LINE
8
BLACK
6
CONTINUOUS
10
167.024
20
-237.737
11
166.881
21
-237.452
0
LINE
8
BLACK
6
CONTINUOUS
10
166.881
20
-237.452
11
166.881
21
-236.309
0
LINE
8
BLACK
6
CONTINUOUS
10
166.881
20
-236.309
11
167.024
21
-236.023
0
LINE
8
BLACK
6
CONTINUOUS
10
167.024
20
-236.023
11
167.309
21
-235.88
0
LINE
8
BLACK
6
CONTINUOUS
10
167.309
20
-235.88
11
167.881
21
-235.88
0
LINE
8
BLACK
6
CONTINUOUS
10
167.881
20
-235.88
11
168.166
21
-236.023
0
LINE
8
BLACK
6
CONTINUOUS
10
168.166
20
-236.023
11
168.309
21
-236.309
0
LINE
8
BLACK
6
CONTINUOUS
10
168.309
20
-236.309
11
168.309
21
-236.594
0
LINE
8
BLACK
6
CONTINUOUS
10
168.309
20
-236.594
11
166.881
21
-236.88
0
LINE
8
BLACK
6
CONTINUOUS
10
170.881
20
-237.88
11
170.881
21
-234.88
0
LINE
8
BLACK
6
CONTINUOUS
10
170.881
20
-237.737
11
170.595
21
-237.88
0
LINE
8
BLACK
6
CONTINUOUS
10
170.595
20
-237.88
11
170.024
21
-237.88
0
LINE
8
BLACK
6
CONTINUOUS
10
170.024
20
-237.88
11
169.738
21
-237.737
0
LINE
8
BLACK
6
CONTINUOUS
10
169.738
20
-237.737
11
169.595
21
-237.594
0
LINE
8
BLACK
6
CONTINUOUS
10
169.595
20
-237.594
11
169.452
21
-237.309
0
LINE
8
BLACK
6
CONTINUOUS
10
169.452
20
-237.309
11
169.452
21
-236.452
0
LINE
8
BLACK
6
CONTINUOUS
10
169.452
20
-236.452
11
169.595
21
-236.166
0
LINE
8
BLACK
6
CONTINUOUS
10
169.595
20
-236.166
11
169.738
21
-236.023
0
LINE
8
BLACK
6
CONTINUOUS
10
169.738
20
-236.023
11
170.024
21
-235.88
0
LINE
8
BLACK
6
CONTINUOUS
10
170.024
20
-235.88
11
170.595
21
-235.88
0
LINE
8
BLACK
6
CONTINUOUS
10
170.595
20
-235.88
11
170.881
21
-236.023
0
LINE
8
BLACK
6
CONTINUOUS
10
172.024
20
-239.023
11
172.166
21
-238.88
0
LINE
8
BLACK
6
CONTINUOUS
10
172.166
20
-238.88
11
172.452
21
-238.452
0
LINE
8
BLACK
6
CONTINUOUS
10
172.452
20
-238.452
11
172.595
21
-238.166
0
LINE
8
BLACK
6
CONTINUOUS
10
172.595
20
-238.166
11
172.738
21
-237.737
0
LINE
8
BLACK
6
CONTINUOUS
10
172.738
20
-237.737
11
172.881
21
-237.023
0
LINE
8
BLACK
6
CONTINUOUS
10
172.881
20
-237.023
11
172.881
21
-236.452
0
LINE
8
BLACK
6
CONTINUOUS
10
172.881
20
-236.452
11
172.738
21
-235.737
0
LINE
8
BLACK
6
CONTINUOUS
10
172.738
20
-235.737
11
172.595
21
-235.309
0
LINE
8
BLACK
6
CONTINUOUS
10
172.595
20
-235.309
11
172.452
21
-235.023
0
LINE
8
BLACK
6
CONTINUOUS
10
172.452
20
-235.023
11
172.166
21
-234.594
0
LINE
8
BLACK
6
CONTINUOUS
10
172.166
20
-234.594
11
172.024
21
-234.452
0
LINE
8
BLACK
6
CONTINUOUS
10
75.4511
20
-243.317
11
77.445
21
-241.323
0
LINE
8
BLACK
6
CONTINUOUS
10
77.445
20
-241.323
11
75.4511
21
-239.329
0
LINE
8
BLACK
6
CONTINUOUS
10
75.4511
20
-239.329
11
73.4572
21
-241.323
0
LINE
8
BLACK
6
CONTINUOUS
10
73.4572
20
-241.323
11
75.4511
21
-243.317
0
LINE
8
BLACK
6
CONTINUOUS
10
80.0236
20
-239.68
11
81.8807
21
-239.68
0
LINE
8
BLACK
6
CONTINUOUS
10
81.8807
20
-239.68
11
80.8807
21
-240.823
0
LINE
8
BLACK
6
CONTINUOUS
10
80.8807
20
-240.823
11
81.3093
21
-240.823
0
LINE
8
BLACK
6
CONTINUOUS
10
81.3093
20
-240.823
11
81.595
21
-240.966
0
LINE
8
BLACK
6
CONTINUOUS
10
81.595
20
-240.966
11
81.7379
21
-241.109
0
LINE
8
BLACK
6
CONTINUOUS
10
81.7379
20
-241.109
11
81.8807
21
-241.394
0
LINE
8
BLACK
6
CONTINUOUS
10
81.8807
20
-241.394
11
81.8807
21
-242.109
0
LINE
8
BLACK
6
CONTINUOUS
10
81.8807
20
-242.109
11
81.7379
21
-242.394
0
LINE
8
BLACK
6
CONTINUOUS
10
81.7379
20
-242.394
11
81.595
21
-242.537
0
LINE
8
BLACK
6
CONTINUOUS
10
81.595
20
-242.537
11
81.3093
21
-242.68
0
LINE
8
BLACK
6
CONTINUOUS
10
81.3093
20
-242.68
11
80.4521
21
-242.68
0
LINE
8
BLACK
6
CONTINUOUS
10
80.4521
20
-242.68
11
80.1664
21
-242.537
0
LINE
8
BLACK
6
CONTINUOUS
10
80.1664
20
-242.537
11
80.0236
21
-242.394
0
LINE
8
BLACK
6
CONTINUOUS
10
83.1664
20
-242.394
11
83.3093
21
-242.537
0
LINE
8
BLACK
6
CONTINUOUS
10
83.3093
20
-242.537
11
83.1664
21
-242.68
0
LINE
8
BLACK
6
CONTINUOUS
10
83.1664
20
-242.68
11
83.0236
21
-242.537
0
LINE
8
BLACK
6
CONTINUOUS
10
83.0236
20
-242.537
11
83.1664
21
-242.394
0
LINE
8
BLACK
6
CONTINUOUS
10
83.1664
20
-242.394
11
83.1664
21
-242.68
0
LINE
8
BLACK
6
CONTINUOUS
10
84.7379
20
-242.68
11
85.3093
21
-242.68
0
LINE
8
BLACK
6
CONTINUOUS
10
85.3093
20
-242.68
11
85.595
21
-242.537
0
LINE
8
BLACK
6
CONTINUOUS
10
85.595
20
-242.537
11
85.7379
21
-242.394
0
LINE
8
BLACK
6
CONTINUOUS
10
85.7379
20
-242.394
11
86.0236
21
-241.966
0
LINE
8
BLACK
6
CONTINUOUS
10
86.0236
20
-241.966
11
86.1664
21
-241.394
0
LINE
8
BLACK
6
CONTINUOUS
10
86.1664
20
-241.394
11
86.1664
21
-240.252
0
LINE
8
BLACK
6
CONTINUOUS
10
86.1664
20
-240.252
11
86.0236
21
-239.966
0
LINE
8
BLACK
6
CONTINUOUS
10
86.0236
20
-239.966
11
85.8807
21
-239.823
0
LINE
8
BLACK
6
CONTINUOUS
10
85.8807
20
-239.823
11
85.595
21
-239.68
0
LINE
8
BLACK
6
CONTINUOUS
10
85.595
20
-239.68
11
85.0236
21
-239.68
0
LINE
8
BLACK
6
CONTINUOUS
10
85.0236
20
-239.68
11
84.7379
21
-239.823
0
LINE
8
BLACK
6
CONTINUOUS
10
84.7379
20
-239.823
11
84.595
21
-239.966
0
LINE
8
BLACK
6
CONTINUOUS
10
84.595
20
-239.966
11
84.4521
21
-240.252
0
LINE
8
BLACK
6
CONTINUOUS
10
84.4521
20
-240.252
11
84.4521
21
-240.966
0
LINE
8
BLACK
6
CONTINUOUS
10
84.4521
20
-240.966
11
84.595
21
-241.252
0
LINE
8
BLACK
6
CONTINUOUS
10
84.595
20
-241.252
11
84.7379
21
-241.394
0
LINE
8
BLACK
6
CONTINUOUS
10
84.7379
20
-241.394
11
85.0236
21
-241.537
0
LINE
8
BLACK
6
CONTINUOUS
10
85.0236
20
-241.537
11
85.595
21
-241.537
0
LINE
8
BLACK
6
CONTINUOUS
10
85.595
20
-241.537
11
85.8807
21
-241.394
0
LINE
8
BLACK
6
CONTINUOUS
10
85.8807
20
-241.394
11
86.0236
21
-241.252
0
LINE
8
BLACK
6
CONTINUOUS
10
86.0236
20
-241.252
11
86.1664
21
-240.966
0
LINE
8
BLACK
6
CONTINUOUS
10
87.595
20
-242.68
11
88.1664
21
-242.68
0
LINE
8
BLACK
6
CONTINUOUS
10
88.1664
20
-242.68
11
88.4521
21
-242.537
0
LINE
8
BLACK
6
CONTINUOUS
10
88.4521
20
-242.537
11
88.595
21
-242.394
0
LINE
8
BLACK
6
CONTINUOUS
10
88.595
20
-242.394
11
88.8807
21
-241.966
0
LINE
8
BLACK
6
CONTINUOUS
10
88.8807
20
-241.966
11
89.0236
21
-241.394
0
LINE
8
BLACK
6
CONTINUOUS
10
89.0236
20
-241.394
11
89.0236
21
-240.252
0
LINE
8
BLACK
6
CONTINUOUS
10
89.0236
20
-240.252
11
88.8807
21
-239.966
0
LINE
8
BLACK
6
CONTINUOUS
10
88.8807
20
-239.966
11
88.7379
21
-239.823
0
LINE
8
BLACK
6
CONTINUOUS
10
88.7379
20
-239.823
11
88.4521
21
-239.68
0
LINE
8
BLACK
6
CONTINUOUS
10
88.4521
20
-239.68
11
87.8807
21
-239.68
0
LINE
8
BLACK
6
CONTINUOUS
10
87.8807
20
-239.68
11
87.595
21
-239.823
0
LINE
8
BLACK
6
CONTINUOUS
10
87.595
20
-239.823
11
87.4521
21
-239.966
0
LINE
8
BLACK
6
CONTINUOUS
10
87.4521
20
-239.966
11
87.3093
21
-240.252
0
LINE
8
BLACK
6
CONTINUOUS
10
87.3093
20
-240.252
11
87.3093
21
-240.966
0
LINE
8
BLACK
6
CONTINUOUS
10
87.3093
20
-240.966
11
87.4521
21
-241.252
0
LINE
8
BLACK
6
CONTINUOUS
10
87.4521
20
-241.252
11
87.595
21
-241.394
0
LINE
8
BLACK
6
CONTINUOUS
10
87.595
20
-241.394
11
87.8807
21
-241.537
0
LINE
8
BLACK
6
CONTINUOUS
10
87.8807
20
-241.537
11
88.4521
21
-241.537
0
LINE
8
BLACK
6
CONTINUOUS
10
88.4521
20
-241.537
11
88.7379
21
-241.394
0
LINE
8
BLACK
6
CONTINUOUS
10
88.7379
20
-241.394
11
88.8807
21
-241.252
0
LINE
8
BLACK
6
CONTINUOUS
10
88.8807
20
-241.252
11
89.0236
21
-240.966
0
LINE
8
BLACK
6
CONTINUOUS
10
90.3093
20
-242.68
11
90.3093
21
-240.68
0
LINE
8
BLACK
6
CONTINUOUS
10
90.3093
20
-240.966
11
90.4521
21
-240.823
0
LINE
8
BLACK
6
CONTINUOUS
10
90.4521
20
-240.823
11
90.7379
21
-240.68
0
LINE
8
BLACK
6
CONTINUOUS
10
90.7379
20
-240.68
11
91.1664
21
-240.68
0
LINE
8
BLACK
6
CONTINUOUS
10
91.1664
20
-240.68
11
91.4521
21
-240.823
0
LINE
8
BLACK
6
CONTINUOUS
10
91.4521
20
-240.823
11
91.595
21
-241.109
0
LINE
8
BLACK
6
CONTINUOUS
10
91.595
20
-241.109
11
91.595
21
-242.68
0
LINE
8
BLACK
6
CONTINUOUS
10
91.595
20
-241.109
11
91.7379
21
-240.823
0
LINE
8
BLACK
6
CONTINUOUS
10
91.7379
20
-240.823
11
92.0236
21
-240.68
0
LINE
8
BLACK
6
CONTINUOUS
10
92.0236
20
-240.68
11
92.4521
21
-240.68
0
LINE
8
BLACK
6
CONTINUOUS
10
92.4521
20
-240.68
11
92.7379
21
-240.823
0
LINE
8
BLACK
6
CONTINUOUS
10
92.7379
20
-240.823
11
92.8807
21
-241.109
0
LINE
8
BLACK
6
CONTINUOUS
10
92.8807
20
-241.109
11
92.8807
21
-242.68
0
LINE
8
BLACK
6
CONTINUOUS
10
94.3093
20
-242.68
11
94.3093
21
-240.68
0
LINE
8
BLACK
6
CONTINUOUS
10
94.3093
20
-240.966
11
94.4521
21
-240.823
0
LINE
8
BLACK
6
CONTINUOUS
10
94.4521
20
-240.823
11
94.7379
21
-240.68
0
LINE
8
BLACK
6
CONTINUOUS
10
94.7379
20
-240.68
11
95.1664
21
-240.68
0
LINE
8
BLACK
6
CONTINUOUS
10
95.1664
20
-240.68
11
95.4521
21
-240.823
0
LINE
8
BLACK
6
CONTINUOUS
10
95.4521
20
-240.823
11
95.595
21
-241.109
0
LINE
8
BLACK
6
CONTINUOUS
10
95.595
20
-241.109
11
95.595
21
-242.68
0
LINE
8
BLACK
6
CONTINUOUS
10
95.595
20
-241.109
11
95.7379
21
-240.823
0
LINE
8
BLACK
6
CONTINUOUS
10
95.7379
20
-240.823
11
96.0236
21
-240.68
0
LINE
8
BLACK
6
CONTINUOUS
10
96.0236
20
-240.68
11
96.4521
21
-240.68
0
LINE
8
BLACK
6
CONTINUOUS
10
96.4521
20
-240.68
11
96.7379
21
-240.823
0
LINE
8
BLACK
6
CONTINUOUS
10
96.7379
20
-240.823
11
96.8807
21
-241.109
0
LINE
8
BLACK
6
CONTINUOUS
10
96.8807
20
-241.109
11
96.8807
21
-242.68
0
LINE
8
BLACK
6
CONTINUOUS
10
102.738
20
-239.537
11
100.166
21
-243.394
0
LINE
8
BLACK
6
CONTINUOUS
10
106.595
20
-239.68
11
106.881
21
-239.68
0
LINE
8
BLACK
6
CONTINUOUS
10
106.881
20
-239.68
11
107.166
21
-239.823
0
LINE
8
BLACK
6
CONTINUOUS
10
107.166
20
-239.823
11
107.309
21
-239.966
0
LINE
8
BLACK
6
CONTINUOUS
10
107.309
20
-239.966
11
107.452
21
-240.252
0
LINE
8
BLACK
6
CONTINUOUS
10
107.452
20
-240.252
11
107.595
21
-240.823
0
LINE
8
BLACK
6
CONTINUOUS
10
107.595
20
-240.823
11
107.595
21
-241.537
0
LINE
8
BLACK
6
CONTINUOUS
10
107.595
20
-241.537
11
107.452
21
-242.109
0
LINE
8
BLACK
6
CONTINUOUS
10
107.452
20
-242.109
11
107.309
21
-242.394
0
LINE
8
BLACK
6
CONTINUOUS
10
107.309
20
-242.394
11
107.166
21
-242.537
0
LINE
8
BLACK
6
CONTINUOUS
10
107.166
20
-242.537
11
106.881
21
-242.68
0
LINE
8
BLACK
6
CONTINUOUS
10
106.881
20
-242.68
11
106.595
21
-242.68
0
LINE
8
BLACK
6
CONTINUOUS
10
106.595
20
-242.68
11
106.309
21
-242.537
0
LINE
8
BLACK
6
CONTINUOUS
10
106.309
20
-242.537
11
106.166
21
-242.394
0
LINE
8
BLACK
6
CONTINUOUS
10
106.166
20
-242.394
11
106.024
21
-242.109
0
LINE
8
BLACK
6
CONTINUOUS
10
106.024
20
-242.109
11
105.881
21
-241.537
0
LINE
8
BLACK
6
CONTINUOUS
10
105.881
20
-241.537
11
105.881
21
-240.823
0
LINE
8
BLACK
6
CONTINUOUS
10
105.881
20
-240.823
11
106.024
21
-240.252
0
LINE
8
BLACK
6
CONTINUOUS
10
106.024
20
-240.252
11
106.166
21
-239.966
0
LINE
8
BLACK
6
CONTINUOUS
10
106.166
20
-239.966
11
106.309
21
-239.823
0
LINE
8
BLACK
6
CONTINUOUS
10
106.309
20
-239.823
11
106.595
21
-239.68
0
LINE
8
BLACK
6
CONTINUOUS
10
108.881
20
-242.394
11
109.024
21
-242.537
0
LINE
8
BLACK
6
CONTINUOUS
10
109.024
20
-242.537
11
108.881
21
-242.68
0
LINE
8
BLACK
6
CONTINUOUS
10
108.881
20
-242.68
11
108.738
21
-242.537
0
LINE
8
BLACK
6
CONTINUOUS
10
108.738
20
-242.537
11
108.881
21
-242.394
0
LINE
8
BLACK
6
CONTINUOUS
10
108.881
20
-242.394
11
108.881
21
-242.68
0
LINE
8
BLACK
6
CONTINUOUS
10
111.881
20
-242.68
11
110.166
21
-242.68
0
LINE
8
BLACK
6
CONTINUOUS
10
111.024
20
-242.68
11
111.024
21
-239.68
0
LINE
8
BLACK
6
CONTINUOUS
10
111.024
20
-239.68
11
110.738
21
-240.109
0
LINE
8
BLACK
6
CONTINUOUS
10
110.738
20
-240.109
11
110.452
21
-240.394
0
LINE
8
BLACK
6
CONTINUOUS
10
110.452
20
-240.394
11
110.166
21
-240.537
0
LINE
8
BLACK
6
CONTINUOUS
10
114.595
20
-239.68
11
113.166
21
-239.68
0
LINE
8
BLACK
6
CONTINUOUS
10
113.166
20
-239.68
11
113.024
21
-241.109
0
LINE
8
BLACK
6
CONTINUOUS
10
113.024
20
-241.109
11
113.166
21
-240.966
0
LINE
8
BLACK
6
CONTINUOUS
10
113.166
20
-240.966
11
113.452
21
-240.823
0
LINE
8
BLACK
6
CONTINUOUS
10
113.452
20
-240.823
11
114.166
21
-240.823
0
LINE
8
BLACK
6
CONTINUOUS
10
114.166
20
-240.823
11
114.452
21
-240.966
0
LINE
8
BLACK
6
CONTINUOUS
10
114.452
20
-240.966
11
114.595
21
-241.109
0
LINE
8
BLACK
6
CONTINUOUS
10
114.595
20
-241.109
11
114.738
21
-241.394
0
LINE
8
BLACK
6
CONTINUOUS
10
114.738
20
-241.394
11
114.738
21
-242.109
0
LINE
8
BLACK
6
CONTINUOUS
10
114.738
20
-242.109
11
114.595
21
-242.394
0
LINE
8
BLACK
6
CONTINUOUS
10
114.595
20
-242.394
11
114.452
21
-242.537
0
LINE
8
BLACK
6
CONTINUOUS
10
114.452
20
-242.537
11
114.166
21
-242.68
0
LINE
8
BLACK
6
CONTINUOUS
10
114.166
20
-242.68
11
113.452
21
-242.68
0
LINE
8
BLACK
6
CONTINUOUS
10
113.452
20
-242.68
11
113.166
21
-242.537
0
LINE
8
BLACK
6
CONTINUOUS
10
113.166
20
-242.537
11
113.024
21
-242.394
0
LINE
8
BLACK
6
CONTINUOUS
10
115.738
20
-239.68
11
117.738
21
-239.68
0
LINE
8
BLACK
6
CONTINUOUS
10
117.738
20
-239.68
11
116.452
21
-242.68
0
LINE
8
BLACK
6
CONTINUOUS
10
118.738
20
-239.68
11
118.738
21
-240.252
0
LINE
8
BLACK
6
CONTINUOUS
10
119.881
20
-239.68
11
119.881
21
-240.252
0
LINE
8
BLACK
6
CONTINUOUS
10
124.309
20
-243.823
11
124.166
21
-243.68
0
LINE
8
BLACK
6
CONTINUOUS
10
124.166
20
-243.68
11
123.881
21
-243.252
0
LINE
8
BLACK
6
CONTINUOUS
10
123.881
20
-243.252
11
123.738
21
-242.966
0
LINE
8
BLACK
6
CONTINUOUS
10
123.738
20
-242.966
11
123.595
21
-242.537
0
LINE
8
BLACK
6
CONTINUOUS
10
123.595
20
-242.537
11
123.452
21
-241.823
0
LINE
8
BLACK
6
CONTINUOUS
10
123.452
20
-241.823
11
123.452
21
-241.252
0
LINE
8
BLACK
6
CONTINUOUS
10
123.452
20
-241.252
11
123.595
21
-240.537
0
LINE
8
BLACK
6
CONTINUOUS
10
123.595
20
-240.537
11
123.738
21
-240.109
0
LINE
8
BLACK
6
CONTINUOUS
10
123.738
20
-240.109
11
123.881
21
-239.823
0
LINE
8
BLACK
6
CONTINUOUS
10
123.881
20
-239.823
11
124.166
21
-239.394
0
LINE
8
BLACK
6
CONTINUOUS
10
124.166
20
-239.394
11
124.309
21
-239.252
0
LINE
8
BLACK
6
CONTINUOUS
10
125.881
20
-240.966
11
125.595
21
-240.823
0
LINE
8
BLACK
6
CONTINUOUS
10
125.595
20
-240.823
11
125.452
21
-240.68
0
LINE
8
BLACK
6
CONTINUOUS
10
125.452
20
-240.68
11
125.309
21
-240.394
0
LINE
8
BLACK
6
CONTINUOUS
10
125.309
20
-240.394
11
125.309
21
-240.252
0
LINE
8
BLACK
6
CONTINUOUS
10
125.309
20
-240.252
11
125.452
21
-239.966
0
LINE
8
BLACK
6
CONTINUOUS
10
125.452
20
-239.966
11
125.595
21
-239.823
0
LINE
8
BLACK
6
CONTINUOUS
10
125.595
20
-239.823
11
125.881
21
-239.68
0
LINE
8
BLACK
6
CONTINUOUS
10
125.881
20
-239.68
11
126.452
21
-239.68
0
LINE
8
BLACK
6
CONTINUOUS
10
126.452
20
-239.68
11
126.738
21
-239.823
0
LINE
8
BLACK
6
CONTINUOUS
10
126.738
20
-239.823
11
126.881
21
-239.966
0
LINE
8
BLACK
6
CONTINUOUS
10
126.881
20
-239.966
11
127.024
21
-240.252
0
LINE
8
BLACK
6
CONTINUOUS
10
127.024
20
-240.252
11
127.024
21
-240.394
0
LINE
8
BLACK
6
CONTINUOUS
10
127.024
20
-240.394
11
126.881
21
-240.68
0
LINE
8
BLACK
6
CONTINUOUS
10
126.881
20
-240.68
11
126.738
21
-240.823
0
LINE
8
BLACK
6
CONTINUOUS
10
126.738
20
-240.823
11
126.452
21
-240.966
0
LINE
8
BLACK
6
CONTINUOUS
10
126.452
20
-240.966
11
125.881
21
-240.966
0
LINE
8
BLACK
6
CONTINUOUS
10
125.881
20
-240.966
11
125.595
21
-241.109
0
LINE
8
BLACK
6
CONTINUOUS
10
125.595
20
-241.109
11
125.452
21
-241.252
0
LINE
8
BLACK
6
CONTINUOUS
10
125.452
20
-241.252
11
125.309
21
-241.537
0
LINE
8
BLACK
6
CONTINUOUS
10
125.309
20
-241.537
11
125.309
21
-242.109
0
LINE
8
BLACK
6
CONTINUOUS
10
125.309
20
-242.109
11
125.452
21
-242.394
0
LINE
8
BLACK
6
CONTINUOUS
10
125.452
20
-242.394
11
125.595
21
-242.537
0
LINE
8
BLACK
6
CONTINUOUS
10
125.595
20
-242.537
11
125.881
21
-242.68
0
LINE
8
BLACK
6
CONTINUOUS
10
125.881
20
-242.68
11
126.452
21
-242.68
0
LINE
8
BLACK
6
CONTINUOUS
10
126.452
20
-242.68
11
126.738
21
-242.537
0
LINE
8
BLACK
6
CONTINUOUS
10
126.738
20
-242.537
11
126.881
21
-242.394
0
LINE
8
BLACK
6
CONTINUOUS
10
126.881
20
-242.394
11
127.024
21
-242.109
0
LINE
8
BLACK
6
CONTINUOUS
10
127.024
20
-242.109
11
127.024
21
-241.537
0
LINE
8
BLACK
6
CONTINUOUS
10
127.024
20
-241.537
11
126.881
21
-241.252
0
LINE
8
BLACK
6
CONTINUOUS
10
126.881
20
-241.252
11
126.738
21
-241.109
0
LINE
8
BLACK
6
CONTINUOUS
10
126.738
20
-241.109
11
126.452
21
-240.966
0
LINE
8
BLACK
6
CONTINUOUS
10
128.024
20
-239.68
11
130.024
21
-239.68
0
LINE
8
BLACK
6
CONTINUOUS
10
130.024
20
-239.68
11
128.738
21
-242.68
0
LINE
8
BLACK
6
CONTINUOUS
10
133.452
20
-242.68
11
133.452
21
-239.68
0
LINE
8
BLACK
6
CONTINUOUS
10
134.738
20
-242.68
11
134.738
21
-241.109
0
LINE
8
BLACK
6
CONTINUOUS
10
134.738
20
-241.109
11
134.595
21
-240.823
0
LINE
8
BLACK
6
CONTINUOUS
10
134.595
20
-240.823
11
134.309
21
-240.68
0
LINE
8
BLACK
6
CONTINUOUS
10
134.309
20
-240.68
11
133.881
21
-240.68
0
LINE
8
BLACK
6
CONTINUOUS
10
133.881
20
-240.68
11
133.595
21
-240.823
0
LINE
8
BLACK
6
CONTINUOUS
10
133.595
20
-240.823
11
133.452
21
-240.966
0
LINE
8
BLACK
6
CONTINUOUS
10
136.595
20
-242.68
11
136.309
21
-242.537
0
LINE
8
BLACK
6
CONTINUOUS
10
136.309
20
-242.537
11
136.166
21
-242.394
0
LINE
8
BLACK
6
CONTINUOUS
10
136.166
20
-242.394
11
136.024
21
-242.109
0
LINE
8
BLACK
6
CONTINUOUS
10
136.024
20
-242.109
11
136.024
21
-241.252
0
LINE
8
BLACK
6
CONTINUOUS
10
136.024
20
-241.252
11
136.166
21
-240.966
0
LINE
8
BLACK
6
CONTINUOUS
10
136.166
20
-240.966
11
136.309
21
-240.823
0
LINE
8
BLACK
6
CONTINUOUS
10
136.309
20
-240.823
11
136.595
21
-240.68
0
LINE
8
BLACK
6
CONTINUOUS
10
136.595
20
-240.68
11
137.024
21
-240.68
0
LINE
8
BLACK
6
CONTINUOUS
10
137.024
20
-240.68
11
137.309
21
-240.823
0
LINE
8
BLACK
6
CONTINUOUS
10
137.309
20
-240.823
11
137.452
21
-240.966
0
LINE
8
BLACK
6
CONTINUOUS
10
137.452
20
-240.966
11
137.595
21
-241.252
0
LINE
8
BLACK
6
CONTINUOUS
10
137.595
20
-241.252
11
137.595
21
-242.109
0
LINE
8
BLACK
6
CONTINUOUS
10
137.595
20
-242.109
11
137.452
21
-242.394
0
LINE
8
BLACK
6
CONTINUOUS
10
137.452
20
-242.394
11
137.309
21
-242.537
0
LINE
8
BLACK
6
CONTINUOUS
10
137.309
20
-242.537
11
137.024
21
-242.68
0
LINE
8
BLACK
6
CONTINUOUS
10
137.024
20
-242.68
11
136.595
21
-242.68
0
LINE
8
BLACK
6
CONTINUOUS
10
139.309
20
-242.68
11
139.024
21
-242.537
0
LINE
8
BLACK
6
CONTINUOUS
10
139.024
20
-242.537
11
138.881
21
-242.252
0
LINE
8
BLACK
6
CONTINUOUS
10
138.881
20
-242.252
11
138.881
21
-239.68
0
LINE
8
BLACK
6
CONTINUOUS
10
141.595
20
-242.537
11
141.309
21
-242.68
0
LINE
8
BLACK
6
CONTINUOUS
10
141.309
20
-242.68
11
140.738
21
-242.68
0
LINE
8
BLACK
6
CONTINUOUS
10
140.738
20
-242.68
11
140.452
21
-242.537
0
LINE
8
BLACK
6
CONTINUOUS
10
140.452
20
-242.537
11
140.309
21
-242.252
0
LINE
8
BLACK
6
CONTINUOUS
10
140.309
20
-242.252
11
140.309
21
-241.109
0
LINE
8
BLACK
6
CONTINUOUS
10
140.309
20
-241.109
11
140.452
21
-240.823
0
LINE
8
BLACK
6
CONTINUOUS
10
140.452
20
-240.823
11
140.738
21
-240.68
0
LINE
8
BLACK
6
CONTINUOUS
10
140.738
20
-240.68
11
141.309
21
-240.68
0
LINE
8
BLACK
6
CONTINUOUS
10
141.309
20
-240.68
11
141.595
21
-240.823
0
LINE
8
BLACK
6
CONTINUOUS
10
141.595
20
-240.823
11
141.738
21
-241.109
0
LINE
8
BLACK
6
CONTINUOUS
10
141.738
20
-241.109
11
141.738
21
-241.394
0
LINE
8
BLACK
6
CONTINUOUS
10
141.738
20
-241.394
11
140.309
21
-241.68
0
LINE
8
BLACK
6
CONTINUOUS
10
142.881
20
-242.537
11
143.166
21
-242.68
0
LINE
8
BLACK
6
CONTINUOUS
10
143.166
20
-242.68
11
143.738
21
-242.68
0
LINE
8
BLACK
6
CONTINUOUS
10
143.738
20
-242.68
11
144.024
21
-242.537
0
LINE
8
BLACK
6
CONTINUOUS
10
144.024
20
-242.537
11
144.166
21
-242.252
0
LINE
8
BLACK
6
CONTINUOUS
10
144.166
20
-242.252
11
144.166
21
-242.109
0
LINE
8
BLACK
6
CONTINUOUS
10
144.166
20
-242.109
11
144.024
21
-241.823
0
LINE
8
BLACK
6
CONTINUOUS
10
144.024
20
-241.823
11
143.738
21
-241.68
0
LINE
8
BLACK
6
CONTINUOUS
10
143.738
20
-241.68
11
143.309
21
-241.68
0
LINE
8
BLACK
6
CONTINUOUS
10
143.309
20
-241.68
11
143.024
21
-241.537
0
LINE
8
BLACK
6
CONTINUOUS
10
143.024
20
-241.537
11
142.881
21
-241.252
0
LINE
8
BLACK
6
CONTINUOUS
10
142.881
20
-241.252
11
142.881
21
-241.109
0
LINE
8
BLACK
6
CONTINUOUS
10
142.881
20
-241.109
11
143.024
21
-240.823
0
LINE
8
BLACK
6
CONTINUOUS
10
143.024
20
-240.823
11
143.309
21
-240.68
0
LINE
8
BLACK
6
CONTINUOUS
10
143.309
20
-240.68
11
143.738
21
-240.68
0
LINE
8
BLACK
6
CONTINUOUS
10
143.738
20
-240.68
11
144.024
21
-240.823
0
LINE
8
BLACK
6
CONTINUOUS
10
145.166
20
-243.823
11
145.309
21
-243.68
0
LINE
8
BLACK
6
CONTINUOUS
10
145.309
20
-243.68
11
145.595
21
-243.252
0
LINE
8
BLACK
6
CONTINUOUS
10
145.595
20
-243.252
11
145.738
21
-242.966
0
LINE
8
BLACK
6
CONTINUOUS
10
145.738
20
-242.966
11
145.881
21
-242.537
0
LINE
8
BLACK
6
CONTINUOUS
10
145.881
20
-242.537
11
146.024
21
-241.823
0
LINE
8
BLACK
6
CONTINUOUS
10
146.024
20
-241.823
11
146.024
21
-241.252
0
LINE
8
BLACK
6
CONTINUOUS
10
146.024
20
-241.252
11
145.881
21
-240.537
0
LINE
8
BLACK
6
CONTINUOUS
10
145.881
20
-240.537
11
145.738
21
-240.109
0
LINE
8
BLACK
6
CONTINUOUS
10
145.738
20
-240.109
11
145.595
21
-239.823
0
LINE
8
BLACK
6
CONTINUOUS
10
145.595
20
-239.823
11
145.309
21
-239.394
0
LINE
8
BLACK
6
CONTINUOUS
10
145.309
20
-239.394
11
145.166
21
-239.252
0
LINE
8
BLACK
6
CONTINUOUS
10
150.595
20
-243.823
11
150.452
21
-243.68
0
LINE
8
BLACK
6
CONTINUOUS
10
150.452
20
-243.68
11
150.166
21
-243.252
0
LINE
8
BLACK
6
CONTINUOUS
10
150.166
20
-243.252
11
150.024
21
-242.966
0
LINE
8
BLACK
6
CONTINUOUS
10
150.024
20
-242.966
11
149.881
21
-242.537
0
LINE
8
BLACK
6
CONTINUOUS
10
149.881
20
-242.537
11
149.738
21
-241.823
0
LINE
8
BLACK
6
CONTINUOUS
10
149.738
20
-241.823
11
149.738
21
-241.252
0
LINE
8
BLACK
6
CONTINUOUS
10
149.738
20
-241.252
11
149.881
21
-240.537
0
LINE
8
BLACK
6
CONTINUOUS
10
149.881
20
-240.537
11
150.024
21
-240.109
0
LINE
8
BLACK
6
CONTINUOUS
10
150.024
20
-240.109
11
150.166
21
-239.823
0
LINE
8
BLACK
6
CONTINUOUS
10
150.166
20
-239.823
11
150.452
21
-239.394
0
LINE
8
BLACK
6
CONTINUOUS
10
150.452
20
-239.394
11
150.595
21
-239.252
0
LINE
8
BLACK
6
CONTINUOUS
10
151.738
20
-240.68
11
151.738
21
-242.68
0
LINE
8
BLACK
6
CONTINUOUS
10
151.738
20
-240.966
11
151.881
21
-240.823
0
LINE
8
BLACK
6
CONTINUOUS
10
151.881
20
-240.823
11
152.166
21
-240.68
0
LINE
8
BLACK
6
CONTINUOUS
10
152.166
20
-240.68
11
152.595
21
-240.68
0
LINE
8
BLACK
6
CONTINUOUS
10
152.595
20
-240.68
11
152.881
21
-240.823
0
LINE
8
BLACK
6
CONTINUOUS
10
152.881
20
-240.823
11
153.024
21
-241.109
0
LINE
8
BLACK
6
CONTINUOUS
10
153.024
20
-241.109
11
153.024
21
-242.68
0
LINE
8
BLACK
6
CONTINUOUS
10
154.881
20
-242.68
11
154.595
21
-242.537
0
LINE
8
BLACK
6
CONTINUOUS
10
154.595
20
-242.537
11
154.452
21
-242.394
0
LINE
8
BLACK
6
CONTINUOUS
10
154.452
20
-242.394
11
154.309
21
-242.109
0
LINE
8
BLACK
6
CONTINUOUS
10
154.309
20
-242.109
11
154.309
21
-241.252
0
LINE
8
BLACK
6
CONTINUOUS
10
154.309
20
-241.252
11
154.452
21
-240.966
0
LINE
8
BLACK
6
CONTINUOUS
10
154.452
20
-240.966
11
154.595
21
-240.823
0
LINE
8
BLACK
6
CONTINUOUS
10
154.595
20
-240.823
11
154.881
21
-240.68
0
LINE
8
BLACK
6
CONTINUOUS
10
154.881
20
-240.68
11
155.309
21
-240.68
0
LINE
8
BLACK
6
CONTINUOUS
10
155.309
20
-240.68
11
155.595
21
-240.823
0
LINE
8
BLACK
6
CONTINUOUS
10
155.595
20
-240.823
11
155.738
21
-240.966
0
LINE
8
BLACK
6
CONTINUOUS
10
155.738
20
-240.966
11
155.881
21
-241.252
0
LINE
8
BLACK
6
CONTINUOUS
10
155.881
20
-241.252
11
155.881
21
-242.109
0
LINE
8
BLACK
6
CONTINUOUS
10
155.881
20
-242.109
11
155.738
21
-242.394
0
LINE
8
BLACK
6
CONTINUOUS
10
155.738
20
-242.394
11
155.595
21
-242.537
0
LINE
8
BLACK
6
CONTINUOUS
10
155.595
20
-242.537
11
155.309
21
-242.68
0
LINE
8
BLACK
6
CONTINUOUS
10
155.309
20
-242.68
11
154.881
21
-242.68
0
LINE
8
BLACK
6
CONTINUOUS
10
156.738
20
-240.68
11
157.881
21
-240.68
0
LINE
8
BLACK
6
CONTINUOUS
10
157.166
20
-239.68
11
157.166
21
-242.252
0
LINE
8
BLACK
6
CONTINUOUS
10
157.166
20
-242.252
11
157.309
21
-242.537
0
LINE
8
BLACK
6
CONTINUOUS
10
157.309
20
-242.537
11
157.595
21
-242.68
0
LINE
8
BLACK
6
CONTINUOUS
10
157.595
20
-242.68
11
157.881
21
-242.68
0
LINE
8
BLACK
6
CONTINUOUS
10
161.166
20
-240.68
11
161.166
21
-243.68
0
LINE
8
BLACK
6
CONTINUOUS
10
161.166
20
-240.823
11
161.452
21
-240.68
0
LINE
8
BLACK
6
CONTINUOUS
10
161.452
20
-240.68
11
162.024
21
-240.68
0
LINE
8
BLACK
6
CONTINUOUS
10
162.024
20
-240.68
11
162.309
21
-240.823
0
LINE
8
BLACK
6
CONTINUOUS
10
162.309
20
-240.823
11
162.452
21
-240.966
0
LINE
8
BLACK
6
CONTINUOUS
10
162.452
20
-240.966
11
162.595
21
-241.252
0
LINE
8
BLACK
6
CONTINUOUS
10
162.595
20
-241.252
11
162.595
21
-242.109
0
LINE
8
BLACK
6
CONTINUOUS
10
162.595
20
-242.109
11
162.452
21
-242.394
0
LINE
8
BLACK
6
CONTINUOUS
10
162.452
20
-242.394
11
162.309
21
-242.537
0
LINE
8
BLACK
6
CONTINUOUS
10
162.309
20
-242.537
11
162.024
21
-242.68
0
LINE
8
BLACK
6
CONTINUOUS
10
162.024
20
-242.68
11
161.452
21
-242.68
0
LINE
8
BLACK
6
CONTINUOUS
10
161.452
20
-242.68
11
161.166
21
-242.537
0
LINE
8
BLACK
6
CONTINUOUS
10
164.309
20
-242.68
11
164.024
21
-242.537
0
LINE
8
BLACK
6
CONTINUOUS
10
164.024
20
-242.537
11
163.881
21
-242.252
0
LINE
8
BLACK
6
CONTINUOUS
10
163.881
20
-242.252
11
163.881
21
-239.68
0
LINE
8
BLACK
6
CONTINUOUS
10
166.738
20
-242.68
11
166.738
21
-241.109
0
LINE
8
BLACK
6
CONTINUOUS
10
166.738
20
-241.109
11
166.595
21
-240.823
0
LINE
8
BLACK
6
CONTINUOUS
10
166.595
20
-240.823
11
166.309
21
-240.68
0
LINE
8
BLACK
6
CONTINUOUS
10
166.309
20
-240.68
11
165.738
21
-240.68
0
LINE
8
BLACK
6
CONTINUOUS
10
165.738
20
-240.68
11
165.452
21
-240.823
0
LINE
8
BLACK
6
CONTINUOUS
10
166.738
20
-242.537
11
166.452
21
-242.68
0
LINE
8
BLACK
6
CONTINUOUS
10
166.452
20
-242.68
11
165.738
21
-242.68
0
LINE
8
BLACK
6
CONTINUOUS
10
165.738
20
-242.68
11
165.452
21
-242.537
0
LINE
8
BLACK
6
CONTINUOUS
10
165.452
20
-242.537
11
165.309
21
-242.252
0
LINE
8
BLACK
6
CONTINUOUS
10
165.309
20
-242.252
11
165.309
21
-241.966
0
LINE
8
BLACK
6
CONTINUOUS
10
165.309
20
-241.966
11
165.452
21
-241.68
0
LINE
8
BLACK
6
CONTINUOUS
10
165.452
20
-241.68
11
165.738
21
-241.537
0
LINE
8
BLACK
6
CONTINUOUS
10
165.738
20
-241.537
11
166.452
21
-241.537
0
LINE
8
BLACK
6
CONTINUOUS
10
166.452
20
-241.537
11
166.738
21
-241.394
0
LINE
8
BLACK
6
CONTINUOUS
10
167.738
20
-240.68
11
168.881
21
-240.68
0
LINE
8
BLACK
6
CONTINUOUS
10
168.166
20
-239.68
11
168.166
21
-242.252
0
LINE
8
BLACK
6
CONTINUOUS
10
168.166
20
-242.252
11
168.309
21
-242.537
0
LINE
8
BLACK
6
CONTINUOUS
10
168.309
20
-242.537
11
168.595
21
-242.68
0
LINE
8
BLACK
6
CONTINUOUS
10
168.595
20
-242.68
11
168.881
21
-242.68
0
LINE
8
BLACK
6
CONTINUOUS
10
171.024
20
-242.537
11
170.738
21
-242.68
0
LINE
8
BLACK
6
CONTINUOUS
10
170.738
20
-242.68
11
170.166
21
-242.68
0
LINE
8
BLACK
6
CONTINUOUS
10
170.166
20
-242.68
11
169.881
21
-242.537
0
LINE
8
BLACK
6
CONTINUOUS
10
169.881
20
-242.537
11
169.738
21
-242.252
0
LINE
8
BLACK
6
CONTINUOUS
10
169.738
20
-242.252
11
169.738
21
-241.109
0
LINE
8
BLACK
6
CONTINUOUS
10
169.738
20
-241.109
11
169.881
21
-240.823
0
LINE
8
BLACK
6
CONTINUOUS
10
169.881
20
-240.823
11
170.166
21
-240.68
0
LINE
8
BLACK
6
CONTINUOUS
10
170.166
20
-240.68
11
170.738
21
-240.68
0
LINE
8
BLACK
6
CONTINUOUS
10
170.738
20
-240.68
11
171.024
21
-240.823
0
LINE
8
BLACK
6
CONTINUOUS
10
171.024
20
-240.823
11
171.166
21
-241.109
0
LINE
8
BLACK
6
CONTINUOUS
10
171.166
20
-241.109
11
171.166
21
-241.394
0
LINE
8
BLACK
6
CONTINUOUS
10
171.166
20
-241.394
11
169.738
21
-241.68
0
LINE
8
BLACK
6
CONTINUOUS
10
173.738
20
-242.68
11
173.738
21
-239.68
0
LINE
8
BLACK
6
CONTINUOUS
10
173.738
20
-242.537
11
173.452
21
-242.68
0
LINE
8
BLACK
6
CONTINUOUS
10
173.452
20
-242.68
11
172.881
21
-242.68
0
LINE
8
BLACK
6
CONTINUOUS
10
172.881
20
-242.68
11
172.595
21
-242.537
0
LINE
8
BLACK
6
CONTINUOUS
10
172.595
20
-242.537
11
172.452
21
-242.394
0
LINE
8
BLACK
6
CONTINUOUS
10
172.452
20
-242.394
11
172.309
21
-242.109
0
LINE
8
BLACK
6
CONTINUOUS
10
172.309
20
-242.109
11
172.309
21
-241.252
0
LINE
8
BLACK
6
CONTINUOUS
10
172.309
20
-241.252
11
172.452
21
-240.966
0
LINE
8
BLACK
6
CONTINUOUS
10
172.452
20
-240.966
11
172.595
21
-240.823
0
LINE
8
BLACK
6
CONTINUOUS
10
172.595
20
-240.823
11
172.881
21
-240.68
0
LINE
8
BLACK
6
CONTINUOUS
10
172.881
20
-240.68
11
173.452
21
-240.68
0
LINE
8
BLACK
6
CONTINUOUS
10
173.452
20
-240.68
11
173.738
21
-240.823
0
LINE
8
BLACK
6
CONTINUOUS
10
174.881
20
-243.823
11
175.024
21
-243.68
0
LINE
8
BLACK
6
CONTINUOUS
10
175.024
20
-243.68
11
175.309
21
-243.252
0
LINE
8
BLACK
6
CONTINUOUS
10
175.309
20
-243.252
11
175.452
21
-242.966
0
LINE
8
BLACK
6
CONTINUOUS
10
175.452
20
-242.966
11
175.595
21
-242.537
0
LINE
8
BLACK
6
CONTINUOUS
10
175.595
20
-242.537
11
175.738
21
-241.823
0
LINE
8
BLACK
6
CONTINUOUS
10
175.738
20
-241.823
11
175.738
21
-241.252
0
LINE
8
BLACK
6
CONTINUOUS
10
175.738
20
-241.252
11
175.595
21
-240.537
0
LINE
8
BLACK
6
CONTINUOUS
10
175.595
20
-240.537
11
175.452
21
-240.109
0
LINE
8
BLACK
6
CONTINUOUS
10
175.452
20
-240.109
11
175.309
21
-239.823
0
LINE
8
BLACK
6
CONTINUOUS
10
175.309
20
-239.823
11
175.024
21
-239.394
0
LINE
8
BLACK
6
CONTINUOUS
10
175.024
20
-239.394
11
174.881
21
-239.252
  0
ENDSEC
  0
EOF
