%FSLAX45Y45*%
G04 Gerber Fmt 4.5, Leading zero omitted, Abs format (unit mm)*
G04 Created by KiCad (PCBNEW (5.1.9)-1) date 2021-06-02 15:51:53*
%MOMM*%
%LPD*%
G01*
G04 APERTURE LIST*
%TA.AperFunction,Profile*%
%ADD10C,0.050000*%
%TD*%
%ADD11C,0.200000*%
%ADD12C,0.300000*%
G04 APERTURE END LIST*
D10*
X37211000Y-7823200D02*
X37211000Y-7747000D01*
X36068000Y-7823200D02*
X37211000Y-7823200D01*
X36068000Y-7747000D02*
X36068000Y-7823200D01*
X36068000Y-7747000D02*
X7747000Y-7747000D01*
X40513000Y-7747000D02*
X37211000Y-7747000D01*
X7747000Y-21463000D02*
X7747000Y-7747000D01*
X40513000Y-21463000D02*
X7747000Y-21463000D01*
X40513000Y-7747000D02*
X40513000Y-21463000D01*
D11*
X7981000Y-11557320D02*
X8021000Y-11597320D01*
X8021000Y-11557320D02*
X7981000Y-11597320D01*
X8021640Y-8697280D02*
X8061640Y-8737280D01*
X8061640Y-8697280D02*
X8021640Y-8737280D01*
X8235000Y-13457240D02*
X8275000Y-13497240D01*
X8275000Y-13457240D02*
X8235000Y-13497240D01*
X8255320Y-19172240D02*
X8295320Y-19212240D01*
X8295320Y-19172240D02*
X8255320Y-19212240D01*
X8737920Y-15357160D02*
X8777920Y-15397160D01*
X8777920Y-15357160D02*
X8737920Y-15397160D01*
X9200200Y-17267240D02*
X9240200Y-17307240D01*
X9240200Y-17267240D02*
X9200200Y-17307240D01*
X9911400Y-11521760D02*
X9951400Y-11561760D01*
X9951400Y-11521760D02*
X9911400Y-11561760D01*
X10632760Y-19172240D02*
X10672760Y-19212240D01*
X10672760Y-19172240D02*
X10632760Y-19212240D01*
X10764840Y-13426760D02*
X10804840Y-13466760D01*
X10804840Y-13426760D02*
X10764840Y-13466760D01*
X10861360Y-8687120D02*
X10901360Y-8727120D01*
X10901360Y-8687120D02*
X10861360Y-8727120D01*
X11359200Y-15352080D02*
X11399200Y-15392080D01*
X11399200Y-15352080D02*
X11359200Y-15392080D01*
X11826560Y-11537000D02*
X11866560Y-11577000D01*
X11866560Y-11537000D02*
X11826560Y-11577000D01*
X12222800Y-17262160D02*
X12262800Y-17302160D01*
X12262800Y-17262160D02*
X12222800Y-17302160D01*
X12690160Y-13442000D02*
X12730160Y-13482000D01*
X12730160Y-13442000D02*
X12690160Y-13482000D01*
X12776520Y-8676960D02*
X12816520Y-8716960D01*
X12816520Y-8676960D02*
X12776520Y-8716960D01*
X13015280Y-19157000D02*
X13055280Y-19197000D01*
X13055280Y-19157000D02*
X13015280Y-19197000D01*
X13254040Y-15352080D02*
X13294040Y-15392080D01*
X13294040Y-15352080D02*
X13254040Y-15392080D01*
X13736640Y-11537000D02*
X13776640Y-11577000D01*
X13776640Y-11537000D02*
X13736640Y-11577000D01*
X14112560Y-17262160D02*
X14152560Y-17302160D01*
X14152560Y-17262160D02*
X14112560Y-17302160D01*
X14600240Y-13431840D02*
X14640240Y-13471840D01*
X14640240Y-13431840D02*
X14600240Y-13471840D01*
X14691680Y-8682040D02*
X14731680Y-8722040D01*
X14731680Y-8682040D02*
X14691680Y-8722040D01*
X15042200Y-19563400D02*
X15082200Y-19603400D01*
X15082200Y-19563400D02*
X15042200Y-19603400D01*
X15164120Y-15352080D02*
X15204120Y-15392080D01*
X15204120Y-15352080D02*
X15164120Y-15392080D01*
X15636560Y-11542080D02*
X15676560Y-11582080D01*
X15676560Y-11542080D02*
X15636560Y-11582080D01*
X16032800Y-17236760D02*
X16072800Y-17276760D01*
X16072800Y-17236760D02*
X16032800Y-17276760D01*
X16413800Y-13416600D02*
X16453800Y-13456600D01*
X16453800Y-13416600D02*
X16413800Y-13456600D01*
X16601760Y-8682040D02*
X16641760Y-8722040D01*
X16641760Y-8682040D02*
X16601760Y-8722040D01*
X17069120Y-15357160D02*
X17109120Y-15397160D01*
X17109120Y-15357160D02*
X17069120Y-15397160D01*
X17541560Y-11542080D02*
X17581560Y-11582080D01*
X17581560Y-11542080D02*
X17541560Y-11582080D01*
X17683801Y-17277400D02*
X17723801Y-17317400D01*
X17723801Y-17277400D02*
X17683801Y-17317400D01*
X18369600Y-13442000D02*
X18409600Y-13482000D01*
X18409600Y-13442000D02*
X18369600Y-13482000D01*
X18979200Y-15357160D02*
X19019200Y-15397160D01*
X19019200Y-15357160D02*
X18979200Y-15397160D01*
X19451640Y-11547160D02*
X19491640Y-11587160D01*
X19491640Y-11547160D02*
X19451640Y-11587160D01*
X19456720Y-8687120D02*
X19496720Y-8727120D01*
X19496720Y-8687120D02*
X19456720Y-8727120D01*
X19802160Y-17246920D02*
X19842160Y-17286920D01*
X19842160Y-17246920D02*
X19802160Y-17286920D01*
X19995200Y-13467400D02*
X20035200Y-13507400D01*
X20035200Y-13467400D02*
X19995200Y-13507400D01*
X20147600Y-19162080D02*
X20187600Y-19202080D01*
X20187600Y-19162080D02*
X20147600Y-19202080D01*
X20579399Y-15347000D02*
X20619399Y-15387000D01*
X20619399Y-15347000D02*
X20579399Y-15387000D01*
X21239800Y-20427000D02*
X21279800Y-20467000D01*
X21279800Y-20427000D02*
X21239800Y-20467000D01*
X21341400Y-11547160D02*
X21381400Y-11587160D01*
X21381400Y-11547160D02*
X21341400Y-11587160D01*
X21371880Y-8687120D02*
X21411880Y-8727120D01*
X21411880Y-8687120D02*
X21371880Y-8727120D01*
X21392200Y-20350800D02*
X21432200Y-20390800D01*
X21432200Y-20350800D02*
X21392200Y-20390800D01*
X21493800Y-17252000D02*
X21533800Y-17292000D01*
X21533800Y-17252000D02*
X21493800Y-17292000D01*
X21671600Y-20020600D02*
X21711600Y-20060600D01*
X21711600Y-20020600D02*
X21671600Y-20060600D01*
X21925600Y-20096801D02*
X21965600Y-20136801D01*
X21965600Y-20096801D02*
X21925600Y-20136801D01*
X22027200Y-20401600D02*
X22067200Y-20441600D01*
X22067200Y-20401600D02*
X22027200Y-20441600D01*
X22128800Y-20198400D02*
X22168800Y-20238400D01*
X22168800Y-20198400D02*
X22128800Y-20238400D01*
X22179600Y-13442000D02*
X22219600Y-13482000D01*
X22219600Y-13442000D02*
X22179600Y-13482000D01*
X22306600Y-18903000D02*
X22346600Y-18943000D01*
X22346600Y-18903000D02*
X22306600Y-18943000D01*
X22459000Y-19741200D02*
X22499000Y-19781200D01*
X22499000Y-19741200D02*
X22459000Y-19781200D01*
X22465654Y-18948361D02*
X22505654Y-18988361D01*
X22505654Y-18948361D02*
X22465654Y-18988361D01*
X22738400Y-19868200D02*
X22778400Y-19908200D01*
X22778400Y-19868200D02*
X22738400Y-19908200D01*
X22779040Y-15347000D02*
X22819040Y-15387000D01*
X22819040Y-15347000D02*
X22779040Y-15387000D01*
X22941599Y-18471200D02*
X22981599Y-18511200D01*
X22981599Y-18471200D02*
X22941599Y-18511200D01*
X22967000Y-19233200D02*
X23007000Y-19273200D01*
X23007000Y-19233200D02*
X22967000Y-19273200D01*
X22967000Y-19360200D02*
X23007000Y-19400200D01*
X23007000Y-19360200D02*
X22967000Y-19400200D01*
X22967000Y-19487200D02*
X23007000Y-19527200D01*
X23007000Y-19487200D02*
X22967000Y-19527200D01*
X22967000Y-19614200D02*
X23007000Y-19654200D01*
X23007000Y-19614200D02*
X22967000Y-19654200D01*
X23094000Y-19233200D02*
X23134000Y-19273200D01*
X23134000Y-19233200D02*
X23094000Y-19273200D01*
X23094000Y-19360200D02*
X23134000Y-19400200D01*
X23134000Y-19360200D02*
X23094000Y-19400200D01*
X23094000Y-19487200D02*
X23134000Y-19527200D01*
X23134000Y-19487200D02*
X23094000Y-19527200D01*
X23094000Y-19614200D02*
X23134000Y-19654200D01*
X23134000Y-19614200D02*
X23094000Y-19654200D01*
X23221000Y-19233200D02*
X23261000Y-19273200D01*
X23261000Y-19233200D02*
X23221000Y-19273200D01*
X23221000Y-19360200D02*
X23261000Y-19400200D01*
X23261000Y-19360200D02*
X23221000Y-19400200D01*
X23221000Y-19487200D02*
X23261000Y-19527200D01*
X23261000Y-19487200D02*
X23221000Y-19527200D01*
X23221000Y-19614200D02*
X23261000Y-19654200D01*
X23261000Y-19614200D02*
X23221000Y-19654200D01*
X23246400Y-11547160D02*
X23286400Y-11587160D01*
X23286400Y-11547160D02*
X23246400Y-11587160D01*
X23246400Y-20423501D02*
X23286400Y-20463501D01*
X23286400Y-20423501D02*
X23246400Y-20463501D01*
X23271800Y-8692200D02*
X23311800Y-8732200D01*
X23311800Y-8692200D02*
X23271800Y-8732200D01*
X23348000Y-17252000D02*
X23388000Y-17292000D01*
X23388000Y-17252000D02*
X23348000Y-17292000D01*
X23348000Y-19233200D02*
X23388000Y-19273200D01*
X23388000Y-19233200D02*
X23348000Y-19273200D01*
X23348000Y-19360200D02*
X23388000Y-19400200D01*
X23388000Y-19360200D02*
X23348000Y-19400200D01*
X23348000Y-19487200D02*
X23388000Y-19527200D01*
X23388000Y-19487200D02*
X23348000Y-19527200D01*
X23348000Y-19614200D02*
X23388000Y-19654200D01*
X23388000Y-19614200D02*
X23348000Y-19654200D01*
X23398800Y-20071400D02*
X23438800Y-20111400D01*
X23438800Y-20071400D02*
X23398800Y-20111400D01*
X23561239Y-20050705D02*
X23601239Y-20090705D01*
X23601239Y-20050705D02*
X23561239Y-20090705D01*
X23805200Y-18522000D02*
X23845200Y-18562000D01*
X23845200Y-18522000D02*
X23805200Y-18562000D01*
X23805200Y-19690400D02*
X23845200Y-19730400D01*
X23845200Y-19690400D02*
X23805200Y-19730400D01*
X23957600Y-19995200D02*
X23997600Y-20035200D01*
X23997600Y-19995200D02*
X23957600Y-20035200D01*
X24008400Y-18496600D02*
X24048400Y-18536600D01*
X24048400Y-18496600D02*
X24008400Y-18536600D01*
X24033800Y-13431840D02*
X24073800Y-13471840D01*
X24073800Y-13431840D02*
X24033800Y-13471840D01*
X24262400Y-19893600D02*
X24302400Y-19933600D01*
X24302400Y-19893600D02*
X24262400Y-19933600D01*
X24364000Y-18826800D02*
X24404000Y-18866800D01*
X24404000Y-18826800D02*
X24364000Y-18866800D01*
X24364000Y-20223800D02*
X24404000Y-20263800D01*
X24404000Y-20223800D02*
X24364000Y-20263800D01*
X24541800Y-19360200D02*
X24581800Y-19400200D01*
X24581800Y-19360200D02*
X24541800Y-19400200D01*
X24663720Y-15341920D02*
X24703720Y-15381920D01*
X24703720Y-15341920D02*
X24663720Y-15381920D01*
X25161560Y-11547160D02*
X25201560Y-11587160D01*
X25201560Y-11547160D02*
X25161560Y-11587160D01*
X25171720Y-8692200D02*
X25211720Y-8732200D01*
X25211720Y-8692200D02*
X25171720Y-8732200D01*
X25522240Y-17241840D02*
X25562240Y-17281840D01*
X25562240Y-17241840D02*
X25522240Y-17281840D01*
X25964200Y-13442000D02*
X26004200Y-13482000D01*
X26004200Y-13442000D02*
X25964200Y-13482000D01*
X26578880Y-15357160D02*
X26618880Y-15397160D01*
X26618880Y-15357160D02*
X26578880Y-15397160D01*
X26919240Y-19151920D02*
X26959240Y-19191920D01*
X26959240Y-19151920D02*
X26919240Y-19191920D01*
X27056400Y-11547160D02*
X27096400Y-11587160D01*
X27096400Y-11547160D02*
X27056400Y-11587160D01*
X27412000Y-17231680D02*
X27452000Y-17271680D01*
X27452000Y-17231680D02*
X27412000Y-17271680D01*
X28016520Y-13452160D02*
X28056520Y-13492160D01*
X28056520Y-13452160D02*
X28016520Y-13492160D01*
X28036840Y-8692200D02*
X28076840Y-8732200D01*
X28076840Y-8692200D02*
X28036840Y-8732200D01*
X28428000Y-15341920D02*
X28468000Y-15381920D01*
X28468000Y-15341920D02*
X28428000Y-15381920D01*
X28849640Y-19162080D02*
X28889640Y-19202080D01*
X28889640Y-19162080D02*
X28849640Y-19202080D01*
X28961400Y-11511600D02*
X29001400Y-11551600D01*
X29001400Y-11511600D02*
X28961400Y-11551600D01*
X29367800Y-17257080D02*
X29407800Y-17297080D01*
X29407800Y-17257080D02*
X29367800Y-17297080D01*
X29825000Y-13442000D02*
X29865000Y-13482000D01*
X29865000Y-13442000D02*
X29825000Y-13482000D01*
X29941840Y-8692200D02*
X29981840Y-8732200D01*
X29981840Y-8692200D02*
X29941840Y-8732200D01*
X30388880Y-15347000D02*
X30428880Y-15387000D01*
X30428880Y-15347000D02*
X30388880Y-15387000D01*
X30871480Y-11547160D02*
X30911480Y-11587160D01*
X30911480Y-11547160D02*
X30871480Y-11587160D01*
X30871480Y-19162080D02*
X30911480Y-19202080D01*
X30911480Y-19162080D02*
X30871480Y-19202080D01*
X31780800Y-13447080D02*
X31820800Y-13487080D01*
X31820800Y-13447080D02*
X31780800Y-13487080D01*
X31831600Y-8687120D02*
X31871600Y-8727120D01*
X31871600Y-8687120D02*
X31831600Y-8727120D01*
X32050040Y-17252000D02*
X32090040Y-17292000D01*
X32090040Y-17252000D02*
X32050040Y-17292000D01*
X33127000Y-19634520D02*
X33167000Y-19674520D01*
X33167000Y-19634520D02*
X33127000Y-19674520D01*
X33477520Y-15347000D02*
X33517520Y-15387000D01*
X33517520Y-15347000D02*
X33477520Y-15387000D01*
X33731520Y-11557320D02*
X33771520Y-11597320D01*
X33771520Y-11557320D02*
X33731520Y-11597320D01*
X33746760Y-8687120D02*
X33786760Y-8727120D01*
X33786760Y-8687120D02*
X33746760Y-8727120D01*
X34178560Y-13442000D02*
X34218560Y-13482000D01*
X34218560Y-13442000D02*
X34178560Y-13482000D01*
X35138680Y-17724440D02*
X35178680Y-17764440D01*
X35178680Y-17724440D02*
X35138680Y-17764440D01*
X35148840Y-19634520D02*
X35188840Y-19674520D01*
X35188840Y-19634520D02*
X35148840Y-19674520D01*
X35565400Y-11384600D02*
X35605400Y-11424600D01*
X35605400Y-11384600D02*
X35565400Y-11424600D01*
X35641600Y-14407200D02*
X35681600Y-14447200D01*
X35681600Y-14407200D02*
X35641600Y-14447200D01*
X35844800Y-9860600D02*
X35884800Y-9900600D01*
X35884800Y-9860600D02*
X35844800Y-9900600D01*
X36175000Y-10089200D02*
X36215000Y-10129200D01*
X36215000Y-10089200D02*
X36175000Y-10129200D01*
X36413760Y-8702360D02*
X36453760Y-8742360D01*
X36453760Y-8702360D02*
X36413760Y-8742360D01*
X36413760Y-9007160D02*
X36453760Y-9047160D01*
X36453760Y-9007160D02*
X36413760Y-9047160D01*
X36898950Y-8702360D02*
X36938950Y-8742360D01*
X36938950Y-8702360D02*
X36898950Y-8742360D01*
X36911600Y-13569000D02*
X36951600Y-13609000D01*
X36951600Y-13569000D02*
X36911600Y-13609000D01*
X36937000Y-13365800D02*
X36977000Y-13405800D01*
X36977000Y-13365800D02*
X36937000Y-13405800D01*
X36937000Y-14407200D02*
X36977000Y-14447200D01*
X36977000Y-14407200D02*
X36937000Y-14447200D01*
X36949701Y-12210100D02*
X36989701Y-12250100D01*
X36989701Y-12210100D02*
X36949701Y-12250100D01*
X37069080Y-19639600D02*
X37109080Y-19679600D01*
X37109080Y-19639600D02*
X37069080Y-19679600D01*
X37114800Y-12756200D02*
X37154800Y-12796200D01*
X37154800Y-12756200D02*
X37114800Y-12796200D01*
X37216400Y-7955600D02*
X37256400Y-7995600D01*
X37256400Y-7955600D02*
X37216400Y-7995600D01*
X37343400Y-11740200D02*
X37383400Y-11780200D01*
X37383400Y-11740200D02*
X37343400Y-11780200D01*
X37343400Y-12210100D02*
X37383400Y-12250100D01*
X37383400Y-12210100D02*
X37343400Y-12250100D01*
X37495802Y-9835200D02*
X37535802Y-9875200D01*
X37535802Y-9835200D02*
X37495802Y-9875200D01*
X37526280Y-15352080D02*
X37566280Y-15392080D01*
X37566280Y-15352080D02*
X37526280Y-15392080D01*
X37531360Y-14305600D02*
X37571360Y-14345600D01*
X37571360Y-14305600D02*
X37531360Y-14345600D01*
X37536440Y-17262160D02*
X37576440Y-17302160D01*
X37576440Y-17262160D02*
X37536440Y-17302160D01*
X37622800Y-12934000D02*
X37662800Y-12974000D01*
X37662800Y-12934000D02*
X37622800Y-12974000D01*
X37622800Y-13137200D02*
X37662800Y-13177200D01*
X37662800Y-13137200D02*
X37622800Y-13177200D01*
X37648200Y-15651800D02*
X37688200Y-15691800D01*
X37688200Y-15651800D02*
X37648200Y-15691800D01*
X37724400Y-13492800D02*
X37764400Y-13532800D01*
X37764400Y-13492800D02*
X37724400Y-13532800D01*
X37724400Y-13848400D02*
X37764400Y-13888400D01*
X37764400Y-13848400D02*
X37724400Y-13888400D01*
X37775200Y-9860600D02*
X37815200Y-9900600D01*
X37815200Y-9860600D02*
X37775200Y-9900600D01*
X37826000Y-12934000D02*
X37866000Y-12974000D01*
X37866000Y-12934000D02*
X37826000Y-12974000D01*
X37826000Y-13137200D02*
X37866000Y-13177200D01*
X37866000Y-13137200D02*
X37826000Y-13177200D01*
X38029200Y-10140000D02*
X38069200Y-10180000D01*
X38069200Y-10140000D02*
X38029200Y-10180000D01*
X38080000Y-12730800D02*
X38120000Y-12770800D01*
X38120000Y-12730800D02*
X38080000Y-12770800D01*
X38080000Y-12984800D02*
X38120000Y-13024800D01*
X38120000Y-12984800D02*
X38080000Y-13024800D01*
X38080000Y-13492800D02*
X38120000Y-13532800D01*
X38120000Y-13492800D02*
X38080000Y-13532800D01*
X38080000Y-13848400D02*
X38120000Y-13888400D01*
X38120000Y-13848400D02*
X38080000Y-13888400D01*
X38130800Y-11918000D02*
X38170800Y-11958000D01*
X38170800Y-11918000D02*
X38130800Y-11958000D01*
X38176520Y-13355640D02*
X38216520Y-13395640D01*
X38216520Y-13355640D02*
X38176520Y-13395640D01*
X38207000Y-12210100D02*
X38247000Y-12250100D01*
X38247000Y-12210100D02*
X38207000Y-12250100D01*
X38257800Y-14483400D02*
X38297800Y-14523400D01*
X38297800Y-14483400D02*
X38257800Y-14523400D01*
X38283200Y-11740200D02*
X38323200Y-11780200D01*
X38323200Y-11740200D02*
X38283200Y-11780200D01*
X38283200Y-11918000D02*
X38323200Y-11958000D01*
X38323200Y-11918000D02*
X38283200Y-11958000D01*
X38283200Y-12730800D02*
X38323200Y-12770800D01*
X38323200Y-12730800D02*
X38283200Y-12770800D01*
X38283200Y-12984800D02*
X38323200Y-13024800D01*
X38323200Y-12984800D02*
X38283200Y-13024800D01*
X38613400Y-13467400D02*
X38653400Y-13507400D01*
X38653400Y-13467400D02*
X38613400Y-13507400D01*
X38740400Y-12730800D02*
X38780400Y-12770800D01*
X38780400Y-12730800D02*
X38740400Y-12770800D01*
X38740400Y-12984800D02*
X38780400Y-13024800D01*
X38780400Y-12984800D02*
X38740400Y-13024800D01*
X38791200Y-12248200D02*
X38831200Y-12288200D01*
X38831200Y-12248200D02*
X38791200Y-12288200D01*
X38867399Y-11384601D02*
X38907399Y-11424601D01*
X38907399Y-11384601D02*
X38867399Y-11424601D01*
X38994400Y-11460800D02*
X39034400Y-11500800D01*
X39034400Y-11460800D02*
X38994400Y-11500800D01*
X39019800Y-14422440D02*
X39059800Y-14462440D01*
X39059800Y-14422440D02*
X39019800Y-14462440D01*
X39172200Y-12730800D02*
X39212200Y-12770800D01*
X39212200Y-12730800D02*
X39172200Y-12770800D01*
X39294120Y-9708200D02*
X39334120Y-9748200D01*
X39334120Y-9708200D02*
X39294120Y-9748200D01*
X39350000Y-10800400D02*
X39390000Y-10840400D01*
X39390000Y-10800400D02*
X39350000Y-10840400D01*
X39426200Y-11816400D02*
X39466200Y-11856400D01*
X39466200Y-11816400D02*
X39426200Y-11856400D01*
X39502400Y-12934000D02*
X39542400Y-12974000D01*
X39542400Y-12934000D02*
X39502400Y-12974000D01*
X39558280Y-12502200D02*
X39598280Y-12542200D01*
X39598280Y-12502200D02*
X39558280Y-12542200D01*
X39649720Y-14412280D02*
X39689720Y-14452280D01*
X39689720Y-14412280D02*
X39649720Y-14452280D01*
X36269250Y-7959375D02*
G75*
G03*
X36269250Y-7959375I-30000J0D01*
G01*
X36219250Y-7929375D02*
X36219250Y-7989375D01*
X36259250Y-7929375D02*
X36259250Y-7989375D01*
X36219250Y-7989375D02*
G75*
G03*
X36259250Y-7989375I20000J0D01*
G01*
X36259250Y-7929375D02*
G75*
G03*
X36219250Y-7929375I-20000J0D01*
G01*
X36269250Y-8377375D02*
G75*
G03*
X36269250Y-8377375I-30000J0D01*
G01*
X36219250Y-8322375D02*
X36219250Y-8432375D01*
X36259250Y-8322375D02*
X36259250Y-8432375D01*
X36219250Y-8432375D02*
G75*
G03*
X36259250Y-8432375I20000J0D01*
G01*
X36259250Y-8322375D02*
G75*
G03*
X36219250Y-8322375I-20000J0D01*
G01*
X37133250Y-7959375D02*
G75*
G03*
X37133250Y-7959375I-30000J0D01*
G01*
X37083250Y-7929375D02*
X37083250Y-7989375D01*
X37123250Y-7929375D02*
X37123250Y-7989375D01*
X37083250Y-7989375D02*
G75*
G03*
X37123250Y-7989375I20000J0D01*
G01*
X37123250Y-7929375D02*
G75*
G03*
X37083250Y-7929375I-20000J0D01*
G01*
X37133250Y-8377375D02*
G75*
G03*
X37133250Y-8377375I-30000J0D01*
G01*
X37083250Y-8322375D02*
X37083250Y-8432375D01*
X37123250Y-8322375D02*
X37123250Y-8432375D01*
X37083250Y-8432375D02*
G75*
G03*
X37123250Y-8432375I20000J0D01*
G01*
X37123250Y-8322375D02*
G75*
G03*
X37083250Y-8322375I-20000J0D01*
G01*
X8839200Y-9429200D02*
X8839200Y-9519200D01*
X8794200Y-9474200D02*
X8884200Y-9474200D01*
X8839200Y-12286700D02*
X8839200Y-12376700D01*
X8794200Y-12331700D02*
X8884200Y-12331700D01*
X9080500Y-19906700D02*
X9080500Y-19996700D01*
X9035500Y-19951700D02*
X9125500Y-19951700D01*
X9093200Y-9429200D02*
X9093200Y-9519200D01*
X9048200Y-9474200D02*
X9138200Y-9474200D01*
X9093200Y-12286700D02*
X9093200Y-12376700D01*
X9048200Y-12331700D02*
X9138200Y-12331700D01*
X9321800Y-14191700D02*
X9321800Y-14281700D01*
X9276800Y-14236700D02*
X9366800Y-14236700D01*
X9334500Y-19906700D02*
X9334500Y-19996700D01*
X9289500Y-19951700D02*
X9379500Y-19951700D01*
X9550400Y-16096700D02*
X9550400Y-16186700D01*
X9505400Y-16141700D02*
X9595400Y-16141700D01*
X9575800Y-14191700D02*
X9575800Y-14281700D01*
X9530800Y-14236700D02*
X9620800Y-14236700D01*
X9804400Y-16096700D02*
X9804400Y-16186700D01*
X9759400Y-16141700D02*
X9849400Y-16141700D01*
X10033000Y-18001700D02*
X10033000Y-18091700D01*
X9988000Y-18046700D02*
X10078000Y-18046700D01*
X10287000Y-18001700D02*
X10287000Y-18091700D01*
X10242000Y-18046700D02*
X10332000Y-18046700D01*
X10744200Y-12286700D02*
X10744200Y-12376700D01*
X10699200Y-12331700D02*
X10789200Y-12331700D01*
X10998200Y-12286700D02*
X10998200Y-12376700D01*
X10953200Y-12331700D02*
X11043200Y-12331700D01*
X11455400Y-19906700D02*
X11455400Y-19996700D01*
X11410400Y-19951700D02*
X11500400Y-19951700D01*
X11696700Y-9429200D02*
X11696700Y-9519200D01*
X11651700Y-9474200D02*
X11741700Y-9474200D01*
X11696700Y-14191700D02*
X11696700Y-14281700D01*
X11651700Y-14236700D02*
X11741700Y-14236700D01*
X11709400Y-19906700D02*
X11709400Y-19996700D01*
X11664400Y-19951700D02*
X11754400Y-19951700D01*
X11950700Y-9429200D02*
X11950700Y-9519200D01*
X11905700Y-9474200D02*
X11995700Y-9474200D01*
X11950700Y-14191700D02*
X11950700Y-14281700D01*
X11905700Y-14236700D02*
X11995700Y-14236700D01*
X12179300Y-16096700D02*
X12179300Y-16186700D01*
X12134300Y-16141700D02*
X12224300Y-16141700D01*
X12433300Y-16096700D02*
X12433300Y-16186700D01*
X12388300Y-16141700D02*
X12478300Y-16141700D01*
X12649200Y-12286700D02*
X12649200Y-12376700D01*
X12604200Y-12331700D02*
X12694200Y-12331700D01*
X12903200Y-12286700D02*
X12903200Y-12376700D01*
X12858200Y-12331700D02*
X12948200Y-12331700D01*
X13131800Y-18001700D02*
X13131800Y-18091700D01*
X13086800Y-18046700D02*
X13176800Y-18046700D01*
X13385800Y-18001700D02*
X13385800Y-18091700D01*
X13340800Y-18046700D02*
X13430800Y-18046700D01*
X13601700Y-9429200D02*
X13601700Y-9519200D01*
X13556700Y-9474200D02*
X13646700Y-9474200D01*
X13601700Y-14191700D02*
X13601700Y-14281700D01*
X13556700Y-14236700D02*
X13646700Y-14236700D01*
X13843000Y-19906700D02*
X13843000Y-19996700D01*
X13798000Y-19951700D02*
X13888000Y-19951700D01*
X13855700Y-9429200D02*
X13855700Y-9519200D01*
X13810700Y-9474200D02*
X13900700Y-9474200D01*
X13855700Y-14191700D02*
X13855700Y-14281700D01*
X13810700Y-14236700D02*
X13900700Y-14236700D01*
X14084300Y-16096700D02*
X14084300Y-16186700D01*
X14039300Y-16141700D02*
X14129300Y-16141700D01*
X14097000Y-19906700D02*
X14097000Y-19996700D01*
X14052000Y-19951700D02*
X14142000Y-19951700D01*
X14338300Y-16096700D02*
X14338300Y-16186700D01*
X14293300Y-16141700D02*
X14383300Y-16141700D01*
X14554200Y-12286700D02*
X14554200Y-12376700D01*
X14509200Y-12331700D02*
X14599200Y-12331700D01*
X14808200Y-12286700D02*
X14808200Y-12376700D01*
X14763200Y-12331700D02*
X14853200Y-12331700D01*
X15036800Y-18001700D02*
X15036800Y-18091700D01*
X14991800Y-18046700D02*
X15081800Y-18046700D01*
X15290800Y-18001700D02*
X15290800Y-18091700D01*
X15245800Y-18046700D02*
X15335800Y-18046700D01*
X15506700Y-9429200D02*
X15506700Y-9519200D01*
X15461700Y-9474200D02*
X15551700Y-9474200D01*
X15506700Y-14191700D02*
X15506700Y-14281700D01*
X15461700Y-14236700D02*
X15551700Y-14236700D01*
X15760700Y-9429200D02*
X15760700Y-9519200D01*
X15715700Y-9474200D02*
X15805700Y-9474200D01*
X15760700Y-14191700D02*
X15760700Y-14281700D01*
X15715700Y-14236700D02*
X15805700Y-14236700D01*
X15989300Y-16096700D02*
X15989300Y-16186700D01*
X15944300Y-16141700D02*
X16034300Y-16141700D01*
X16243300Y-16096700D02*
X16243300Y-16186700D01*
X16198300Y-16141700D02*
X16288300Y-16141700D01*
X16459200Y-12286700D02*
X16459200Y-12376700D01*
X16414200Y-12331700D02*
X16504200Y-12331700D01*
X16713200Y-12286700D02*
X16713200Y-12376700D01*
X16668200Y-12331700D02*
X16758200Y-12331700D01*
X16941800Y-18001700D02*
X16941800Y-18091700D01*
X16896800Y-18046700D02*
X16986800Y-18046700D01*
X17195800Y-18001700D02*
X17195800Y-18091700D01*
X17150800Y-18046700D02*
X17240800Y-18046700D01*
X17411700Y-9429200D02*
X17411700Y-9519200D01*
X17366700Y-9474200D02*
X17456700Y-9474200D01*
X17411700Y-14191700D02*
X17411700Y-14281700D01*
X17366700Y-14236700D02*
X17456700Y-14236700D01*
X17665700Y-9429200D02*
X17665700Y-9519200D01*
X17620700Y-9474200D02*
X17710700Y-9474200D01*
X17665700Y-14191700D02*
X17665700Y-14281700D01*
X17620700Y-14236700D02*
X17710700Y-14236700D01*
X17894300Y-16096700D02*
X17894300Y-16186700D01*
X17849300Y-16141700D02*
X17939300Y-16141700D01*
X18148300Y-16096700D02*
X18148300Y-16186700D01*
X18103300Y-16141700D02*
X18193300Y-16141700D01*
X18364200Y-12286700D02*
X18364200Y-12376700D01*
X18319200Y-12331700D02*
X18409200Y-12331700D01*
X18618200Y-12286700D02*
X18618200Y-12376700D01*
X18573200Y-12331700D02*
X18663200Y-12331700D01*
X18846800Y-18001700D02*
X18846800Y-18091700D01*
X18801800Y-18046700D02*
X18891800Y-18046700D01*
X19100800Y-18001700D02*
X19100800Y-18091700D01*
X19055800Y-18046700D02*
X19145800Y-18046700D01*
X19316700Y-14191700D02*
X19316700Y-14281700D01*
X19271700Y-14236700D02*
X19361700Y-14236700D01*
X19570700Y-14191700D02*
X19570700Y-14281700D01*
X19525700Y-14236700D02*
X19615700Y-14236700D01*
X19799300Y-16096700D02*
X19799300Y-16186700D01*
X19754300Y-16141700D02*
X19844300Y-16141700D01*
X20053300Y-16096700D02*
X20053300Y-16186700D01*
X20008300Y-16141700D02*
X20098300Y-16141700D01*
X20269200Y-9429200D02*
X20269200Y-9519200D01*
X20224200Y-9474200D02*
X20314200Y-9474200D01*
X20269200Y-12286700D02*
X20269200Y-12376700D01*
X20224200Y-12331700D02*
X20314200Y-12331700D01*
X20523200Y-9429200D02*
X20523200Y-9519200D01*
X20478200Y-9474200D02*
X20568200Y-9474200D01*
X20523200Y-12286700D02*
X20523200Y-12376700D01*
X20478200Y-12331700D02*
X20568200Y-12331700D01*
X20751800Y-18001700D02*
X20751800Y-18091700D01*
X20706800Y-18046700D02*
X20796800Y-18046700D01*
X20993100Y-19906700D02*
X20993100Y-19996700D01*
X20948100Y-19951700D02*
X21038100Y-19951700D01*
X21005800Y-18001700D02*
X21005800Y-18091700D01*
X20960800Y-18046700D02*
X21050800Y-18046700D01*
X21221700Y-14191700D02*
X21221700Y-14281700D01*
X21176700Y-14236700D02*
X21266700Y-14236700D01*
X21247100Y-19906700D02*
X21247100Y-19996700D01*
X21202100Y-19951700D02*
X21292100Y-19951700D01*
X21475700Y-14191700D02*
X21475700Y-14281700D01*
X21430700Y-14236700D02*
X21520700Y-14236700D01*
X21704300Y-16096700D02*
X21704300Y-16186700D01*
X21659300Y-16141700D02*
X21749300Y-16141700D01*
X21958300Y-16096700D02*
X21958300Y-16186700D01*
X21913300Y-16141700D02*
X22003300Y-16141700D01*
X22174200Y-9429200D02*
X22174200Y-9519200D01*
X22129200Y-9474200D02*
X22219200Y-9474200D01*
X22174200Y-12286700D02*
X22174200Y-12376700D01*
X22129200Y-12331700D02*
X22219200Y-12331700D01*
X22428200Y-9429200D02*
X22428200Y-9519200D01*
X22383200Y-9474200D02*
X22473200Y-9474200D01*
X22428200Y-12286700D02*
X22428200Y-12376700D01*
X22383200Y-12331700D02*
X22473200Y-12331700D01*
X22656800Y-18001700D02*
X22656800Y-18091700D01*
X22611800Y-18046700D02*
X22701800Y-18046700D01*
X22910800Y-18001700D02*
X22910800Y-18091700D01*
X22865800Y-18046700D02*
X22955800Y-18046700D01*
X23126700Y-14191700D02*
X23126700Y-14281700D01*
X23081700Y-14236700D02*
X23171700Y-14236700D01*
X23380700Y-14191700D02*
X23380700Y-14281700D01*
X23335700Y-14236700D02*
X23425700Y-14236700D01*
X23609300Y-16096700D02*
X23609300Y-16186700D01*
X23564300Y-16141700D02*
X23654300Y-16141700D01*
X23863300Y-16096700D02*
X23863300Y-16186700D01*
X23818300Y-16141700D02*
X23908300Y-16141700D01*
X24079200Y-9429200D02*
X24079200Y-9519200D01*
X24034200Y-9474200D02*
X24124200Y-9474200D01*
X24079200Y-12286700D02*
X24079200Y-12376700D01*
X24034200Y-12331700D02*
X24124200Y-12331700D01*
X24333200Y-9429200D02*
X24333200Y-9519200D01*
X24288200Y-9474200D02*
X24378200Y-9474200D01*
X24333200Y-12286700D02*
X24333200Y-12376700D01*
X24288200Y-12331700D02*
X24378200Y-12331700D01*
X24561800Y-18001700D02*
X24561800Y-18091700D01*
X24516800Y-18046700D02*
X24606800Y-18046700D01*
X24815800Y-18001700D02*
X24815800Y-18091700D01*
X24770800Y-18046700D02*
X24860800Y-18046700D01*
X25031700Y-14191700D02*
X25031700Y-14281700D01*
X24986700Y-14236700D02*
X25076700Y-14236700D01*
X25285700Y-14191700D02*
X25285700Y-14281700D01*
X25240700Y-14236700D02*
X25330700Y-14236700D01*
X25514300Y-16096700D02*
X25514300Y-16186700D01*
X25469300Y-16141700D02*
X25559300Y-16141700D01*
X25768300Y-16096700D02*
X25768300Y-16186700D01*
X25723300Y-16141700D02*
X25813300Y-16141700D01*
X25984200Y-9429200D02*
X25984200Y-9519200D01*
X25939200Y-9474200D02*
X26029200Y-9474200D01*
X25984200Y-12286700D02*
X25984200Y-12376700D01*
X25939200Y-12331700D02*
X26029200Y-12331700D01*
X26238200Y-9429200D02*
X26238200Y-9519200D01*
X26193200Y-9474200D02*
X26283200Y-9474200D01*
X26238200Y-12286700D02*
X26238200Y-12376700D01*
X26193200Y-12331700D02*
X26283200Y-12331700D01*
X26466800Y-18001700D02*
X26466800Y-18091700D01*
X26421800Y-18046700D02*
X26511800Y-18046700D01*
X26720800Y-18001700D02*
X26720800Y-18091700D01*
X26675800Y-18046700D02*
X26765800Y-18046700D01*
X26936700Y-14191700D02*
X26936700Y-14281700D01*
X26891700Y-14236700D02*
X26981700Y-14236700D01*
X27190700Y-14191700D02*
X27190700Y-14281700D01*
X27145700Y-14236700D02*
X27235700Y-14236700D01*
X27419300Y-16096700D02*
X27419300Y-16186700D01*
X27374300Y-16141700D02*
X27464300Y-16141700D01*
X27673300Y-16096700D02*
X27673300Y-16186700D01*
X27628300Y-16141700D02*
X27718300Y-16141700D01*
X27889200Y-12286700D02*
X27889200Y-12376700D01*
X27844200Y-12331700D02*
X27934200Y-12331700D01*
X27889200Y-19906700D02*
X27889200Y-19996700D01*
X27844200Y-19951700D02*
X27934200Y-19951700D01*
X28143200Y-12286700D02*
X28143200Y-12376700D01*
X28098200Y-12331700D02*
X28188200Y-12331700D01*
X28143200Y-19906700D02*
X28143200Y-19996700D01*
X28098200Y-19951700D02*
X28188200Y-19951700D01*
X28371800Y-18001700D02*
X28371800Y-18091700D01*
X28326800Y-18046700D02*
X28416800Y-18046700D01*
X28625800Y-18001700D02*
X28625800Y-18091700D01*
X28580800Y-18046700D02*
X28670800Y-18046700D01*
X28841700Y-9429200D02*
X28841700Y-9519200D01*
X28796700Y-9474200D02*
X28886700Y-9474200D01*
X28841700Y-14191700D02*
X28841700Y-14281700D01*
X28796700Y-14236700D02*
X28886700Y-14236700D01*
X29095700Y-9429200D02*
X29095700Y-9519200D01*
X29050700Y-9474200D02*
X29140700Y-9474200D01*
X29095700Y-14191700D02*
X29095700Y-14281700D01*
X29050700Y-14236700D02*
X29140700Y-14236700D01*
X29324300Y-16096700D02*
X29324300Y-16186700D01*
X29279300Y-16141700D02*
X29369300Y-16141700D01*
X29578300Y-16096700D02*
X29578300Y-16186700D01*
X29533300Y-16141700D02*
X29623300Y-16141700D01*
X29794200Y-12286700D02*
X29794200Y-12376700D01*
X29749200Y-12331700D02*
X29839200Y-12331700D01*
X29794200Y-19906700D02*
X29794200Y-19996700D01*
X29749200Y-19951700D02*
X29839200Y-19951700D01*
X30048200Y-12286700D02*
X30048200Y-12376700D01*
X30003200Y-12331700D02*
X30093200Y-12331700D01*
X30048200Y-19906700D02*
X30048200Y-19996700D01*
X30003200Y-19951700D02*
X30093200Y-19951700D01*
X30276800Y-18001700D02*
X30276800Y-18091700D01*
X30231800Y-18046700D02*
X30321800Y-18046700D01*
X30530800Y-18001700D02*
X30530800Y-18091700D01*
X30485800Y-18046700D02*
X30575800Y-18046700D01*
X30746700Y-9429200D02*
X30746700Y-9519200D01*
X30701700Y-9474200D02*
X30791700Y-9474200D01*
X30746700Y-14191700D02*
X30746700Y-14281700D01*
X30701700Y-14236700D02*
X30791700Y-14236700D01*
X31000700Y-9429200D02*
X31000700Y-9519200D01*
X30955700Y-9474200D02*
X31045700Y-9474200D01*
X31000700Y-14191700D02*
X31000700Y-14281700D01*
X30955700Y-14236700D02*
X31045700Y-14236700D01*
X31229300Y-16096700D02*
X31229300Y-16186700D01*
X31184300Y-16141700D02*
X31274300Y-16141700D01*
X31483300Y-16096700D02*
X31483300Y-16186700D01*
X31438300Y-16141700D02*
X31528300Y-16141700D01*
X31699200Y-12286700D02*
X31699200Y-12376700D01*
X31654200Y-12331700D02*
X31744200Y-12331700D01*
X31699200Y-19906700D02*
X31699200Y-19996700D01*
X31654200Y-19951700D02*
X31744200Y-19951700D01*
X31953200Y-12286700D02*
X31953200Y-12376700D01*
X31908200Y-12331700D02*
X31998200Y-12331700D01*
X31953200Y-19906700D02*
X31953200Y-19996700D01*
X31908200Y-19951700D02*
X31998200Y-19951700D01*
X32651700Y-9429200D02*
X32651700Y-9519200D01*
X32606700Y-9474200D02*
X32696700Y-9474200D01*
X32651700Y-14191700D02*
X32651700Y-14281700D01*
X32606700Y-14236700D02*
X32696700Y-14236700D01*
X32893000Y-18001700D02*
X32893000Y-18091700D01*
X32848000Y-18046700D02*
X32938000Y-18046700D01*
X32905700Y-9429200D02*
X32905700Y-9519200D01*
X32860700Y-9474200D02*
X32950700Y-9474200D01*
X32905700Y-14191700D02*
X32905700Y-14281700D01*
X32860700Y-14236700D02*
X32950700Y-14236700D01*
X33147000Y-18001700D02*
X33147000Y-18091700D01*
X33102000Y-18046700D02*
X33192000Y-18046700D01*
X34086800Y-20389300D02*
X34086800Y-20479300D01*
X34041800Y-20434300D02*
X34131800Y-20434300D01*
X34328100Y-16096700D02*
X34328100Y-16186700D01*
X34283100Y-16141700D02*
X34373100Y-16141700D01*
X34340800Y-20389300D02*
X34340800Y-20479300D01*
X34295800Y-20434300D02*
X34385800Y-20434300D01*
X34556700Y-9429200D02*
X34556700Y-9519200D01*
X34511700Y-9474200D02*
X34601700Y-9474200D01*
X34556700Y-12286700D02*
X34556700Y-12376700D01*
X34511700Y-12331700D02*
X34601700Y-12331700D01*
X34582100Y-16096700D02*
X34582100Y-16186700D01*
X34537100Y-16141700D02*
X34627100Y-16141700D01*
X34810700Y-9429200D02*
X34810700Y-9519200D01*
X34765700Y-9474200D02*
X34855700Y-9474200D01*
X34810700Y-12286700D02*
X34810700Y-12376700D01*
X34765700Y-12331700D02*
X34855700Y-12331700D01*
X35039300Y-14191700D02*
X35039300Y-14281700D01*
X34994300Y-14236700D02*
X35084300Y-14236700D01*
X35293300Y-14191700D02*
X35293300Y-14281700D01*
X35248300Y-14236700D02*
X35338300Y-14236700D01*
X35991800Y-18484300D02*
X35991800Y-18574300D01*
X35946800Y-18529300D02*
X36036800Y-18529300D01*
X35991800Y-20389300D02*
X35991800Y-20479300D01*
X35946800Y-20434300D02*
X36036800Y-20434300D01*
X36245800Y-18484300D02*
X36245800Y-18574300D01*
X36200800Y-18529300D02*
X36290800Y-18529300D01*
X36245800Y-20389300D02*
X36245800Y-20479300D01*
X36200800Y-20434300D02*
X36290800Y-20434300D01*
X37896800Y-20389300D02*
X37896800Y-20479300D01*
X37851800Y-20434300D02*
X37941800Y-20434300D01*
X38150800Y-20389300D02*
X38150800Y-20479300D01*
X38105800Y-20434300D02*
X38195800Y-20434300D01*
X38366700Y-16096700D02*
X38366700Y-16186700D01*
X38321700Y-16141700D02*
X38411700Y-16141700D01*
X38366700Y-18001700D02*
X38366700Y-18091700D01*
X38321700Y-18046700D02*
X38411700Y-18046700D01*
X38620700Y-16096700D02*
X38620700Y-16186700D01*
X38575700Y-16141700D02*
X38665700Y-16141700D01*
X38620700Y-18001700D02*
X38620700Y-18091700D01*
X38575700Y-18046700D02*
X38665700Y-18046700D01*
X38087731Y-9957231D02*
X38087731Y-9886519D01*
X38017019Y-9886519D01*
X38017019Y-9957231D01*
X38087731Y-9957231D01*
X38214731Y-8110356D02*
X38214731Y-8039644D01*
X38144019Y-8039644D01*
X38144019Y-8110356D01*
X38214731Y-8110356D01*
X38214731Y-9560356D02*
X38214731Y-9489644D01*
X38144019Y-9489644D01*
X38144019Y-9560356D01*
X38214731Y-9560356D01*
X38341731Y-9957231D02*
X38341731Y-9886519D01*
X38271019Y-9886519D01*
X38271019Y-9957231D01*
X38341731Y-9957231D01*
X38464731Y-9560356D02*
X38464731Y-9489644D01*
X38394019Y-9489644D01*
X38394019Y-9560356D01*
X38464731Y-9560356D01*
X38595731Y-9957231D02*
X38595731Y-9886519D01*
X38525019Y-9886519D01*
X38525019Y-9957231D01*
X38595731Y-9957231D01*
X38714731Y-8110356D02*
X38714731Y-8039644D01*
X38644019Y-8039644D01*
X38644019Y-8110356D01*
X38714731Y-8110356D01*
X38714731Y-9560356D02*
X38714731Y-9489644D01*
X38644019Y-9489644D01*
X38644019Y-9560356D01*
X38714731Y-9560356D01*
X38849731Y-9957231D02*
X38849731Y-9886519D01*
X38779019Y-9886519D01*
X38779019Y-9957231D01*
X38849731Y-9957231D01*
X38922756Y-10677956D02*
X38922756Y-10607244D01*
X38852044Y-10607244D01*
X38852044Y-10677956D01*
X38922756Y-10677956D01*
X38922756Y-10931956D02*
X38922756Y-10861244D01*
X38852044Y-10861244D01*
X38852044Y-10931956D01*
X38922756Y-10931956D01*
X38922756Y-11185956D02*
X38922756Y-11115244D01*
X38852044Y-11115244D01*
X38852044Y-11185956D01*
X38922756Y-11185956D01*
X39176756Y-10677956D02*
X39176756Y-10607244D01*
X39106044Y-10607244D01*
X39106044Y-10677956D01*
X39176756Y-10677956D01*
X39176756Y-10931956D02*
X39176756Y-10861244D01*
X39106044Y-10861244D01*
X39106044Y-10931956D01*
X39176756Y-10931956D01*
X39176756Y-11185956D02*
X39176756Y-11115244D01*
X39106044Y-11115244D01*
X39106044Y-11185956D01*
X39176756Y-11185956D01*
X8588375Y-8788875D02*
X8661875Y-8715375D01*
X8588375Y-8641875D01*
X8514875Y-8715375D01*
X8588375Y-8788875D01*
X8588375Y-11646375D02*
X8661875Y-11572875D01*
X8588375Y-11499375D01*
X8514875Y-11572875D01*
X8588375Y-11646375D01*
X8826500Y-19266375D02*
X8900000Y-19192875D01*
X8826500Y-19119375D01*
X8753000Y-19192875D01*
X8826500Y-19266375D01*
X9064625Y-13551375D02*
X9138125Y-13477875D01*
X9064625Y-13404375D01*
X8991125Y-13477875D01*
X9064625Y-13551375D01*
X9223375Y-8534875D02*
X9296875Y-8461375D01*
X9223375Y-8387875D01*
X9149875Y-8461375D01*
X9223375Y-8534875D01*
X9223375Y-11392375D02*
X9296875Y-11318875D01*
X9223375Y-11245375D01*
X9149875Y-11318875D01*
X9223375Y-11392375D01*
X9302750Y-15456375D02*
X9376250Y-15382875D01*
X9302750Y-15309375D01*
X9229250Y-15382875D01*
X9302750Y-15456375D01*
X9461500Y-19012375D02*
X9535000Y-18938875D01*
X9461500Y-18865375D01*
X9388000Y-18938875D01*
X9461500Y-19012375D01*
X9699625Y-13297375D02*
X9773125Y-13223875D01*
X9699625Y-13150375D01*
X9626125Y-13223875D01*
X9699625Y-13297375D01*
X9779000Y-17361375D02*
X9852500Y-17287875D01*
X9779000Y-17214375D01*
X9705500Y-17287875D01*
X9779000Y-17361375D01*
X9937750Y-15202375D02*
X10011250Y-15128875D01*
X9937750Y-15055375D01*
X9864250Y-15128875D01*
X9937750Y-15202375D01*
X10414000Y-17107375D02*
X10487500Y-17033875D01*
X10414000Y-16960375D01*
X10340500Y-17033875D01*
X10414000Y-17107375D01*
X10493375Y-11646375D02*
X10566875Y-11572875D01*
X10493375Y-11499375D01*
X10419875Y-11572875D01*
X10493375Y-11646375D01*
X11128375Y-11392375D02*
X11201875Y-11318875D01*
X11128375Y-11245375D01*
X11054875Y-11318875D01*
X11128375Y-11392375D01*
X11207750Y-19266375D02*
X11281250Y-19192875D01*
X11207750Y-19119375D01*
X11134250Y-19192875D01*
X11207750Y-19266375D01*
X11445875Y-8788875D02*
X11519375Y-8715375D01*
X11445875Y-8641875D01*
X11372375Y-8715375D01*
X11445875Y-8788875D01*
X11445875Y-13551375D02*
X11519375Y-13477875D01*
X11445875Y-13404375D01*
X11372375Y-13477875D01*
X11445875Y-13551375D01*
X11842750Y-19012375D02*
X11916250Y-18938875D01*
X11842750Y-18865375D01*
X11769250Y-18938875D01*
X11842750Y-19012375D01*
X11922125Y-15456375D02*
X11995625Y-15382875D01*
X11922125Y-15309375D01*
X11848625Y-15382875D01*
X11922125Y-15456375D01*
X12080875Y-8534875D02*
X12154375Y-8461375D01*
X12080875Y-8387875D01*
X12007375Y-8461375D01*
X12080875Y-8534875D01*
X12080875Y-13297375D02*
X12154375Y-13223875D01*
X12080875Y-13150375D01*
X12007375Y-13223875D01*
X12080875Y-13297375D01*
X12398375Y-11646375D02*
X12471875Y-11572875D01*
X12398375Y-11499375D01*
X12324875Y-11572875D01*
X12398375Y-11646375D01*
X12557125Y-15202375D02*
X12630625Y-15128875D01*
X12557125Y-15055375D01*
X12483625Y-15128875D01*
X12557125Y-15202375D01*
X12874625Y-17361375D02*
X12948125Y-17287875D01*
X12874625Y-17214375D01*
X12801125Y-17287875D01*
X12874625Y-17361375D01*
X13033375Y-11392375D02*
X13106875Y-11318875D01*
X13033375Y-11245375D01*
X12959875Y-11318875D01*
X13033375Y-11392375D01*
X13350875Y-8788875D02*
X13424375Y-8715375D01*
X13350875Y-8641875D01*
X13277375Y-8715375D01*
X13350875Y-8788875D01*
X13350875Y-13551375D02*
X13424375Y-13477875D01*
X13350875Y-13404375D01*
X13277375Y-13477875D01*
X13350875Y-13551375D01*
X13509625Y-17107375D02*
X13583125Y-17033875D01*
X13509625Y-16960375D01*
X13436125Y-17033875D01*
X13509625Y-17107375D01*
X13589000Y-19266375D02*
X13662500Y-19192875D01*
X13589000Y-19119375D01*
X13515500Y-19192875D01*
X13589000Y-19266375D01*
X13827125Y-15456375D02*
X13900625Y-15382875D01*
X13827125Y-15309375D01*
X13753625Y-15382875D01*
X13827125Y-15456375D01*
X13985875Y-8534875D02*
X14059375Y-8461375D01*
X13985875Y-8387875D01*
X13912375Y-8461375D01*
X13985875Y-8534875D01*
X13985875Y-13297375D02*
X14059375Y-13223875D01*
X13985875Y-13150375D01*
X13912375Y-13223875D01*
X13985875Y-13297375D01*
X14224000Y-19012375D02*
X14297500Y-18938875D01*
X14224000Y-18865375D01*
X14150500Y-18938875D01*
X14224000Y-19012375D01*
X14303375Y-11646375D02*
X14376875Y-11572875D01*
X14303375Y-11499375D01*
X14229875Y-11572875D01*
X14303375Y-11646375D01*
X14462125Y-15202375D02*
X14535625Y-15128875D01*
X14462125Y-15055375D01*
X14388625Y-15128875D01*
X14462125Y-15202375D01*
X14779625Y-17361375D02*
X14853125Y-17287875D01*
X14779625Y-17214375D01*
X14706125Y-17287875D01*
X14779625Y-17361375D01*
X14938375Y-11392375D02*
X15011875Y-11318875D01*
X14938375Y-11245375D01*
X14864875Y-11318875D01*
X14938375Y-11392375D01*
X15255875Y-8788875D02*
X15329375Y-8715375D01*
X15255875Y-8641875D01*
X15182375Y-8715375D01*
X15255875Y-8788875D01*
X15255875Y-13551375D02*
X15329375Y-13477875D01*
X15255875Y-13404375D01*
X15182375Y-13477875D01*
X15255875Y-13551375D01*
X15414625Y-17107375D02*
X15488125Y-17033875D01*
X15414625Y-16960375D01*
X15341125Y-17033875D01*
X15414625Y-17107375D01*
X15732125Y-15456375D02*
X15805625Y-15382875D01*
X15732125Y-15309375D01*
X15658625Y-15382875D01*
X15732125Y-15456375D01*
X15890875Y-8534875D02*
X15964375Y-8461375D01*
X15890875Y-8387875D01*
X15817375Y-8461375D01*
X15890875Y-8534875D01*
X15890875Y-13297375D02*
X15964375Y-13223875D01*
X15890875Y-13150375D01*
X15817375Y-13223875D01*
X15890875Y-13297375D01*
X16208375Y-11646375D02*
X16281875Y-11572875D01*
X16208375Y-11499375D01*
X16134875Y-11572875D01*
X16208375Y-11646375D01*
X16367125Y-15202375D02*
X16440625Y-15128875D01*
X16367125Y-15055375D01*
X16293625Y-15128875D01*
X16367125Y-15202375D01*
X16684625Y-17361375D02*
X16758125Y-17287875D01*
X16684625Y-17214375D01*
X16611125Y-17287875D01*
X16684625Y-17361375D01*
X16843375Y-11392375D02*
X16916875Y-11318875D01*
X16843375Y-11245375D01*
X16769875Y-11318875D01*
X16843375Y-11392375D01*
X17160875Y-8788875D02*
X17234375Y-8715375D01*
X17160875Y-8641875D01*
X17087375Y-8715375D01*
X17160875Y-8788875D01*
X17160875Y-13551375D02*
X17234375Y-13477875D01*
X17160875Y-13404375D01*
X17087375Y-13477875D01*
X17160875Y-13551375D01*
X17319625Y-17107375D02*
X17393125Y-17033875D01*
X17319625Y-16960375D01*
X17246125Y-17033875D01*
X17319625Y-17107375D01*
X17637125Y-15456375D02*
X17710625Y-15382875D01*
X17637125Y-15309375D01*
X17563625Y-15382875D01*
X17637125Y-15456375D01*
X17795875Y-8534875D02*
X17869375Y-8461375D01*
X17795875Y-8387875D01*
X17722375Y-8461375D01*
X17795875Y-8534875D01*
X17795875Y-13297375D02*
X17869375Y-13223875D01*
X17795875Y-13150375D01*
X17722375Y-13223875D01*
X17795875Y-13297375D01*
X18113375Y-11646375D02*
X18186875Y-11572875D01*
X18113375Y-11499375D01*
X18039875Y-11572875D01*
X18113375Y-11646375D01*
X18272125Y-15202375D02*
X18345625Y-15128875D01*
X18272125Y-15055375D01*
X18198625Y-15128875D01*
X18272125Y-15202375D01*
X18589625Y-17361375D02*
X18663125Y-17287875D01*
X18589625Y-17214375D01*
X18516125Y-17287875D01*
X18589625Y-17361375D01*
X18748375Y-11392375D02*
X18821875Y-11318875D01*
X18748375Y-11245375D01*
X18674875Y-11318875D01*
X18748375Y-11392375D01*
X19065875Y-13551375D02*
X19139375Y-13477875D01*
X19065875Y-13404375D01*
X18992375Y-13477875D01*
X19065875Y-13551375D01*
X19224625Y-17107375D02*
X19298125Y-17033875D01*
X19224625Y-16960375D01*
X19151125Y-17033875D01*
X19224625Y-17107375D01*
X19542125Y-15456375D02*
X19615625Y-15382875D01*
X19542125Y-15309375D01*
X19468625Y-15382875D01*
X19542125Y-15456375D01*
X19700875Y-13297375D02*
X19774375Y-13223875D01*
X19700875Y-13150375D01*
X19627375Y-13223875D01*
X19700875Y-13297375D01*
X20018375Y-8788875D02*
X20091875Y-8715375D01*
X20018375Y-8641875D01*
X19944875Y-8715375D01*
X20018375Y-8788875D01*
X20018375Y-11646375D02*
X20091875Y-11572875D01*
X20018375Y-11499375D01*
X19944875Y-11572875D01*
X20018375Y-11646375D01*
X20177125Y-15202375D02*
X20250625Y-15128875D01*
X20177125Y-15055375D01*
X20103625Y-15128875D01*
X20177125Y-15202375D01*
X20494625Y-17361375D02*
X20568125Y-17287875D01*
X20494625Y-17214375D01*
X20421125Y-17287875D01*
X20494625Y-17361375D01*
X20653375Y-8534875D02*
X20726875Y-8461375D01*
X20653375Y-8387875D01*
X20579875Y-8461375D01*
X20653375Y-8534875D01*
X20653375Y-11392375D02*
X20726875Y-11318875D01*
X20653375Y-11245375D01*
X20579875Y-11318875D01*
X20653375Y-11392375D01*
X20732750Y-19266375D02*
X20806250Y-19192875D01*
X20732750Y-19119375D01*
X20659250Y-19192875D01*
X20732750Y-19266375D01*
X20970875Y-13551375D02*
X21044375Y-13477875D01*
X20970875Y-13404375D01*
X20897375Y-13477875D01*
X20970875Y-13551375D01*
X21129625Y-17107375D02*
X21203125Y-17033875D01*
X21129625Y-16960375D01*
X21056125Y-17033875D01*
X21129625Y-17107375D01*
X21367750Y-19012375D02*
X21441250Y-18938875D01*
X21367750Y-18865375D01*
X21294250Y-18938875D01*
X21367750Y-19012375D01*
X21447125Y-15456375D02*
X21520625Y-15382875D01*
X21447125Y-15309375D01*
X21373625Y-15382875D01*
X21447125Y-15456375D01*
X21605875Y-13297375D02*
X21679375Y-13223875D01*
X21605875Y-13150375D01*
X21532375Y-13223875D01*
X21605875Y-13297375D01*
X21923375Y-8788875D02*
X21996875Y-8715375D01*
X21923375Y-8641875D01*
X21849875Y-8715375D01*
X21923375Y-8788875D01*
X21923375Y-11646375D02*
X21996875Y-11572875D01*
X21923375Y-11499375D01*
X21849875Y-11572875D01*
X21923375Y-11646375D01*
X22082125Y-15202375D02*
X22155625Y-15128875D01*
X22082125Y-15055375D01*
X22008625Y-15128875D01*
X22082125Y-15202375D01*
X22399625Y-17361375D02*
X22473125Y-17287875D01*
X22399625Y-17214375D01*
X22326125Y-17287875D01*
X22399625Y-17361375D01*
X22558375Y-8534875D02*
X22631875Y-8461375D01*
X22558375Y-8387875D01*
X22484875Y-8461375D01*
X22558375Y-8534875D01*
X22558375Y-11392375D02*
X22631875Y-11318875D01*
X22558375Y-11245375D01*
X22484875Y-11318875D01*
X22558375Y-11392375D01*
X22875875Y-13551375D02*
X22949375Y-13477875D01*
X22875875Y-13404375D01*
X22802375Y-13477875D01*
X22875875Y-13551375D01*
X23034625Y-17107375D02*
X23108125Y-17033875D01*
X23034625Y-16960375D01*
X22961125Y-17033875D01*
X23034625Y-17107375D01*
X23352125Y-15456375D02*
X23425625Y-15382875D01*
X23352125Y-15309375D01*
X23278625Y-15382875D01*
X23352125Y-15456375D01*
X23510875Y-13297375D02*
X23584375Y-13223875D01*
X23510875Y-13150375D01*
X23437375Y-13223875D01*
X23510875Y-13297375D01*
X23828375Y-8788875D02*
X23901875Y-8715375D01*
X23828375Y-8641875D01*
X23754875Y-8715375D01*
X23828375Y-8788875D01*
X23828375Y-11646375D02*
X23901875Y-11572875D01*
X23828375Y-11499375D01*
X23754875Y-11572875D01*
X23828375Y-11646375D01*
X23987125Y-15202375D02*
X24060625Y-15128875D01*
X23987125Y-15055375D01*
X23913625Y-15128875D01*
X23987125Y-15202375D01*
X24304625Y-17361375D02*
X24378125Y-17287875D01*
X24304625Y-17214375D01*
X24231125Y-17287875D01*
X24304625Y-17361375D01*
X24463375Y-8534875D02*
X24536875Y-8461375D01*
X24463375Y-8387875D01*
X24389875Y-8461375D01*
X24463375Y-8534875D01*
X24463375Y-11392375D02*
X24536875Y-11318875D01*
X24463375Y-11245375D01*
X24389875Y-11318875D01*
X24463375Y-11392375D01*
X24780875Y-13551375D02*
X24854375Y-13477875D01*
X24780875Y-13404375D01*
X24707375Y-13477875D01*
X24780875Y-13551375D01*
X24939625Y-17107375D02*
X25013125Y-17033875D01*
X24939625Y-16960375D01*
X24866125Y-17033875D01*
X24939625Y-17107375D01*
X25257125Y-15456375D02*
X25330625Y-15382875D01*
X25257125Y-15309375D01*
X25183625Y-15382875D01*
X25257125Y-15456375D01*
X25415875Y-13297375D02*
X25489375Y-13223875D01*
X25415875Y-13150375D01*
X25342375Y-13223875D01*
X25415875Y-13297375D01*
X25733375Y-8788875D02*
X25806875Y-8715375D01*
X25733375Y-8641875D01*
X25659875Y-8715375D01*
X25733375Y-8788875D01*
X25733375Y-11646375D02*
X25806875Y-11572875D01*
X25733375Y-11499375D01*
X25659875Y-11572875D01*
X25733375Y-11646375D01*
X25892125Y-15202375D02*
X25965625Y-15128875D01*
X25892125Y-15055375D01*
X25818625Y-15128875D01*
X25892125Y-15202375D01*
X26209625Y-17361375D02*
X26283125Y-17287875D01*
X26209625Y-17214375D01*
X26136125Y-17287875D01*
X26209625Y-17361375D01*
X26368375Y-8534875D02*
X26441875Y-8461375D01*
X26368375Y-8387875D01*
X26294875Y-8461375D01*
X26368375Y-8534875D01*
X26368375Y-11392375D02*
X26441875Y-11318875D01*
X26368375Y-11245375D01*
X26294875Y-11318875D01*
X26368375Y-11392375D01*
X26685875Y-13551375D02*
X26759375Y-13477875D01*
X26685875Y-13404375D01*
X26612375Y-13477875D01*
X26685875Y-13551375D01*
X26844625Y-17107375D02*
X26918125Y-17033875D01*
X26844625Y-16960375D01*
X26771125Y-17033875D01*
X26844625Y-17107375D01*
X27162125Y-15456375D02*
X27235625Y-15382875D01*
X27162125Y-15309375D01*
X27088625Y-15382875D01*
X27162125Y-15456375D01*
X27320875Y-13297375D02*
X27394375Y-13223875D01*
X27320875Y-13150375D01*
X27247375Y-13223875D01*
X27320875Y-13297375D01*
X27638375Y-11646375D02*
X27711875Y-11572875D01*
X27638375Y-11499375D01*
X27564875Y-11572875D01*
X27638375Y-11646375D01*
X27638375Y-19266375D02*
X27711875Y-19192875D01*
X27638375Y-19119375D01*
X27564875Y-19192875D01*
X27638375Y-19266375D01*
X27797125Y-15202375D02*
X27870625Y-15128875D01*
X27797125Y-15055375D01*
X27723625Y-15128875D01*
X27797125Y-15202375D01*
X28114625Y-17361375D02*
X28188125Y-17287875D01*
X28114625Y-17214375D01*
X28041125Y-17287875D01*
X28114625Y-17361375D01*
X28273375Y-11392375D02*
X28346875Y-11318875D01*
X28273375Y-11245375D01*
X28199875Y-11318875D01*
X28273375Y-11392375D01*
X28273375Y-19012375D02*
X28346875Y-18938875D01*
X28273375Y-18865375D01*
X28199875Y-18938875D01*
X28273375Y-19012375D01*
X28590875Y-8788875D02*
X28664375Y-8715375D01*
X28590875Y-8641875D01*
X28517375Y-8715375D01*
X28590875Y-8788875D01*
X28590875Y-13551375D02*
X28664375Y-13477875D01*
X28590875Y-13404375D01*
X28517375Y-13477875D01*
X28590875Y-13551375D01*
X28749625Y-17107375D02*
X28823125Y-17033875D01*
X28749625Y-16960375D01*
X28676125Y-17033875D01*
X28749625Y-17107375D01*
X29067125Y-15456375D02*
X29140625Y-15382875D01*
X29067125Y-15309375D01*
X28993625Y-15382875D01*
X29067125Y-15456375D01*
X29225875Y-8534875D02*
X29299375Y-8461375D01*
X29225875Y-8387875D01*
X29152375Y-8461375D01*
X29225875Y-8534875D01*
X29225875Y-13297375D02*
X29299375Y-13223875D01*
X29225875Y-13150375D01*
X29152375Y-13223875D01*
X29225875Y-13297375D01*
X29543375Y-11646375D02*
X29616875Y-11572875D01*
X29543375Y-11499375D01*
X29469875Y-11572875D01*
X29543375Y-11646375D01*
X29543375Y-19266375D02*
X29616875Y-19192875D01*
X29543375Y-19119375D01*
X29469875Y-19192875D01*
X29543375Y-19266375D01*
X29702125Y-15202375D02*
X29775625Y-15128875D01*
X29702125Y-15055375D01*
X29628625Y-15128875D01*
X29702125Y-15202375D01*
X30019625Y-17361375D02*
X30093125Y-17287875D01*
X30019625Y-17214375D01*
X29946125Y-17287875D01*
X30019625Y-17361375D01*
X30178375Y-11392375D02*
X30251875Y-11318875D01*
X30178375Y-11245375D01*
X30104875Y-11318875D01*
X30178375Y-11392375D01*
X30178375Y-19012375D02*
X30251875Y-18938875D01*
X30178375Y-18865375D01*
X30104875Y-18938875D01*
X30178375Y-19012375D01*
X30495875Y-8788875D02*
X30569375Y-8715375D01*
X30495875Y-8641875D01*
X30422375Y-8715375D01*
X30495875Y-8788875D01*
X30495875Y-13551375D02*
X30569375Y-13477875D01*
X30495875Y-13404375D01*
X30422375Y-13477875D01*
X30495875Y-13551375D01*
X30654625Y-17107375D02*
X30728125Y-17033875D01*
X30654625Y-16960375D01*
X30581125Y-17033875D01*
X30654625Y-17107375D01*
X30972125Y-15456375D02*
X31045625Y-15382875D01*
X30972125Y-15309375D01*
X30898625Y-15382875D01*
X30972125Y-15456375D01*
X31130875Y-8534875D02*
X31204375Y-8461375D01*
X31130875Y-8387875D01*
X31057375Y-8461375D01*
X31130875Y-8534875D01*
X31130875Y-13297375D02*
X31204375Y-13223875D01*
X31130875Y-13150375D01*
X31057375Y-13223875D01*
X31130875Y-13297375D01*
X31448375Y-11646375D02*
X31521875Y-11572875D01*
X31448375Y-11499375D01*
X31374875Y-11572875D01*
X31448375Y-11646375D01*
X31448375Y-19266375D02*
X31521875Y-19192875D01*
X31448375Y-19119375D01*
X31374875Y-19192875D01*
X31448375Y-19266375D01*
X31607125Y-15202375D02*
X31680625Y-15128875D01*
X31607125Y-15055375D01*
X31533625Y-15128875D01*
X31607125Y-15202375D01*
X32083375Y-11392375D02*
X32156875Y-11318875D01*
X32083375Y-11245375D01*
X32009875Y-11318875D01*
X32083375Y-11392375D01*
X32083375Y-19012375D02*
X32156875Y-18938875D01*
X32083375Y-18865375D01*
X32009875Y-18938875D01*
X32083375Y-19012375D01*
X32400875Y-8788875D02*
X32474375Y-8715375D01*
X32400875Y-8641875D01*
X32327375Y-8715375D01*
X32400875Y-8788875D01*
X32400875Y-13551375D02*
X32474375Y-13477875D01*
X32400875Y-13404375D01*
X32327375Y-13477875D01*
X32400875Y-13551375D01*
X32639000Y-17361375D02*
X32712500Y-17287875D01*
X32639000Y-17214375D01*
X32565500Y-17287875D01*
X32639000Y-17361375D01*
X33035875Y-8534875D02*
X33109375Y-8461375D01*
X33035875Y-8387875D01*
X32962375Y-8461375D01*
X33035875Y-8534875D01*
X33035875Y-13297375D02*
X33109375Y-13223875D01*
X33035875Y-13150375D01*
X32962375Y-13223875D01*
X33035875Y-13297375D01*
X33274000Y-17107375D02*
X33347500Y-17033875D01*
X33274000Y-16960375D01*
X33200500Y-17033875D01*
X33274000Y-17107375D01*
X33829625Y-19742625D02*
X33903125Y-19669125D01*
X33829625Y-19595625D01*
X33756125Y-19669125D01*
X33829625Y-19742625D01*
X34067750Y-15456375D02*
X34141250Y-15382875D01*
X34067750Y-15309375D01*
X33994250Y-15382875D01*
X34067750Y-15456375D01*
X34305875Y-8788875D02*
X34379375Y-8715375D01*
X34305875Y-8641875D01*
X34232375Y-8715375D01*
X34305875Y-8788875D01*
X34305875Y-11646375D02*
X34379375Y-11572875D01*
X34305875Y-11499375D01*
X34232375Y-11572875D01*
X34305875Y-11646375D01*
X34464625Y-19488625D02*
X34538125Y-19415125D01*
X34464625Y-19341625D01*
X34391125Y-19415125D01*
X34464625Y-19488625D01*
X34702750Y-15202375D02*
X34776250Y-15128875D01*
X34702750Y-15055375D01*
X34629250Y-15128875D01*
X34702750Y-15202375D01*
X34782125Y-13551375D02*
X34855625Y-13477875D01*
X34782125Y-13404375D01*
X34708625Y-13477875D01*
X34782125Y-13551375D01*
X34940875Y-8534875D02*
X35014375Y-8461375D01*
X34940875Y-8387875D01*
X34867375Y-8461375D01*
X34940875Y-8534875D01*
X34940875Y-11392375D02*
X35014375Y-11318875D01*
X34940875Y-11245375D01*
X34867375Y-11318875D01*
X34940875Y-11392375D01*
X35417125Y-13297375D02*
X35490625Y-13223875D01*
X35417125Y-13150375D01*
X35343625Y-13223875D01*
X35417125Y-13297375D01*
X35734625Y-17837625D02*
X35808125Y-17764125D01*
X35734625Y-17690625D01*
X35661125Y-17764125D01*
X35734625Y-17837625D01*
X35734625Y-19742625D02*
X35808125Y-19669125D01*
X35734625Y-19595625D01*
X35661125Y-19669125D01*
X35734625Y-19742625D01*
X36369625Y-17583625D02*
X36443125Y-17510125D01*
X36369625Y-17436625D01*
X36296125Y-17510125D01*
X36369625Y-17583625D01*
X36369625Y-19488625D02*
X36443125Y-19415125D01*
X36369625Y-19341625D01*
X36296125Y-19415125D01*
X36369625Y-19488625D01*
X37639625Y-19742625D02*
X37713125Y-19669125D01*
X37639625Y-19595625D01*
X37566125Y-19669125D01*
X37639625Y-19742625D01*
X38115875Y-15456375D02*
X38189375Y-15382875D01*
X38115875Y-15309375D01*
X38042375Y-15382875D01*
X38115875Y-15456375D01*
X38115875Y-17361375D02*
X38189375Y-17287875D01*
X38115875Y-17214375D01*
X38042375Y-17287875D01*
X38115875Y-17361375D01*
X38274625Y-19488625D02*
X38348125Y-19415125D01*
X38274625Y-19341625D01*
X38201125Y-19415125D01*
X38274625Y-19488625D01*
X38750875Y-15202375D02*
X38824375Y-15128875D01*
X38750875Y-15055375D01*
X38677375Y-15128875D01*
X38750875Y-15202375D01*
X38750875Y-17107375D02*
X38824375Y-17033875D01*
X38750875Y-16960375D01*
X38677375Y-17033875D01*
X38750875Y-17107375D01*
X37794375Y-8700000D02*
X37944375Y-8850000D01*
X37944375Y-8700000D02*
X37794375Y-8850000D01*
X37944375Y-8775000D02*
G75*
G03*
X37944375Y-8775000I-75000J0D01*
G01*
X37934375Y-8840000D02*
X37934375Y-8710000D01*
X37804375Y-8840000D02*
X37804375Y-8710000D01*
X37934375Y-8710000D02*
G75*
G03*
X37804375Y-8710000I-65000J0D01*
G01*
X37804375Y-8840000D02*
G75*
G03*
X37934375Y-8840000I65000J0D01*
G01*
X38914375Y-8700000D02*
X39064375Y-8850000D01*
X39064375Y-8700000D02*
X38914375Y-8850000D01*
X39064375Y-8775000D02*
G75*
G03*
X39064375Y-8775000I-75000J0D01*
G01*
X39054375Y-8840000D02*
X39054375Y-8710000D01*
X38924375Y-8840000D02*
X38924375Y-8710000D01*
X39054375Y-8710000D02*
G75*
G03*
X38924375Y-8710000I-65000J0D01*
G01*
X38924375Y-8840000D02*
G75*
G03*
X39054375Y-8840000I65000J0D01*
G01*
D12*
X8030928Y-21931214D02*
X8030928Y-21631214D01*
X8102357Y-21631214D01*
X8145214Y-21645500D01*
X8173786Y-21674072D01*
X8188071Y-21702643D01*
X8202357Y-21759786D01*
X8202357Y-21802643D01*
X8188071Y-21859786D01*
X8173786Y-21888357D01*
X8145214Y-21916929D01*
X8102357Y-21931214D01*
X8030928Y-21931214D01*
X8330928Y-21931214D02*
X8330928Y-21731214D01*
X8330928Y-21788357D02*
X8345214Y-21759786D01*
X8359500Y-21745500D01*
X8388071Y-21731214D01*
X8416643Y-21731214D01*
X8516643Y-21931214D02*
X8516643Y-21731214D01*
X8516643Y-21631214D02*
X8502357Y-21645500D01*
X8516643Y-21659786D01*
X8530928Y-21645500D01*
X8516643Y-21631214D01*
X8516643Y-21659786D01*
X8702357Y-21931214D02*
X8673786Y-21916929D01*
X8659500Y-21888357D01*
X8659500Y-21631214D01*
X8859500Y-21931214D02*
X8830928Y-21916929D01*
X8816643Y-21888357D01*
X8816643Y-21631214D01*
X9202357Y-21931214D02*
X9202357Y-21631214D01*
X9302357Y-21845500D01*
X9402357Y-21631214D01*
X9402357Y-21931214D01*
X9673786Y-21931214D02*
X9673786Y-21774072D01*
X9659500Y-21745500D01*
X9630928Y-21731214D01*
X9573786Y-21731214D01*
X9545214Y-21745500D01*
X9673786Y-21916929D02*
X9645214Y-21931214D01*
X9573786Y-21931214D01*
X9545214Y-21916929D01*
X9530928Y-21888357D01*
X9530928Y-21859786D01*
X9545214Y-21831214D01*
X9573786Y-21816929D01*
X9645214Y-21816929D01*
X9673786Y-21802643D01*
X9816643Y-21731214D02*
X9816643Y-22031214D01*
X9816643Y-21745500D02*
X9845214Y-21731214D01*
X9902357Y-21731214D01*
X9930928Y-21745500D01*
X9945214Y-21759786D01*
X9959500Y-21788357D01*
X9959500Y-21874072D01*
X9945214Y-21902643D01*
X9930928Y-21916929D01*
X9902357Y-21931214D01*
X9845214Y-21931214D01*
X9816643Y-21916929D01*
X10088071Y-21902643D02*
X10102357Y-21916929D01*
X10088071Y-21931214D01*
X10073786Y-21916929D01*
X10088071Y-21902643D01*
X10088071Y-21931214D01*
X10088071Y-21745500D02*
X10102357Y-21759786D01*
X10088071Y-21774072D01*
X10073786Y-21759786D01*
X10088071Y-21745500D01*
X10088071Y-21774072D01*
X7704500Y-22405500D02*
X7744500Y-22445500D01*
X7744500Y-22405500D02*
X7704500Y-22445500D01*
X8088071Y-22261214D02*
X8116643Y-22261214D01*
X8145214Y-22275500D01*
X8159500Y-22289786D01*
X8173786Y-22318357D01*
X8188071Y-22375500D01*
X8188071Y-22446929D01*
X8173786Y-22504071D01*
X8159500Y-22532643D01*
X8145214Y-22546929D01*
X8116643Y-22561214D01*
X8088071Y-22561214D01*
X8059500Y-22546929D01*
X8045214Y-22532643D01*
X8030928Y-22504071D01*
X8016643Y-22446929D01*
X8016643Y-22375500D01*
X8030928Y-22318357D01*
X8045214Y-22289786D01*
X8059500Y-22275500D01*
X8088071Y-22261214D01*
X8316643Y-22532643D02*
X8330928Y-22546929D01*
X8316643Y-22561214D01*
X8302357Y-22546929D01*
X8316643Y-22532643D01*
X8316643Y-22561214D01*
X8588071Y-22361214D02*
X8588071Y-22561214D01*
X8516643Y-22246929D02*
X8445214Y-22461214D01*
X8630928Y-22461214D01*
X8802357Y-22261214D02*
X8830928Y-22261214D01*
X8859500Y-22275500D01*
X8873786Y-22289786D01*
X8888071Y-22318357D01*
X8902357Y-22375500D01*
X8902357Y-22446929D01*
X8888071Y-22504071D01*
X8873786Y-22532643D01*
X8859500Y-22546929D01*
X8830928Y-22561214D01*
X8802357Y-22561214D01*
X8773786Y-22546929D01*
X8759500Y-22532643D01*
X8745214Y-22504071D01*
X8730928Y-22446929D01*
X8730928Y-22375500D01*
X8745214Y-22318357D01*
X8759500Y-22289786D01*
X8773786Y-22275500D01*
X8802357Y-22261214D01*
X9030928Y-22561214D02*
X9030928Y-22361214D01*
X9030928Y-22389786D02*
X9045214Y-22375500D01*
X9073786Y-22361214D01*
X9116643Y-22361214D01*
X9145214Y-22375500D01*
X9159500Y-22404071D01*
X9159500Y-22561214D01*
X9159500Y-22404071D02*
X9173786Y-22375500D01*
X9202357Y-22361214D01*
X9245214Y-22361214D01*
X9273786Y-22375500D01*
X9288071Y-22404071D01*
X9288071Y-22561214D01*
X9430928Y-22561214D02*
X9430928Y-22361214D01*
X9430928Y-22389786D02*
X9445214Y-22375500D01*
X9473786Y-22361214D01*
X9516643Y-22361214D01*
X9545214Y-22375500D01*
X9559500Y-22404071D01*
X9559500Y-22561214D01*
X9559500Y-22404071D02*
X9573786Y-22375500D01*
X9602357Y-22361214D01*
X9645214Y-22361214D01*
X9673786Y-22375500D01*
X9688071Y-22404071D01*
X9688071Y-22561214D01*
X10273786Y-22246929D02*
X10016643Y-22632643D01*
X10659500Y-22261214D02*
X10688071Y-22261214D01*
X10716643Y-22275500D01*
X10730928Y-22289786D01*
X10745214Y-22318357D01*
X10759500Y-22375500D01*
X10759500Y-22446929D01*
X10745214Y-22504071D01*
X10730928Y-22532643D01*
X10716643Y-22546929D01*
X10688071Y-22561214D01*
X10659500Y-22561214D01*
X10630928Y-22546929D01*
X10616643Y-22532643D01*
X10602357Y-22504071D01*
X10588071Y-22446929D01*
X10588071Y-22375500D01*
X10602357Y-22318357D01*
X10616643Y-22289786D01*
X10630928Y-22275500D01*
X10659500Y-22261214D01*
X10888071Y-22532643D02*
X10902357Y-22546929D01*
X10888071Y-22561214D01*
X10873786Y-22546929D01*
X10888071Y-22532643D01*
X10888071Y-22561214D01*
X11088071Y-22261214D02*
X11116643Y-22261214D01*
X11145214Y-22275500D01*
X11159500Y-22289786D01*
X11173786Y-22318357D01*
X11188071Y-22375500D01*
X11188071Y-22446929D01*
X11173786Y-22504071D01*
X11159500Y-22532643D01*
X11145214Y-22546929D01*
X11116643Y-22561214D01*
X11088071Y-22561214D01*
X11059500Y-22546929D01*
X11045214Y-22532643D01*
X11030928Y-22504071D01*
X11016643Y-22446929D01*
X11016643Y-22375500D01*
X11030928Y-22318357D01*
X11045214Y-22289786D01*
X11059500Y-22275500D01*
X11088071Y-22261214D01*
X11473786Y-22561214D02*
X11302357Y-22561214D01*
X11388071Y-22561214D02*
X11388071Y-22261214D01*
X11359500Y-22304072D01*
X11330928Y-22332643D01*
X11302357Y-22346929D01*
X11730928Y-22261214D02*
X11673786Y-22261214D01*
X11645214Y-22275500D01*
X11630928Y-22289786D01*
X11602357Y-22332643D01*
X11588071Y-22389786D01*
X11588071Y-22504071D01*
X11602357Y-22532643D01*
X11616643Y-22546929D01*
X11645214Y-22561214D01*
X11702357Y-22561214D01*
X11730928Y-22546929D01*
X11745214Y-22532643D01*
X11759500Y-22504071D01*
X11759500Y-22432643D01*
X11745214Y-22404071D01*
X11730928Y-22389786D01*
X11702357Y-22375500D01*
X11645214Y-22375500D01*
X11616643Y-22389786D01*
X11602357Y-22404071D01*
X11588071Y-22432643D01*
X11873786Y-22261214D02*
X11873786Y-22318357D01*
X11988071Y-22261214D02*
X11988071Y-22318357D01*
X12430928Y-22675500D02*
X12416643Y-22661214D01*
X12388071Y-22618357D01*
X12373786Y-22589786D01*
X12359500Y-22546929D01*
X12345214Y-22475500D01*
X12345214Y-22418357D01*
X12359500Y-22346929D01*
X12373786Y-22304072D01*
X12388071Y-22275500D01*
X12416643Y-22232643D01*
X12430928Y-22218357D01*
X12702357Y-22561214D02*
X12530928Y-22561214D01*
X12616643Y-22561214D02*
X12616643Y-22261214D01*
X12588071Y-22304072D01*
X12559500Y-22332643D01*
X12530928Y-22346929D01*
X12802357Y-22261214D02*
X13002357Y-22261214D01*
X12873786Y-22561214D01*
X13173786Y-22261214D02*
X13202357Y-22261214D01*
X13230928Y-22275500D01*
X13245214Y-22289786D01*
X13259500Y-22318357D01*
X13273786Y-22375500D01*
X13273786Y-22446929D01*
X13259500Y-22504071D01*
X13245214Y-22532643D01*
X13230928Y-22546929D01*
X13202357Y-22561214D01*
X13173786Y-22561214D01*
X13145214Y-22546929D01*
X13130928Y-22532643D01*
X13116643Y-22504071D01*
X13102357Y-22446929D01*
X13102357Y-22375500D01*
X13116643Y-22318357D01*
X13130928Y-22289786D01*
X13145214Y-22275500D01*
X13173786Y-22261214D01*
X13630928Y-22561214D02*
X13630928Y-22261214D01*
X13759500Y-22561214D02*
X13759500Y-22404071D01*
X13745214Y-22375500D01*
X13716643Y-22361214D01*
X13673786Y-22361214D01*
X13645214Y-22375500D01*
X13630928Y-22389786D01*
X13945214Y-22561214D02*
X13916643Y-22546929D01*
X13902357Y-22532643D01*
X13888071Y-22504071D01*
X13888071Y-22418357D01*
X13902357Y-22389786D01*
X13916643Y-22375500D01*
X13945214Y-22361214D01*
X13988071Y-22361214D01*
X14016643Y-22375500D01*
X14030928Y-22389786D01*
X14045214Y-22418357D01*
X14045214Y-22504071D01*
X14030928Y-22532643D01*
X14016643Y-22546929D01*
X13988071Y-22561214D01*
X13945214Y-22561214D01*
X14216643Y-22561214D02*
X14188071Y-22546929D01*
X14173786Y-22518357D01*
X14173786Y-22261214D01*
X14445214Y-22546929D02*
X14416643Y-22561214D01*
X14359500Y-22561214D01*
X14330928Y-22546929D01*
X14316643Y-22518357D01*
X14316643Y-22404071D01*
X14330928Y-22375500D01*
X14359500Y-22361214D01*
X14416643Y-22361214D01*
X14445214Y-22375500D01*
X14459500Y-22404071D01*
X14459500Y-22432643D01*
X14316643Y-22461214D01*
X14573786Y-22546929D02*
X14602357Y-22561214D01*
X14659500Y-22561214D01*
X14688071Y-22546929D01*
X14702357Y-22518357D01*
X14702357Y-22504071D01*
X14688071Y-22475500D01*
X14659500Y-22461214D01*
X14616643Y-22461214D01*
X14588071Y-22446929D01*
X14573786Y-22418357D01*
X14573786Y-22404071D01*
X14588071Y-22375500D01*
X14616643Y-22361214D01*
X14659500Y-22361214D01*
X14688071Y-22375500D01*
X14802357Y-22675500D02*
X14816643Y-22661214D01*
X14845214Y-22618357D01*
X14859500Y-22589786D01*
X14873786Y-22546929D01*
X14888071Y-22475500D01*
X14888071Y-22418357D01*
X14873786Y-22346929D01*
X14859500Y-22304072D01*
X14845214Y-22275500D01*
X14816643Y-22232643D01*
X14802357Y-22218357D01*
X7744500Y-22821500D02*
G75*
G03*
X7744500Y-22821500I-30000J0D01*
G01*
X8088071Y-22657214D02*
X8116643Y-22657214D01*
X8145214Y-22671500D01*
X8159500Y-22685786D01*
X8173786Y-22714357D01*
X8188071Y-22771500D01*
X8188071Y-22842929D01*
X8173786Y-22900071D01*
X8159500Y-22928643D01*
X8145214Y-22942929D01*
X8116643Y-22957214D01*
X8088071Y-22957214D01*
X8059500Y-22942929D01*
X8045214Y-22928643D01*
X8030928Y-22900071D01*
X8016643Y-22842929D01*
X8016643Y-22771500D01*
X8030928Y-22714357D01*
X8045214Y-22685786D01*
X8059500Y-22671500D01*
X8088071Y-22657214D01*
X8316643Y-22928643D02*
X8330928Y-22942929D01*
X8316643Y-22957214D01*
X8302357Y-22942929D01*
X8316643Y-22928643D01*
X8316643Y-22957214D01*
X8588071Y-22657214D02*
X8530928Y-22657214D01*
X8502357Y-22671500D01*
X8488071Y-22685786D01*
X8459500Y-22728643D01*
X8445214Y-22785786D01*
X8445214Y-22900071D01*
X8459500Y-22928643D01*
X8473786Y-22942929D01*
X8502357Y-22957214D01*
X8559500Y-22957214D01*
X8588071Y-22942929D01*
X8602357Y-22928643D01*
X8616643Y-22900071D01*
X8616643Y-22828643D01*
X8602357Y-22800071D01*
X8588071Y-22785786D01*
X8559500Y-22771500D01*
X8502357Y-22771500D01*
X8473786Y-22785786D01*
X8459500Y-22800071D01*
X8445214Y-22828643D01*
X8802357Y-22657214D02*
X8830928Y-22657214D01*
X8859500Y-22671500D01*
X8873786Y-22685786D01*
X8888071Y-22714357D01*
X8902357Y-22771500D01*
X8902357Y-22842929D01*
X8888071Y-22900071D01*
X8873786Y-22928643D01*
X8859500Y-22942929D01*
X8830928Y-22957214D01*
X8802357Y-22957214D01*
X8773786Y-22942929D01*
X8759500Y-22928643D01*
X8745214Y-22900071D01*
X8730928Y-22842929D01*
X8730928Y-22771500D01*
X8745214Y-22714357D01*
X8759500Y-22685786D01*
X8773786Y-22671500D01*
X8802357Y-22657214D01*
X9030928Y-22957214D02*
X9030928Y-22757214D01*
X9030928Y-22785786D02*
X9045214Y-22771500D01*
X9073786Y-22757214D01*
X9116643Y-22757214D01*
X9145214Y-22771500D01*
X9159500Y-22800071D01*
X9159500Y-22957214D01*
X9159500Y-22800071D02*
X9173786Y-22771500D01*
X9202357Y-22757214D01*
X9245214Y-22757214D01*
X9273786Y-22771500D01*
X9288071Y-22800071D01*
X9288071Y-22957214D01*
X9430928Y-22957214D02*
X9430928Y-22757214D01*
X9430928Y-22785786D02*
X9445214Y-22771500D01*
X9473786Y-22757214D01*
X9516643Y-22757214D01*
X9545214Y-22771500D01*
X9559500Y-22800071D01*
X9559500Y-22957214D01*
X9559500Y-22800071D02*
X9573786Y-22771500D01*
X9602357Y-22757214D01*
X9645214Y-22757214D01*
X9673786Y-22771500D01*
X9688071Y-22800071D01*
X9688071Y-22957214D01*
X10273786Y-22642929D02*
X10016643Y-23028643D01*
X10659500Y-22657214D02*
X10688071Y-22657214D01*
X10716643Y-22671500D01*
X10730928Y-22685786D01*
X10745214Y-22714357D01*
X10759500Y-22771500D01*
X10759500Y-22842929D01*
X10745214Y-22900071D01*
X10730928Y-22928643D01*
X10716643Y-22942929D01*
X10688071Y-22957214D01*
X10659500Y-22957214D01*
X10630928Y-22942929D01*
X10616643Y-22928643D01*
X10602357Y-22900071D01*
X10588071Y-22842929D01*
X10588071Y-22771500D01*
X10602357Y-22714357D01*
X10616643Y-22685786D01*
X10630928Y-22671500D01*
X10659500Y-22657214D01*
X10888071Y-22928643D02*
X10902357Y-22942929D01*
X10888071Y-22957214D01*
X10873786Y-22942929D01*
X10888071Y-22928643D01*
X10888071Y-22957214D01*
X11088071Y-22657214D02*
X11116643Y-22657214D01*
X11145214Y-22671500D01*
X11159500Y-22685786D01*
X11173786Y-22714357D01*
X11188071Y-22771500D01*
X11188071Y-22842929D01*
X11173786Y-22900071D01*
X11159500Y-22928643D01*
X11145214Y-22942929D01*
X11116643Y-22957214D01*
X11088071Y-22957214D01*
X11059500Y-22942929D01*
X11045214Y-22928643D01*
X11030928Y-22900071D01*
X11016643Y-22842929D01*
X11016643Y-22771500D01*
X11030928Y-22714357D01*
X11045214Y-22685786D01*
X11059500Y-22671500D01*
X11088071Y-22657214D01*
X11302357Y-22685786D02*
X11316643Y-22671500D01*
X11345214Y-22657214D01*
X11416643Y-22657214D01*
X11445214Y-22671500D01*
X11459500Y-22685786D01*
X11473786Y-22714357D01*
X11473786Y-22742929D01*
X11459500Y-22785786D01*
X11288071Y-22957214D01*
X11473786Y-22957214D01*
X11730928Y-22757214D02*
X11730928Y-22957214D01*
X11659500Y-22642929D02*
X11588071Y-22857214D01*
X11773786Y-22857214D01*
X11873786Y-22657214D02*
X11873786Y-22714357D01*
X11988071Y-22657214D02*
X11988071Y-22714357D01*
X12430928Y-23071500D02*
X12416643Y-23057214D01*
X12388071Y-23014357D01*
X12373786Y-22985786D01*
X12359500Y-22942929D01*
X12345214Y-22871500D01*
X12345214Y-22814357D01*
X12359500Y-22742929D01*
X12373786Y-22700071D01*
X12388071Y-22671500D01*
X12416643Y-22628643D01*
X12430928Y-22614357D01*
X12602357Y-22657214D02*
X12630928Y-22657214D01*
X12659500Y-22671500D01*
X12673786Y-22685786D01*
X12688071Y-22714357D01*
X12702357Y-22771500D01*
X12702357Y-22842929D01*
X12688071Y-22900071D01*
X12673786Y-22928643D01*
X12659500Y-22942929D01*
X12630928Y-22957214D01*
X12602357Y-22957214D01*
X12573786Y-22942929D01*
X12559500Y-22928643D01*
X12545214Y-22900071D01*
X12530928Y-22842929D01*
X12530928Y-22771500D01*
X12545214Y-22714357D01*
X12559500Y-22685786D01*
X12573786Y-22671500D01*
X12602357Y-22657214D01*
X13059500Y-22957214D02*
X13059500Y-22657214D01*
X13188071Y-22957214D02*
X13188071Y-22800071D01*
X13173786Y-22771500D01*
X13145214Y-22757214D01*
X13102357Y-22757214D01*
X13073786Y-22771500D01*
X13059500Y-22785786D01*
X13373786Y-22957214D02*
X13345214Y-22942929D01*
X13330928Y-22928643D01*
X13316643Y-22900071D01*
X13316643Y-22814357D01*
X13330928Y-22785786D01*
X13345214Y-22771500D01*
X13373786Y-22757214D01*
X13416643Y-22757214D01*
X13445214Y-22771500D01*
X13459500Y-22785786D01*
X13473786Y-22814357D01*
X13473786Y-22900071D01*
X13459500Y-22928643D01*
X13445214Y-22942929D01*
X13416643Y-22957214D01*
X13373786Y-22957214D01*
X13645214Y-22957214D02*
X13616643Y-22942929D01*
X13602357Y-22914357D01*
X13602357Y-22657214D01*
X13873786Y-22942929D02*
X13845214Y-22957214D01*
X13788071Y-22957214D01*
X13759500Y-22942929D01*
X13745214Y-22914357D01*
X13745214Y-22800071D01*
X13759500Y-22771500D01*
X13788071Y-22757214D01*
X13845214Y-22757214D01*
X13873786Y-22771500D01*
X13888071Y-22800071D01*
X13888071Y-22828643D01*
X13745214Y-22857214D01*
X14002357Y-22942929D02*
X14030928Y-22957214D01*
X14088071Y-22957214D01*
X14116643Y-22942929D01*
X14130928Y-22914357D01*
X14130928Y-22900071D01*
X14116643Y-22871500D01*
X14088071Y-22857214D01*
X14045214Y-22857214D01*
X14016643Y-22842929D01*
X14002357Y-22814357D01*
X14002357Y-22800071D01*
X14016643Y-22771500D01*
X14045214Y-22757214D01*
X14088071Y-22757214D01*
X14116643Y-22771500D01*
X14488071Y-22842929D02*
X14716643Y-22842929D01*
X14602357Y-22957214D02*
X14602357Y-22728643D01*
X15216643Y-22757214D02*
X15216643Y-22957214D01*
X15145214Y-22642929D02*
X15073786Y-22857214D01*
X15259500Y-22857214D01*
X15588071Y-22942929D02*
X15616643Y-22957214D01*
X15673786Y-22957214D01*
X15702357Y-22942929D01*
X15716643Y-22914357D01*
X15716643Y-22900071D01*
X15702357Y-22871500D01*
X15673786Y-22857214D01*
X15630928Y-22857214D01*
X15602357Y-22842929D01*
X15588071Y-22814357D01*
X15588071Y-22800071D01*
X15602357Y-22771500D01*
X15630928Y-22757214D01*
X15673786Y-22757214D01*
X15702357Y-22771500D01*
X15888071Y-22957214D02*
X15859500Y-22942929D01*
X15845214Y-22914357D01*
X15845214Y-22657214D01*
X16045214Y-22957214D02*
X16016643Y-22942929D01*
X16002357Y-22928643D01*
X15988071Y-22900071D01*
X15988071Y-22814357D01*
X16002357Y-22785786D01*
X16016643Y-22771500D01*
X16045214Y-22757214D01*
X16088071Y-22757214D01*
X16116643Y-22771500D01*
X16130928Y-22785786D01*
X16145214Y-22814357D01*
X16145214Y-22900071D01*
X16130928Y-22928643D01*
X16116643Y-22942929D01*
X16088071Y-22957214D01*
X16045214Y-22957214D01*
X16230928Y-22757214D02*
X16345214Y-22757214D01*
X16273786Y-22657214D02*
X16273786Y-22914357D01*
X16288071Y-22942929D01*
X16316643Y-22957214D01*
X16345214Y-22957214D01*
X16430928Y-22942929D02*
X16459500Y-22957214D01*
X16516643Y-22957214D01*
X16545214Y-22942929D01*
X16559500Y-22914357D01*
X16559500Y-22900071D01*
X16545214Y-22871500D01*
X16516643Y-22857214D01*
X16473786Y-22857214D01*
X16445214Y-22842929D01*
X16430928Y-22814357D01*
X16430928Y-22800071D01*
X16445214Y-22771500D01*
X16473786Y-22757214D01*
X16516643Y-22757214D01*
X16545214Y-22771500D01*
X16659500Y-23071500D02*
X16673786Y-23057214D01*
X16702357Y-23014357D01*
X16716643Y-22985786D01*
X16730928Y-22942929D01*
X16745214Y-22871500D01*
X16745214Y-22814357D01*
X16730928Y-22742929D01*
X16716643Y-22700071D01*
X16702357Y-22671500D01*
X16673786Y-22628643D01*
X16659500Y-22614357D01*
X7699500Y-23172500D02*
X7699500Y-23262500D01*
X7654500Y-23217500D02*
X7744500Y-23217500D01*
X8088071Y-23053214D02*
X8116643Y-23053214D01*
X8145214Y-23067500D01*
X8159500Y-23081786D01*
X8173786Y-23110357D01*
X8188071Y-23167500D01*
X8188071Y-23238929D01*
X8173786Y-23296071D01*
X8159500Y-23324643D01*
X8145214Y-23338929D01*
X8116643Y-23353214D01*
X8088071Y-23353214D01*
X8059500Y-23338929D01*
X8045214Y-23324643D01*
X8030928Y-23296071D01*
X8016643Y-23238929D01*
X8016643Y-23167500D01*
X8030928Y-23110357D01*
X8045214Y-23081786D01*
X8059500Y-23067500D01*
X8088071Y-23053214D01*
X8316643Y-23324643D02*
X8330928Y-23338929D01*
X8316643Y-23353214D01*
X8302357Y-23338929D01*
X8316643Y-23324643D01*
X8316643Y-23353214D01*
X8473786Y-23353214D02*
X8530928Y-23353214D01*
X8559500Y-23338929D01*
X8573786Y-23324643D01*
X8602357Y-23281786D01*
X8616643Y-23224643D01*
X8616643Y-23110357D01*
X8602357Y-23081786D01*
X8588071Y-23067500D01*
X8559500Y-23053214D01*
X8502357Y-23053214D01*
X8473786Y-23067500D01*
X8459500Y-23081786D01*
X8445214Y-23110357D01*
X8445214Y-23181786D01*
X8459500Y-23210357D01*
X8473786Y-23224643D01*
X8502357Y-23238929D01*
X8559500Y-23238929D01*
X8588071Y-23224643D01*
X8602357Y-23210357D01*
X8616643Y-23181786D01*
X8802357Y-23053214D02*
X8830928Y-23053214D01*
X8859500Y-23067500D01*
X8873786Y-23081786D01*
X8888071Y-23110357D01*
X8902357Y-23167500D01*
X8902357Y-23238929D01*
X8888071Y-23296071D01*
X8873786Y-23324643D01*
X8859500Y-23338929D01*
X8830928Y-23353214D01*
X8802357Y-23353214D01*
X8773786Y-23338929D01*
X8759500Y-23324643D01*
X8745214Y-23296071D01*
X8730928Y-23238929D01*
X8730928Y-23167500D01*
X8745214Y-23110357D01*
X8759500Y-23081786D01*
X8773786Y-23067500D01*
X8802357Y-23053214D01*
X9030928Y-23353214D02*
X9030928Y-23153214D01*
X9030928Y-23181786D02*
X9045214Y-23167500D01*
X9073786Y-23153214D01*
X9116643Y-23153214D01*
X9145214Y-23167500D01*
X9159500Y-23196071D01*
X9159500Y-23353214D01*
X9159500Y-23196071D02*
X9173786Y-23167500D01*
X9202357Y-23153214D01*
X9245214Y-23153214D01*
X9273786Y-23167500D01*
X9288071Y-23196071D01*
X9288071Y-23353214D01*
X9430928Y-23353214D02*
X9430928Y-23153214D01*
X9430928Y-23181786D02*
X9445214Y-23167500D01*
X9473786Y-23153214D01*
X9516643Y-23153214D01*
X9545214Y-23167500D01*
X9559500Y-23196071D01*
X9559500Y-23353214D01*
X9559500Y-23196071D02*
X9573786Y-23167500D01*
X9602357Y-23153214D01*
X9645214Y-23153214D01*
X9673786Y-23167500D01*
X9688071Y-23196071D01*
X9688071Y-23353214D01*
X10273786Y-23038929D02*
X10016643Y-23424643D01*
X10659500Y-23053214D02*
X10688071Y-23053214D01*
X10716643Y-23067500D01*
X10730928Y-23081786D01*
X10745214Y-23110357D01*
X10759500Y-23167500D01*
X10759500Y-23238929D01*
X10745214Y-23296071D01*
X10730928Y-23324643D01*
X10716643Y-23338929D01*
X10688071Y-23353214D01*
X10659500Y-23353214D01*
X10630928Y-23338929D01*
X10616643Y-23324643D01*
X10602357Y-23296071D01*
X10588071Y-23238929D01*
X10588071Y-23167500D01*
X10602357Y-23110357D01*
X10616643Y-23081786D01*
X10630928Y-23067500D01*
X10659500Y-23053214D01*
X10888071Y-23324643D02*
X10902357Y-23338929D01*
X10888071Y-23353214D01*
X10873786Y-23338929D01*
X10888071Y-23324643D01*
X10888071Y-23353214D01*
X11088071Y-23053214D02*
X11116643Y-23053214D01*
X11145214Y-23067500D01*
X11159500Y-23081786D01*
X11173786Y-23110357D01*
X11188071Y-23167500D01*
X11188071Y-23238929D01*
X11173786Y-23296071D01*
X11159500Y-23324643D01*
X11145214Y-23338929D01*
X11116643Y-23353214D01*
X11088071Y-23353214D01*
X11059500Y-23338929D01*
X11045214Y-23324643D01*
X11030928Y-23296071D01*
X11016643Y-23238929D01*
X11016643Y-23167500D01*
X11030928Y-23110357D01*
X11045214Y-23081786D01*
X11059500Y-23067500D01*
X11088071Y-23053214D01*
X11288071Y-23053214D02*
X11473786Y-23053214D01*
X11373786Y-23167500D01*
X11416643Y-23167500D01*
X11445214Y-23181786D01*
X11459500Y-23196071D01*
X11473786Y-23224643D01*
X11473786Y-23296071D01*
X11459500Y-23324643D01*
X11445214Y-23338929D01*
X11416643Y-23353214D01*
X11330928Y-23353214D01*
X11302357Y-23338929D01*
X11288071Y-23324643D01*
X11745214Y-23053214D02*
X11602357Y-23053214D01*
X11588071Y-23196071D01*
X11602357Y-23181786D01*
X11630928Y-23167500D01*
X11702357Y-23167500D01*
X11730928Y-23181786D01*
X11745214Y-23196071D01*
X11759500Y-23224643D01*
X11759500Y-23296071D01*
X11745214Y-23324643D01*
X11730928Y-23338929D01*
X11702357Y-23353214D01*
X11630928Y-23353214D01*
X11602357Y-23338929D01*
X11588071Y-23324643D01*
X11873786Y-23053214D02*
X11873786Y-23110357D01*
X11988071Y-23053214D02*
X11988071Y-23110357D01*
X12430928Y-23467500D02*
X12416643Y-23453214D01*
X12388071Y-23410357D01*
X12373786Y-23381786D01*
X12359500Y-23338929D01*
X12345214Y-23267500D01*
X12345214Y-23210357D01*
X12359500Y-23138929D01*
X12373786Y-23096071D01*
X12388071Y-23067500D01*
X12416643Y-23024643D01*
X12430928Y-23010357D01*
X12702357Y-23353214D02*
X12530928Y-23353214D01*
X12616643Y-23353214D02*
X12616643Y-23053214D01*
X12588071Y-23096071D01*
X12559500Y-23124643D01*
X12530928Y-23138929D01*
X12973786Y-23053214D02*
X12830928Y-23053214D01*
X12816643Y-23196071D01*
X12830928Y-23181786D01*
X12859500Y-23167500D01*
X12930928Y-23167500D01*
X12959500Y-23181786D01*
X12973786Y-23196071D01*
X12988071Y-23224643D01*
X12988071Y-23296071D01*
X12973786Y-23324643D01*
X12959500Y-23338929D01*
X12930928Y-23353214D01*
X12859500Y-23353214D01*
X12830928Y-23338929D01*
X12816643Y-23324643D01*
X13159500Y-23181786D02*
X13130928Y-23167500D01*
X13116643Y-23153214D01*
X13102357Y-23124643D01*
X13102357Y-23110357D01*
X13116643Y-23081786D01*
X13130928Y-23067500D01*
X13159500Y-23053214D01*
X13216643Y-23053214D01*
X13245214Y-23067500D01*
X13259500Y-23081786D01*
X13273786Y-23110357D01*
X13273786Y-23124643D01*
X13259500Y-23153214D01*
X13245214Y-23167500D01*
X13216643Y-23181786D01*
X13159500Y-23181786D01*
X13130928Y-23196071D01*
X13116643Y-23210357D01*
X13102357Y-23238929D01*
X13102357Y-23296071D01*
X13116643Y-23324643D01*
X13130928Y-23338929D01*
X13159500Y-23353214D01*
X13216643Y-23353214D01*
X13245214Y-23338929D01*
X13259500Y-23324643D01*
X13273786Y-23296071D01*
X13273786Y-23238929D01*
X13259500Y-23210357D01*
X13245214Y-23196071D01*
X13216643Y-23181786D01*
X13630928Y-23353214D02*
X13630928Y-23053214D01*
X13759500Y-23353214D02*
X13759500Y-23196071D01*
X13745214Y-23167500D01*
X13716643Y-23153214D01*
X13673786Y-23153214D01*
X13645214Y-23167500D01*
X13630928Y-23181786D01*
X13945214Y-23353214D02*
X13916643Y-23338929D01*
X13902357Y-23324643D01*
X13888071Y-23296071D01*
X13888071Y-23210357D01*
X13902357Y-23181786D01*
X13916643Y-23167500D01*
X13945214Y-23153214D01*
X13988071Y-23153214D01*
X14016643Y-23167500D01*
X14030928Y-23181786D01*
X14045214Y-23210357D01*
X14045214Y-23296071D01*
X14030928Y-23324643D01*
X14016643Y-23338929D01*
X13988071Y-23353214D01*
X13945214Y-23353214D01*
X14216643Y-23353214D02*
X14188071Y-23338929D01*
X14173786Y-23310357D01*
X14173786Y-23053214D01*
X14445214Y-23338929D02*
X14416643Y-23353214D01*
X14359500Y-23353214D01*
X14330928Y-23338929D01*
X14316643Y-23310357D01*
X14316643Y-23196071D01*
X14330928Y-23167500D01*
X14359500Y-23153214D01*
X14416643Y-23153214D01*
X14445214Y-23167500D01*
X14459500Y-23196071D01*
X14459500Y-23224643D01*
X14316643Y-23253214D01*
X14573786Y-23338929D02*
X14602357Y-23353214D01*
X14659500Y-23353214D01*
X14688071Y-23338929D01*
X14702357Y-23310357D01*
X14702357Y-23296071D01*
X14688071Y-23267500D01*
X14659500Y-23253214D01*
X14616643Y-23253214D01*
X14588071Y-23238929D01*
X14573786Y-23210357D01*
X14573786Y-23196071D01*
X14588071Y-23167500D01*
X14616643Y-23153214D01*
X14659500Y-23153214D01*
X14688071Y-23167500D01*
X14802357Y-23467500D02*
X14816643Y-23453214D01*
X14845214Y-23410357D01*
X14859500Y-23381786D01*
X14873786Y-23338929D01*
X14888071Y-23267500D01*
X14888071Y-23210357D01*
X14873786Y-23138929D01*
X14859500Y-23096071D01*
X14845214Y-23067500D01*
X14816643Y-23024643D01*
X14802357Y-23010357D01*
X7729856Y-23648856D02*
X7729856Y-23578144D01*
X7659144Y-23578144D01*
X7659144Y-23648856D01*
X7729856Y-23648856D01*
X8188071Y-23749214D02*
X8016643Y-23749214D01*
X8102357Y-23749214D02*
X8102357Y-23449214D01*
X8073786Y-23492071D01*
X8045214Y-23520643D01*
X8016643Y-23534929D01*
X8316643Y-23720643D02*
X8330928Y-23734929D01*
X8316643Y-23749214D01*
X8302357Y-23734929D01*
X8316643Y-23720643D01*
X8316643Y-23749214D01*
X8516643Y-23449214D02*
X8545214Y-23449214D01*
X8573786Y-23463500D01*
X8588071Y-23477786D01*
X8602357Y-23506357D01*
X8616643Y-23563500D01*
X8616643Y-23634929D01*
X8602357Y-23692071D01*
X8588071Y-23720643D01*
X8573786Y-23734929D01*
X8545214Y-23749214D01*
X8516643Y-23749214D01*
X8488071Y-23734929D01*
X8473786Y-23720643D01*
X8459500Y-23692071D01*
X8445214Y-23634929D01*
X8445214Y-23563500D01*
X8459500Y-23506357D01*
X8473786Y-23477786D01*
X8488071Y-23463500D01*
X8516643Y-23449214D01*
X8802357Y-23449214D02*
X8830928Y-23449214D01*
X8859500Y-23463500D01*
X8873786Y-23477786D01*
X8888071Y-23506357D01*
X8902357Y-23563500D01*
X8902357Y-23634929D01*
X8888071Y-23692071D01*
X8873786Y-23720643D01*
X8859500Y-23734929D01*
X8830928Y-23749214D01*
X8802357Y-23749214D01*
X8773786Y-23734929D01*
X8759500Y-23720643D01*
X8745214Y-23692071D01*
X8730928Y-23634929D01*
X8730928Y-23563500D01*
X8745214Y-23506357D01*
X8759500Y-23477786D01*
X8773786Y-23463500D01*
X8802357Y-23449214D01*
X9030928Y-23749214D02*
X9030928Y-23549214D01*
X9030928Y-23577786D02*
X9045214Y-23563500D01*
X9073786Y-23549214D01*
X9116643Y-23549214D01*
X9145214Y-23563500D01*
X9159500Y-23592071D01*
X9159500Y-23749214D01*
X9159500Y-23592071D02*
X9173786Y-23563500D01*
X9202357Y-23549214D01*
X9245214Y-23549214D01*
X9273786Y-23563500D01*
X9288071Y-23592071D01*
X9288071Y-23749214D01*
X9430928Y-23749214D02*
X9430928Y-23549214D01*
X9430928Y-23577786D02*
X9445214Y-23563500D01*
X9473786Y-23549214D01*
X9516643Y-23549214D01*
X9545214Y-23563500D01*
X9559500Y-23592071D01*
X9559500Y-23749214D01*
X9559500Y-23592071D02*
X9573786Y-23563500D01*
X9602357Y-23549214D01*
X9645214Y-23549214D01*
X9673786Y-23563500D01*
X9688071Y-23592071D01*
X9688071Y-23749214D01*
X10273786Y-23434929D02*
X10016643Y-23820643D01*
X10659500Y-23449214D02*
X10688071Y-23449214D01*
X10716643Y-23463500D01*
X10730928Y-23477786D01*
X10745214Y-23506357D01*
X10759500Y-23563500D01*
X10759500Y-23634929D01*
X10745214Y-23692071D01*
X10730928Y-23720643D01*
X10716643Y-23734929D01*
X10688071Y-23749214D01*
X10659500Y-23749214D01*
X10630928Y-23734929D01*
X10616643Y-23720643D01*
X10602357Y-23692071D01*
X10588071Y-23634929D01*
X10588071Y-23563500D01*
X10602357Y-23506357D01*
X10616643Y-23477786D01*
X10630928Y-23463500D01*
X10659500Y-23449214D01*
X10888071Y-23720643D02*
X10902357Y-23734929D01*
X10888071Y-23749214D01*
X10873786Y-23734929D01*
X10888071Y-23720643D01*
X10888071Y-23749214D01*
X11088071Y-23449214D02*
X11116643Y-23449214D01*
X11145214Y-23463500D01*
X11159500Y-23477786D01*
X11173786Y-23506357D01*
X11188071Y-23563500D01*
X11188071Y-23634929D01*
X11173786Y-23692071D01*
X11159500Y-23720643D01*
X11145214Y-23734929D01*
X11116643Y-23749214D01*
X11088071Y-23749214D01*
X11059500Y-23734929D01*
X11045214Y-23720643D01*
X11030928Y-23692071D01*
X11016643Y-23634929D01*
X11016643Y-23563500D01*
X11030928Y-23506357D01*
X11045214Y-23477786D01*
X11059500Y-23463500D01*
X11088071Y-23449214D01*
X11288071Y-23449214D02*
X11473786Y-23449214D01*
X11373786Y-23563500D01*
X11416643Y-23563500D01*
X11445214Y-23577786D01*
X11459500Y-23592071D01*
X11473786Y-23620643D01*
X11473786Y-23692071D01*
X11459500Y-23720643D01*
X11445214Y-23734929D01*
X11416643Y-23749214D01*
X11330928Y-23749214D01*
X11302357Y-23734929D01*
X11288071Y-23720643D01*
X11616643Y-23749214D02*
X11673786Y-23749214D01*
X11702357Y-23734929D01*
X11716643Y-23720643D01*
X11745214Y-23677786D01*
X11759500Y-23620643D01*
X11759500Y-23506357D01*
X11745214Y-23477786D01*
X11730928Y-23463500D01*
X11702357Y-23449214D01*
X11645214Y-23449214D01*
X11616643Y-23463500D01*
X11602357Y-23477786D01*
X11588071Y-23506357D01*
X11588071Y-23577786D01*
X11602357Y-23606357D01*
X11616643Y-23620643D01*
X11645214Y-23634929D01*
X11702357Y-23634929D01*
X11730928Y-23620643D01*
X11745214Y-23606357D01*
X11759500Y-23577786D01*
X11873786Y-23449214D02*
X11873786Y-23506357D01*
X11988071Y-23449214D02*
X11988071Y-23506357D01*
X12430928Y-23863500D02*
X12416643Y-23849214D01*
X12388071Y-23806357D01*
X12373786Y-23777786D01*
X12359500Y-23734929D01*
X12345214Y-23663500D01*
X12345214Y-23606357D01*
X12359500Y-23534929D01*
X12373786Y-23492071D01*
X12388071Y-23463500D01*
X12416643Y-23420643D01*
X12430928Y-23406357D01*
X12702357Y-23749214D02*
X12530928Y-23749214D01*
X12616643Y-23749214D02*
X12616643Y-23449214D01*
X12588071Y-23492071D01*
X12559500Y-23520643D01*
X12530928Y-23534929D01*
X12973786Y-23449214D02*
X12830928Y-23449214D01*
X12816643Y-23592071D01*
X12830928Y-23577786D01*
X12859500Y-23563500D01*
X12930928Y-23563500D01*
X12959500Y-23577786D01*
X12973786Y-23592071D01*
X12988071Y-23620643D01*
X12988071Y-23692071D01*
X12973786Y-23720643D01*
X12959500Y-23734929D01*
X12930928Y-23749214D01*
X12859500Y-23749214D01*
X12830928Y-23734929D01*
X12816643Y-23720643D01*
X13345214Y-23749214D02*
X13345214Y-23449214D01*
X13473786Y-23749214D02*
X13473786Y-23592071D01*
X13459500Y-23563500D01*
X13430928Y-23549214D01*
X13388071Y-23549214D01*
X13359500Y-23563500D01*
X13345214Y-23577786D01*
X13659500Y-23749214D02*
X13630928Y-23734929D01*
X13616643Y-23720643D01*
X13602357Y-23692071D01*
X13602357Y-23606357D01*
X13616643Y-23577786D01*
X13630928Y-23563500D01*
X13659500Y-23549214D01*
X13702357Y-23549214D01*
X13730928Y-23563500D01*
X13745214Y-23577786D01*
X13759500Y-23606357D01*
X13759500Y-23692071D01*
X13745214Y-23720643D01*
X13730928Y-23734929D01*
X13702357Y-23749214D01*
X13659500Y-23749214D01*
X13930928Y-23749214D02*
X13902357Y-23734929D01*
X13888071Y-23706357D01*
X13888071Y-23449214D01*
X14159500Y-23734929D02*
X14130928Y-23749214D01*
X14073786Y-23749214D01*
X14045214Y-23734929D01*
X14030928Y-23706357D01*
X14030928Y-23592071D01*
X14045214Y-23563500D01*
X14073786Y-23549214D01*
X14130928Y-23549214D01*
X14159500Y-23563500D01*
X14173786Y-23592071D01*
X14173786Y-23620643D01*
X14030928Y-23649214D01*
X14288071Y-23734929D02*
X14316643Y-23749214D01*
X14373786Y-23749214D01*
X14402357Y-23734929D01*
X14416643Y-23706357D01*
X14416643Y-23692071D01*
X14402357Y-23663500D01*
X14373786Y-23649214D01*
X14330928Y-23649214D01*
X14302357Y-23634929D01*
X14288071Y-23606357D01*
X14288071Y-23592071D01*
X14302357Y-23563500D01*
X14330928Y-23549214D01*
X14373786Y-23549214D01*
X14402357Y-23563500D01*
X14516643Y-23863500D02*
X14530928Y-23849214D01*
X14559500Y-23806357D01*
X14573786Y-23777786D01*
X14588071Y-23734929D01*
X14602357Y-23663500D01*
X14602357Y-23606357D01*
X14588071Y-23534929D01*
X14573786Y-23492071D01*
X14559500Y-23463500D01*
X14530928Y-23420643D01*
X14516643Y-23406357D01*
X7671000Y-24083000D02*
X7744500Y-24009500D01*
X7671000Y-23936000D01*
X7597500Y-24009500D01*
X7671000Y-24083000D01*
X8188071Y-24145214D02*
X8016643Y-24145214D01*
X8102357Y-24145214D02*
X8102357Y-23845214D01*
X8073786Y-23888071D01*
X8045214Y-23916643D01*
X8016643Y-23930929D01*
X8316643Y-24116643D02*
X8330928Y-24130929D01*
X8316643Y-24145214D01*
X8302357Y-24130929D01*
X8316643Y-24116643D01*
X8316643Y-24145214D01*
X8588071Y-23945214D02*
X8588071Y-24145214D01*
X8516643Y-23830929D02*
X8445214Y-24045214D01*
X8630928Y-24045214D01*
X8716643Y-23845214D02*
X8916643Y-23845214D01*
X8788071Y-24145214D01*
X9030928Y-24145214D02*
X9030928Y-23945214D01*
X9030928Y-23973786D02*
X9045214Y-23959500D01*
X9073786Y-23945214D01*
X9116643Y-23945214D01*
X9145214Y-23959500D01*
X9159500Y-23988071D01*
X9159500Y-24145214D01*
X9159500Y-23988071D02*
X9173786Y-23959500D01*
X9202357Y-23945214D01*
X9245214Y-23945214D01*
X9273786Y-23959500D01*
X9288071Y-23988071D01*
X9288071Y-24145214D01*
X9430928Y-24145214D02*
X9430928Y-23945214D01*
X9430928Y-23973786D02*
X9445214Y-23959500D01*
X9473786Y-23945214D01*
X9516643Y-23945214D01*
X9545214Y-23959500D01*
X9559500Y-23988071D01*
X9559500Y-24145214D01*
X9559500Y-23988071D02*
X9573786Y-23959500D01*
X9602357Y-23945214D01*
X9645214Y-23945214D01*
X9673786Y-23959500D01*
X9688071Y-23988071D01*
X9688071Y-24145214D01*
X10273786Y-23830929D02*
X10016643Y-24216643D01*
X10659500Y-23845214D02*
X10688071Y-23845214D01*
X10716643Y-23859500D01*
X10730928Y-23873786D01*
X10745214Y-23902357D01*
X10759500Y-23959500D01*
X10759500Y-24030929D01*
X10745214Y-24088071D01*
X10730928Y-24116643D01*
X10716643Y-24130929D01*
X10688071Y-24145214D01*
X10659500Y-24145214D01*
X10630928Y-24130929D01*
X10616643Y-24116643D01*
X10602357Y-24088071D01*
X10588071Y-24030929D01*
X10588071Y-23959500D01*
X10602357Y-23902357D01*
X10616643Y-23873786D01*
X10630928Y-23859500D01*
X10659500Y-23845214D01*
X10888071Y-24116643D02*
X10902357Y-24130929D01*
X10888071Y-24145214D01*
X10873786Y-24130929D01*
X10888071Y-24116643D01*
X10888071Y-24145214D01*
X11088071Y-23845214D02*
X11116643Y-23845214D01*
X11145214Y-23859500D01*
X11159500Y-23873786D01*
X11173786Y-23902357D01*
X11188071Y-23959500D01*
X11188071Y-24030929D01*
X11173786Y-24088071D01*
X11159500Y-24116643D01*
X11145214Y-24130929D01*
X11116643Y-24145214D01*
X11088071Y-24145214D01*
X11059500Y-24130929D01*
X11045214Y-24116643D01*
X11030928Y-24088071D01*
X11016643Y-24030929D01*
X11016643Y-23959500D01*
X11030928Y-23902357D01*
X11045214Y-23873786D01*
X11059500Y-23859500D01*
X11088071Y-23845214D01*
X11459500Y-23845214D02*
X11316643Y-23845214D01*
X11302357Y-23988071D01*
X11316643Y-23973786D01*
X11345214Y-23959500D01*
X11416643Y-23959500D01*
X11445214Y-23973786D01*
X11459500Y-23988071D01*
X11473786Y-24016643D01*
X11473786Y-24088071D01*
X11459500Y-24116643D01*
X11445214Y-24130929D01*
X11416643Y-24145214D01*
X11345214Y-24145214D01*
X11316643Y-24130929D01*
X11302357Y-24116643D01*
X11645214Y-23973786D02*
X11616643Y-23959500D01*
X11602357Y-23945214D01*
X11588071Y-23916643D01*
X11588071Y-23902357D01*
X11602357Y-23873786D01*
X11616643Y-23859500D01*
X11645214Y-23845214D01*
X11702357Y-23845214D01*
X11730928Y-23859500D01*
X11745214Y-23873786D01*
X11759500Y-23902357D01*
X11759500Y-23916643D01*
X11745214Y-23945214D01*
X11730928Y-23959500D01*
X11702357Y-23973786D01*
X11645214Y-23973786D01*
X11616643Y-23988071D01*
X11602357Y-24002357D01*
X11588071Y-24030929D01*
X11588071Y-24088071D01*
X11602357Y-24116643D01*
X11616643Y-24130929D01*
X11645214Y-24145214D01*
X11702357Y-24145214D01*
X11730928Y-24130929D01*
X11745214Y-24116643D01*
X11759500Y-24088071D01*
X11759500Y-24030929D01*
X11745214Y-24002357D01*
X11730928Y-23988071D01*
X11702357Y-23973786D01*
X11873786Y-23845214D02*
X11873786Y-23902357D01*
X11988071Y-23845214D02*
X11988071Y-23902357D01*
X12430928Y-24259500D02*
X12416643Y-24245214D01*
X12388071Y-24202357D01*
X12373786Y-24173786D01*
X12359500Y-24130929D01*
X12345214Y-24059500D01*
X12345214Y-24002357D01*
X12359500Y-23930929D01*
X12373786Y-23888071D01*
X12388071Y-23859500D01*
X12416643Y-23816643D01*
X12430928Y-23802357D01*
X12702357Y-24145214D02*
X12530928Y-24145214D01*
X12616643Y-24145214D02*
X12616643Y-23845214D01*
X12588071Y-23888071D01*
X12559500Y-23916643D01*
X12530928Y-23930929D01*
X12973786Y-23845214D02*
X12830928Y-23845214D01*
X12816643Y-23988071D01*
X12830928Y-23973786D01*
X12859500Y-23959500D01*
X12930928Y-23959500D01*
X12959500Y-23973786D01*
X12973786Y-23988071D01*
X12988071Y-24016643D01*
X12988071Y-24088071D01*
X12973786Y-24116643D01*
X12959500Y-24130929D01*
X12930928Y-24145214D01*
X12859500Y-24145214D01*
X12830928Y-24130929D01*
X12816643Y-24116643D01*
X13159500Y-23973786D02*
X13130928Y-23959500D01*
X13116643Y-23945214D01*
X13102357Y-23916643D01*
X13102357Y-23902357D01*
X13116643Y-23873786D01*
X13130928Y-23859500D01*
X13159500Y-23845214D01*
X13216643Y-23845214D01*
X13245214Y-23859500D01*
X13259500Y-23873786D01*
X13273786Y-23902357D01*
X13273786Y-23916643D01*
X13259500Y-23945214D01*
X13245214Y-23959500D01*
X13216643Y-23973786D01*
X13159500Y-23973786D01*
X13130928Y-23988071D01*
X13116643Y-24002357D01*
X13102357Y-24030929D01*
X13102357Y-24088071D01*
X13116643Y-24116643D01*
X13130928Y-24130929D01*
X13159500Y-24145214D01*
X13216643Y-24145214D01*
X13245214Y-24130929D01*
X13259500Y-24116643D01*
X13273786Y-24088071D01*
X13273786Y-24030929D01*
X13259500Y-24002357D01*
X13245214Y-23988071D01*
X13216643Y-23973786D01*
X13630928Y-24145214D02*
X13630928Y-23845214D01*
X13759500Y-24145214D02*
X13759500Y-23988071D01*
X13745214Y-23959500D01*
X13716643Y-23945214D01*
X13673786Y-23945214D01*
X13645214Y-23959500D01*
X13630928Y-23973786D01*
X13945214Y-24145214D02*
X13916643Y-24130929D01*
X13902357Y-24116643D01*
X13888071Y-24088071D01*
X13888071Y-24002357D01*
X13902357Y-23973786D01*
X13916643Y-23959500D01*
X13945214Y-23945214D01*
X13988071Y-23945214D01*
X14016643Y-23959500D01*
X14030928Y-23973786D01*
X14045214Y-24002357D01*
X14045214Y-24088071D01*
X14030928Y-24116643D01*
X14016643Y-24130929D01*
X13988071Y-24145214D01*
X13945214Y-24145214D01*
X14216643Y-24145214D02*
X14188071Y-24130929D01*
X14173786Y-24102357D01*
X14173786Y-23845214D01*
X14445214Y-24130929D02*
X14416643Y-24145214D01*
X14359500Y-24145214D01*
X14330928Y-24130929D01*
X14316643Y-24102357D01*
X14316643Y-23988071D01*
X14330928Y-23959500D01*
X14359500Y-23945214D01*
X14416643Y-23945214D01*
X14445214Y-23959500D01*
X14459500Y-23988071D01*
X14459500Y-24016643D01*
X14316643Y-24045214D01*
X14573786Y-24130929D02*
X14602357Y-24145214D01*
X14659500Y-24145214D01*
X14688071Y-24130929D01*
X14702357Y-24102357D01*
X14702357Y-24088071D01*
X14688071Y-24059500D01*
X14659500Y-24045214D01*
X14616643Y-24045214D01*
X14588071Y-24030929D01*
X14573786Y-24002357D01*
X14573786Y-23988071D01*
X14588071Y-23959500D01*
X14616643Y-23945214D01*
X14659500Y-23945214D01*
X14688071Y-23959500D01*
X14802357Y-24259500D02*
X14816643Y-24245214D01*
X14845214Y-24202357D01*
X14859500Y-24173786D01*
X14873786Y-24130929D01*
X14888071Y-24059500D01*
X14888071Y-24002357D01*
X14873786Y-23930929D01*
X14859500Y-23888071D01*
X14845214Y-23859500D01*
X14816643Y-23816643D01*
X14802357Y-23802357D01*
X7594500Y-24330500D02*
X7744500Y-24480500D01*
X7744500Y-24330500D02*
X7594500Y-24480500D01*
X7744500Y-24405500D02*
G75*
G03*
X7744500Y-24405500I-75000J0D01*
G01*
X8188071Y-24541214D02*
X8016643Y-24541214D01*
X8102357Y-24541214D02*
X8102357Y-24241214D01*
X8073786Y-24284071D01*
X8045214Y-24312643D01*
X8016643Y-24326929D01*
X8316643Y-24512643D02*
X8330928Y-24526929D01*
X8316643Y-24541214D01*
X8302357Y-24526929D01*
X8316643Y-24512643D01*
X8316643Y-24541214D01*
X8602357Y-24241214D02*
X8459500Y-24241214D01*
X8445214Y-24384071D01*
X8459500Y-24369786D01*
X8488071Y-24355500D01*
X8559500Y-24355500D01*
X8588071Y-24369786D01*
X8602357Y-24384071D01*
X8616643Y-24412643D01*
X8616643Y-24484071D01*
X8602357Y-24512643D01*
X8588071Y-24526929D01*
X8559500Y-24541214D01*
X8488071Y-24541214D01*
X8459500Y-24526929D01*
X8445214Y-24512643D01*
X8802357Y-24241214D02*
X8830928Y-24241214D01*
X8859500Y-24255500D01*
X8873786Y-24269786D01*
X8888071Y-24298357D01*
X8902357Y-24355500D01*
X8902357Y-24426929D01*
X8888071Y-24484071D01*
X8873786Y-24512643D01*
X8859500Y-24526929D01*
X8830928Y-24541214D01*
X8802357Y-24541214D01*
X8773786Y-24526929D01*
X8759500Y-24512643D01*
X8745214Y-24484071D01*
X8730928Y-24426929D01*
X8730928Y-24355500D01*
X8745214Y-24298357D01*
X8759500Y-24269786D01*
X8773786Y-24255500D01*
X8802357Y-24241214D01*
X9030928Y-24541214D02*
X9030928Y-24341214D01*
X9030928Y-24369786D02*
X9045214Y-24355500D01*
X9073786Y-24341214D01*
X9116643Y-24341214D01*
X9145214Y-24355500D01*
X9159500Y-24384071D01*
X9159500Y-24541214D01*
X9159500Y-24384071D02*
X9173786Y-24355500D01*
X9202357Y-24341214D01*
X9245214Y-24341214D01*
X9273786Y-24355500D01*
X9288071Y-24384071D01*
X9288071Y-24541214D01*
X9430928Y-24541214D02*
X9430928Y-24341214D01*
X9430928Y-24369786D02*
X9445214Y-24355500D01*
X9473786Y-24341214D01*
X9516643Y-24341214D01*
X9545214Y-24355500D01*
X9559500Y-24384071D01*
X9559500Y-24541214D01*
X9559500Y-24384071D02*
X9573786Y-24355500D01*
X9602357Y-24341214D01*
X9645214Y-24341214D01*
X9673786Y-24355500D01*
X9688071Y-24384071D01*
X9688071Y-24541214D01*
X10273786Y-24226929D02*
X10016643Y-24612643D01*
X10659500Y-24241214D02*
X10688071Y-24241214D01*
X10716643Y-24255500D01*
X10730928Y-24269786D01*
X10745214Y-24298357D01*
X10759500Y-24355500D01*
X10759500Y-24426929D01*
X10745214Y-24484071D01*
X10730928Y-24512643D01*
X10716643Y-24526929D01*
X10688071Y-24541214D01*
X10659500Y-24541214D01*
X10630928Y-24526929D01*
X10616643Y-24512643D01*
X10602357Y-24484071D01*
X10588071Y-24426929D01*
X10588071Y-24355500D01*
X10602357Y-24298357D01*
X10616643Y-24269786D01*
X10630928Y-24255500D01*
X10659500Y-24241214D01*
X10888071Y-24512643D02*
X10902357Y-24526929D01*
X10888071Y-24541214D01*
X10873786Y-24526929D01*
X10888071Y-24512643D01*
X10888071Y-24541214D01*
X11088071Y-24241214D02*
X11116643Y-24241214D01*
X11145214Y-24255500D01*
X11159500Y-24269786D01*
X11173786Y-24298357D01*
X11188071Y-24355500D01*
X11188071Y-24426929D01*
X11173786Y-24484071D01*
X11159500Y-24512643D01*
X11145214Y-24526929D01*
X11116643Y-24541214D01*
X11088071Y-24541214D01*
X11059500Y-24526929D01*
X11045214Y-24512643D01*
X11030928Y-24484071D01*
X11016643Y-24426929D01*
X11016643Y-24355500D01*
X11030928Y-24298357D01*
X11045214Y-24269786D01*
X11059500Y-24255500D01*
X11088071Y-24241214D01*
X11459500Y-24241214D02*
X11316643Y-24241214D01*
X11302357Y-24384071D01*
X11316643Y-24369786D01*
X11345214Y-24355500D01*
X11416643Y-24355500D01*
X11445214Y-24369786D01*
X11459500Y-24384071D01*
X11473786Y-24412643D01*
X11473786Y-24484071D01*
X11459500Y-24512643D01*
X11445214Y-24526929D01*
X11416643Y-24541214D01*
X11345214Y-24541214D01*
X11316643Y-24526929D01*
X11302357Y-24512643D01*
X11616643Y-24541214D02*
X11673786Y-24541214D01*
X11702357Y-24526929D01*
X11716643Y-24512643D01*
X11745214Y-24469786D01*
X11759500Y-24412643D01*
X11759500Y-24298357D01*
X11745214Y-24269786D01*
X11730928Y-24255500D01*
X11702357Y-24241214D01*
X11645214Y-24241214D01*
X11616643Y-24255500D01*
X11602357Y-24269786D01*
X11588071Y-24298357D01*
X11588071Y-24369786D01*
X11602357Y-24398357D01*
X11616643Y-24412643D01*
X11645214Y-24426929D01*
X11702357Y-24426929D01*
X11730928Y-24412643D01*
X11745214Y-24398357D01*
X11759500Y-24369786D01*
X11873786Y-24241214D02*
X11873786Y-24298357D01*
X11988071Y-24241214D02*
X11988071Y-24298357D01*
X12430928Y-24655500D02*
X12416643Y-24641214D01*
X12388071Y-24598357D01*
X12373786Y-24569786D01*
X12359500Y-24526929D01*
X12345214Y-24455500D01*
X12345214Y-24398357D01*
X12359500Y-24326929D01*
X12373786Y-24284071D01*
X12388071Y-24255500D01*
X12416643Y-24212643D01*
X12430928Y-24198357D01*
X12602357Y-24241214D02*
X12630928Y-24241214D01*
X12659500Y-24255500D01*
X12673786Y-24269786D01*
X12688071Y-24298357D01*
X12702357Y-24355500D01*
X12702357Y-24426929D01*
X12688071Y-24484071D01*
X12673786Y-24512643D01*
X12659500Y-24526929D01*
X12630928Y-24541214D01*
X12602357Y-24541214D01*
X12573786Y-24526929D01*
X12559500Y-24512643D01*
X12545214Y-24484071D01*
X12530928Y-24426929D01*
X12530928Y-24355500D01*
X12545214Y-24298357D01*
X12559500Y-24269786D01*
X12573786Y-24255500D01*
X12602357Y-24241214D01*
X13059500Y-24541214D02*
X13059500Y-24241214D01*
X13188071Y-24541214D02*
X13188071Y-24384071D01*
X13173786Y-24355500D01*
X13145214Y-24341214D01*
X13102357Y-24341214D01*
X13073786Y-24355500D01*
X13059500Y-24369786D01*
X13373786Y-24541214D02*
X13345214Y-24526929D01*
X13330928Y-24512643D01*
X13316643Y-24484071D01*
X13316643Y-24398357D01*
X13330928Y-24369786D01*
X13345214Y-24355500D01*
X13373786Y-24341214D01*
X13416643Y-24341214D01*
X13445214Y-24355500D01*
X13459500Y-24369786D01*
X13473786Y-24398357D01*
X13473786Y-24484071D01*
X13459500Y-24512643D01*
X13445214Y-24526929D01*
X13416643Y-24541214D01*
X13373786Y-24541214D01*
X13645214Y-24541214D02*
X13616643Y-24526929D01*
X13602357Y-24498357D01*
X13602357Y-24241214D01*
X13873786Y-24526929D02*
X13845214Y-24541214D01*
X13788071Y-24541214D01*
X13759500Y-24526929D01*
X13745214Y-24498357D01*
X13745214Y-24384071D01*
X13759500Y-24355500D01*
X13788071Y-24341214D01*
X13845214Y-24341214D01*
X13873786Y-24355500D01*
X13888071Y-24384071D01*
X13888071Y-24412643D01*
X13745214Y-24441214D01*
X14002357Y-24526929D02*
X14030928Y-24541214D01*
X14088071Y-24541214D01*
X14116643Y-24526929D01*
X14130928Y-24498357D01*
X14130928Y-24484071D01*
X14116643Y-24455500D01*
X14088071Y-24441214D01*
X14045214Y-24441214D01*
X14016643Y-24426929D01*
X14002357Y-24398357D01*
X14002357Y-24384071D01*
X14016643Y-24355500D01*
X14045214Y-24341214D01*
X14088071Y-24341214D01*
X14116643Y-24355500D01*
X14488071Y-24426929D02*
X14716643Y-24426929D01*
X14602357Y-24541214D02*
X14602357Y-24312643D01*
X15073786Y-24269786D02*
X15088071Y-24255500D01*
X15116643Y-24241214D01*
X15188071Y-24241214D01*
X15216643Y-24255500D01*
X15230928Y-24269786D01*
X15245214Y-24298357D01*
X15245214Y-24326929D01*
X15230928Y-24369786D01*
X15059500Y-24541214D01*
X15245214Y-24541214D01*
X15588071Y-24526929D02*
X15616643Y-24541214D01*
X15673786Y-24541214D01*
X15702357Y-24526929D01*
X15716643Y-24498357D01*
X15716643Y-24484071D01*
X15702357Y-24455500D01*
X15673786Y-24441214D01*
X15630928Y-24441214D01*
X15602357Y-24426929D01*
X15588071Y-24398357D01*
X15588071Y-24384071D01*
X15602357Y-24355500D01*
X15630928Y-24341214D01*
X15673786Y-24341214D01*
X15702357Y-24355500D01*
X15888071Y-24541214D02*
X15859500Y-24526929D01*
X15845214Y-24498357D01*
X15845214Y-24241214D01*
X16045214Y-24541214D02*
X16016643Y-24526929D01*
X16002357Y-24512643D01*
X15988071Y-24484071D01*
X15988071Y-24398357D01*
X16002357Y-24369786D01*
X16016643Y-24355500D01*
X16045214Y-24341214D01*
X16088071Y-24341214D01*
X16116643Y-24355500D01*
X16130928Y-24369786D01*
X16145214Y-24398357D01*
X16145214Y-24484071D01*
X16130928Y-24512643D01*
X16116643Y-24526929D01*
X16088071Y-24541214D01*
X16045214Y-24541214D01*
X16230928Y-24341214D02*
X16345214Y-24341214D01*
X16273786Y-24241214D02*
X16273786Y-24498357D01*
X16288071Y-24526929D01*
X16316643Y-24541214D01*
X16345214Y-24541214D01*
X16430928Y-24526929D02*
X16459500Y-24541214D01*
X16516643Y-24541214D01*
X16545214Y-24526929D01*
X16559500Y-24498357D01*
X16559500Y-24484071D01*
X16545214Y-24455500D01*
X16516643Y-24441214D01*
X16473786Y-24441214D01*
X16445214Y-24426929D01*
X16430928Y-24398357D01*
X16430928Y-24384071D01*
X16445214Y-24355500D01*
X16473786Y-24341214D01*
X16516643Y-24341214D01*
X16545214Y-24355500D01*
X16659500Y-24655500D02*
X16673786Y-24641214D01*
X16702357Y-24598357D01*
X16716643Y-24569786D01*
X16730928Y-24526929D01*
X16745214Y-24455500D01*
X16745214Y-24398357D01*
X16730928Y-24326929D01*
X16716643Y-24284071D01*
X16702357Y-24255500D01*
X16673786Y-24212643D01*
X16659500Y-24198357D01*
M02*
