G04 #@! TF.GenerationSoftware,KiCad,Pcbnew,(5.1.9)-1*
G04 #@! TF.CreationDate,2021-06-02T15:51:45-04:00*
G04 #@! TF.ProjectId,version1,76657273-696f-46e3-912e-6b696361645f,rev?*
G04 #@! TF.SameCoordinates,Original*
G04 #@! TF.FileFunction,Soldermask,Top*
G04 #@! TF.FilePolarity,Negative*
%FSLAX46Y46*%
G04 Gerber Fmt 4.6, Leading zero omitted, Abs format (unit mm)*
G04 Created by KiCad (PCBNEW (5.1.9)-1) date 2021-06-02 15:51:45*
%MOMM*%
%LPD*%
G01*
G04 APERTURE LIST*
%ADD10R,2.000000X2.000000*%
%ADD11C,2.000000*%
%ADD12R,2.000000X3.200000*%
%ADD13C,1.750000*%
%ADD14C,2.250000*%
%ADD15C,3.987800*%
%ADD16C,3.048000*%
%ADD17C,3.500000*%
%ADD18C,0.650000*%
%ADD19O,1.000000X2.100000*%
%ADD20O,1.000000X1.600000*%
%ADD21O,1.700000X1.700000*%
%ADD22R,1.700000X1.700000*%
G04 APERTURE END LIST*
D10*
X381793750Y-95250000D03*
D11*
X384293750Y-95250000D03*
X386793750Y-95250000D03*
D12*
X378693750Y-87750000D03*
X389893750Y-87750000D03*
D11*
X381793750Y-80750000D03*
X386793750Y-80750000D03*
D13*
X356711250Y-137318750D03*
X346551250Y-137318750D03*
D14*
X347821250Y-134778750D03*
D15*
X351631250Y-137318750D03*
D14*
X354171250Y-132238750D03*
D13*
X99536250Y-137318750D03*
X89376250Y-137318750D03*
D14*
X90646250Y-134778750D03*
D15*
X94456250Y-137318750D03*
D14*
X96996250Y-132238750D03*
D15*
X334930750Y-126523750D03*
X358806750Y-126523750D03*
D16*
X334930750Y-111283750D03*
X358806750Y-111283750D03*
D13*
X351948750Y-118268750D03*
X341788750Y-118268750D03*
D14*
X343058750Y-115728750D03*
D15*
X346868750Y-118268750D03*
D14*
X349408750Y-113188750D03*
D15*
X161137600Y-186213750D03*
X261137400Y-186213750D03*
D16*
X161137600Y-201453750D03*
X261137400Y-201453750D03*
D13*
X216217500Y-194468750D03*
X206057500Y-194468750D03*
D14*
X207327500Y-191928750D03*
D15*
X211137500Y-194468750D03*
D14*
X213677500Y-189388750D03*
D15*
X332549500Y-164623750D03*
X356425500Y-164623750D03*
D16*
X332549500Y-149383750D03*
X356425500Y-149383750D03*
D13*
X349567500Y-156368750D03*
X339407500Y-156368750D03*
D14*
X340677500Y-153828750D03*
D15*
X344487500Y-156368750D03*
D14*
X347027500Y-151288750D03*
D15*
X89662000Y-183673750D03*
X113538000Y-183673750D03*
D16*
X89662000Y-168433750D03*
X113538000Y-168433750D03*
D13*
X106680000Y-175418750D03*
X96520000Y-175418750D03*
D14*
X97790000Y-172878750D03*
D15*
X101600000Y-175418750D03*
D14*
X104140000Y-170338750D03*
D13*
X101917500Y-156368750D03*
X91757500Y-156368750D03*
D14*
X93027500Y-153828750D03*
D15*
X96837500Y-156368750D03*
D14*
X99377500Y-151288750D03*
D13*
X335280000Y-175418750D03*
X325120000Y-175418750D03*
D14*
X326390000Y-172878750D03*
D15*
X330200000Y-175418750D03*
D14*
X332740000Y-170338750D03*
D13*
X97155000Y-194468750D03*
X86995000Y-194468750D03*
D14*
X88265000Y-191928750D03*
D15*
X92075000Y-194468750D03*
D14*
X94615000Y-189388750D03*
D13*
X120967500Y-194468750D03*
X110807500Y-194468750D03*
D14*
X112077500Y-191928750D03*
D15*
X115887500Y-194468750D03*
D14*
X118427500Y-189388750D03*
D13*
X144780000Y-194468750D03*
X134620000Y-194468750D03*
D14*
X135890000Y-191928750D03*
D15*
X139700000Y-194468750D03*
D14*
X142240000Y-189388750D03*
D13*
X123348750Y-89693750D03*
X113188750Y-89693750D03*
D14*
X114458750Y-87153750D03*
D15*
X118268750Y-89693750D03*
D14*
X120808750Y-84613750D03*
D13*
X142398750Y-89693750D03*
X132238750Y-89693750D03*
D14*
X133508750Y-87153750D03*
D15*
X137318750Y-89693750D03*
D14*
X139858750Y-84613750D03*
D13*
X161448750Y-89693750D03*
X151288750Y-89693750D03*
D14*
X152558750Y-87153750D03*
D15*
X156368750Y-89693750D03*
D14*
X158908750Y-84613750D03*
D13*
X180498750Y-89693750D03*
X170338750Y-89693750D03*
D14*
X171608750Y-87153750D03*
D15*
X175418750Y-89693750D03*
D14*
X177958750Y-84613750D03*
D13*
X209073750Y-89693750D03*
X198913750Y-89693750D03*
D14*
X200183750Y-87153750D03*
D15*
X203993750Y-89693750D03*
D14*
X206533750Y-84613750D03*
D13*
X228123750Y-89693750D03*
X217963750Y-89693750D03*
D14*
X219233750Y-87153750D03*
D15*
X223043750Y-89693750D03*
D14*
X225583750Y-84613750D03*
D13*
X247173750Y-89693750D03*
X237013750Y-89693750D03*
D14*
X238283750Y-87153750D03*
D15*
X242093750Y-89693750D03*
D14*
X244633750Y-84613750D03*
D13*
X266223750Y-89693750D03*
X256063750Y-89693750D03*
D14*
X257333750Y-87153750D03*
D15*
X261143750Y-89693750D03*
D14*
X263683750Y-84613750D03*
D13*
X294798750Y-89693750D03*
X284638750Y-89693750D03*
D14*
X285908750Y-87153750D03*
D15*
X289718750Y-89693750D03*
D14*
X292258750Y-84613750D03*
D13*
X313848750Y-89693750D03*
X303688750Y-89693750D03*
D14*
X304958750Y-87153750D03*
D15*
X308768750Y-89693750D03*
D14*
X311308750Y-84613750D03*
D13*
X332898750Y-89693750D03*
X322738750Y-89693750D03*
D14*
X324008750Y-87153750D03*
D15*
X327818750Y-89693750D03*
D14*
X330358750Y-84613750D03*
D13*
X351948750Y-89693750D03*
X341788750Y-89693750D03*
D14*
X343058750Y-87153750D03*
D15*
X346868750Y-89693750D03*
D14*
X349408750Y-84613750D03*
D13*
X94773750Y-118268750D03*
X84613750Y-118268750D03*
D14*
X85883750Y-115728750D03*
D15*
X89693750Y-118268750D03*
D14*
X92233750Y-113188750D03*
D13*
X113823750Y-118268750D03*
X103663750Y-118268750D03*
D14*
X104933750Y-115728750D03*
D15*
X108743750Y-118268750D03*
D14*
X111283750Y-113188750D03*
D13*
X132873750Y-118268750D03*
X122713750Y-118268750D03*
D14*
X123983750Y-115728750D03*
D15*
X127793750Y-118268750D03*
D14*
X130333750Y-113188750D03*
D13*
X151923750Y-118268750D03*
X141763750Y-118268750D03*
D14*
X143033750Y-115728750D03*
D15*
X146843750Y-118268750D03*
D14*
X149383750Y-113188750D03*
D13*
X170973750Y-118268750D03*
X160813750Y-118268750D03*
D14*
X162083750Y-115728750D03*
D15*
X165893750Y-118268750D03*
D14*
X168433750Y-113188750D03*
D13*
X190023750Y-118268750D03*
X179863750Y-118268750D03*
D14*
X181133750Y-115728750D03*
D15*
X184943750Y-118268750D03*
D14*
X187483750Y-113188750D03*
D13*
X209073750Y-118268750D03*
X198913750Y-118268750D03*
D14*
X200183750Y-115728750D03*
D15*
X203993750Y-118268750D03*
D14*
X206533750Y-113188750D03*
D13*
X228123750Y-118268750D03*
X217963750Y-118268750D03*
D14*
X219233750Y-115728750D03*
D15*
X223043750Y-118268750D03*
D14*
X225583750Y-113188750D03*
D13*
X247173750Y-118268750D03*
X237013750Y-118268750D03*
D14*
X238283750Y-115728750D03*
D15*
X242093750Y-118268750D03*
D14*
X244633750Y-113188750D03*
D13*
X266223750Y-118268750D03*
X256063750Y-118268750D03*
D14*
X257333750Y-115728750D03*
D15*
X261143750Y-118268750D03*
D14*
X263683750Y-113188750D03*
D13*
X285273750Y-118268750D03*
X275113750Y-118268750D03*
D14*
X276383750Y-115728750D03*
D15*
X280193750Y-118268750D03*
D14*
X282733750Y-113188750D03*
D13*
X304323750Y-118268750D03*
X294163750Y-118268750D03*
D14*
X295433750Y-115728750D03*
D15*
X299243750Y-118268750D03*
D14*
X301783750Y-113188750D03*
D13*
X323373750Y-118268750D03*
X313213750Y-118268750D03*
D14*
X314483750Y-115728750D03*
D15*
X318293750Y-118268750D03*
D14*
X320833750Y-113188750D03*
D13*
X123348750Y-137318750D03*
X113188750Y-137318750D03*
D14*
X114458750Y-134778750D03*
D15*
X118268750Y-137318750D03*
D14*
X120808750Y-132238750D03*
D13*
X142398750Y-137318750D03*
X132238750Y-137318750D03*
D14*
X133508750Y-134778750D03*
D15*
X137318750Y-137318750D03*
D14*
X139858750Y-132238750D03*
D13*
X180498750Y-137318750D03*
X170338750Y-137318750D03*
D14*
X171608750Y-134778750D03*
D15*
X175418750Y-137318750D03*
D14*
X177958750Y-132238750D03*
D13*
X199548750Y-137318750D03*
X189388750Y-137318750D03*
D14*
X190658750Y-134778750D03*
D15*
X194468750Y-137318750D03*
D14*
X197008750Y-132238750D03*
D13*
X218598750Y-137318750D03*
X208438750Y-137318750D03*
D14*
X209708750Y-134778750D03*
D15*
X213518750Y-137318750D03*
D14*
X216058750Y-132238750D03*
D13*
X237648750Y-137318750D03*
X227488750Y-137318750D03*
D14*
X228758750Y-134778750D03*
D15*
X232568750Y-137318750D03*
D14*
X235108750Y-132238750D03*
D13*
X256698750Y-137318750D03*
X246538750Y-137318750D03*
D14*
X247808750Y-134778750D03*
D15*
X251618750Y-137318750D03*
D14*
X254158750Y-132238750D03*
D13*
X275748750Y-137318750D03*
X265588750Y-137318750D03*
D14*
X266858750Y-134778750D03*
D15*
X270668750Y-137318750D03*
D14*
X273208750Y-132238750D03*
D13*
X313848750Y-137318750D03*
X303688750Y-137318750D03*
D14*
X304958750Y-134778750D03*
D15*
X308768750Y-137318750D03*
D14*
X311308750Y-132238750D03*
D13*
X332898750Y-137318750D03*
X322738750Y-137318750D03*
D14*
X324008750Y-134778750D03*
D15*
X327818750Y-137318750D03*
D14*
X330358750Y-132238750D03*
D13*
X128111250Y-156368750D03*
X117951250Y-156368750D03*
D14*
X119221250Y-153828750D03*
D15*
X123031250Y-156368750D03*
D14*
X125571250Y-151288750D03*
D13*
X147161250Y-156368750D03*
X137001250Y-156368750D03*
D14*
X138271250Y-153828750D03*
D15*
X142081250Y-156368750D03*
D14*
X144621250Y-151288750D03*
D13*
X166211250Y-156368750D03*
X156051250Y-156368750D03*
D14*
X157321250Y-153828750D03*
D15*
X161131250Y-156368750D03*
D14*
X163671250Y-151288750D03*
D13*
X185261250Y-156368750D03*
X175101250Y-156368750D03*
D14*
X176371250Y-153828750D03*
D15*
X180181250Y-156368750D03*
D14*
X182721250Y-151288750D03*
D13*
X242411250Y-156368750D03*
X232251250Y-156368750D03*
D14*
X233521250Y-153828750D03*
D15*
X237331250Y-156368750D03*
D14*
X239871250Y-151288750D03*
D13*
X261461250Y-156368750D03*
X251301250Y-156368750D03*
D14*
X252571250Y-153828750D03*
D15*
X256381250Y-156368750D03*
D14*
X258921250Y-151288750D03*
D13*
X280511250Y-156368750D03*
X270351250Y-156368750D03*
D14*
X271621250Y-153828750D03*
D15*
X275431250Y-156368750D03*
D14*
X277971250Y-151288750D03*
D13*
X299561250Y-156368750D03*
X289401250Y-156368750D03*
D14*
X290671250Y-153828750D03*
D15*
X294481250Y-156368750D03*
D14*
X297021250Y-151288750D03*
D13*
X318611250Y-156368750D03*
X308451250Y-156368750D03*
D14*
X309721250Y-153828750D03*
D15*
X313531250Y-156368750D03*
D14*
X316071250Y-151288750D03*
D13*
X390048750Y-156368750D03*
X379888750Y-156368750D03*
D14*
X381158750Y-153828750D03*
D15*
X384968750Y-156368750D03*
D14*
X387508750Y-151288750D03*
D13*
X156686250Y-175418750D03*
X146526250Y-175418750D03*
D14*
X147796250Y-172878750D03*
D15*
X151606250Y-175418750D03*
D14*
X154146250Y-170338750D03*
D13*
X175736250Y-175418750D03*
X165576250Y-175418750D03*
D14*
X166846250Y-172878750D03*
D15*
X170656250Y-175418750D03*
D14*
X173196250Y-170338750D03*
D13*
X194786250Y-175418750D03*
X184626250Y-175418750D03*
D14*
X185896250Y-172878750D03*
D15*
X189706250Y-175418750D03*
D14*
X192246250Y-170338750D03*
D13*
X213836250Y-175418750D03*
X203676250Y-175418750D03*
D14*
X204946250Y-172878750D03*
D15*
X208756250Y-175418750D03*
D14*
X211296250Y-170338750D03*
D13*
X232886250Y-175418750D03*
X222726250Y-175418750D03*
D14*
X223996250Y-172878750D03*
D15*
X227806250Y-175418750D03*
D14*
X230346250Y-170338750D03*
D13*
X251936250Y-175418750D03*
X241776250Y-175418750D03*
D14*
X243046250Y-172878750D03*
D15*
X246856250Y-175418750D03*
D14*
X249396250Y-170338750D03*
D13*
X270986250Y-175418750D03*
X260826250Y-175418750D03*
D14*
X262096250Y-172878750D03*
D15*
X265906250Y-175418750D03*
D14*
X268446250Y-170338750D03*
D13*
X290036250Y-175418750D03*
X279876250Y-175418750D03*
D14*
X281146250Y-172878750D03*
D15*
X284956250Y-175418750D03*
D14*
X287496250Y-170338750D03*
D13*
X309086250Y-175418750D03*
X298926250Y-175418750D03*
D14*
X300196250Y-172878750D03*
D15*
X304006250Y-175418750D03*
D14*
X306546250Y-170338750D03*
D13*
X390048750Y-175418750D03*
X379888750Y-175418750D03*
D14*
X381158750Y-172878750D03*
D15*
X384968750Y-175418750D03*
D14*
X387508750Y-170338750D03*
D13*
X304323750Y-194468750D03*
X294163750Y-194468750D03*
D14*
X295433750Y-191928750D03*
D15*
X299243750Y-194468750D03*
D14*
X301783750Y-189388750D03*
D13*
X323373750Y-194468750D03*
X313213750Y-194468750D03*
D14*
X314483750Y-191928750D03*
D15*
X318293750Y-194468750D03*
D14*
X320833750Y-189388750D03*
D13*
X366236250Y-199231250D03*
X356076250Y-199231250D03*
D14*
X357346250Y-196691250D03*
D15*
X361156250Y-199231250D03*
D14*
X363696250Y-194151250D03*
D13*
X223361250Y-156368750D03*
X213201250Y-156368750D03*
D14*
X214471250Y-153828750D03*
D15*
X218281250Y-156368750D03*
D14*
X220821250Y-151288750D03*
D13*
X137636250Y-175418750D03*
X127476250Y-175418750D03*
D14*
X128746250Y-172878750D03*
D15*
X132556250Y-175418750D03*
D14*
X135096250Y-170338750D03*
D13*
X285273750Y-194468750D03*
X275113750Y-194468750D03*
D14*
X276383750Y-191928750D03*
D15*
X280193750Y-194468750D03*
D14*
X282733750Y-189388750D03*
D13*
X347186250Y-199231250D03*
X337026250Y-199231250D03*
D14*
X338296250Y-196691250D03*
D15*
X342106250Y-199231250D03*
D14*
X344646250Y-194151250D03*
D13*
X385286250Y-199231250D03*
X375126250Y-199231250D03*
D14*
X376396250Y-196691250D03*
D15*
X380206250Y-199231250D03*
D14*
X382746250Y-194151250D03*
D13*
X204311250Y-156368750D03*
X194151250Y-156368750D03*
D14*
X195421250Y-153828750D03*
D15*
X199231250Y-156368750D03*
D14*
X201771250Y-151288750D03*
D13*
X161448750Y-137318750D03*
X151288750Y-137318750D03*
D14*
X152558750Y-134778750D03*
D15*
X156368750Y-137318750D03*
D14*
X158908750Y-132238750D03*
D13*
X294798750Y-137318750D03*
X284638750Y-137318750D03*
D14*
X285908750Y-134778750D03*
D15*
X289718750Y-137318750D03*
D14*
X292258750Y-132238750D03*
D13*
X366236250Y-180181250D03*
X356076250Y-180181250D03*
D14*
X357346250Y-177641250D03*
D15*
X361156250Y-180181250D03*
D14*
X363696250Y-175101250D03*
D13*
X94773750Y-89693750D03*
X84613750Y-89693750D03*
D14*
X85883750Y-87153750D03*
D15*
X89693750Y-89693750D03*
D14*
X92233750Y-84613750D03*
D17*
X397764000Y-83820000D03*
D18*
X369602500Y-83243750D03*
X363822500Y-83243750D03*
D19*
X362392500Y-83773750D03*
X371032500Y-83773750D03*
D20*
X362392500Y-79593750D03*
X371032500Y-79593750D03*
D21*
X380523750Y-99218750D03*
X383063750Y-99218750D03*
X385603750Y-99218750D03*
D22*
X388143750Y-99218750D03*
D17*
X103886000Y-83820000D03*
X189534800Y-83820000D03*
X327406000Y-154940000D03*
X180340000Y-193040000D03*
M02*
