M48
; DRILL file {KiCad (5.1.9)-1} date 06/02/21 15:51:52
; FORMAT={-:-/ absolute / metric / decimal}
; #@! TF.CreationDate,2021-06-02T15:51:52-04:00
; #@! TF.GenerationSoftware,Kicad,Pcbnew,(5.1.9)-1
; #@! TF.FileFunction,Plated,1,2,PTH
FMAT,2
METRIC
T1C0.400
T2C0.600
T3C0.900
T4C1.000
T5C1.470
T6C1.500
%
G90
G05
T1
X80.01Y-115.773
X80.416Y-87.173
X82.55Y-134.772
X82.753Y-191.922
X87.579Y-153.772
X92.202Y-172.872
X99.314Y-115.418
X106.528Y-191.922
X107.848Y-134.468
X108.814Y-87.071
X113.792Y-153.721
X118.466Y-115.57
X122.428Y-172.822
X127.102Y-134.62
X127.965Y-86.97
X130.353Y-191.77
X132.74Y-153.721
X137.566Y-115.57
X141.326Y-172.822
X146.202Y-134.518
X147.117Y-87.02
X150.622Y-195.834
X151.841Y-153.721
X156.566Y-115.621
X160.528Y-172.568
X164.338Y-134.366
X166.218Y-87.02
X170.891Y-153.772
X175.616Y-115.621
X177.038Y-172.974
X183.896Y-134.62
X189.992Y-153.772
X194.716Y-115.672
X194.767Y-87.071
X198.222Y-172.669
X200.152Y-134.874
X201.676Y-191.821
X205.994Y-153.67
X212.598Y-204.47
X213.614Y-115.672
X213.919Y-87.071
X214.122Y-203.708
X215.138Y-172.72
X216.916Y-200.406
X219.456Y-201.168
X220.472Y-204.216
X221.488Y-202.184
X221.996Y-134.62
X223.266Y-189.23
X224.79Y-197.612
X224.857Y-189.684
X227.584Y-198.882
X227.99Y-153.67
X229.616Y-184.912
X229.87Y-192.532
X229.87Y-193.802
X229.87Y-195.072
X229.87Y-196.342
X231.14Y-192.532
X231.14Y-193.802
X231.14Y-195.072
X231.14Y-196.342
X232.41Y-192.532
X232.41Y-193.802
X232.41Y-195.072
X232.41Y-196.342
X232.664Y-115.672
X232.664Y-204.435
X232.918Y-87.122
X233.68Y-172.72
X233.68Y-192.532
X233.68Y-193.802
X233.68Y-195.072
X233.68Y-196.342
X234.188Y-200.914
X235.812Y-200.707
X238.252Y-185.42
X238.252Y-197.104
X239.776Y-200.152
X240.284Y-185.166
X240.538Y-134.518
X242.824Y-199.136
X243.84Y-188.468
X243.84Y-202.438
X245.618Y-193.802
X246.837Y-153.619
X251.816Y-115.672
X251.917Y-87.122
X255.422Y-172.618
X259.842Y-134.62
X265.989Y-153.772
X269.392Y-191.719
X270.764Y-115.672
X274.32Y-172.517
X280.365Y-134.722
X280.568Y-87.122
X284.48Y-153.619
X288.696Y-191.821
X289.814Y-115.316
X293.878Y-172.771
X298.45Y-134.62
X299.618Y-87.122
X304.089Y-153.67
X308.915Y-115.672
X308.915Y-191.821
X318.008Y-134.671
X318.516Y-87.071
X320.7Y-172.72
X331.47Y-196.545
X334.975Y-153.67
X337.515Y-115.773
X337.668Y-87.071
X341.986Y-134.62
X351.587Y-177.444
X351.688Y-196.545
X355.854Y-114.046
X356.616Y-144.272
X358.648Y-98.806
X361.95Y-101.092
X364.338Y-87.224
X364.338Y-90.272
X369.19Y-87.224
X369.316Y-135.89
X369.57Y-133.858
X369.57Y-144.272
X369.697Y-122.301
X370.891Y-196.596
X371.348Y-127.762
X372.364Y-79.756
X373.634Y-117.602
X373.634Y-122.301
X375.158Y-98.552
X375.463Y-153.721
X375.514Y-143.256
X375.564Y-172.822
X376.428Y-129.54
X376.428Y-131.572
X376.682Y-156.718
X377.444Y-135.128
X377.444Y-138.684
X377.952Y-98.806
X378.46Y-129.54
X378.46Y-131.572
X380.492Y-101.6
X381.0Y-127.508
X381.0Y-130.048
X381.0Y-135.128
X381.0Y-138.684
X381.508Y-119.38
X381.965Y-133.756
X382.27Y-122.301
X382.778Y-145.034
X383.032Y-117.602
X383.032Y-119.38
X383.032Y-127.508
X383.032Y-130.048
X386.334Y-134.874
X387.604Y-127.508
X387.604Y-130.048
X388.112Y-122.682
X388.874Y-114.046
X390.144Y-114.808
X390.398Y-144.424
X391.922Y-127.508
X393.141Y-97.282
X393.7Y-108.204
X394.462Y-118.364
X395.224Y-129.54
X395.783Y-125.222
X396.697Y-144.323
T3
X88.392Y-94.742
X88.392Y-123.317
X90.805Y-199.517
X90.932Y-94.742
X90.932Y-123.317
X93.218Y-142.367
X93.345Y-199.517
X95.504Y-161.417
X95.758Y-142.367
X98.044Y-161.417
X100.33Y-180.467
X102.87Y-180.467
X107.442Y-123.317
X109.982Y-123.317
X114.554Y-199.517
X116.967Y-94.742
X116.967Y-142.367
X117.094Y-199.517
X119.507Y-94.742
X119.507Y-142.367
X121.793Y-161.417
X124.333Y-161.417
X126.492Y-123.317
X129.032Y-123.317
X131.318Y-180.467
X133.858Y-180.467
X136.017Y-94.742
X136.017Y-142.367
X138.43Y-199.517
X138.557Y-94.742
X138.557Y-142.367
X140.843Y-161.417
X140.97Y-199.517
X143.383Y-161.417
X145.542Y-123.317
X148.082Y-123.317
X150.368Y-180.467
X152.908Y-180.467
X155.067Y-94.742
X155.067Y-142.367
X157.607Y-94.742
X157.607Y-142.367
X159.893Y-161.417
X162.433Y-161.417
X164.592Y-123.317
X167.132Y-123.317
X169.418Y-180.467
X171.958Y-180.467
X174.117Y-94.742
X174.117Y-142.367
X176.657Y-94.742
X176.657Y-142.367
X178.943Y-161.417
X181.483Y-161.417
X183.642Y-123.317
X186.182Y-123.317
X188.468Y-180.467
X191.008Y-180.467
X193.167Y-142.367
X195.707Y-142.367
X197.993Y-161.417
X200.533Y-161.417
X202.692Y-94.742
X202.692Y-123.317
X205.232Y-94.742
X205.232Y-123.317
X207.518Y-180.467
X209.931Y-199.517
X210.058Y-180.467
X212.217Y-142.367
X212.471Y-199.517
X214.757Y-142.367
X217.043Y-161.417
X219.583Y-161.417
X221.742Y-94.742
X221.742Y-123.317
X224.282Y-94.742
X224.282Y-123.317
X226.568Y-180.467
X229.108Y-180.467
X231.267Y-142.367
X233.807Y-142.367
X236.093Y-161.417
X238.633Y-161.417
X240.792Y-94.742
X240.792Y-123.317
X243.332Y-94.742
X243.332Y-123.317
X245.618Y-180.467
X248.158Y-180.467
X250.317Y-142.367
X252.857Y-142.367
X255.143Y-161.417
X257.683Y-161.417
X259.842Y-94.742
X259.842Y-123.317
X262.382Y-94.742
X262.382Y-123.317
X264.668Y-180.467
X267.208Y-180.467
X269.367Y-142.367
X271.907Y-142.367
X274.193Y-161.417
X276.733Y-161.417
X278.892Y-123.317
X278.892Y-199.517
X281.432Y-123.317
X281.432Y-199.517
X283.718Y-180.467
X286.258Y-180.467
X288.417Y-94.742
X288.417Y-142.367
X290.957Y-94.742
X290.957Y-142.367
X293.243Y-161.417
X295.783Y-161.417
X297.942Y-123.317
X297.942Y-199.517
X300.482Y-123.317
X300.482Y-199.517
X302.768Y-180.467
X305.308Y-180.467
X307.467Y-94.742
X307.467Y-142.367
X310.007Y-94.742
X310.007Y-142.367
X312.293Y-161.417
X314.833Y-161.417
X316.992Y-123.317
X316.992Y-199.517
X319.532Y-123.317
X319.532Y-199.517
X326.517Y-94.742
X326.517Y-142.367
X328.93Y-180.467
X329.057Y-94.742
X329.057Y-142.367
X331.47Y-180.467
X340.868Y-204.343
X343.281Y-161.417
X343.408Y-204.343
X345.567Y-94.742
X345.567Y-123.317
X345.821Y-161.417
X348.107Y-94.742
X348.107Y-123.317
X350.393Y-142.367
X352.933Y-142.367
X359.918Y-185.293
X359.918Y-204.343
X362.458Y-185.293
X362.458Y-204.343
X378.968Y-204.343
X381.508Y-204.343
X383.667Y-161.417
X383.667Y-180.467
X386.207Y-161.417
X386.207Y-180.467
T4
X380.524Y-99.219
X381.794Y-80.75
X381.794Y-95.25
X383.064Y-99.219
X384.294Y-95.25
X385.604Y-99.219
X386.794Y-80.75
X386.794Y-95.25
X388.144Y-99.219
X388.874Y-106.426
X388.874Y-108.966
X388.874Y-111.506
X391.414Y-106.426
X391.414Y-108.966
X391.414Y-111.506
T5
X85.884Y-87.154
X85.884Y-115.729
X88.265Y-191.929
X90.646Y-134.779
X92.234Y-84.614
X92.234Y-113.189
X93.027Y-153.829
X94.615Y-189.389
X96.996Y-132.239
X97.79Y-172.879
X99.377Y-151.289
X104.14Y-170.339
X104.934Y-115.729
X111.284Y-113.189
X112.078Y-191.929
X114.459Y-87.154
X114.459Y-134.779
X118.427Y-189.389
X119.221Y-153.829
X120.809Y-84.614
X120.809Y-132.239
X123.984Y-115.729
X125.571Y-151.289
X128.746Y-172.879
X130.334Y-113.189
X133.509Y-87.154
X133.509Y-134.779
X135.096Y-170.339
X135.89Y-191.929
X138.271Y-153.829
X139.859Y-84.614
X139.859Y-132.239
X142.24Y-189.389
X143.034Y-115.729
X144.621Y-151.289
X147.796Y-172.879
X149.384Y-113.189
X152.559Y-87.154
X152.559Y-134.779
X154.146Y-170.339
X157.321Y-153.829
X158.909Y-84.614
X158.909Y-132.239
X162.084Y-115.729
X163.671Y-151.289
X166.846Y-172.879
X168.434Y-113.189
X171.609Y-87.154
X171.609Y-134.779
X173.196Y-170.339
X176.371Y-153.829
X177.959Y-84.614
X177.959Y-132.239
X181.134Y-115.729
X182.721Y-151.289
X185.896Y-172.879
X187.484Y-113.189
X190.659Y-134.779
X192.246Y-170.339
X195.421Y-153.829
X197.009Y-132.239
X200.184Y-87.154
X200.184Y-115.729
X201.771Y-151.289
X204.946Y-172.879
X206.534Y-84.614
X206.534Y-113.189
X207.327Y-191.929
X209.709Y-134.779
X211.296Y-170.339
X213.677Y-189.389
X214.471Y-153.829
X216.059Y-132.239
X219.234Y-87.154
X219.234Y-115.729
X220.821Y-151.289
X223.996Y-172.879
X225.584Y-84.614
X225.584Y-113.189
X228.759Y-134.779
X230.346Y-170.339
X233.521Y-153.829
X235.109Y-132.239
X238.284Y-87.154
X238.284Y-115.729
X239.871Y-151.289
X243.046Y-172.879
X244.634Y-84.614
X244.634Y-113.189
X247.809Y-134.779
X249.396Y-170.339
X252.571Y-153.829
X254.159Y-132.239
X257.334Y-87.154
X257.334Y-115.729
X258.921Y-151.289
X262.096Y-172.879
X263.684Y-84.614
X263.684Y-113.189
X266.859Y-134.779
X268.446Y-170.339
X271.621Y-153.829
X273.209Y-132.239
X276.384Y-115.729
X276.384Y-191.929
X277.971Y-151.289
X281.146Y-172.879
X282.734Y-113.189
X282.734Y-189.389
X285.909Y-87.154
X285.909Y-134.779
X287.496Y-170.339
X290.671Y-153.829
X292.259Y-84.614
X292.259Y-132.239
X295.434Y-115.729
X295.434Y-191.929
X297.021Y-151.289
X300.196Y-172.879
X301.784Y-113.189
X301.784Y-189.389
X304.959Y-87.154
X304.959Y-134.779
X306.546Y-170.339
X309.721Y-153.829
X311.309Y-84.614
X311.309Y-132.239
X314.484Y-115.729
X314.484Y-191.929
X316.071Y-151.289
X320.834Y-113.189
X320.834Y-189.389
X324.009Y-87.154
X324.009Y-134.779
X326.39Y-172.879
X330.359Y-84.614
X330.359Y-132.239
X332.74Y-170.339
X338.296Y-196.691
X340.678Y-153.829
X343.059Y-87.154
X343.059Y-115.729
X344.646Y-194.151
X347.027Y-151.289
X347.821Y-134.779
X349.409Y-84.614
X349.409Y-113.189
X354.171Y-132.239
X357.346Y-177.641
X357.346Y-196.691
X363.696Y-175.101
X363.696Y-194.151
X376.396Y-196.691
X381.159Y-153.829
X381.159Y-172.879
X382.746Y-194.151
X387.509Y-151.289
X387.509Y-170.339
T2
X362.392Y-79.294G85X362.392Y-79.894
G05
X362.392Y-83.224G85X362.392Y-84.324
G05
X371.032Y-79.294G85X371.032Y-79.894
G05
X371.032Y-83.224G85X371.032Y-84.324
G05
T6
X378.694Y-88.4G85X378.694Y-87.1
G05
X389.894Y-88.4G85X389.894Y-87.1
G05
T0
M30
