G04 #@! TF.GenerationSoftware,KiCad,Pcbnew,(5.1.9)-1*
G04 #@! TF.CreationDate,2021-06-02T15:51:45-04:00*
G04 #@! TF.ProjectId,version1,76657273-696f-46e3-912e-6b696361645f,rev?*
G04 #@! TF.SameCoordinates,Original*
G04 #@! TF.FileFunction,Legend,Top*
G04 #@! TF.FilePolarity,Positive*
%FSLAX46Y46*%
G04 Gerber Fmt 4.6, Leading zero omitted, Abs format (unit mm)*
G04 Created by KiCad (PCBNEW (5.1.9)-1) date 2021-06-02 15:51:45*
%MOMM*%
%LPD*%
G01*
G04 APERTURE LIST*
%ADD10C,0.125000*%
%ADD11C,0.150000*%
%ADD12C,0.120000*%
%ADD13R,2.000000X2.000000*%
%ADD14C,2.000000*%
%ADD15R,2.000000X3.200000*%
%ADD16C,1.750000*%
%ADD17C,2.250000*%
%ADD18C,3.987800*%
%ADD19C,3.048000*%
%ADD20C,3.500000*%
%ADD21C,0.650000*%
%ADD22O,1.000000X2.100000*%
%ADD23O,1.000000X1.600000*%
%ADD24O,1.700000X1.700000*%
%ADD25R,1.700000X1.700000*%
G04 APERTURE END LIST*
D10*
X78970476Y-78192380D02*
X78970476Y-78906666D01*
X78946666Y-79049523D01*
X78899047Y-79144761D01*
X78827619Y-79192380D01*
X78780000Y-79192380D01*
X79446666Y-79192380D02*
X79208571Y-79192380D01*
X79208571Y-78192380D01*
X79899047Y-79097142D02*
X79875238Y-79144761D01*
X79803809Y-79192380D01*
X79756190Y-79192380D01*
X79684761Y-79144761D01*
X79637142Y-79049523D01*
X79613333Y-78954285D01*
X79589523Y-78763809D01*
X79589523Y-78620952D01*
X79613333Y-78430476D01*
X79637142Y-78335238D01*
X79684761Y-78240000D01*
X79756190Y-78192380D01*
X79803809Y-78192380D01*
X79875238Y-78240000D01*
X79899047Y-78287619D01*
X80256190Y-78192380D02*
X80256190Y-78906666D01*
X80232380Y-79049523D01*
X80184761Y-79144761D01*
X80113333Y-79192380D01*
X80065714Y-79192380D01*
X80732380Y-79192380D02*
X80494285Y-79192380D01*
X80494285Y-78192380D01*
X81184761Y-79097142D02*
X81160952Y-79144761D01*
X81089523Y-79192380D01*
X81041904Y-79192380D01*
X80970476Y-79144761D01*
X80922857Y-79049523D01*
X80899047Y-78954285D01*
X80875238Y-78763809D01*
X80875238Y-78620952D01*
X80899047Y-78430476D01*
X80922857Y-78335238D01*
X80970476Y-78240000D01*
X81041904Y-78192380D01*
X81089523Y-78192380D01*
X81160952Y-78240000D01*
X81184761Y-78287619D01*
X81541904Y-78192380D02*
X81541904Y-78906666D01*
X81518095Y-79049523D01*
X81470476Y-79144761D01*
X81399047Y-79192380D01*
X81351428Y-79192380D01*
X82018095Y-79192380D02*
X81780000Y-79192380D01*
X81780000Y-78192380D01*
X82470476Y-79097142D02*
X82446666Y-79144761D01*
X82375238Y-79192380D01*
X82327619Y-79192380D01*
X82256190Y-79144761D01*
X82208571Y-79049523D01*
X82184761Y-78954285D01*
X82160952Y-78763809D01*
X82160952Y-78620952D01*
X82184761Y-78430476D01*
X82208571Y-78335238D01*
X82256190Y-78240000D01*
X82327619Y-78192380D01*
X82375238Y-78192380D01*
X82446666Y-78240000D01*
X82470476Y-78287619D01*
X82827619Y-78192380D02*
X82827619Y-78906666D01*
X82803809Y-79049523D01*
X82756190Y-79144761D01*
X82684761Y-79192380D01*
X82637142Y-79192380D01*
X83303809Y-79192380D02*
X83065714Y-79192380D01*
X83065714Y-78192380D01*
X83756190Y-79097142D02*
X83732380Y-79144761D01*
X83660952Y-79192380D01*
X83613333Y-79192380D01*
X83541904Y-79144761D01*
X83494285Y-79049523D01*
X83470476Y-78954285D01*
X83446666Y-78763809D01*
X83446666Y-78620952D01*
X83470476Y-78430476D01*
X83494285Y-78335238D01*
X83541904Y-78240000D01*
X83613333Y-78192380D01*
X83660952Y-78192380D01*
X83732380Y-78240000D01*
X83756190Y-78287619D01*
D11*
X87807047Y-211216761D02*
X87807047Y-209216761D01*
X88473714Y-210645333D01*
X89140380Y-209216761D01*
X89140380Y-211216761D01*
X90949904Y-211216761D02*
X90949904Y-210169142D01*
X90854666Y-209978666D01*
X90664190Y-209883428D01*
X90283238Y-209883428D01*
X90092761Y-209978666D01*
X90949904Y-211121523D02*
X90759428Y-211216761D01*
X90283238Y-211216761D01*
X90092761Y-211121523D01*
X89997523Y-210931047D01*
X89997523Y-210740571D01*
X90092761Y-210550095D01*
X90283238Y-210454857D01*
X90759428Y-210454857D01*
X90949904Y-210359619D01*
X92759428Y-211216761D02*
X92759428Y-209216761D01*
X92759428Y-211121523D02*
X92568952Y-211216761D01*
X92187999Y-211216761D01*
X91997523Y-211121523D01*
X91902285Y-211026285D01*
X91807047Y-210835809D01*
X91807047Y-210264380D01*
X91902285Y-210073904D01*
X91997523Y-209978666D01*
X92187999Y-209883428D01*
X92568952Y-209883428D01*
X92759428Y-209978666D01*
X94473714Y-211121523D02*
X94283238Y-211216761D01*
X93902285Y-211216761D01*
X93711809Y-211121523D01*
X93616571Y-210931047D01*
X93616571Y-210169142D01*
X93711809Y-209978666D01*
X93902285Y-209883428D01*
X94283238Y-209883428D01*
X94473714Y-209978666D01*
X94568952Y-210169142D01*
X94568952Y-210359619D01*
X93616571Y-210550095D01*
X96949904Y-211216761D02*
X96949904Y-209216761D01*
X96949904Y-209978666D02*
X97140380Y-209883428D01*
X97521333Y-209883428D01*
X97711809Y-209978666D01*
X97807047Y-210073904D01*
X97902285Y-210264380D01*
X97902285Y-210835809D01*
X97807047Y-211026285D01*
X97711809Y-211121523D01*
X97521333Y-211216761D01*
X97140380Y-211216761D01*
X96949904Y-211121523D01*
X98568952Y-209883428D02*
X99045142Y-211216761D01*
X99521333Y-209883428D02*
X99045142Y-211216761D01*
X98854666Y-211692952D01*
X98759428Y-211788190D01*
X98568952Y-211883428D01*
X101807047Y-211216761D02*
X101807047Y-209216761D01*
X102283238Y-209216761D01*
X102568952Y-209312000D01*
X102759428Y-209502476D01*
X102854666Y-209692952D01*
X102949904Y-210073904D01*
X102949904Y-210359619D01*
X102854666Y-210740571D01*
X102759428Y-210931047D01*
X102568952Y-211121523D01*
X102283238Y-211216761D01*
X101807047Y-211216761D01*
X104664190Y-211216761D02*
X104664190Y-210169142D01*
X104568952Y-209978666D01*
X104378476Y-209883428D01*
X103997523Y-209883428D01*
X103807047Y-209978666D01*
X104664190Y-211121523D02*
X104473714Y-211216761D01*
X103997523Y-211216761D01*
X103807047Y-211121523D01*
X103711809Y-210931047D01*
X103711809Y-210740571D01*
X103807047Y-210550095D01*
X103997523Y-210454857D01*
X104473714Y-210454857D01*
X104664190Y-210359619D01*
X105616571Y-211216761D02*
X105616571Y-209216761D01*
X105807047Y-210454857D02*
X106378476Y-211216761D01*
X106378476Y-209883428D02*
X105616571Y-210645333D01*
X107521333Y-211216761D02*
X107330857Y-211121523D01*
X107235619Y-211026285D01*
X107140380Y-210835809D01*
X107140380Y-210264380D01*
X107235619Y-210073904D01*
X107330857Y-209978666D01*
X107521333Y-209883428D01*
X107807047Y-209883428D01*
X107997523Y-209978666D01*
X108092761Y-210073904D01*
X108188000Y-210264380D01*
X108188000Y-210835809D01*
X108092761Y-211026285D01*
X107997523Y-211121523D01*
X107807047Y-211216761D01*
X107521333Y-211216761D01*
X108759428Y-209883428D02*
X109521333Y-209883428D01*
X109045142Y-209216761D02*
X109045142Y-210931047D01*
X109140380Y-211121523D01*
X109330857Y-211216761D01*
X109521333Y-211216761D01*
X111045142Y-211216761D02*
X111045142Y-210169142D01*
X110949904Y-209978666D01*
X110759428Y-209883428D01*
X110378476Y-209883428D01*
X110188000Y-209978666D01*
X111045142Y-211121523D02*
X110854666Y-211216761D01*
X110378476Y-211216761D01*
X110188000Y-211121523D01*
X110092761Y-210931047D01*
X110092761Y-210740571D01*
X110188000Y-210550095D01*
X110378476Y-210454857D01*
X110854666Y-210454857D01*
X111045142Y-210359619D01*
X113521333Y-211216761D02*
X113521333Y-209216761D01*
X114283238Y-209216761D01*
X114473714Y-209312000D01*
X114568952Y-209407238D01*
X114664190Y-209597714D01*
X114664190Y-209883428D01*
X114568952Y-210073904D01*
X114473714Y-210169142D01*
X114283238Y-210264380D01*
X113521333Y-210264380D01*
X116378476Y-211216761D02*
X116378476Y-210169142D01*
X116283238Y-209978666D01*
X116092761Y-209883428D01*
X115711809Y-209883428D01*
X115521333Y-209978666D01*
X116378476Y-211121523D02*
X116187999Y-211216761D01*
X115711809Y-211216761D01*
X115521333Y-211121523D01*
X115426095Y-210931047D01*
X115426095Y-210740571D01*
X115521333Y-210550095D01*
X115711809Y-210454857D01*
X116187999Y-210454857D01*
X116378476Y-210359619D01*
X117140380Y-211216761D02*
X118187999Y-209883428D01*
X117140380Y-209883428D02*
X118187999Y-211216761D01*
X118664190Y-209883428D02*
X119426095Y-209883428D01*
X118949904Y-209216761D02*
X118949904Y-210931047D01*
X119045142Y-211121523D01*
X119235619Y-211216761D01*
X119426095Y-211216761D01*
X120378476Y-211216761D02*
X120187999Y-211121523D01*
X120092761Y-211026285D01*
X119997523Y-210835809D01*
X119997523Y-210264380D01*
X120092761Y-210073904D01*
X120187999Y-209978666D01*
X120378476Y-209883428D01*
X120664190Y-209883428D01*
X120854666Y-209978666D01*
X120949904Y-210073904D01*
X121045142Y-210264380D01*
X121045142Y-210835809D01*
X120949904Y-211026285D01*
X120854666Y-211121523D01*
X120664190Y-211216761D01*
X120378476Y-211216761D01*
X121902285Y-209883428D02*
X121902285Y-211216761D01*
X121902285Y-210073904D02*
X121997523Y-209978666D01*
X122187999Y-209883428D01*
X122473714Y-209883428D01*
X122664190Y-209978666D01*
X122759428Y-210169142D01*
X122759428Y-211216761D01*
X125235619Y-211026285D02*
X125330857Y-211121523D01*
X125235619Y-211216761D01*
X125140380Y-211121523D01*
X125235619Y-211026285D01*
X125235619Y-211216761D01*
X125235619Y-209978666D02*
X125330857Y-210073904D01*
X125235619Y-210169142D01*
X125140380Y-210073904D01*
X125235619Y-209978666D01*
X125235619Y-210169142D01*
X125997523Y-211978666D02*
X126092761Y-211883428D01*
X126283238Y-211597714D01*
X126378476Y-211407238D01*
X126473714Y-211121523D01*
X126568952Y-210645333D01*
X126568952Y-210264380D01*
X126473714Y-209788190D01*
X126378476Y-209502476D01*
X126283238Y-209312000D01*
X126092761Y-209026285D01*
X125997523Y-208931047D01*
D12*
X387293750Y-87750000D02*
G75*
G03*
X387293750Y-87750000I-3000000J0D01*
G01*
X378393750Y-85750000D02*
X378393750Y-81650000D01*
X390193750Y-81650000D02*
X390193750Y-85750000D01*
X390193750Y-89750000D02*
X390193750Y-93850000D01*
X378393750Y-89750000D02*
X378393750Y-93850000D01*
X378393750Y-93850000D02*
X390193750Y-93850000D01*
X380493750Y-95250000D02*
X380193750Y-95550000D01*
X380193750Y-95550000D02*
X380193750Y-94950000D01*
X380193750Y-94950000D02*
X380493750Y-95250000D01*
X378393750Y-81650000D02*
X380793750Y-81650000D01*
X382993750Y-81650000D02*
X385593750Y-81650000D01*
X387793750Y-81650000D02*
X390193750Y-81650000D01*
X383793750Y-87750000D02*
X384793750Y-87750000D01*
X384293750Y-88250000D02*
X384293750Y-87250000D01*
X386873750Y-97888750D02*
X386873750Y-100548750D01*
X386873750Y-97888750D02*
X379193750Y-97888750D01*
X379193750Y-97888750D02*
X379193750Y-100548750D01*
X386873750Y-100548750D02*
X379193750Y-100548750D01*
X389473750Y-100548750D02*
X388143750Y-100548750D01*
X389473750Y-99218750D02*
X389473750Y-100548750D01*
D10*
X377319940Y-92759523D02*
X377081845Y-92926190D01*
X377319940Y-93045238D02*
X376819940Y-93045238D01*
X376819940Y-92854761D01*
X376843750Y-92807142D01*
X376867559Y-92783333D01*
X376915178Y-92759523D01*
X376986607Y-92759523D01*
X377034226Y-92783333D01*
X377058035Y-92807142D01*
X377081845Y-92854761D01*
X377081845Y-93045238D01*
X377058035Y-92545238D02*
X377058035Y-92378571D01*
X377319940Y-92307142D02*
X377319940Y-92545238D01*
X376819940Y-92545238D01*
X376819940Y-92307142D01*
X377319940Y-91830952D02*
X377319940Y-92116666D01*
X377319940Y-91973809D02*
X376819940Y-91973809D01*
X376891369Y-92021428D01*
X376938988Y-92069047D01*
X376962797Y-92116666D01*
D11*
D10*
X397383047Y-79546190D02*
X397383047Y-79046190D01*
X397383047Y-79284285D02*
X397668761Y-79284285D01*
X397668761Y-79546190D02*
X397668761Y-79046190D01*
X397883047Y-79093809D02*
X397906857Y-79070000D01*
X397954476Y-79046190D01*
X398073523Y-79046190D01*
X398121142Y-79070000D01*
X398144952Y-79093809D01*
X398168761Y-79141428D01*
X398168761Y-79189047D01*
X398144952Y-79260476D01*
X397859238Y-79546190D01*
X398168761Y-79546190D01*
D11*
D10*
X390639940Y-99385416D02*
X390997083Y-99385416D01*
X391068511Y-99409226D01*
X391116130Y-99456845D01*
X391139940Y-99528273D01*
X391139940Y-99575892D01*
X390687559Y-99171130D02*
X390663750Y-99147321D01*
X390639940Y-99099702D01*
X390639940Y-98980654D01*
X390663750Y-98933035D01*
X390687559Y-98909226D01*
X390735178Y-98885416D01*
X390782797Y-98885416D01*
X390854226Y-98909226D01*
X391139940Y-99194940D01*
X391139940Y-98885416D01*
D11*
D10*
X103505047Y-79546190D02*
X103505047Y-79046190D01*
X103505047Y-79284285D02*
X103790761Y-79284285D01*
X103790761Y-79546190D02*
X103790761Y-79046190D01*
X104266952Y-79046190D02*
X104028857Y-79046190D01*
X104005047Y-79284285D01*
X104028857Y-79260476D01*
X104076476Y-79236666D01*
X104195523Y-79236666D01*
X104243142Y-79260476D01*
X104266952Y-79284285D01*
X104290761Y-79331904D01*
X104290761Y-79450952D01*
X104266952Y-79498571D01*
X104243142Y-79522380D01*
X104195523Y-79546190D01*
X104076476Y-79546190D01*
X104028857Y-79522380D01*
X104005047Y-79498571D01*
D11*
D10*
X189153847Y-79546190D02*
X189153847Y-79046190D01*
X189153847Y-79284285D02*
X189439561Y-79284285D01*
X189439561Y-79546190D02*
X189439561Y-79046190D01*
X189891942Y-79212857D02*
X189891942Y-79546190D01*
X189772895Y-79022380D02*
X189653847Y-79379523D01*
X189963371Y-79379523D01*
D11*
D10*
X327025047Y-150666190D02*
X327025047Y-150166190D01*
X327025047Y-150404285D02*
X327310761Y-150404285D01*
X327310761Y-150666190D02*
X327310761Y-150166190D01*
X327501238Y-150166190D02*
X327810761Y-150166190D01*
X327644095Y-150356666D01*
X327715523Y-150356666D01*
X327763142Y-150380476D01*
X327786952Y-150404285D01*
X327810761Y-150451904D01*
X327810761Y-150570952D01*
X327786952Y-150618571D01*
X327763142Y-150642380D01*
X327715523Y-150666190D01*
X327572666Y-150666190D01*
X327525047Y-150642380D01*
X327501238Y-150618571D01*
D11*
D10*
X179959047Y-188766190D02*
X179959047Y-188266190D01*
X179959047Y-188504285D02*
X180244761Y-188504285D01*
X180244761Y-188766190D02*
X180244761Y-188266190D01*
X180744761Y-188766190D02*
X180459047Y-188766190D01*
X180601904Y-188766190D02*
X180601904Y-188266190D01*
X180554285Y-188337619D01*
X180506666Y-188385238D01*
X180459047Y-188409047D01*
D11*
%LPC*%
D13*
X381793750Y-95250000D03*
D14*
X384293750Y-95250000D03*
X386793750Y-95250000D03*
D15*
X378693750Y-87750000D03*
X389893750Y-87750000D03*
D14*
X381793750Y-80750000D03*
X386793750Y-80750000D03*
D16*
X356711250Y-137318750D03*
X346551250Y-137318750D03*
D17*
X347821250Y-134778750D03*
D18*
X351631250Y-137318750D03*
D17*
X354171250Y-132238750D03*
D16*
X99536250Y-137318750D03*
X89376250Y-137318750D03*
D17*
X90646250Y-134778750D03*
D18*
X94456250Y-137318750D03*
D17*
X96996250Y-132238750D03*
D18*
X334930750Y-126523750D03*
X358806750Y-126523750D03*
D19*
X334930750Y-111283750D03*
X358806750Y-111283750D03*
D16*
X351948750Y-118268750D03*
X341788750Y-118268750D03*
D17*
X343058750Y-115728750D03*
D18*
X346868750Y-118268750D03*
D17*
X349408750Y-113188750D03*
D18*
X161137600Y-186213750D03*
X261137400Y-186213750D03*
D19*
X161137600Y-201453750D03*
X261137400Y-201453750D03*
D16*
X216217500Y-194468750D03*
X206057500Y-194468750D03*
D17*
X207327500Y-191928750D03*
D18*
X211137500Y-194468750D03*
D17*
X213677500Y-189388750D03*
D18*
X332549500Y-164623750D03*
X356425500Y-164623750D03*
D19*
X332549500Y-149383750D03*
X356425500Y-149383750D03*
D16*
X349567500Y-156368750D03*
X339407500Y-156368750D03*
D17*
X340677500Y-153828750D03*
D18*
X344487500Y-156368750D03*
D17*
X347027500Y-151288750D03*
D18*
X89662000Y-183673750D03*
X113538000Y-183673750D03*
D19*
X89662000Y-168433750D03*
X113538000Y-168433750D03*
D16*
X106680000Y-175418750D03*
X96520000Y-175418750D03*
D17*
X97790000Y-172878750D03*
D18*
X101600000Y-175418750D03*
D17*
X104140000Y-170338750D03*
D16*
X101917500Y-156368750D03*
X91757500Y-156368750D03*
D17*
X93027500Y-153828750D03*
D18*
X96837500Y-156368750D03*
D17*
X99377500Y-151288750D03*
D16*
X335280000Y-175418750D03*
X325120000Y-175418750D03*
D17*
X326390000Y-172878750D03*
D18*
X330200000Y-175418750D03*
D17*
X332740000Y-170338750D03*
D16*
X97155000Y-194468750D03*
X86995000Y-194468750D03*
D17*
X88265000Y-191928750D03*
D18*
X92075000Y-194468750D03*
D17*
X94615000Y-189388750D03*
D16*
X120967500Y-194468750D03*
X110807500Y-194468750D03*
D17*
X112077500Y-191928750D03*
D18*
X115887500Y-194468750D03*
D17*
X118427500Y-189388750D03*
D16*
X144780000Y-194468750D03*
X134620000Y-194468750D03*
D17*
X135890000Y-191928750D03*
D18*
X139700000Y-194468750D03*
D17*
X142240000Y-189388750D03*
D16*
X123348750Y-89693750D03*
X113188750Y-89693750D03*
D17*
X114458750Y-87153750D03*
D18*
X118268750Y-89693750D03*
D17*
X120808750Y-84613750D03*
D16*
X142398750Y-89693750D03*
X132238750Y-89693750D03*
D17*
X133508750Y-87153750D03*
D18*
X137318750Y-89693750D03*
D17*
X139858750Y-84613750D03*
D16*
X161448750Y-89693750D03*
X151288750Y-89693750D03*
D17*
X152558750Y-87153750D03*
D18*
X156368750Y-89693750D03*
D17*
X158908750Y-84613750D03*
D16*
X180498750Y-89693750D03*
X170338750Y-89693750D03*
D17*
X171608750Y-87153750D03*
D18*
X175418750Y-89693750D03*
D17*
X177958750Y-84613750D03*
D16*
X209073750Y-89693750D03*
X198913750Y-89693750D03*
D17*
X200183750Y-87153750D03*
D18*
X203993750Y-89693750D03*
D17*
X206533750Y-84613750D03*
D16*
X228123750Y-89693750D03*
X217963750Y-89693750D03*
D17*
X219233750Y-87153750D03*
D18*
X223043750Y-89693750D03*
D17*
X225583750Y-84613750D03*
D16*
X247173750Y-89693750D03*
X237013750Y-89693750D03*
D17*
X238283750Y-87153750D03*
D18*
X242093750Y-89693750D03*
D17*
X244633750Y-84613750D03*
D16*
X266223750Y-89693750D03*
X256063750Y-89693750D03*
D17*
X257333750Y-87153750D03*
D18*
X261143750Y-89693750D03*
D17*
X263683750Y-84613750D03*
D16*
X294798750Y-89693750D03*
X284638750Y-89693750D03*
D17*
X285908750Y-87153750D03*
D18*
X289718750Y-89693750D03*
D17*
X292258750Y-84613750D03*
D16*
X313848750Y-89693750D03*
X303688750Y-89693750D03*
D17*
X304958750Y-87153750D03*
D18*
X308768750Y-89693750D03*
D17*
X311308750Y-84613750D03*
D16*
X332898750Y-89693750D03*
X322738750Y-89693750D03*
D17*
X324008750Y-87153750D03*
D18*
X327818750Y-89693750D03*
D17*
X330358750Y-84613750D03*
D16*
X351948750Y-89693750D03*
X341788750Y-89693750D03*
D17*
X343058750Y-87153750D03*
D18*
X346868750Y-89693750D03*
D17*
X349408750Y-84613750D03*
D16*
X94773750Y-118268750D03*
X84613750Y-118268750D03*
D17*
X85883750Y-115728750D03*
D18*
X89693750Y-118268750D03*
D17*
X92233750Y-113188750D03*
D16*
X113823750Y-118268750D03*
X103663750Y-118268750D03*
D17*
X104933750Y-115728750D03*
D18*
X108743750Y-118268750D03*
D17*
X111283750Y-113188750D03*
D16*
X132873750Y-118268750D03*
X122713750Y-118268750D03*
D17*
X123983750Y-115728750D03*
D18*
X127793750Y-118268750D03*
D17*
X130333750Y-113188750D03*
D16*
X151923750Y-118268750D03*
X141763750Y-118268750D03*
D17*
X143033750Y-115728750D03*
D18*
X146843750Y-118268750D03*
D17*
X149383750Y-113188750D03*
D16*
X170973750Y-118268750D03*
X160813750Y-118268750D03*
D17*
X162083750Y-115728750D03*
D18*
X165893750Y-118268750D03*
D17*
X168433750Y-113188750D03*
D16*
X190023750Y-118268750D03*
X179863750Y-118268750D03*
D17*
X181133750Y-115728750D03*
D18*
X184943750Y-118268750D03*
D17*
X187483750Y-113188750D03*
D16*
X209073750Y-118268750D03*
X198913750Y-118268750D03*
D17*
X200183750Y-115728750D03*
D18*
X203993750Y-118268750D03*
D17*
X206533750Y-113188750D03*
D16*
X228123750Y-118268750D03*
X217963750Y-118268750D03*
D17*
X219233750Y-115728750D03*
D18*
X223043750Y-118268750D03*
D17*
X225583750Y-113188750D03*
D16*
X247173750Y-118268750D03*
X237013750Y-118268750D03*
D17*
X238283750Y-115728750D03*
D18*
X242093750Y-118268750D03*
D17*
X244633750Y-113188750D03*
D16*
X266223750Y-118268750D03*
X256063750Y-118268750D03*
D17*
X257333750Y-115728750D03*
D18*
X261143750Y-118268750D03*
D17*
X263683750Y-113188750D03*
D16*
X285273750Y-118268750D03*
X275113750Y-118268750D03*
D17*
X276383750Y-115728750D03*
D18*
X280193750Y-118268750D03*
D17*
X282733750Y-113188750D03*
D16*
X304323750Y-118268750D03*
X294163750Y-118268750D03*
D17*
X295433750Y-115728750D03*
D18*
X299243750Y-118268750D03*
D17*
X301783750Y-113188750D03*
D16*
X323373750Y-118268750D03*
X313213750Y-118268750D03*
D17*
X314483750Y-115728750D03*
D18*
X318293750Y-118268750D03*
D17*
X320833750Y-113188750D03*
D16*
X123348750Y-137318750D03*
X113188750Y-137318750D03*
D17*
X114458750Y-134778750D03*
D18*
X118268750Y-137318750D03*
D17*
X120808750Y-132238750D03*
D16*
X142398750Y-137318750D03*
X132238750Y-137318750D03*
D17*
X133508750Y-134778750D03*
D18*
X137318750Y-137318750D03*
D17*
X139858750Y-132238750D03*
D16*
X180498750Y-137318750D03*
X170338750Y-137318750D03*
D17*
X171608750Y-134778750D03*
D18*
X175418750Y-137318750D03*
D17*
X177958750Y-132238750D03*
D16*
X199548750Y-137318750D03*
X189388750Y-137318750D03*
D17*
X190658750Y-134778750D03*
D18*
X194468750Y-137318750D03*
D17*
X197008750Y-132238750D03*
D16*
X218598750Y-137318750D03*
X208438750Y-137318750D03*
D17*
X209708750Y-134778750D03*
D18*
X213518750Y-137318750D03*
D17*
X216058750Y-132238750D03*
D16*
X237648750Y-137318750D03*
X227488750Y-137318750D03*
D17*
X228758750Y-134778750D03*
D18*
X232568750Y-137318750D03*
D17*
X235108750Y-132238750D03*
D16*
X256698750Y-137318750D03*
X246538750Y-137318750D03*
D17*
X247808750Y-134778750D03*
D18*
X251618750Y-137318750D03*
D17*
X254158750Y-132238750D03*
D16*
X275748750Y-137318750D03*
X265588750Y-137318750D03*
D17*
X266858750Y-134778750D03*
D18*
X270668750Y-137318750D03*
D17*
X273208750Y-132238750D03*
D16*
X313848750Y-137318750D03*
X303688750Y-137318750D03*
D17*
X304958750Y-134778750D03*
D18*
X308768750Y-137318750D03*
D17*
X311308750Y-132238750D03*
D16*
X332898750Y-137318750D03*
X322738750Y-137318750D03*
D17*
X324008750Y-134778750D03*
D18*
X327818750Y-137318750D03*
D17*
X330358750Y-132238750D03*
D16*
X128111250Y-156368750D03*
X117951250Y-156368750D03*
D17*
X119221250Y-153828750D03*
D18*
X123031250Y-156368750D03*
D17*
X125571250Y-151288750D03*
D16*
X147161250Y-156368750D03*
X137001250Y-156368750D03*
D17*
X138271250Y-153828750D03*
D18*
X142081250Y-156368750D03*
D17*
X144621250Y-151288750D03*
D16*
X166211250Y-156368750D03*
X156051250Y-156368750D03*
D17*
X157321250Y-153828750D03*
D18*
X161131250Y-156368750D03*
D17*
X163671250Y-151288750D03*
D16*
X185261250Y-156368750D03*
X175101250Y-156368750D03*
D17*
X176371250Y-153828750D03*
D18*
X180181250Y-156368750D03*
D17*
X182721250Y-151288750D03*
D16*
X242411250Y-156368750D03*
X232251250Y-156368750D03*
D17*
X233521250Y-153828750D03*
D18*
X237331250Y-156368750D03*
D17*
X239871250Y-151288750D03*
D16*
X261461250Y-156368750D03*
X251301250Y-156368750D03*
D17*
X252571250Y-153828750D03*
D18*
X256381250Y-156368750D03*
D17*
X258921250Y-151288750D03*
D16*
X280511250Y-156368750D03*
X270351250Y-156368750D03*
D17*
X271621250Y-153828750D03*
D18*
X275431250Y-156368750D03*
D17*
X277971250Y-151288750D03*
D16*
X299561250Y-156368750D03*
X289401250Y-156368750D03*
D17*
X290671250Y-153828750D03*
D18*
X294481250Y-156368750D03*
D17*
X297021250Y-151288750D03*
D16*
X318611250Y-156368750D03*
X308451250Y-156368750D03*
D17*
X309721250Y-153828750D03*
D18*
X313531250Y-156368750D03*
D17*
X316071250Y-151288750D03*
D16*
X390048750Y-156368750D03*
X379888750Y-156368750D03*
D17*
X381158750Y-153828750D03*
D18*
X384968750Y-156368750D03*
D17*
X387508750Y-151288750D03*
D16*
X156686250Y-175418750D03*
X146526250Y-175418750D03*
D17*
X147796250Y-172878750D03*
D18*
X151606250Y-175418750D03*
D17*
X154146250Y-170338750D03*
D16*
X175736250Y-175418750D03*
X165576250Y-175418750D03*
D17*
X166846250Y-172878750D03*
D18*
X170656250Y-175418750D03*
D17*
X173196250Y-170338750D03*
D16*
X194786250Y-175418750D03*
X184626250Y-175418750D03*
D17*
X185896250Y-172878750D03*
D18*
X189706250Y-175418750D03*
D17*
X192246250Y-170338750D03*
D16*
X213836250Y-175418750D03*
X203676250Y-175418750D03*
D17*
X204946250Y-172878750D03*
D18*
X208756250Y-175418750D03*
D17*
X211296250Y-170338750D03*
D16*
X232886250Y-175418750D03*
X222726250Y-175418750D03*
D17*
X223996250Y-172878750D03*
D18*
X227806250Y-175418750D03*
D17*
X230346250Y-170338750D03*
D16*
X251936250Y-175418750D03*
X241776250Y-175418750D03*
D17*
X243046250Y-172878750D03*
D18*
X246856250Y-175418750D03*
D17*
X249396250Y-170338750D03*
D16*
X270986250Y-175418750D03*
X260826250Y-175418750D03*
D17*
X262096250Y-172878750D03*
D18*
X265906250Y-175418750D03*
D17*
X268446250Y-170338750D03*
D16*
X290036250Y-175418750D03*
X279876250Y-175418750D03*
D17*
X281146250Y-172878750D03*
D18*
X284956250Y-175418750D03*
D17*
X287496250Y-170338750D03*
D16*
X309086250Y-175418750D03*
X298926250Y-175418750D03*
D17*
X300196250Y-172878750D03*
D18*
X304006250Y-175418750D03*
D17*
X306546250Y-170338750D03*
D16*
X390048750Y-175418750D03*
X379888750Y-175418750D03*
D17*
X381158750Y-172878750D03*
D18*
X384968750Y-175418750D03*
D17*
X387508750Y-170338750D03*
D16*
X304323750Y-194468750D03*
X294163750Y-194468750D03*
D17*
X295433750Y-191928750D03*
D18*
X299243750Y-194468750D03*
D17*
X301783750Y-189388750D03*
D16*
X323373750Y-194468750D03*
X313213750Y-194468750D03*
D17*
X314483750Y-191928750D03*
D18*
X318293750Y-194468750D03*
D17*
X320833750Y-189388750D03*
D16*
X366236250Y-199231250D03*
X356076250Y-199231250D03*
D17*
X357346250Y-196691250D03*
D18*
X361156250Y-199231250D03*
D17*
X363696250Y-194151250D03*
D16*
X223361250Y-156368750D03*
X213201250Y-156368750D03*
D17*
X214471250Y-153828750D03*
D18*
X218281250Y-156368750D03*
D17*
X220821250Y-151288750D03*
D16*
X137636250Y-175418750D03*
X127476250Y-175418750D03*
D17*
X128746250Y-172878750D03*
D18*
X132556250Y-175418750D03*
D17*
X135096250Y-170338750D03*
D16*
X285273750Y-194468750D03*
X275113750Y-194468750D03*
D17*
X276383750Y-191928750D03*
D18*
X280193750Y-194468750D03*
D17*
X282733750Y-189388750D03*
D16*
X347186250Y-199231250D03*
X337026250Y-199231250D03*
D17*
X338296250Y-196691250D03*
D18*
X342106250Y-199231250D03*
D17*
X344646250Y-194151250D03*
D16*
X385286250Y-199231250D03*
X375126250Y-199231250D03*
D17*
X376396250Y-196691250D03*
D18*
X380206250Y-199231250D03*
D17*
X382746250Y-194151250D03*
D16*
X204311250Y-156368750D03*
X194151250Y-156368750D03*
D17*
X195421250Y-153828750D03*
D18*
X199231250Y-156368750D03*
D17*
X201771250Y-151288750D03*
D16*
X161448750Y-137318750D03*
X151288750Y-137318750D03*
D17*
X152558750Y-134778750D03*
D18*
X156368750Y-137318750D03*
D17*
X158908750Y-132238750D03*
D16*
X294798750Y-137318750D03*
X284638750Y-137318750D03*
D17*
X285908750Y-134778750D03*
D18*
X289718750Y-137318750D03*
D17*
X292258750Y-132238750D03*
D16*
X366236250Y-180181250D03*
X356076250Y-180181250D03*
D17*
X357346250Y-177641250D03*
D18*
X361156250Y-180181250D03*
D17*
X363696250Y-175101250D03*
D16*
X94773750Y-89693750D03*
X84613750Y-89693750D03*
D17*
X85883750Y-87153750D03*
D18*
X89693750Y-89693750D03*
D17*
X92233750Y-84613750D03*
D20*
X397764000Y-83820000D03*
D21*
X369602500Y-83243750D03*
X363822500Y-83243750D03*
D22*
X362392500Y-83773750D03*
X371032500Y-83773750D03*
D23*
X362392500Y-79593750D03*
X371032500Y-79593750D03*
D24*
X380523750Y-99218750D03*
X383063750Y-99218750D03*
X385603750Y-99218750D03*
D25*
X388143750Y-99218750D03*
D20*
X103886000Y-83820000D03*
X189534800Y-83820000D03*
X327406000Y-154940000D03*
X180340000Y-193040000D03*
M02*
